<svg xmlns="http://www.w3.org/2000/svg" viewBox="0 0 100 100" fill="none" shape-rendering="auto" width="128" height="128"><metadata xmlns:rdf="http://www.w3.org/1999/02/22-rdf-syntax-ns#" xmlns:xsi="http://www.w3.org/2001/XMLSchema-instance" xmlns:dc="http://purl.org/dc/elements/1.1/" xmlns:dcterms="http://purl.org/dc/terms/"><rdf:RDF><rdf:Description><dc:title>Thumbs</dc:title><dc:creator>DiceBear</dc:creator><dc:source xsi:type="dcterms:URI">https://www.dicebear.com</dc:source><dcterms:license xsi:type="dcterms:URI">https://creativecommons.org/publicdomain/zero/1.0/</dcterms:license><dc:rights>„Thumbs” (https://www.dicebear.com) by „DiceBear”, licensed under „CC0 1.0” (https://creativecommons.org/publicdomain/zero/1.0/)</dc:rights></rdf:Description></rdf:RDF></metadata><mask id="viewboxMask"><rect width="100" height="100" rx="0" ry="0" x="0" y="0" fill="#fff" /></mask><g mask="url(#viewboxMask)"><rect fill="#000000" width="100" height="100" x="0" y="0" /><g transform="translate(4, 3) rotate(5 50 70)"><path d="M95 53.33C95 29.4 74.85 10 50 10S5 29.4 5 53.33V140h90V53.33Z" fill="#0a5b83"/><g transform="translate(29 33)"><g transform="translate(-14, -12) rotate(-15 21 21)"><g transform="translate(0 4)"><path d="M12 8c0 2.2-1.34 4-3 4s-3-1.8-3-4 1.34-4 3-4 3 1.8 3 4ZM30.5 5C27.29 5 26 6.36 26 7.04c0 3.4 1.29 1.35 4.5 1.35S35 10.43 35 7.04C35 6.36 33.71 5 30.5 5Z" fill="#ffffff"/></g><g transform="translate(6 24)"><path d="M15 10C6.79 10 3.02 3.88 4.22 3.12 5.42 2.35 6.1 6.6 15 6.49c8.9-.12 9.58-4.23 10.78-3.37C26.98 3.98 23.21 10 15 10Z" fill="#ffffff"/></g></g></g></g></g></svg>