<svg width="600" height="600" viewBox="0 0 600 600" fill="none" xmlns="http://www.w3.org/2000/svg">
<rect width="600" height="600" rx="57" fill="#D1F24A"/>
<path fill-rule="evenodd" clip-rule="evenodd" d="M299.999 74.0032C366.483 73.9517 434.287 74.5228 439.528 75.7884C465.278 81.7937 491.206 107.051 500.554 135.311C504.257 146.084 504.434 149.794 504.257 210.021V273.429H533.183C567.575 273.429 565.989 272.37 565.989 294.977C565.989 316.701 559.815 326.239 546.059 326.416C541.473 326.416 541.296 326.593 541.296 337.013V340.636C541.296 344.422 538.286 347.522 534.501 347.633L505.14 348.494L504.082 395.299C503.552 423.028 502.318 444.576 501.083 447.932C495.087 465.948 482.034 478.311 465.455 482.374L456.636 484.493V500.036C456.636 515.048 456.46 515.932 451.522 520.877L446.406 526H370.566L365.098 521.408C359.63 516.992 359.631 516.638 359.631 500.213V483.611H240.369V500.213C240.369 516.638 240.369 516.992 234.902 521.408L229.434 526H153.594L148.478 520.877C143.54 515.932 143.364 515.048 143.364 500.036V484.493L134.545 482.374C117.966 478.312 104.913 465.948 98.9167 447.932C97.6821 444.577 96.4475 423.029 95.9184 395.299L94.8604 348.494L65.4989 347.633C61.7144 347.522 58.7041 344.422 58.7041 340.636V337.013C58.7041 326.593 58.5264 326.416 53.9413 326.416C40.1845 326.239 34.0114 316.701 34.0113 294.977C34.0113 272.37 32.4242 273.429 66.8167 273.429H95.7427V210.021C95.5663 149.794 95.7426 146.084 99.4463 135.311C108.794 107.051 134.722 81.7935 160.472 75.7884C165.717 74.5229 233.517 73.9517 299.999 74.0032ZM323.298 280.494C318.536 280.494 316.066 281.731 313.421 284.91C310.022 289.286 305.452 292.235 300.116 293.651V293.713C300.077 293.703 300.038 293.692 299.999 293.682C299.96 293.692 299.922 293.703 299.884 293.713V293.651C294.548 292.235 289.978 289.286 286.579 284.91C283.934 281.731 281.464 280.494 276.702 280.494C271.058 280.494 270.353 281.025 270.353 284.91C270.354 290.739 281.641 303.102 290.636 307.164C293.628 308.545 296.782 309.482 299.999 310.014C303.216 309.482 306.371 308.545 309.364 307.164C318.359 303.102 329.646 290.739 329.647 284.91C329.647 281.025 328.941 280.494 323.298 280.494ZM220.262 199.248C205.094 199.248 194.688 213.555 194.511 234.573C194.512 255.767 205.8 269.896 222.555 269.896C239.134 269.896 249.188 259.123 250.599 239.871C251.833 222.386 245.307 208.079 233.138 201.897C230.492 200.484 224.671 199.248 220.262 199.248ZM379.738 199.248C375.329 199.248 369.508 200.484 366.862 201.897C354.693 208.079 348.166 222.386 349.401 239.871C350.812 259.123 360.866 269.896 377.445 269.896C394.2 269.896 405.488 255.767 405.489 234.573C405.312 213.555 394.906 199.248 379.738 199.248Z" fill="#212523"/>
</svg>


