<svg width="1024" height="1024" viewBox="0 0 1024 1024" fill="none" xmlns="http://www.w3.org/2000/svg">
<g clip-path="url(#clip0_148_63)">
<rect width="1024" height="1024" fill="#D1F24A"/>
<ellipse cx="355.5" cy="1016.5" rx="431.5" ry="40.5" fill="#171717"/>
<rect width="193.342" height="203.608" transform="matrix(-1 0 0 1 762.449 355.567)" fill="#212523"/>
<path d="M725.663 385.51H602.472" stroke="#D1F24A" stroke-width="7"/>
<path d="M708.553 408.608H619.582" stroke="#D1F24A" stroke-width="7"/>
<path d="M444.465 1005.01C447.403 989.931 450.406 976.941 452.364 963.819C454.033 954.894 453.661 945.706 451.276 936.944C448.89 928.183 444.554 920.074 438.59 913.227C434.273 908.111 428.819 904.077 422.664 901.447C416.508 898.817 409.823 897.664 403.142 898.081C396.789 897.871 390.491 899.313 384.861 902.265C379.232 905.217 374.464 909.579 371.024 914.924C378.205 918.71 381.535 912.313 385.974 910.681C410.78 901.28 432.78 910.681 439.308 936.793C442.198 948.25 442.751 960.172 440.934 971.847C439.117 983.523 434.968 994.713 428.733 1004.75C426.185 1009.22 422.66 1013.06 418.421 1015.97C414.182 1018.89 409.338 1020.81 404.252 1021.59C395.037 1023.44 385.641 1024.23 376.246 1023.94C348.11 1021.66 320.04 1018.52 292.034 1015.2C273.364 1013.04 254.628 1010.69 236.219 1007.1C223.208 1004.51 210.451 1000.77 198.095 995.937C186.357 991.102 176.57 982.486 170.285 971.457C167.297 967.303 165.412 962.459 164.806 957.378C164.201 952.297 164.896 947.146 166.825 942.407C171.806 930.699 174.743 918.224 175.507 905.523C170.35 915.185 167.609 920.146 165.063 925.107C162.974 929.285 161.015 933.594 159.187 938.164C147.828 965.255 123.348 966.039 104.155 958.923C89.8589 953.636 82.8739 941.101 81.7641 925.695C80.8355 906.053 83.6035 886.411 89.9242 867.79C98.7914 837.571 113.866 809.534 134.185 785.471C138.918 780.292 142.582 774.229 144.968 767.631C147.354 761.033 148.415 754.029 148.09 747.021C147.437 719.603 148.09 692.054 148.612 664.636C148.612 652.102 150.44 639.634 152.007 627.23C158.012 581.534 193.525 547.783 246.076 544.715C251.56 544.389 257.044 544.715 262.592 544.715L495.646 545.433C512.936 544.879 530.173 547.627 546.434 553.529C584.493 568.739 605.84 596.352 606.819 637.675C607.668 672.992 607.472 708.375 606.819 743.627C605.973 770.344 610.41 796.965 619.875 821.964C627.786 840.662 631.699 860.808 631.365 881.108C624.837 887.114 617.395 883.915 610.671 884.894C603.21 885.449 596.009 887.876 589.734 891.949C583.458 896.022 578.311 901.611 574.766 908.2C573.875 911.261 573.349 914.416 573.2 917.6C577.732 912.952 582.55 908.591 587.626 904.544C593.141 900.092 599.616 896.985 606.538 895.467C613.461 893.949 620.642 894.062 627.513 895.796C634.51 897.364 640.821 901.132 645.52 906.548C650.219 911.964 653.06 918.743 653.626 925.891C656.119 946.266 653.54 966.941 646.118 986.08C638.089 1006.32 623.205 1017.61 600.879 1016.96C574.766 1016.24 549.176 1015 523.325 1013.89C509.224 1013.24 495.123 1012.45 481.023 1011.87C468.53 1011.74 456.156 1009.42 444.465 1005.01ZM362.603 721.235C361.624 702.304 349.547 690.227 333.879 690.357C329.963 690.372 326.09 691.174 322.49 692.718C318.891 694.261 315.639 696.513 312.928 699.34C310.218 702.166 308.104 705.509 306.712 709.17C305.321 712.831 304.68 716.734 304.829 720.648C304.372 739.644 316.645 752.896 334.467 752.7C338.399 752.535 342.257 751.584 345.815 749.902C349.372 748.221 352.557 745.843 355.18 742.91C357.803 739.976 359.811 736.547 361.086 732.824C362.361 729.101 362.877 725.161 362.603 721.235ZM492.577 751.133C496.301 751.177 499.997 750.476 503.446 749.071C506.895 747.666 510.029 745.585 512.662 742.952C515.296 740.318 517.377 737.185 518.782 733.736C520.187 730.287 520.888 726.591 520.844 722.867C521.758 703.805 510.072 690.227 492.512 690.227C488.801 690.056 485.095 690.65 481.624 691.972C478.152 693.294 474.99 695.315 472.333 697.911C469.676 700.507 467.581 703.621 466.178 707.061C464.776 710.501 464.096 714.192 464.18 717.906C463.462 736.902 475.147 750.742 492.577 751.133ZM442.768 769.151C440.022 769.701 437.365 770.624 434.869 771.893C429.872 775.721 423.785 777.855 417.491 777.984C411.198 778.113 405.028 776.231 399.878 772.611C397.206 771.025 394.297 769.879 391.261 769.216C390.504 769.161 389.745 769.294 389.05 769.601C388.356 769.909 387.748 770.382 387.279 770.979C386.365 772.872 385.386 775.81 386.235 777.507C398.116 796.569 428.537 799.441 443.029 782.925C443.971 782.025 444.712 780.936 445.202 779.728C445.691 778.521 445.919 777.223 445.869 775.921C445.82 774.619 445.495 773.342 444.915 772.175C444.335 771.008 443.515 769.977 442.507 769.151H442.768Z" fill="#212523"/>
<path d="M625.295 709.816V694.344C632.28 687.816 640.506 690.231 648.078 690.166C706.831 690.166 765.584 690.166 824.337 690.166C846.337 690.166 868.271 690.166 890.271 690.166C912.271 690.166 924.478 678.089 925.653 655.306C925.653 649.888 925.653 644.339 925.653 638.855C925.653 517.955 925.653 397.076 925.653 276.219C925.653 269.691 925.653 263.62 925.653 257.353C925.779 249.785 923.023 242.452 917.944 236.84C912.865 231.228 905.843 227.757 898.3 227.129C890.533 226.103 882.694 225.732 874.864 226.019H528.875C502.241 226.019 475.541 226.019 448.841 226.019C443.366 225.788 437.883 226.05 432.455 226.802C424.555 227.656 417.25 231.403 411.947 237.321C406.644 243.239 403.718 250.909 403.732 258.855C403.209 265.905 403.34 273.021 403.34 280.071C403.34 353.839 403.34 427.628 403.34 501.439C403.34 508.489 403.34 515.539 402.426 522.59C401.997 524.89 400.748 526.958 398.911 528.407C397.073 529.856 394.771 530.589 392.434 530.469C390.097 530.35 387.882 529.386 386.202 527.757C384.522 526.127 383.49 523.944 383.299 521.611C382.711 515.083 382.711 509.077 382.711 502.81V269.691C382.711 264.991 382.711 260.226 382.711 255.526C383.033 242.419 388.335 229.926 397.539 220.589C406.744 211.251 419.158 205.769 432.259 205.259C437.743 204.867 443.227 205.259 448.71 205.259H881.98C887.464 205.259 892.947 205.259 898.431 205.259C910.312 205.85 921.627 210.515 930.473 218.469C939.318 226.423 945.155 237.181 947 248.932C948.514 258.998 949.147 269.177 948.893 279.353C948.893 377.493 948.893 475.631 948.893 573.771C948.893 598.055 948.893 622.404 948.893 646.754C949.015 654.601 948.447 662.443 947.196 670.191C945.225 680.673 939.945 690.248 932.132 697.51C924.318 704.771 914.383 709.335 903.784 710.534C898.318 711.078 892.825 711.296 887.333 711.186C807.299 711.186 727.242 711.186 647.164 711.186C639.983 710.991 633.782 710.338 625.295 709.816Z" fill="#212523"/>
<path d="M294.257 456.982C294.257 467.754 294.779 477.154 294.257 486.489C293.147 502.875 282.963 508.423 268.144 500.786C263.379 498.044 258.799 494.991 254.435 491.646C241.379 482.637 228.323 473.955 216.181 464.294C208.164 457.954 198.123 454.73 187.914 455.22C156.514 455.611 125.114 455.22 93.7136 455.22C82.7082 455.576 71.7732 453.34 61.7911 448.692C37.1802 436.68 22.2307 416.769 21.2515 389.939C19.75 350.77 19.4236 311.602 21.2515 272.433C21.7132 254.107 29.4343 236.716 42.7168 224.082C55.9994 211.448 73.756 204.607 92.0816 205.063C153.315 205.063 214.549 205.063 275.782 205.063C285.052 204.664 294.306 206.156 302.98 209.449C311.654 212.741 319.567 217.766 326.236 224.216C332.906 230.665 338.193 238.405 341.774 246.964C345.356 255.523 347.157 264.722 347.069 274C347.939 312.428 347.939 350.901 347.069 389.417C347.207 402.496 343.459 415.322 336.3 426.27C329.141 437.217 318.893 445.793 306.856 450.911L294.257 456.982ZM271.996 438.703C280.744 435.7 288.186 433.612 295.301 430.609C302.653 427.735 309.073 422.897 313.862 416.622C318.651 410.348 321.625 402.88 322.458 395.031C323.046 390.376 323.308 385.686 323.241 380.995C323.241 347.223 323.241 313.517 323.241 279.875C323.319 275.16 323.035 270.446 322.393 265.774C321.116 256.387 316.743 247.694 309.968 241.072C303.192 234.45 294.401 230.278 284.987 229.217C276.318 228.255 267.595 227.862 258.874 228.042C226.756 228.042 194.616 228.042 162.454 228.042C138.17 228.042 113.885 228.042 89.6009 228.89C62.9662 230 45.6014 247.169 45.0139 273.673C44.1434 311.275 44.1434 348.877 45.0139 386.479C45.6667 414.158 63.7497 430.87 91.6899 431.327C116.823 431.784 141.891 431.327 166.959 431.327C215.593 431.914 202.929 425.321 246.406 456.917C251.498 460.638 256.655 464.163 262.008 467.362C264.411 468.313 266.94 468.907 269.515 469.125C270.429 459.528 271.147 450.389 271.996 438.703Z" fill="#212523"/>
<path d="M625.295 668.555C624.918 652.118 623.5 635.721 621.052 619.463C616.752 604.107 611.364 589.075 604.928 574.485C609.87 573.536 614.86 572.86 619.877 572.461C651.995 572.461 684.135 572.461 716.297 572.461C719.437 572.385 722.579 572.538 725.698 572.918C730.053 573.163 734.157 575.037 737.193 578.17C740.229 581.303 741.975 585.464 742.083 589.826C742.671 596.354 742.475 602.36 742.475 608.626C742.475 623.511 742.475 638.46 742.148 653.344C741.691 664.768 735.62 672.145 725.306 672.21C693.253 672.21 661.135 671.753 629.082 671.361C628.56 671.231 627.972 670.644 625.295 668.555Z" fill="#212523"/>
<path d="M541.016 530.681C503.936 530.681 468.749 530.681 433.498 530.681C425.337 530.681 421.943 527.155 421.616 519.191C421.159 506.657 421.029 494.123 421.616 481.589C421.678 477.626 423.142 473.813 425.747 470.826C428.352 467.838 431.93 465.87 435.848 465.269C439.704 464.593 443.619 464.308 447.533 464.42C471.034 464.42 494.601 464.42 518.102 464.811C538.535 465.268 544.214 471.34 544.214 492.034C544.41 504.176 546.956 516.841 541.016 530.681Z" fill="#212523"/>
<path d="M362.603 721.242C362.877 725.168 362.361 729.108 361.086 732.831C359.811 736.554 357.803 739.983 355.18 742.917C352.557 745.85 349.372 748.228 345.815 749.909C342.257 751.591 338.399 752.542 334.467 752.707C316.645 752.707 304.372 739.652 304.829 720.655C304.68 716.741 305.321 712.838 306.712 709.177C308.104 705.516 310.218 702.173 312.928 699.347C315.639 696.52 318.891 694.268 322.491 692.725C326.09 691.182 329.963 690.379 333.879 690.364C349.547 690.234 361.624 702.311 362.603 721.242Z" fill="#D1F24A"/>
<path d="M492.579 751.137C475.279 750.746 463.464 736.906 464.247 717.91C464.163 714.196 464.843 710.505 466.245 707.065C467.647 703.625 469.743 700.511 472.4 697.915C475.057 695.319 478.219 693.298 481.691 691.976C485.162 690.654 488.868 690.06 492.579 690.231C510.139 690.231 521.825 704.07 520.911 722.871C520.955 726.601 520.252 730.301 518.843 733.755C517.434 737.209 515.347 740.345 512.707 742.98C510.066 745.614 506.925 747.693 503.468 749.094C500.011 750.495 496.309 751.19 492.579 751.137Z" fill="#D1F24A"/>
<path d="M442.511 769.154C443.443 770.015 444.186 771.06 444.694 772.223C445.203 773.386 445.465 774.641 445.465 775.91C445.465 777.179 445.203 778.435 444.694 779.598C444.186 780.76 443.443 781.805 442.511 782.667C428.019 799.183 397.598 796.31 385.717 777.248C384.868 775.812 385.717 772.875 386.762 770.72C387.23 770.123 387.838 769.65 388.533 769.342C389.227 769.035 389.986 768.903 390.744 768.958C393.779 769.621 396.689 770.766 399.361 772.352C404.51 775.972 410.68 777.855 416.974 777.726C423.267 777.597 429.355 775.462 434.351 771.634C436.943 770.432 439.689 769.597 442.511 769.154Z" fill="#D1F24A"/>
<path d="M271.997 438.7C271.148 450.385 270.43 459.525 269.647 469.317C267.072 469.1 264.542 468.506 262.139 467.555C256.786 464.356 251.629 461.027 246.537 457.11C203.06 425.514 215.725 432.107 167.09 431.519C142.022 431.519 116.955 431.519 91.8215 431.519C63.8813 431.062 46.1247 414.35 45.1455 386.671C44.2751 349.069 44.2751 311.467 45.1455 273.866C45.733 247.362 63.0979 230.193 89.7325 229.083C114.017 228.038 138.301 228.3 162.586 228.234C194.704 228.234 226.844 228.234 259.006 228.234C267.726 228.055 276.449 228.448 285.118 229.41C294.533 230.471 303.324 234.643 310.099 241.265C316.875 247.887 321.247 256.579 322.524 265.967C323.166 270.639 323.45 275.353 323.373 280.068C323.373 313.753 323.373 347.459 323.373 381.188C323.439 385.879 323.178 390.569 322.59 395.224C321.756 403.072 318.783 410.541 313.994 416.815C309.205 423.089 302.784 427.927 295.433 430.801C288.186 433.608 280.745 435.632 271.997 438.7ZM180.995 309.77H251.368C256.821 309.846 262.273 309.563 267.688 308.921C270.395 308.442 272.869 307.081 274.722 305.05C276.576 303.019 277.706 300.433 277.937 297.693C277.666 294.958 276.563 292.372 274.778 290.283C272.992 288.194 270.609 286.701 267.949 286.008C262.543 285.257 257.087 284.93 251.629 285.029C220.381 285.029 189.112 285.029 157.821 285.029C142.218 285.029 126.551 285.029 110.949 285.029C106.29 285.053 101.655 285.711 97.1742 286.987C94.5752 287.927 92.3878 289.747 90.9924 292.133C89.5969 294.518 89.0818 297.317 89.5365 300.043C89.8926 302.377 91.0053 304.529 92.7037 306.168C94.4021 307.808 96.5922 308.844 98.9369 309.117C104.381 309.661 109.853 309.879 115.323 309.77C137.257 309.835 159.126 309.77 180.995 309.77ZM163.826 350.636H152.141C135.756 350.636 119.5 350.636 102.984 350.636C94.8242 350.636 90.3198 354.879 89.9281 361.016C89.8584 362.789 90.1424 364.559 90.7633 366.222C91.3841 367.885 92.3293 369.408 93.5444 370.703C94.7595 371.997 96.2198 373.036 97.8404 373.76C99.4611 374.484 101.21 374.879 102.984 374.92C106.093 375.116 109.211 375.116 112.319 374.92H212.983C216.889 374.998 220.795 374.78 224.668 374.268C227.787 373.778 230.691 372.375 233.014 370.238C235.338 368.1 236.977 365.324 237.724 362.256C238.247 356.642 231.196 350.832 223.036 350.049C219.185 350.049 215.268 350.049 211.351 350.049L163.826 350.636Z" fill="#D1F24A"/>
<path d="M432.065 369.305C463.994 365.592 496.226 365.264 528.224 368.326C534.752 381.904 535.405 392.414 532.01 426.426C521.696 423.031 518.497 410.824 507.073 408.213L491.797 416.242L472.213 399.139C455.566 404.165 450.997 422.444 435.721 429.625C429.519 420.42 432.979 410.041 432.457 400.64C431.935 391.24 432.065 380.468 432.065 369.305ZM514.058 388.889C509.815 384.972 507.53 381.512 504.723 380.664C500.48 379.358 497.672 382.557 496.824 386.801C496.671 387.741 496.727 388.703 496.986 389.62C497.245 390.537 497.701 391.386 498.323 392.108C498.945 392.83 499.718 393.406 500.587 393.797C501.455 394.189 502.399 394.386 503.352 394.373C507.27 392.98 510.965 391.022 514.319 388.563L514.058 388.889Z" fill="#D1F24A"/>
<path d="M602.972 460.375C608.39 460.375 611.98 465.271 611.589 471.929C611.589 477.544 607.737 481.394 603.167 481.068C601.816 480.9 600.512 480.464 599.332 479.786C598.151 479.108 597.118 478.202 596.291 477.12C595.465 476.039 594.862 474.803 594.518 473.486C594.174 472.168 594.097 470.796 594.289 469.449C594.271 467.104 595.167 464.844 596.788 463.149C598.41 461.455 600.628 460.459 602.972 460.375Z" fill="#212523"/>
<path d="M180.993 309.773C159.124 309.773 137.255 309.773 115.32 309.773C109.85 309.882 104.379 309.664 98.9346 309.121C96.5899 308.847 94.3998 307.811 92.7013 306.172C91.0029 304.532 89.8902 302.38 89.5341 300.047C89.0794 297.321 89.5946 294.521 90.99 292.136C92.3855 289.751 94.5729 287.93 97.1719 286.99C101.653 285.715 106.287 285.056 110.946 285.033C126.549 285.033 142.216 285.033 157.818 285.033C189.066 285.033 220.336 285.033 251.627 285.033C257.084 284.934 262.541 285.26 267.947 286.011C270.607 286.705 272.989 288.197 274.775 290.286C276.561 292.376 277.664 294.962 277.935 297.697C277.704 300.436 276.573 303.023 274.72 305.053C272.866 307.084 270.393 308.445 267.686 308.925C262.27 309.566 256.818 309.85 251.366 309.773H180.993Z" fill="#212523"/>
<path d="M163.822 350.768H210.628C214.545 350.768 218.462 350.768 222.314 350.768C230.735 351.551 237.524 357.296 237.002 362.975C236.254 366.043 234.615 368.82 232.292 370.958C229.969 373.095 227.065 374.497 223.946 374.987C220.073 375.499 216.166 375.718 212.26 375.64H111.597C108.488 375.836 105.371 375.836 102.262 375.64C100.487 375.598 98.7386 375.203 97.1179 374.479C95.4973 373.755 94.037 372.716 92.8219 371.422C91.6069 370.127 90.6612 368.604 90.0404 366.941C89.4195 365.278 89.1359 363.509 89.2057 361.735C89.9237 355.599 94.4281 351.551 102.262 351.355C118.647 350.963 134.902 351.355 151.418 351.355L163.822 350.768Z" fill="#212523"/>
<path d="M528 407.434C525.134 408.1 521.998 408.627 518.684 409C517.865 409.003 517.054 408.947 516.307 408.836C515.56 408.724 514.896 408.559 514.361 408.353C513.827 408.147 513.434 407.904 513.211 407.642C512.989 407.381 512.941 407.106 513.072 406.837C513.802 405.625 516.215 404.711 519.863 405.084C522.388 405.327 524.128 406.315 528 407.434Z" fill="#212523"/>
<path d="M898.188 357.278C899.852 357.279 901.448 357.94 902.624 359.116C903.801 360.293 904.462 361.888 904.462 363.552V445.109C904.462 446.773 903.801 448.369 902.624 449.545C901.448 450.722 899.852 451.383 898.188 451.383H793.532C791.869 451.383 790.273 450.722 789.097 449.545C787.92 448.369 787.259 446.773 787.259 445.109V363.552C787.259 361.888 787.92 360.293 789.097 359.116C790.273 357.94 791.869 357.279 793.532 357.278H898.188ZM891.915 369.826H799.806V438.836H891.915V369.826Z" fill="#212523"/>
<path d="M824.697 389.819C826.808 390.012 828.746 391.067 830.054 392.735L842.999 409.244L851.357 401.472C854.803 398.267 860.292 398.878 862.95 402.762L877.439 423.935C880.934 429.045 877.277 435.983 871.087 435.984H809.508C803.867 435.983 800.142 430.113 802.544 425.006L817.033 394.208C818.411 391.279 821.474 389.525 824.697 389.819Z" fill="#212523"/>
<path d="M875.43 374.297C881.989 374.297 887.443 379.752 887.443 386.311C887.443 392.87 881.989 398.324 875.43 398.324C868.871 398.324 863.417 392.87 863.417 386.311C863.417 379.752 868.871 374.297 875.43 374.297Z" fill="#212523"/>
<path d="M538.929 358C540.593 358 542.189 358.661 543.365 359.838C544.542 361.014 545.203 362.61 545.203 364.274V445.831C545.203 447.495 544.542 449.09 543.365 450.267C542.189 451.443 540.593 452.104 538.929 452.105H434.274C432.61 452.104 431.014 451.443 429.838 450.267C428.661 449.09 428 447.495 428 445.831V364.274C428 362.61 428.661 361.014 429.838 359.838C431.014 358.661 432.61 358 434.274 358H538.929ZM532.656 370.547H440.547V439.557H532.656V370.547Z" fill="#212523"/>
<path d="M465.438 390.541C467.549 390.734 469.487 391.788 470.795 393.456L483.74 409.966L492.098 402.193C495.545 398.989 501.033 399.6 503.691 403.483L518.18 424.657C521.675 429.767 518.018 436.704 511.828 436.706H450.249C444.608 436.705 440.883 430.834 443.285 425.728L457.774 394.929C459.152 392 462.215 390.247 465.438 390.541Z" fill="#212523"/>
<path d="M516.171 375.019C522.73 375.019 528.185 380.474 528.185 387.032C528.185 393.591 522.73 399.046 516.171 399.046C509.612 399.046 504.158 393.591 504.158 387.032C504.158 380.474 509.612 375.019 516.171 375.019Z" fill="#212523"/>
<path d="M898.188 465.071C899.852 465.071 901.448 465.732 902.624 466.909C903.801 468.085 904.462 469.681 904.462 471.345V552.902C904.462 554.566 903.801 556.161 902.624 557.338C901.448 558.514 899.852 559.176 898.188 559.176H793.532C791.869 559.176 790.273 558.514 789.097 557.338C787.92 556.161 787.259 554.566 787.259 552.902V471.345C787.259 469.681 787.92 468.085 789.097 466.909C790.273 465.732 791.869 465.071 793.532 465.071H898.188ZM891.915 477.618H799.806V546.628H891.915V477.618Z" fill="#212523"/>
<path d="M824.697 497.612C826.808 497.805 828.746 498.859 830.054 500.527L842.999 517.037L851.357 509.264C854.803 506.06 860.292 506.671 862.95 510.554L877.439 531.728C880.934 536.838 877.277 543.776 871.087 543.777H809.508C803.867 543.776 800.142 537.905 802.544 532.799L817.033 502C818.411 499.071 821.474 497.318 824.697 497.612Z" fill="#212523"/>
<path d="M875.43 482.09C881.989 482.09 887.443 487.544 887.443 494.103C887.443 500.662 881.989 506.117 875.43 506.117C868.871 506.117 863.417 500.662 863.417 494.103C863.417 487.544 868.871 482.09 875.43 482.09Z" fill="#212523"/>
<path d="M733.326 451.383C739.885 451.383 745.339 456.838 745.339 463.396C745.339 469.955 739.885 475.41 733.326 475.41C726.767 475.41 721.313 469.955 721.313 463.396C721.313 456.838 726.767 451.383 733.326 451.383Z" fill="#D1F24A"/>
<path d="M696.373 497.612C698.484 497.805 700.421 498.859 701.73 500.527L714.675 517.037L723.033 509.264C726.479 506.06 731.968 506.671 734.626 510.554L749.115 531.728C752.61 536.838 748.953 543.776 742.763 543.777H681.184C675.542 543.776 671.818 537.905 674.219 532.799L688.708 502C690.087 499.071 693.15 497.318 696.373 497.612Z" fill="#D1F24A"/>
<path d="M657.517 482.224C654.468 482.481 651.669 483.887 649.779 486.111L631.081 508.124L619.008 497.76C614.03 493.488 606.103 494.302 602.263 499.48L581.335 527.712C576.286 534.525 581.568 543.775 590.509 543.777H679.457C687.606 543.776 692.985 535.948 689.517 529.14L668.588 488.075C666.597 484.17 662.173 481.831 657.517 482.224Z" fill="#D1F24A"/>
<rect width="109.504" height="99.2376" rx="8" transform="matrix(-1 0 0 1 904.462 246.064)" fill="#212523"/>
<rect width="142" height="99" rx="8" transform="matrix(-1 0 0 1 904 571)" fill="#212523"/>
<rect width="109.504" height="99.2376" rx="8" transform="matrix(-1 0 0 1 781.271 246.064)" fill="#212523"/>
<rect width="109.504" height="99.2376" rx="8" transform="matrix(-1 0 0 1 658.079 246.064)" fill="#212523"/>
<rect width="109.504" height="99.2376" rx="8" transform="matrix(-1 0 0 1 534.887 246.064)" fill="#212523"/>
<path d="M438.5 270.5H501.5" stroke="#D1F24A" stroke-width="4"/>
<path d="M438.5 296H523.5" stroke="#D1F24A" stroke-width="4"/>
<path d="M438.5 310H523.5" stroke="#D1F24A" stroke-width="4"/>
<path d="M438.5 324H523.5" stroke="#D1F24A" stroke-width="4"/>
</g>
<defs>
<clipPath id="clip0_148_63">
<rect width="1024" height="1024" fill="white"/>
</clipPath>
</defs>
</svg>
