<svg width="1282" height="645" viewBox="0 0 1282 645" fill="none" xmlns="http://www.w3.org/2000/svg">
<g clip-path="url(#clip0_153_451)">
<rect width="1282" height="645" fill="#D1F24A"/>
<path d="M478.653 610.974V619.863C479.804 620.285 480.997 620.583 482.211 620.752H551.409C565.017 620.752 573.555 626.264 574 634.887C573.724 637.52 572.928 640.072 571.657 642.395C570.386 644.718 568.667 646.766 566.599 648.419C564.53 650.073 562.154 651.3 559.608 652.029C557.061 652.758 554.395 652.975 551.764 652.666H329.407C327.347 652.57 325.297 652.332 323.27 651.955C328.25 634.176 332.698 616.396 320.424 598.617C319.001 608.04 318.289 615.596 316.777 622.975C314.665 633.803 308.906 643.582 300.458 650.682C292.011 657.783 281.385 661.777 270.349 662C251.226 662 232.103 659.333 212.981 657.911C195.192 656.666 177.403 654.622 159.615 654.533C91.5735 653.999 23.5321 653.999 -44.954 653.822C-49.0879 653.944 -53.2247 653.706 -57.3172 653.11C-59.4842 652.942 -61.5968 652.348 -63.5341 651.363C-65.4714 650.379 -67.1953 649.022 -68.6077 647.371C-70.0202 645.72 -71.0932 643.806 -71.7656 641.741C-72.4379 639.675 -72.6968 637.497 -72.5267 635.331C-72.3207 633.232 -71.6895 631.197 -70.6722 629.35C-69.6549 627.502 -68.2727 625.88 -66.6089 624.583C-64.9451 623.286 -63.0347 622.341 -60.994 621.804C-58.9533 621.268 -56.825 621.152 -54.7381 621.463C-39.6177 621.463 -24.5861 621.463 -9.46583 621.463H20.686C12.859 614.707 6.09946 609.196 -0.30444 603.684C-7.42724 596.922 -13.0606 588.749 -16.8434 579.687C-20.6262 570.626 -22.4755 560.875 -22.2736 551.058C-22.7184 528.39 -22.2736 505.81 -22.2736 481.097C-28.4997 481.097 -34.0141 481.097 -39.4396 481.097C-51.4352 481.241 -63.005 476.658 -71.6445 468.339C-80.284 460.02 -85.2979 448.635 -85.601 436.649C-86.133 429.132 -86.133 421.586 -85.601 414.069C-85.8482 410.831 -85.3738 407.579 -84.2118 404.546C-83.0498 401.513 -81.2294 398.776 -78.8814 396.531C-76.5334 394.287 -73.7161 392.591 -70.6331 391.565C-67.5502 390.539 -64.2782 390.21 -61.0527 390.601C-48.6896 390.601 -36.3267 390.601 -22.3627 390.601V377C-22.3627 341.441 -22.3628 305.172 -21.9181 269.347C-20.4673 246.265 -11.743 224.235 3.00432 206.414C17.7516 188.592 37.7653 175.894 60.1767 170.139C66.0358 168.998 71.9966 168.462 77.9653 168.539C176.603 168.539 275.329 169.339 373.967 168.006C416.571 167.472 467.358 204.986 474.74 258.235C476.714 275.08 477.576 292.036 477.319 308.994C477.675 362.332 477.675 415.966 477.319 469.896C476.966 473.509 477.609 477.15 479.176 480.424C480.744 483.699 483.177 486.483 486.213 488.475C511.473 507.055 527.305 531.234 526.86 563.948C526.8 566.568 526.563 569.182 526.149 571.771C520.546 606.351 520.546 606.351 478.653 610.974ZM263.411 442.072C273.058 441.82 282.404 438.665 290.228 433.019C298.051 427.372 303.987 419.498 307.26 410.425C308.416 407.136 308.061 400.646 306.193 399.579C302.189 398.191 297.833 398.191 293.83 399.579C291.25 400.202 289.116 403.224 286.981 405.269C270.883 420.914 254.695 420.559 239.13 404.024C237.796 402.602 236.55 400.557 234.949 400.202C230.502 399.224 224.721 397.179 221.608 399.046C218.495 400.913 218.584 407.936 219.918 411.758C223.447 420.477 229.457 427.971 237.203 433.311C244.949 438.652 254.092 441.605 263.5 441.805L263.411 442.072ZM214.314 352.02C214.292 346.585 213.188 341.209 211.067 336.205C208.946 331.201 205.851 326.668 201.961 322.871C198.07 319.074 193.463 316.088 188.407 314.087C183.352 312.086 177.948 311.111 172.512 311.217C151.788 312.195 130.352 334.33 132.665 352.82C132.665 355.576 136.045 359.932 137.913 360.021C141.82 360.01 145.598 358.626 148.586 356.109C151.432 353.442 152.322 348.82 154.545 345.353C156.612 341.957 159.546 339.173 163.045 337.285C166.545 335.396 170.483 334.473 174.458 334.609C178.432 334.744 182.299 335.935 185.662 338.057C189.024 340.179 191.761 343.158 193.591 346.686C194.658 348.642 194.836 351.398 196.437 352.731C200.084 355.665 204.264 359.843 208.266 359.843C210.846 359.576 213.425 352.998 214.314 351.753V352.02ZM352.443 312.995C343.125 312.964 334.087 316.177 326.881 322.082C319.675 327.987 314.75 336.214 312.953 345.353C312.241 349.975 316.599 355.487 318.645 360.643C322.914 357.887 329.318 356.109 331.275 351.753C335.811 342.153 341.948 333.974 352.532 333.974C357.678 334.01 362.66 335.788 366.666 339.016C370.671 342.245 373.464 346.735 374.59 351.753C376.902 358.243 382.239 362.865 388.288 359.398C390.125 357.575 391.509 355.347 392.328 352.892C393.146 350.437 393.377 347.824 393.001 345.264C390.86 336.109 385.691 327.943 378.331 322.087C370.971 316.231 361.85 313.028 352.443 312.995Z" fill="black"/>
<path d="M758.372 283V215.992H772.868V271.192H801.668V283H758.372ZM834.367 284.152C826.047 284.152 819.743 281.848 815.455 277.24C811.167 272.632 809.023 266.36 809.023 258.424C809.023 254.392 809.567 250.776 810.655 247.576C811.807 244.312 813.407 241.56 815.455 239.32C817.567 237.016 820.095 235.288 823.039 234.136C826.047 232.92 829.407 232.312 833.119 232.312C836.831 232.312 840.159 232.92 843.103 234.136C846.047 235.288 848.543 236.952 850.591 239.128C852.639 241.304 854.207 243.96 855.295 247.096C856.447 250.168 857.023 253.624 857.023 257.464V261.688H823.135V262.552C823.135 265.752 824.127 268.344 826.111 270.328C828.095 272.248 831.007 273.208 834.847 273.208C837.791 273.208 840.319 272.664 842.431 271.576C844.543 270.424 846.367 268.92 847.903 267.064L855.583 275.416C853.663 277.784 850.975 279.832 847.519 281.56C844.063 283.288 839.679 284.152 834.367 284.152ZM833.215 242.488C830.143 242.488 827.679 243.448 825.823 245.368C824.031 247.224 823.135 249.752 823.135 252.952V253.72H843.103V252.952C843.103 249.688 842.207 247.128 840.415 245.272C838.687 243.416 836.287 242.488 833.215 242.488ZM891.545 283C886.425 283 882.617 281.656 880.121 278.968C877.625 276.28 876.377 272.856 876.377 268.696V244.504H862.937V233.464H871.673C873.785 233.464 875.289 233.048 876.185 232.216C877.081 231.384 877.529 229.848 877.529 227.608V215.992H890.585V233.464H909.881V244.504H890.585V271.96H909.881V283H891.545ZM941.812 284.152C936.308 284.152 931.508 283.32 927.412 281.656C923.38 279.992 920.34 277.72 918.292 274.84L926.26 267.448C928.18 269.56 930.42 271.224 932.98 272.44C935.604 273.592 938.58 274.168 941.908 274.168C944.724 274.168 946.932 273.752 948.532 272.92C950.132 272.024 950.932 270.68 950.932 268.888C950.932 267.48 950.388 266.52 949.3 266.008C948.212 265.432 946.708 264.984 944.788 264.664L936.82 263.416C934.58 263.096 932.5 262.616 930.58 261.976C928.66 261.272 926.996 260.344 925.588 259.192C924.18 258.04 923.06 256.632 922.228 254.968C921.396 253.304 920.98 251.288 920.98 248.92C920.98 243.736 922.964 239.672 926.932 236.728C930.9 233.784 936.468 232.312 943.636 232.312C948.5 232.312 952.628 232.984 956.02 234.328C959.476 235.608 962.228 237.464 964.276 239.896L957.172 247.96C955.7 246.36 953.812 245.016 951.508 243.928C949.204 242.84 946.42 242.296 943.156 242.296C937.652 242.296 934.9 243.96 934.9 247.288C934.9 248.76 935.444 249.784 936.532 250.36C937.62 250.872 939.124 251.288 941.044 251.608L948.916 252.856C951.156 253.176 953.236 253.688 955.156 254.392C957.076 255.032 958.74 255.928 960.148 257.08C961.62 258.232 962.772 259.64 963.604 261.304C964.436 262.968 964.852 264.984 964.852 267.352C964.852 272.536 962.836 276.632 958.804 279.64C954.836 282.648 949.172 284.152 941.812 284.152ZM1078.92 287.992C1078.92 293.24 1076.71 297.112 1072.3 299.608C1067.88 302.104 1060.94 303.352 1051.46 303.352C1046.73 303.352 1042.82 303.064 1039.75 302.488C1036.68 301.976 1034.22 301.208 1032.36 300.184C1030.57 299.16 1029.29 297.944 1028.52 296.536C1027.82 295.128 1027.46 293.592 1027.46 291.928C1027.46 289.112 1028.3 286.968 1029.96 285.496C1031.62 284.088 1033.96 283 1036.97 282.232V281.656C1034.86 281.016 1033.16 280.12 1031.88 278.968C1030.66 277.752 1030.06 276.056 1030.06 273.88C1030.06 271.448 1030.86 269.656 1032.46 268.504C1034.12 267.352 1036.3 266.456 1038.98 265.816V265.24C1036.04 263.832 1033.74 261.848 1032.07 259.288C1030.47 256.728 1029.67 253.624 1029.67 249.976C1029.67 247.096 1030.18 244.568 1031.21 242.392C1032.23 240.152 1033.67 238.296 1035.53 236.824C1037.45 235.352 1039.72 234.232 1042.34 233.464C1044.97 232.696 1047.91 232.312 1051.18 232.312C1054.31 232.312 1057.22 232.664 1059.91 233.368V230.68C1059.91 228.76 1060.58 227.16 1061.93 225.88C1063.27 224.6 1065.13 223.96 1067.5 223.96H1076.23V234.328H1064.33V235.192C1067.02 236.6 1069.1 238.552 1070.57 241.048C1072.1 243.48 1072.87 246.456 1072.87 249.976C1072.87 252.856 1072.36 255.384 1071.34 257.56C1070.31 259.736 1068.84 261.592 1066.92 263.128C1065 264.6 1062.7 265.72 1060.01 266.488C1057.38 267.256 1054.44 267.64 1051.18 267.64C1049.7 267.64 1048.3 267.576 1046.95 267.448C1045.61 267.256 1044.33 267 1043.11 266.68C1042.41 267.064 1041.8 267.544 1041.29 268.12C1040.84 268.696 1040.62 269.432 1040.62 270.328C1040.62 271.096 1040.81 271.704 1041.19 272.152C1041.58 272.6 1042.09 272.952 1042.73 273.208C1043.43 273.4 1044.23 273.528 1045.13 273.592C1046.02 273.656 1046.95 273.688 1047.91 273.688H1059.24C1062.76 273.688 1065.77 274.04 1068.26 274.744C1070.76 275.448 1072.81 276.44 1074.41 277.72C1076.01 279 1077.16 280.504 1077.86 282.232C1078.57 283.96 1078.92 285.88 1078.92 287.992ZM1065.48 289.048C1065.48 287.768 1064.97 286.744 1063.94 285.976C1062.92 285.272 1060.97 284.92 1058.09 284.92H1041.1C1039.82 286.008 1039.18 287.352 1039.18 288.952C1039.18 290.488 1039.82 291.736 1041.1 292.696C1042.44 293.72 1044.68 294.232 1047.82 294.232H1056.17C1059.43 294.232 1061.8 293.784 1063.27 292.888C1064.74 291.992 1065.48 290.712 1065.48 289.048ZM1051.18 258.616C1054.06 258.616 1056.14 257.912 1057.42 256.504C1058.76 255.096 1059.43 253.304 1059.43 251.128V248.824C1059.43 246.648 1058.76 244.856 1057.42 243.448C1056.14 242.04 1054.06 241.336 1051.18 241.336C1048.36 241.336 1046.31 242.04 1045.03 243.448C1043.75 244.856 1043.11 246.648 1043.11 248.824V251.128C1043.11 253.304 1043.75 255.096 1045.03 256.504C1046.31 257.912 1048.36 258.616 1051.18 258.616ZM1107.78 284.152C1099.46 284.152 1093.16 281.848 1088.87 277.24C1084.58 272.632 1082.44 266.36 1082.44 258.424C1082.44 254.392 1082.98 250.776 1084.07 247.576C1085.22 244.312 1086.82 241.56 1088.87 239.32C1090.98 237.016 1093.51 235.288 1096.45 234.136C1099.46 232.92 1102.82 232.312 1106.53 232.312C1110.24 232.312 1113.57 232.92 1116.52 234.136C1119.46 235.288 1121.96 236.952 1124 239.128C1126.05 241.304 1127.62 243.96 1128.71 247.096C1129.86 250.168 1130.44 253.624 1130.44 257.464V261.688H1096.55V262.552C1096.55 265.752 1097.54 268.344 1099.52 270.328C1101.51 272.248 1104.42 273.208 1108.26 273.208C1111.2 273.208 1113.73 272.664 1115.84 271.576C1117.96 270.424 1119.78 268.92 1121.32 267.064L1129 275.416C1127.08 277.784 1124.39 279.832 1120.93 281.56C1117.48 283.288 1113.09 284.152 1107.78 284.152ZM1106.63 242.488C1103.56 242.488 1101.09 243.448 1099.24 245.368C1097.44 247.224 1096.55 249.752 1096.55 252.952V253.72H1116.52V252.952C1116.52 249.688 1115.62 247.128 1113.83 245.272C1112.1 243.416 1109.7 242.488 1106.63 242.488ZM1164.96 283C1159.84 283 1156.03 281.656 1153.53 278.968C1151.04 276.28 1149.79 272.856 1149.79 268.696V244.504H1136.35V233.464H1145.09C1147.2 233.464 1148.7 233.048 1149.6 232.216C1150.49 231.384 1150.94 229.848 1150.94 227.608V215.992H1164V233.464H1183.29V244.504H1164V271.96H1183.29V283H1164.96ZM790.82 341.464H805.316L781.988 398.968C780.516 402.616 778.564 405.4 776.132 407.32C773.7 409.24 770.372 410.2 766.148 410.2H756.356V399.16H768.26L771.332 390.712L751.364 341.464H766.628L773.828 362.296L778.34 376.696H779.108L783.428 362.296L790.82 341.464ZM833.023 392.152C829.183 392.152 825.727 391.576 822.655 390.424C819.583 389.208 816.959 387.48 814.783 385.24C812.671 383 811.039 380.28 809.887 377.08C808.735 373.88 808.159 370.264 808.159 366.232C808.159 362.2 808.735 358.584 809.887 355.384C811.039 352.184 812.671 349.464 814.783 347.224C816.959 344.984 819.583 343.288 822.655 342.136C825.727 340.92 829.183 340.312 833.023 340.312C836.863 340.312 840.319 340.92 843.391 342.136C846.463 343.288 849.055 344.984 851.167 347.224C853.343 349.464 855.007 352.184 856.159 355.384C857.311 358.584 857.887 362.2 857.887 366.232C857.887 370.264 857.311 373.88 856.159 377.08C855.007 380.28 853.343 383 851.167 385.24C849.055 387.48 846.463 389.208 843.391 390.424C840.319 391.576 836.863 392.152 833.023 392.152ZM833.023 381.592C836.223 381.592 838.719 380.6 840.511 378.616C842.303 376.632 843.199 373.816 843.199 370.168V362.296C843.199 358.648 842.303 355.832 840.511 353.848C838.719 351.864 836.223 350.872 833.023 350.872C829.823 350.872 827.327 351.864 825.535 353.848C823.743 355.832 822.847 358.648 822.847 362.296V370.168C822.847 373.816 823.743 376.632 825.535 378.616C827.327 380.6 829.823 381.592 833.023 381.592ZM896.057 381.976H895.481C894.393 384.792 892.665 387.192 890.297 389.176C887.993 391.16 884.857 392.152 880.889 392.152C878.521 392.152 876.345 391.768 874.361 391C872.377 390.168 870.681 388.952 869.273 387.352C867.865 385.752 866.745 383.8 865.913 381.496C865.145 379.192 864.761 376.536 864.761 373.528V341.464H878.969V371.608C878.969 378.008 881.753 381.208 887.321 381.208C888.409 381.208 889.465 381.08 890.489 380.824C891.577 380.504 892.505 380.056 893.273 379.48C894.105 378.84 894.777 378.072 895.289 377.176C895.801 376.28 896.057 375.224 896.057 374.008V341.464H910.265V391H896.057V381.976ZM1005.42 381.976H1004.85C1003.76 384.792 1002.03 387.192 999.662 389.176C997.358 391.16 994.222 392.152 990.254 392.152C987.886 392.152 985.71 391.768 983.726 391C981.742 390.168 980.046 388.952 978.638 387.352C977.23 385.752 976.11 383.8 975.278 381.496C974.51 379.192 974.126 376.536 974.126 373.528V341.464H988.334V371.608C988.334 378.008 991.118 381.208 996.686 381.208C997.774 381.208 998.83 381.08 999.854 380.824C1000.94 380.504 1001.87 380.056 1002.64 379.48C1003.47 378.84 1004.14 378.072 1004.65 377.176C1005.17 376.28 1005.42 375.224 1005.42 374.008V341.464H1019.63V391H1005.42V381.976ZM1028.62 341.464H1042.82V350.488H1043.5C1044.71 347.544 1046.47 345.112 1048.78 343.192C1051.08 341.272 1054.22 340.312 1058.18 340.312C1060.94 340.312 1063.43 340.824 1065.67 341.848C1067.98 342.872 1069.93 344.44 1071.53 346.552C1073.19 348.664 1074.47 351.352 1075.37 354.616C1076.33 357.88 1076.81 361.752 1076.81 366.232C1076.81 370.712 1076.33 374.584 1075.37 377.848C1074.47 381.112 1073.19 383.8 1071.53 385.912C1069.93 388.024 1067.98 389.592 1065.67 390.616C1063.43 391.64 1060.94 392.152 1058.18 392.152C1054.22 392.152 1051.08 391.224 1048.78 389.368C1046.47 387.448 1044.71 384.984 1043.5 381.976H1042.82V410.2H1028.62V341.464ZM1052.04 381.112C1055.24 381.112 1057.7 380.152 1059.43 378.232C1061.16 376.248 1062.02 373.528 1062.02 370.072V362.392C1062.02 358.936 1061.16 356.248 1059.43 354.328C1057.7 352.344 1055.24 351.352 1052.04 351.352C1049.54 351.352 1047.37 351.96 1045.51 353.176C1043.72 354.392 1042.82 356.312 1042.82 358.936V373.528C1042.82 376.152 1043.72 378.072 1045.51 379.288C1047.37 380.504 1049.54 381.112 1052.04 381.112ZM1152.19 392.152C1149.18 392.152 1146.53 391.64 1144.22 390.616C1141.92 389.528 1139.97 388.12 1138.37 386.392C1136.83 384.6 1135.65 382.552 1134.81 380.248C1134.05 377.88 1133.66 375.384 1133.66 372.76C1133.66 368.728 1134.62 365.208 1136.54 362.2C1138.46 359.192 1141.28 356.6 1144.99 354.424C1142.94 351.544 1141.37 348.984 1140.29 346.744C1139.26 344.504 1138.75 342.168 1138.75 339.736C1138.75 337.368 1139.2 335.16 1140.09 333.112C1141.05 331 1142.37 329.208 1144.03 327.736C1145.76 326.2 1147.74 325.016 1149.98 324.184C1152.29 323.288 1154.78 322.84 1157.47 322.84C1159.84 322.84 1162.05 323.192 1164.09 323.896C1166.14 324.536 1167.93 325.4 1169.47 326.488C1171.07 327.576 1172.38 328.856 1173.41 330.328C1174.49 331.736 1175.29 333.208 1175.81 334.744L1166.01 340.024C1165.31 337.976 1164.22 336.376 1162.75 335.224C1161.28 334.008 1159.58 333.4 1157.66 333.4C1155.74 333.4 1154.17 333.976 1152.96 335.128C1151.81 336.28 1151.23 337.784 1151.23 339.64V340.12C1151.23 341.016 1151.36 341.88 1151.61 342.712C1151.87 343.48 1152.32 344.376 1152.96 345.4C1153.6 346.36 1154.4 347.512 1155.36 348.856C1156.38 350.136 1157.66 351.736 1159.2 353.656L1164.67 360.568L1169.28 367.672H1169.85C1170.05 366.584 1170.21 365.4 1170.33 364.12C1170.46 362.776 1170.56 361.432 1170.62 360.088C1170.75 358.68 1170.81 357.336 1170.81 356.056C1170.88 354.712 1170.91 353.496 1170.91 352.408H1188V362.968H1181.28C1180.96 365.016 1180.48 367.128 1179.84 369.304C1179.2 371.416 1178.37 373.592 1177.34 375.832L1189.82 391H1174.65L1166.97 381.688H1166.3C1165.85 384.952 1164.38 387.512 1161.89 389.368C1159.39 391.224 1156.16 392.152 1152.19 392.152ZM1155.74 381.304C1157.21 381.304 1158.59 381.048 1159.87 380.536C1161.15 379.96 1162.24 378.936 1163.13 377.464L1150.75 361.72C1149.09 363.32 1148 364.952 1147.49 366.616C1146.97 368.216 1146.72 369.944 1146.72 371.8V371.992C1146.72 375.064 1147.52 377.4 1149.12 379C1150.78 380.536 1152.99 381.304 1155.74 381.304ZM713.482 499H699.274V431.992H725.194C728.458 431.992 731.37 432.504 733.93 433.528C736.49 434.488 738.634 435.896 740.362 437.752C742.154 439.608 743.498 441.848 744.394 444.472C745.29 447.096 745.738 450.04 745.738 453.304C745.738 458.04 744.714 462.104 742.666 465.496C740.618 468.888 737.706 471.128 733.93 472.216L747.082 499H731.338L720.106 474.136H713.482V499ZM721.738 463C725.13 463 727.466 462.36 728.746 461.08C730.09 459.8 730.762 457.688 730.762 454.744V451.864C730.762 448.92 730.09 446.808 728.746 445.528C727.466 444.248 725.13 443.608 721.738 443.608H713.482V463H721.738ZM776.804 500.152C768.484 500.152 762.18 497.848 757.892 493.24C753.604 488.632 751.46 482.36 751.46 474.424C751.46 470.392 752.004 466.776 753.092 463.576C754.244 460.312 755.844 457.56 757.892 455.32C760.004 453.016 762.532 451.288 765.476 450.136C768.484 448.92 771.844 448.312 775.556 448.312C779.268 448.312 782.596 448.92 785.54 450.136C788.484 451.288 790.98 452.952 793.028 455.128C795.076 457.304 796.644 459.96 797.732 463.096C798.884 466.168 799.46 469.624 799.46 473.464V477.688H765.572V478.552C765.572 481.752 766.564 484.344 768.548 486.328C770.532 488.248 773.444 489.208 777.284 489.208C780.228 489.208 782.756 488.664 784.868 487.576C786.98 486.424 788.804 484.92 790.34 483.064L798.02 491.416C796.1 493.784 793.412 495.832 789.956 497.56C786.5 499.288 782.116 500.152 776.804 500.152ZM775.652 458.488C772.58 458.488 770.116 459.448 768.26 461.368C766.468 463.224 765.572 465.752 765.572 468.952V469.72H785.54V468.952C785.54 465.688 784.644 463.128 782.852 461.272C781.124 459.416 778.724 458.488 775.652 458.488ZM807.582 499V449.464H821.791V458.488H822.366C822.943 457.08 823.647 455.768 824.478 454.552C825.31 453.336 826.302 452.28 827.455 451.384C828.67 450.424 830.047 449.688 831.583 449.176C833.182 448.6 834.974 448.312 836.959 448.312C839.327 448.312 841.503 448.728 843.486 449.56C845.471 450.328 847.167 451.512 848.575 453.112C849.982 454.712 851.07 456.664 851.839 458.968C852.671 461.272 853.087 463.928 853.087 466.936V499H838.879V468.856C838.879 462.456 836.095 459.256 830.527 459.256C829.438 459.256 828.35 459.416 827.262 459.736C826.238 459.992 825.31 460.44 824.478 461.08C823.647 461.656 822.975 462.392 822.463 463.288C822.015 464.184 821.791 465.24 821.791 466.456V499H807.582ZM893.753 489.976H893.081C891.801 492.984 890.009 495.448 887.705 497.368C885.465 499.224 882.361 500.152 878.393 500.152C875.641 500.152 873.113 499.64 870.809 498.616C868.569 497.592 866.617 496.024 864.953 493.912C863.353 491.8 862.073 489.112 861.113 485.848C860.217 482.584 859.769 478.712 859.769 474.232C859.769 469.752 860.217 465.88 861.113 462.616C862.073 459.352 863.353 456.664 864.953 454.552C866.617 452.44 868.569 450.872 870.809 449.848C873.113 448.824 875.641 448.312 878.393 448.312C880.377 448.312 882.137 448.568 883.673 449.08C885.209 449.592 886.553 450.296 887.705 451.192C888.921 452.088 889.945 453.176 890.777 454.456C891.673 455.672 892.441 457.016 893.081 458.488H893.753V427.96H907.961V499H893.753V489.976ZM884.537 489.112C887.033 489.112 889.177 488.504 890.969 487.288C892.825 486.072 893.753 484.152 893.753 481.528V466.936C893.753 464.312 892.825 462.392 890.969 461.176C889.177 459.96 887.033 459.352 884.537 459.352C881.337 459.352 878.873 460.344 877.145 462.328C875.417 464.248 874.553 466.936 874.553 470.392V478.072C874.553 481.528 875.417 484.248 877.145 486.232C878.873 488.152 881.337 489.112 884.537 489.112ZM940.852 500.152C932.532 500.152 926.228 497.848 921.94 493.24C917.652 488.632 915.508 482.36 915.508 474.424C915.508 470.392 916.052 466.776 917.14 463.576C918.292 460.312 919.892 457.56 921.94 455.32C924.052 453.016 926.58 451.288 929.524 450.136C932.532 448.92 935.892 448.312 939.604 448.312C943.316 448.312 946.644 448.92 949.588 450.136C952.532 451.288 955.028 452.952 957.076 455.128C959.124 457.304 960.692 459.96 961.78 463.096C962.932 466.168 963.508 469.624 963.508 473.464V477.688H929.62V478.552C929.62 481.752 930.612 484.344 932.596 486.328C934.58 488.248 937.492 489.208 941.332 489.208C944.276 489.208 946.804 488.664 948.916 487.576C951.028 486.424 952.852 484.92 954.388 483.064L962.068 491.416C960.148 493.784 957.46 495.832 954.004 497.56C950.548 499.288 946.164 500.152 940.852 500.152ZM939.7 458.488C936.628 458.488 934.164 459.448 932.308 461.368C930.516 463.224 929.62 465.752 929.62 468.952V469.72H949.588V468.952C949.588 465.688 948.692 463.128 946.9 461.272C945.172 459.416 942.772 458.488 939.7 458.488ZM972.494 487.96H983.918V460.504H972.494V449.464H998.126V463.48H998.798C999.246 461.688 999.854 459.96 1000.62 458.296C1001.45 456.568 1002.48 455.064 1003.69 453.784C1004.97 452.44 1006.51 451.384 1008.3 450.616C1010.09 449.848 1012.21 449.464 1014.64 449.464H1019.34V462.52H1008.78C1005.26 462.52 1002.61 463.576 1000.81 465.688C999.022 467.736 998.126 470.264 998.126 473.272V487.96H1014.45V499H972.494V487.96ZM1051.94 443.128C1048.74 443.128 1046.5 442.488 1045.22 441.208C1044.01 439.864 1043.4 438.264 1043.4 436.408V433.624C1043.4 431.704 1044.01 430.104 1045.22 428.824C1046.5 427.544 1048.74 426.904 1051.94 426.904C1055.14 426.904 1057.35 427.544 1058.57 428.824C1059.85 430.104 1060.49 431.704 1060.49 433.624V436.408C1060.49 438.264 1059.85 439.864 1058.57 441.208C1057.35 442.488 1055.14 443.128 1051.94 443.128ZM1029.1 487.96H1044.84V460.504H1029.1V449.464H1059.05V487.96H1073.64V499H1029.1V487.96ZM1081 499V449.464H1095.2V458.488H1095.78C1096.36 457.08 1097.06 455.768 1097.89 454.552C1098.72 453.336 1099.72 452.28 1100.87 451.384C1102.08 450.424 1103.46 449.688 1105 449.176C1106.6 448.6 1108.39 448.312 1110.37 448.312C1112.74 448.312 1114.92 448.728 1116.9 449.56C1118.88 450.328 1120.58 451.512 1121.99 453.112C1123.4 454.712 1124.48 456.664 1125.25 458.968C1126.08 461.272 1126.5 463.928 1126.5 466.936V499H1112.29V468.856C1112.29 462.456 1109.51 459.256 1103.94 459.256C1102.85 459.256 1101.76 459.416 1100.68 459.736C1099.65 459.992 1098.72 460.44 1097.89 461.08C1097.06 461.656 1096.39 462.392 1095.88 463.288C1095.43 464.184 1095.2 465.24 1095.2 466.456V499H1081ZM1185.41 503.992C1185.41 509.24 1183.2 513.112 1178.78 515.608C1174.37 518.104 1167.42 519.352 1157.95 519.352C1153.21 519.352 1149.31 519.064 1146.24 518.488C1143.17 517.976 1140.7 517.208 1138.85 516.184C1137.05 515.16 1135.77 513.944 1135.01 512.536C1134.3 511.128 1133.95 509.592 1133.95 507.928C1133.95 505.112 1134.78 502.968 1136.45 501.496C1138.11 500.088 1140.45 499 1143.45 498.232V497.656C1141.34 497.016 1139.65 496.12 1138.37 494.968C1137.15 493.752 1136.54 492.056 1136.54 489.88C1136.54 487.448 1137.34 485.656 1138.94 484.504C1140.61 483.352 1142.78 482.456 1145.47 481.816V481.24C1142.53 479.832 1140.22 477.848 1138.56 475.288C1136.96 472.728 1136.16 469.624 1136.16 465.976C1136.16 463.096 1136.67 460.568 1137.69 458.392C1138.72 456.152 1140.16 454.296 1142.01 452.824C1143.93 451.352 1146.21 450.232 1148.83 449.464C1151.45 448.696 1154.4 448.312 1157.66 448.312C1160.8 448.312 1163.71 448.664 1166.4 449.368V446.68C1166.4 444.76 1167.07 443.16 1168.41 441.88C1169.76 440.6 1171.61 439.96 1173.98 439.96H1182.72V450.328H1170.81V451.192C1173.5 452.6 1175.58 454.552 1177.05 457.048C1178.59 459.48 1179.36 462.456 1179.36 465.976C1179.36 468.856 1178.85 471.384 1177.82 473.56C1176.8 475.736 1175.33 477.592 1173.41 479.128C1171.49 480.6 1169.18 481.72 1166.49 482.488C1163.87 483.256 1160.93 483.64 1157.66 483.64C1156.19 483.64 1154.78 483.576 1153.44 483.448C1152.09 483.256 1150.81 483 1149.6 482.68C1148.89 483.064 1148.29 483.544 1147.77 484.12C1147.33 484.696 1147.1 485.432 1147.1 486.328C1147.1 487.096 1147.29 487.704 1147.68 488.152C1148.06 488.6 1148.57 488.952 1149.21 489.208C1149.92 489.4 1150.72 489.528 1151.61 489.592C1152.51 489.656 1153.44 489.688 1154.4 489.688H1165.73C1169.25 489.688 1172.25 490.04 1174.75 490.744C1177.25 491.448 1179.29 492.44 1180.89 493.72C1182.49 495 1183.65 496.504 1184.35 498.232C1185.05 499.96 1185.41 501.88 1185.41 503.992ZM1171.97 505.048C1171.97 503.768 1171.45 502.744 1170.43 501.976C1169.41 501.272 1167.45 500.92 1164.57 500.92H1147.58C1146.3 502.008 1145.66 503.352 1145.66 504.952C1145.66 506.488 1146.3 507.736 1147.58 508.696C1148.93 509.72 1151.17 510.232 1154.3 510.232H1162.65C1165.92 510.232 1168.29 509.784 1169.76 508.888C1171.23 507.992 1171.97 506.712 1171.97 505.048ZM1157.66 474.616C1160.54 474.616 1162.62 473.912 1163.9 472.504C1165.25 471.096 1165.92 469.304 1165.92 467.128V464.824C1165.92 462.648 1165.25 460.856 1163.9 459.448C1162.62 458.04 1160.54 457.336 1157.66 457.336C1154.85 457.336 1152.8 458.04 1151.52 459.448C1150.24 460.856 1149.6 462.648 1149.6 464.824V467.128C1149.6 469.304 1150.24 471.096 1151.52 472.504C1152.8 473.912 1154.85 474.616 1157.66 474.616Z" fill="black"/>
</g>
<defs>
<clipPath id="clip0_153_451">
<rect width="1282" height="645" fill="white"/>
</clipPath>
</defs>
</svg>
