<svg width="1024" height="1024" viewBox="0 0 1024 1024" fill="none" xmlns="http://www.w3.org/2000/svg">
<rect width="1024" height="1024" fill="#D7FF31"/>
<path fill-rule="evenodd" clip-rule="evenodd" d="M902.055 103C912.518 103 921 111.482 921 121.945V552.055C921 562.518 912.518 571 902.055 571H822.944C812.481 571 803.999 579.481 803.999 589.944V669.055C803.999 679.518 812.481 688 822.944 688H902.055C912.518 688 921 696.482 921 706.945V903.055C921 913.518 912.518 922 902.055 922H705.945C695.482 922 687 913.518 687 903.055V823.944C687 813.481 678.518 804.999 668.055 804.999H588.944C578.481 804.999 570 813.481 570 823.944V903.055C570 913.518 561.518 922 551.055 922H120.945C110.482 922 102 913.518 102 903.055V121.945C102 111.482 110.482 103 120.945 103H902.055ZM377.429 322.195C377.429 344.399 395.428 362.399 417.632 362.399H501.299C510.152 362.399 517.329 355.222 517.329 346.368V262.702C517.329 240.498 499.33 222.498 477.126 222.498H417.632C395.428 222.498 377.429 240.498 377.429 262.702V322.195ZM725.122 222.498C702.918 222.498 684.918 240.498 684.918 262.702V322.195C684.918 344.399 702.918 362.399 725.122 362.399H808.788C817.642 362.399 824.818 355.222 824.818 346.368V262.702C824.818 240.498 806.819 222.498 784.615 222.498H725.122Z" fill="#101010"/>
</svg>
