<svg width="120" height="120" viewBox="0 0 120 120" fill="none" xmlns="http://www.w3.org/2000/svg">
<path d="M72.6639 10H46.5038L10 110.731H32.1008L59.6139 34.8821L87.067 110.731H109.228L72.6639 10Z" fill="#D97757"/>
<path d="M60.1405 76.5598L68.8078 81.5639V91.5721L60.1405 96.5762L51.4732 91.5721V81.5639L60.1405 76.5598Z" fill="#1C1C1C"/>
<path d="M60.1405 80.3845L65.3989 83.4205V89.4923L60.1405 92.5283L54.8821 89.4923V83.4205L60.1405 80.3845Z" fill="#D97757"/>
<path d="M52.5165 88.8828L61.1838 93.8869V103.895L52.5165 108.899L43.8491 103.895V93.8869L52.5165 88.8828Z" fill="#1C1C1C"/>
<path d="M52.5167 92.707L57.7751 95.743V101.815L52.5167 104.851L47.2583 101.815V95.743L52.5167 92.707Z" fill="#D97757"/>
<path d="M67.6361 88.8828L76.3035 93.8869V103.895L67.6361 108.899L58.9688 103.895V93.8869L67.6361 88.8828Z" fill="#1C1C1C"/>
<path d="M67.6361 92.707L72.8945 95.743V101.815L67.6361 104.851L62.3777 101.815V95.743L67.6361 92.707Z" fill="#D97757"/>
</svg>
