<svg width="120" height="120" viewBox="0 0 120 120" fill="none" xmlns="http://www.w3.org/2000/svg">
<path d="M9.8347 53.5304C12.0008 53.3274 14.1534 53.0837 16.3194 52.9348C17.5108 52.8535 18.7157 52.9348 20.1372 52.9348V50.9717C20.1372 45.0556 20.1372 39.126 20.1372 33.1963C20.0424 25.0735 28.0705 17.4245 35.4216 17.4921C51.2341 17.6275 67.051 17.6275 82.8725 17.4921C89.7634 17.4921 96.6407 24.031 97.1551 30.7053C97.6019 36.3642 97.453 42.0773 97.5748 47.7497V49.469C98.5496 48.4266 99.3077 47.7091 99.944 46.9103C100.58 46.1116 101.298 44.9067 102.069 43.9726C105.44 39.9112 110.761 40.7099 112.9 45.6242C113.38 46.7572 113.62 47.9777 113.603 49.2082C113.587 50.4387 113.315 51.6524 112.805 52.7723C111.4 56.0329 109.333 58.9658 106.734 61.3849C104.136 63.804 101.063 65.6565 97.7102 66.8248C97.5342 70.2635 97.5613 73.7292 97.1416 77.1272C96.4376 82.7862 93.73 87.1319 88.2471 89.4469C87.6777 89.719 87.2395 90.2059 87.0287 90.8007C86.7203 91.9069 86.5654 93.0503 86.5684 94.1988C86.6504 94.7836 86.9214 95.3255 87.3401 95.7421C87.857 96.1991 88.2192 96.8055 88.3766 97.4773C88.5341 98.1492 88.4789 98.8533 88.2188 99.4925C87.9587 100.132 87.5065 100.674 86.9246 101.045C86.3428 101.416 85.6601 101.597 84.9709 101.563C81.0584 101.563 77.1459 101.563 73.2334 101.563C72.7882 101.62 72.3359 101.577 71.9089 101.439C71.4818 101.301 71.0903 101.071 70.7621 100.765C70.434 100.459 70.1772 100.084 70.01 99.6677C69.8429 99.2512 69.7694 98.803 69.7947 98.3549C69.6594 95.6473 69.7947 92.9397 69.7947 90.0967H64.2983C59.1268 90.0967 53.9417 90.1644 48.7702 90.0967C47.5382 90.0967 47.1862 90.5705 46.7801 91.613C45.9507 94.1596 44.8333 96.6032 43.4497 98.8965C42.7273 99.9368 41.7792 100.801 40.6762 101.423C39.5732 102.046 38.3437 102.411 37.0797 102.492C35.8157 102.572 34.5498 102.366 33.3766 101.889C32.2033 101.412 31.1531 100.676 30.3042 99.7358C28.4766 97.6509 28.7744 95.1599 28.9504 92.696C28.9504 92.2357 29.0858 91.789 29.1535 91.3422C29.244 91.0391 29.2729 90.721 29.2385 90.4065C29.204 90.0921 29.107 89.7877 28.9531 89.5114C28.7991 89.2351 28.5914 88.9924 28.3422 88.7976C28.0929 88.6028 27.8072 88.4599 27.5019 88.3774C22.7365 86.1707 20.5298 82.1093 20.2455 76.9648C20.1101 74.6769 20.1778 72.3754 20.2455 70.0739C20.2455 69.221 20.0153 68.7201 19.0812 68.8149C15.8708 69.1333 12.6468 68.3607 9.92948 66.6217L6.43204 64.0902C3.67308 62.0932 3.67459 57.9824 6.435 55.9874L9.8347 53.5304ZM56.8118 45.4076C56.7329 44.5556 56.5972 43.7099 56.4056 42.876C56.1017 41.7665 55.4523 40.7827 54.5517 40.0671C53.6511 39.3514 52.546 38.9412 51.3965 38.8958C50.2671 38.8664 49.1626 39.2315 48.2732 39.9283C47.3837 40.625 46.7648 41.6099 46.5228 42.7135C45.7978 44.9199 45.9729 47.3234 47.0102 49.4013C47.2678 49.9925 47.6411 50.526 48.1081 50.9707C48.5751 51.4153 49.1263 51.7621 49.7294 51.9904C50.3324 52.2188 50.975 52.3241 51.6194 52.3003C52.2638 52.2765 52.8969 52.124 53.4814 51.8517C56.1619 50.6875 56.6493 48.3318 56.8118 45.4076ZM73.3417 46.1116C73.5302 47.1884 73.8484 48.2385 74.2894 49.2389C74.7589 50.1677 75.48 50.9458 76.3705 51.4844C77.261 52.023 78.285 52.3004 79.3255 52.2849C80.1998 52.3037 81.0568 52.0397 81.769 51.5324C82.4812 51.0251 83.0107 50.3014 83.2786 49.469C83.8106 48.2928 84.0858 47.0167 84.0858 45.7257C84.0858 44.4348 83.8106 43.1587 83.2786 41.9825C83.0251 41.3716 82.6518 40.8177 82.1807 40.3533C81.7097 39.889 81.1504 39.5237 80.536 39.2789C79.9215 39.0341 79.2643 38.9149 78.603 38.9281C77.9417 38.9414 77.2898 39.0869 76.6856 39.3561C74.1269 40.561 73.4771 42.876 73.3417 46.1251V46.1116ZM59.032 55.71C59.1538 56.2651 59.1809 56.4952 59.2486 56.7254C59.6539 58.0218 60.4703 59.1511 61.5743 59.9424C62.6783 60.7338 64.0099 61.1442 65.3678 61.1117C66.722 61.1717 68.0596 60.7949 69.1833 60.0368C70.307 59.2787 71.1574 58.1795 71.6088 56.9014C71.672 56.5471 71.647 56.1827 71.536 55.8404C71.425 55.498 71.2315 55.1883 70.9726 54.9384C70.5123 54.6947 69.5375 55.0738 68.9418 55.4393C68.3462 55.8048 67.913 56.6984 67.2631 57.1045C65.4761 58.2011 63.5808 57.5512 62.051 55.6424C61.5358 55.0933 60.8376 54.7514 60.0879 54.6812C59.6818 54.6676 59.3027 55.4528 59.032 55.7236V55.71Z" fill="#D1F24A"/>
<path d="M116.108 31.869C115.969 32.3465 115.764 32.8022 115.499 33.2228C114.539 34.3629 113.479 35.4141 112.331 36.3637C112.019 36.5331 111.67 36.6219 111.316 36.6219C110.961 36.6219 110.612 36.5331 110.3 36.3637C110.071 36.0523 109.922 35.6897 109.865 35.3074C109.809 34.9251 109.847 34.5349 109.975 34.1705C110.98 32.8546 112.134 31.6598 113.414 30.61C113.68 30.4817 113.972 30.415 114.267 30.415C114.562 30.415 114.854 30.4817 115.12 30.61C115.553 30.7995 115.783 31.4358 116.108 31.869Z" fill="#D1F24A"/>
<path d="M107.863 29.6757C107.472 31.1179 106.965 32.526 106.346 33.886C106.121 34.1715 105.829 34.3974 105.497 34.5437C105.164 34.6901 104.8 34.7524 104.438 34.7253C104.148 34.5583 103.905 34.3204 103.732 34.0338C103.559 33.7473 103.462 33.4216 103.449 33.0872C103.652 31.6273 104.053 30.2017 104.641 28.8498C104.845 28.575 105.117 28.3572 105.43 28.2174C105.743 28.0775 106.086 28.0203 106.428 28.0511C107.064 28.2812 107.429 29.1612 107.863 29.6757Z" fill="#D1F24A"/>
<path d="M119.168 40.0596C119.045 40.8499 118.631 41.5657 118.007 42.0665C117.384 42.5674 116.595 42.8173 115.797 42.7672C115.427 42.6618 115.088 42.4708 114.806 42.2097C114.523 41.9487 114.306 41.6249 114.173 41.2645C113.861 40.2356 115.432 38.9901 117.056 39.0578C117.774 39.0714 118.464 39.7076 119.168 40.0596Z" fill="#D1F24A"/>
<path d="M56.8115 45.4075C56.649 48.3182 56.1617 50.6738 53.4811 51.8516C52.8966 52.1239 52.2635 52.2763 51.6191 52.3002C50.9747 52.324 50.3321 52.2186 49.7291 51.9903C49.126 51.762 48.5748 51.4152 48.1078 50.9706C47.6408 50.5259 47.2675 49.9924 47.0099 49.4012C45.9726 47.3233 45.7975 44.9198 46.5225 42.7134C46.7645 41.6098 47.3834 40.6249 48.2729 39.9281C49.1624 39.2314 50.2668 38.8663 51.3963 38.8957C52.5457 38.9411 53.6508 39.3513 54.5514 40.067C55.4521 40.7826 56.1014 41.7664 56.4053 42.8759C56.5969 43.7098 56.7326 44.5555 56.8115 45.4075Z" fill="black"/>
<path d="M73.3408 46.1248C73.4762 42.8756 74.126 40.5606 76.6983 39.3557C77.3024 39.0865 77.9544 38.941 78.6157 38.9278C79.2769 38.9145 79.9342 39.0338 80.5487 39.2786C81.1631 39.5233 81.7224 39.8887 82.1934 40.353C82.6644 40.8173 83.0377 41.3712 83.2913 41.9821C83.8233 43.1584 84.0984 44.4344 84.0984 45.7254C84.0984 47.0163 83.8233 48.2924 83.2913 49.4687C83.0233 50.301 82.4938 51.0247 81.7816 51.532C81.0694 52.0394 80.2124 52.3033 79.3382 52.2846C78.2976 52.3 77.2736 52.0226 76.3831 51.484C75.4926 50.9454 74.7715 50.1673 74.302 49.2385C73.8574 48.2431 73.5347 47.1976 73.3408 46.1248Z" fill="black"/>
<path d="M59.0312 55.7229C59.302 55.4522 59.7352 54.667 60.0872 54.694C60.8369 54.7643 61.535 55.1062 62.0502 55.6553C63.58 57.5641 65.4754 58.2139 67.2624 57.1174C67.9122 56.7112 68.2913 55.8584 68.9411 55.4522C69.5909 55.0461 70.5115 54.7076 70.9718 54.9513C71.2308 55.2012 71.4243 55.511 71.5353 55.8533C71.6462 56.1956 71.6712 56.56 71.6081 56.9143C71.1566 58.1924 70.3063 59.2916 69.1826 60.0497C68.0589 60.8078 66.7213 61.1846 65.3671 61.1246C64.0092 61.1571 62.6775 60.7467 61.5736 59.9553C60.4696 59.164 59.6532 58.0347 59.2479 56.7383C59.1802 56.5082 59.1531 56.2374 59.0312 55.7229Z" fill="black"/>
</svg>
