<svg width="1282" height="645" viewBox="0 0 1282 645" fill="none" xmlns="http://www.w3.org/2000/svg">
<g clip-path="url(#clip0_153_455)">
<rect width="1282" height="645" fill="#D1F24A"/>
<path d="M777.284 284.152C771.652 284.152 766.756 283.224 762.596 281.368C758.436 279.512 755.076 276.984 752.516 273.784L760.868 264.568C763.3 267.256 765.956 269.24 768.836 270.52C771.78 271.8 774.756 272.44 777.764 272.44C781.22 272.44 783.844 271.672 785.636 270.136C787.428 268.6 788.324 266.392 788.324 263.512C788.324 261.144 787.62 259.352 786.212 258.136C784.868 256.92 782.564 256.056 779.3 255.544L772.292 254.392C766.276 253.368 761.924 251.16 759.236 247.768C756.548 244.312 755.204 240.12 755.204 235.192C755.204 228.728 757.316 223.736 761.54 220.216C765.764 216.632 771.684 214.84 779.3 214.84C784.484 214.84 788.996 215.64 792.836 217.24C796.676 218.84 799.78 221.016 802.148 223.768L793.988 232.888C792.196 230.904 790.084 229.368 787.652 228.28C785.22 227.128 782.468 226.552 779.396 226.552C772.932 226.552 769.7 229.208 769.7 234.52C769.7 236.824 770.404 238.552 771.812 239.704C773.284 240.856 775.652 241.72 778.916 242.296L785.924 243.544C791.364 244.504 795.556 246.552 798.5 249.688C801.444 252.824 802.916 257.048 802.916 262.36C802.916 265.496 802.372 268.408 801.284 271.096C800.196 273.72 798.564 276.024 796.388 278.008C794.212 279.928 791.524 281.432 788.324 282.52C785.188 283.608 781.508 284.152 777.284 284.152ZM833.023 284.152C829.183 284.152 825.727 283.576 822.655 282.424C819.583 281.208 816.959 279.48 814.783 277.24C812.671 275 811.039 272.28 809.887 269.08C808.735 265.88 808.159 262.264 808.159 258.232C808.159 254.2 808.735 250.584 809.887 247.384C811.039 244.184 812.671 241.464 814.783 239.224C816.959 236.984 819.583 235.288 822.655 234.136C825.727 232.92 829.183 232.312 833.023 232.312C836.863 232.312 840.319 232.92 843.391 234.136C846.463 235.288 849.055 236.984 851.167 239.224C853.343 241.464 855.007 244.184 856.159 247.384C857.311 250.584 857.887 254.2 857.887 258.232C857.887 262.264 857.311 265.88 856.159 269.08C855.007 272.28 853.343 275 851.167 277.24C849.055 279.48 846.463 281.208 843.391 282.424C840.319 283.576 836.863 284.152 833.023 284.152ZM833.023 273.592C836.223 273.592 838.719 272.6 840.511 270.616C842.303 268.632 843.199 265.816 843.199 262.168V254.296C843.199 250.648 842.303 247.832 840.511 245.848C838.719 243.864 836.223 242.872 833.023 242.872C829.823 242.872 827.327 243.864 825.535 245.848C823.743 247.832 822.847 250.648 822.847 254.296V262.168C822.847 265.816 823.743 268.632 825.535 270.616C827.327 272.6 829.823 273.592 833.023 273.592ZM919.828 211.96H934.036V242.488H934.612C935.188 241.08 935.892 239.768 936.724 238.552C937.556 237.336 938.548 236.28 939.7 235.384C940.916 234.424 942.292 233.688 943.828 233.176C945.428 232.6 947.22 232.312 949.204 232.312C951.572 232.312 953.748 232.728 955.732 233.56C957.716 234.328 959.412 235.512 960.82 237.112C962.228 238.712 963.316 240.664 964.084 242.968C964.916 245.272 965.332 247.928 965.332 250.936V283H951.124V252.856C951.124 246.456 948.34 243.256 942.772 243.256C941.684 243.256 940.596 243.416 939.508 243.736C938.484 243.992 937.556 244.44 936.724 245.08C935.892 245.656 935.22 246.392 934.708 247.288C934.26 248.184 934.036 249.24 934.036 250.456V283H919.828V211.96ZM1015.02 283C1012.08 283 1009.71 282.264 1007.92 280.792C1006.13 279.256 1005.07 277.08 1004.75 274.264H1004.27C1003.37 277.528 1001.58 279.992 998.894 281.656C996.27 283.32 993.038 284.152 989.198 284.152C984.398 284.152 980.526 282.872 977.582 280.312C974.702 277.688 973.262 274.04 973.262 269.368C973.262 264.184 975.15 260.344 978.926 257.848C982.702 255.352 988.238 254.104 995.534 254.104H1003.5V251.608C1003.5 248.664 1002.8 246.456 1001.39 244.984C1000.05 243.448 997.742 242.68 994.478 242.68C991.47 242.68 989.038 243.256 987.182 244.408C985.326 245.56 983.726 247.064 982.382 248.92L974.606 242.008C976.27 239.192 978.862 236.888 982.382 235.096C985.966 233.24 990.542 232.312 996.11 232.312C1002.89 232.312 1008.17 233.88 1011.95 237.016C1015.79 240.088 1017.71 244.76 1017.71 251.032V272.728H1023.18V283H1015.02ZM994.574 274.84C997.07 274.84 999.182 274.232 1000.91 273.016C1002.64 271.8 1003.5 270.04 1003.5 267.736V261.784H995.918C990.094 261.784 987.182 263.736 987.182 267.64V269.56C987.182 271.288 987.854 272.6 989.198 273.496C990.542 274.392 992.334 274.84 994.574 274.84ZM1028.62 233.464H1042.82V242.488H1043.5C1044.71 239.544 1046.47 237.112 1048.78 235.192C1051.08 233.272 1054.22 232.312 1058.18 232.312C1060.94 232.312 1063.43 232.824 1065.67 233.848C1067.98 234.872 1069.93 236.44 1071.53 238.552C1073.19 240.664 1074.47 243.352 1075.37 246.616C1076.33 249.88 1076.81 253.752 1076.81 258.232C1076.81 262.712 1076.33 266.584 1075.37 269.848C1074.47 273.112 1073.19 275.8 1071.53 277.912C1069.93 280.024 1067.98 281.592 1065.67 282.616C1063.43 283.64 1060.94 284.152 1058.18 284.152C1054.22 284.152 1051.08 283.224 1048.78 281.368C1046.47 279.448 1044.71 276.984 1043.5 273.976H1042.82V302.2H1028.62V233.464ZM1052.04 273.112C1055.24 273.112 1057.7 272.152 1059.43 270.232C1061.16 268.248 1062.02 265.528 1062.02 262.072V254.392C1062.02 250.936 1061.16 248.248 1059.43 246.328C1057.7 244.344 1055.24 243.352 1052.04 243.352C1049.54 243.352 1047.37 243.96 1045.51 245.176C1043.72 246.392 1042.82 248.312 1042.82 250.936V265.528C1042.82 268.152 1043.72 270.072 1045.51 271.288C1047.37 272.504 1049.54 273.112 1052.04 273.112ZM1083.3 233.464H1097.51V242.488H1098.18C1099.4 239.544 1101.16 237.112 1103.46 235.192C1105.76 233.272 1108.9 232.312 1112.87 232.312C1115.62 232.312 1118.12 232.824 1120.36 233.848C1122.66 234.872 1124.61 236.44 1126.21 238.552C1127.88 240.664 1129.16 243.352 1130.05 246.616C1131.01 249.88 1131.49 253.752 1131.49 258.232C1131.49 262.712 1131.01 266.584 1130.05 269.848C1129.16 273.112 1127.88 275.8 1126.21 277.912C1124.61 280.024 1122.66 281.592 1120.36 282.616C1118.12 283.64 1115.62 284.152 1112.87 284.152C1108.9 284.152 1105.76 283.224 1103.46 281.368C1101.16 279.448 1099.4 276.984 1098.18 273.976H1097.51V302.2H1083.3V233.464ZM1106.72 273.112C1109.92 273.112 1112.39 272.152 1114.12 270.232C1115.84 268.248 1116.71 265.528 1116.71 262.072V254.392C1116.71 250.936 1115.84 248.248 1114.12 246.328C1112.39 244.344 1109.92 243.352 1106.72 243.352C1104.23 243.352 1102.05 243.96 1100.2 245.176C1098.4 246.392 1097.51 248.312 1097.51 250.936V265.528C1097.51 268.152 1098.4 270.072 1100.2 271.288C1102.05 272.504 1104.23 273.112 1106.72 273.112ZM1173.6 233.464H1188.09L1164.77 290.968C1163.29 294.616 1161.34 297.4 1158.91 299.32C1156.48 301.24 1153.15 302.2 1148.93 302.2H1139.13V291.16H1151.04L1154.11 282.712L1134.14 233.464H1149.41L1156.61 254.296L1161.12 268.696H1161.89L1166.21 254.296L1173.6 233.464ZM836.863 391C831.743 391 827.935 389.656 825.439 386.968C822.943 384.28 821.695 380.856 821.695 376.696V352.504H808.255V341.464H816.991C819.103 341.464 820.607 341.048 821.503 340.216C822.399 339.384 822.847 337.848 822.847 335.608V323.992H835.903V341.464H855.199V352.504H835.903V379.96H855.199V391H836.863ZM887.705 392.152C883.865 392.152 880.409 391.576 877.337 390.424C874.265 389.208 871.641 387.48 869.465 385.24C867.353 383 865.721 380.28 864.569 377.08C863.417 373.88 862.841 370.264 862.841 366.232C862.841 362.2 863.417 358.584 864.569 355.384C865.721 352.184 867.353 349.464 869.465 347.224C871.641 344.984 874.265 343.288 877.337 342.136C880.409 340.92 883.865 340.312 887.705 340.312C891.545 340.312 895.001 340.92 898.073 342.136C901.145 343.288 903.737 344.984 905.849 347.224C908.025 349.464 909.689 352.184 910.841 355.384C911.993 358.584 912.569 362.2 912.569 366.232C912.569 370.264 911.993 373.88 910.841 377.08C909.689 380.28 908.025 383 905.849 385.24C903.737 387.48 901.145 389.208 898.073 390.424C895.001 391.576 891.545 392.152 887.705 392.152ZM887.705 381.592C890.905 381.592 893.401 380.6 895.193 378.616C896.985 376.632 897.881 373.816 897.881 370.168V362.296C897.881 358.648 896.985 355.832 895.193 353.848C893.401 351.864 890.905 350.872 887.705 350.872C884.505 350.872 882.009 351.864 880.217 353.848C878.425 355.832 877.529 358.648 877.529 362.296V370.168C877.529 373.816 878.425 376.632 880.217 378.616C882.009 380.6 884.505 381.592 887.705 381.592ZM974.51 319.96H988.718V350.488H989.294C989.87 349.08 990.574 347.768 991.406 346.552C992.238 345.336 993.23 344.28 994.382 343.384C995.598 342.424 996.974 341.688 998.51 341.176C1000.11 340.6 1001.9 340.312 1003.89 340.312C1006.25 340.312 1008.43 340.728 1010.41 341.56C1012.4 342.328 1014.09 343.512 1015.5 345.112C1016.91 346.712 1018 348.664 1018.77 350.968C1019.6 353.272 1020.01 355.928 1020.01 358.936V391H1005.81V360.856C1005.81 354.456 1003.02 351.256 997.454 351.256C996.366 351.256 995.278 351.416 994.19 351.736C993.166 351.992 992.238 352.44 991.406 353.08C990.574 353.656 989.902 354.392 989.39 355.288C988.942 356.184 988.718 357.24 988.718 358.456V391H974.51V319.96ZM1069.7 391C1066.76 391 1064.39 390.264 1062.6 388.792C1060.81 387.256 1059.75 385.08 1059.43 382.264H1058.95C1058.06 385.528 1056.26 387.992 1053.58 389.656C1050.95 391.32 1047.72 392.152 1043.88 392.152C1039.08 392.152 1035.21 390.872 1032.26 388.312C1029.38 385.688 1027.94 382.04 1027.94 377.368C1027.94 372.184 1029.83 368.344 1033.61 365.848C1037.38 363.352 1042.92 362.104 1050.22 362.104H1058.18V359.608C1058.18 356.664 1057.48 354.456 1056.07 352.984C1054.73 351.448 1052.42 350.68 1049.16 350.68C1046.15 350.68 1043.72 351.256 1041.86 352.408C1040.01 353.56 1038.41 355.064 1037.06 356.92L1029.29 350.008C1030.95 347.192 1033.54 344.888 1037.06 343.096C1040.65 341.24 1045.22 340.312 1050.79 340.312C1057.58 340.312 1062.86 341.88 1066.63 345.016C1070.47 348.088 1072.39 352.76 1072.39 359.032V380.728H1077.86V391H1069.7ZM1049.26 382.84C1051.75 382.84 1053.86 382.232 1055.59 381.016C1057.32 379.8 1058.18 378.04 1058.18 375.736V369.784H1050.6C1044.78 369.784 1041.86 371.736 1041.86 375.64V377.56C1041.86 379.288 1042.54 380.6 1043.88 381.496C1045.22 382.392 1047.02 382.84 1049.26 382.84ZM1097.99 391L1080.23 341.464H1095.2L1101.64 362.68L1106.34 379.192H1107.11L1111.81 362.68L1118.24 341.464H1132.64L1114.88 391H1097.99ZM1162.46 392.152C1154.14 392.152 1147.84 389.848 1143.55 385.24C1139.26 380.632 1137.12 374.36 1137.12 366.424C1137.12 362.392 1137.66 358.776 1138.75 355.576C1139.9 352.312 1141.5 349.56 1143.55 347.32C1145.66 345.016 1148.19 343.288 1151.13 342.136C1154.14 340.92 1157.5 340.312 1161.21 340.312C1164.93 340.312 1168.25 340.92 1171.2 342.136C1174.14 343.288 1176.64 344.952 1178.69 347.128C1180.73 349.304 1182.3 351.96 1183.39 355.096C1184.54 358.168 1185.12 361.624 1185.12 365.464V369.688H1151.23V370.552C1151.23 373.752 1152.22 376.344 1154.21 378.328C1156.19 380.248 1159.1 381.208 1162.94 381.208C1165.89 381.208 1168.41 380.664 1170.53 379.576C1172.64 378.424 1174.46 376.92 1176 375.064L1183.68 383.416C1181.76 385.784 1179.07 387.832 1175.61 389.56C1172.16 391.288 1167.77 392.152 1162.46 392.152ZM1161.31 350.488C1158.24 350.488 1155.77 351.448 1153.92 353.368C1152.13 355.224 1151.23 357.752 1151.23 360.952V361.72H1171.2V360.952C1171.2 357.688 1170.3 355.128 1168.51 353.272C1166.78 351.416 1164.38 350.488 1161.31 350.488ZM733.258 449.464H747.754L724.426 506.968C722.954 510.616 721.002 513.4 718.57 515.32C716.138 517.24 712.81 518.2 708.586 518.2H698.794V507.16H710.698L713.77 498.712L693.802 449.464H709.066L716.266 470.296L720.778 484.696H721.546L725.866 470.296L733.258 449.464ZM775.46 500.152C771.62 500.152 768.164 499.576 765.092 498.424C762.02 497.208 759.396 495.48 757.22 493.24C755.108 491 753.476 488.28 752.324 485.08C751.172 481.88 750.596 478.264 750.596 474.232C750.596 470.2 751.172 466.584 752.324 463.384C753.476 460.184 755.108 457.464 757.22 455.224C759.396 452.984 762.02 451.288 765.092 450.136C768.164 448.92 771.62 448.312 775.46 448.312C779.3 448.312 782.756 448.92 785.828 450.136C788.9 451.288 791.492 452.984 793.604 455.224C795.78 457.464 797.444 460.184 798.596 463.384C799.748 466.584 800.324 470.2 800.324 474.232C800.324 478.264 799.748 481.88 798.596 485.08C797.444 488.28 795.78 491 793.604 493.24C791.492 495.48 788.9 497.208 785.828 498.424C782.756 499.576 779.3 500.152 775.46 500.152ZM775.46 489.592C778.66 489.592 781.156 488.6 782.948 486.616C784.74 484.632 785.636 481.816 785.636 478.168V470.296C785.636 466.648 784.74 463.832 782.948 461.848C781.156 459.864 778.66 458.872 775.46 458.872C772.26 458.872 769.764 459.864 767.972 461.848C766.18 463.832 765.284 466.648 765.284 470.296V478.168C765.284 481.816 766.18 484.632 767.972 486.616C769.764 488.6 772.26 489.592 775.46 489.592ZM838.495 489.976H837.918C836.831 492.792 835.103 495.192 832.735 497.176C830.431 499.16 827.294 500.152 823.327 500.152C820.958 500.152 818.782 499.768 816.799 499C814.814 498.168 813.118 496.952 811.71 495.352C810.302 493.752 809.182 491.8 808.35 489.496C807.582 487.192 807.198 484.536 807.198 481.528V449.464H821.406V479.608C821.406 486.008 824.19 489.208 829.758 489.208C830.847 489.208 831.903 489.08 832.927 488.824C834.015 488.504 834.943 488.056 835.71 487.48C836.543 486.84 837.215 486.072 837.726 485.176C838.239 484.28 838.495 483.224 838.495 482.008V449.464H852.703V499H838.495V489.976ZM916.948 427.96H931.156V458.488H931.732C932.308 457.08 933.012 455.768 933.844 454.552C934.676 453.336 935.668 452.28 936.82 451.384C938.036 450.424 939.412 449.688 940.948 449.176C942.548 448.6 944.34 448.312 946.324 448.312C948.692 448.312 950.868 448.728 952.852 449.56C954.836 450.328 956.532 451.512 957.94 453.112C959.348 454.712 960.436 456.664 961.204 458.968C962.036 461.272 962.452 463.928 962.452 466.936V499H948.244V468.856C948.244 462.456 945.46 459.256 939.892 459.256C938.804 459.256 937.716 459.416 936.628 459.736C935.604 459.992 934.676 460.44 933.844 461.08C933.012 461.656 932.34 462.392 931.828 463.288C931.38 464.184 931.156 465.24 931.156 466.456V499H916.948V427.96ZM995.534 500.152C987.214 500.152 980.91 497.848 976.622 493.24C972.334 488.632 970.19 482.36 970.19 474.424C970.19 470.392 970.734 466.776 971.822 463.576C972.974 460.312 974.574 457.56 976.622 455.32C978.734 453.016 981.262 451.288 984.206 450.136C987.214 448.92 990.574 448.312 994.286 448.312C997.998 448.312 1001.33 448.92 1004.27 450.136C1007.21 451.288 1009.71 452.952 1011.76 455.128C1013.81 457.304 1015.37 459.96 1016.46 463.096C1017.61 466.168 1018.19 469.624 1018.19 473.464V477.688H984.302V478.552C984.302 481.752 985.294 484.344 987.278 486.328C989.262 488.248 992.174 489.208 996.014 489.208C998.958 489.208 1001.49 488.664 1003.6 487.576C1005.71 486.424 1007.53 484.92 1009.07 483.064L1016.75 491.416C1014.83 493.784 1012.14 495.832 1008.69 497.56C1005.23 499.288 1000.85 500.152 995.534 500.152ZM994.382 458.488C991.31 458.488 988.846 459.448 986.99 461.368C985.198 463.224 984.302 465.752 984.302 468.952V469.72H1004.27V468.952C1004.27 465.688 1003.37 463.128 1001.58 461.272C999.854 459.416 997.454 458.488 994.382 458.488ZM1027.18 487.96H1038.6V460.504H1027.18V449.464H1052.81V463.48H1053.48C1053.93 461.688 1054.54 459.96 1055.3 458.296C1056.14 456.568 1057.16 455.064 1058.38 453.784C1059.66 452.44 1061.19 451.384 1062.98 450.616C1064.78 449.848 1066.89 449.464 1069.32 449.464H1074.02V462.52H1063.46C1059.94 462.52 1057.29 463.576 1055.5 465.688C1053.7 467.736 1052.81 470.264 1052.81 473.272V487.96H1069.13V499H1027.18V487.96ZM1104.9 500.152C1096.58 500.152 1090.28 497.848 1085.99 493.24C1081.7 488.632 1079.56 482.36 1079.56 474.424C1079.56 470.392 1080.1 466.776 1081.19 463.576C1082.34 460.312 1083.94 457.56 1085.99 455.32C1088.1 453.016 1090.63 451.288 1093.57 450.136C1096.58 448.92 1099.94 448.312 1103.65 448.312C1107.36 448.312 1110.69 448.92 1113.64 450.136C1116.58 451.288 1119.08 452.952 1121.12 455.128C1123.17 457.304 1124.74 459.96 1125.83 463.096C1126.98 466.168 1127.56 469.624 1127.56 473.464V477.688H1093.67V478.552C1093.67 481.752 1094.66 484.344 1096.64 486.328C1098.63 488.248 1101.54 489.208 1105.38 489.208C1108.32 489.208 1110.85 488.664 1112.96 487.576C1115.08 486.424 1116.9 484.92 1118.44 483.064L1126.12 491.416C1124.2 493.784 1121.51 495.832 1118.05 497.56C1114.6 499.288 1110.21 500.152 1104.9 500.152ZM1103.75 458.488C1100.68 458.488 1098.21 459.448 1096.36 461.368C1094.56 463.224 1093.67 465.752 1093.67 468.952V469.72H1113.64V468.952C1113.64 465.688 1112.74 463.128 1110.95 461.272C1109.22 459.416 1106.82 458.488 1103.75 458.488ZM1155.93 475.672L1150.46 451.48V431.992H1166.01V451.48L1160.54 475.672H1155.93ZM1158.24 500.152C1154.78 500.152 1152.35 499.416 1150.94 497.944C1149.53 496.472 1148.83 494.712 1148.83 492.664V489.592C1148.83 487.608 1149.53 485.88 1150.94 484.408C1152.41 482.936 1154.85 482.2 1158.24 482.2C1161.63 482.2 1164.03 482.936 1165.44 484.408C1166.91 485.88 1167.65 487.608 1167.65 489.592V492.664C1167.65 494.712 1166.94 496.472 1165.53 497.944C1164.13 499.416 1161.69 500.152 1158.24 500.152Z" fill="black"/>
<path d="M426.895 245.128C423.172 228.573 420.875 215.027 416.993 201.957C411.672 182.627 399.731 165.781 383.255 154.358C366.779 142.935 346.815 137.661 326.847 139.456C297.062 141.199 267.278 144.368 237.493 147.378C204.065 150.388 170.636 153.398 137.207 156.646C116.532 158.705 95.6198 159.894 75.2617 163.775C22.1087 173.835 -0.388222 221.126 5.94894 267.863C9.27595 292.736 12.3654 317.689 15.6924 343.513L-31.8363 354.524C-55.0461 359.752 -62.3339 372.268 -55.6006 395.002C-52.0109 406.687 -44.219 416.627 -33.7296 422.903C-23.2402 429.179 -10.7973 431.346 1.19614 428.985C9.98895 427.48 18.8609 426.45 27.6538 425.183C30.347 441.026 32.4067 455.443 35.5752 469.86C37.9469 482.391 43.5937 494.071 51.9416 503.713C60.2896 513.355 71.0412 520.615 83.1039 524.756C75.4329 527.045 68.6991 531.736 63.8936 538.139C59.088 544.542 56.4644 552.318 56.4087 560.323C55.8897 570.264 57.533 580.2 61.2254 589.445C64.9179 598.69 70.5716 607.024 77.7966 613.872C80.6948 616.568 84.2206 618.498 88.0539 619.485C91.8872 620.473 95.9065 620.487 99.7468 619.527C103.587 618.567 107.127 616.663 110.044 613.988C112.962 611.313 115.165 607.951 116.453 604.208C117.427 600.688 119.32 597.491 121.937 594.944C124.554 592.396 127.801 590.591 131.346 589.712C160.338 578.067 177.844 555.174 189.41 527.291C190.084 524.661 191.622 522.333 193.776 520.682C195.931 519.03 198.577 518.149 201.292 518.181C236.384 514.379 271.318 509.784 306.251 505.427C318.925 503.843 331.521 501.863 344.195 500.991C345.883 501.231 347.504 501.811 348.961 502.696C350.418 503.582 351.68 504.753 352.671 506.14C368.038 525.31 382.852 544.876 398.298 563.888C410.973 579.731 425.152 582.661 441.55 571.017C457.929 558.821 473.513 545.591 488.207 531.41C492.13 528.372 494.909 524.095 496.089 519.276C497.268 514.456 496.78 509.379 494.702 504.873C492.669 500.176 489.126 496.292 484.634 493.838C480.142 491.384 474.96 490.5 469.908 491.327C466.612 491.868 463.23 491.248 460.34 489.572C457.451 487.896 455.233 485.268 454.065 482.138C453.338 480.612 452.434 479.176 451.372 477.861C446.376 472.719 443.022 466.208 441.739 459.154C440.455 452.101 441.299 444.825 444.164 438.253C448.283 425.5 445.589 410.37 445.114 396.27C444.73 384.863 443.672 373.489 441.946 362.208C440.837 355.237 444.005 352.306 449.075 348.662C488.024 321.643 517.462 283.03 533.201 238.316C536.437 228.49 537.252 218.027 535.577 207.818C533.717 199.883 529.58 192.663 523.672 187.048C517.765 181.432 510.345 177.665 502.326 176.209C494.306 174.753 486.036 175.672 478.532 178.853C471.027 182.034 464.616 187.339 460.086 194.114C449.709 210.749 438.936 226.83 426.895 245.128ZM342.769 273.329C341.699 278.742 340.135 284.045 338.095 289.172C336.613 293.159 334.086 296.676 330.781 299.354C327.475 302.032 323.511 303.773 319.302 304.396C315.094 305.019 310.795 304.501 306.855 302.896C302.915 301.291 299.479 298.658 296.904 295.271C292.777 290.814 289.691 285.496 287.869 279.702C286.048 273.907 285.535 267.78 286.368 261.764C288.982 237.999 311.004 226.592 328.114 239.742C338.175 247.98 341.343 259.149 342.769 273.329ZM144.733 288.063C144.574 285.715 144.574 283.36 144.733 281.013C147.664 258.991 168.973 248.376 186.004 260.417C203.035 272.458 204.223 305.807 188.222 318.56C184.238 321.56 179.487 323.372 174.517 323.788C158.278 325.056 144.574 308.342 144.812 288.142L144.733 288.063ZM248.266 368.386C240.827 368.612 233.516 366.417 227.43 362.131C221.345 357.846 216.815 351.702 214.521 344.622C210.481 332.977 216.184 325.452 228.304 327.749C242.281 331.584 257.191 329.999 270.05 323.313C281.378 316.738 288.666 321.967 288.111 335.195C287.319 353.89 269.733 368.386 248.266 368.386Z" fill="black"/>
<path d="M466.982 115.776C464.089 116.598 461.394 118 459.06 119.895C452.691 126.258 446.935 133.207 441.871 140.65C440.851 142.55 440.318 144.672 440.318 146.828C440.318 148.985 440.851 151.107 441.871 153.007C443.609 154.165 445.621 154.848 447.706 154.987C449.791 155.126 451.876 154.717 453.753 153.799C462.512 147.149 470.485 139.521 477.517 131.065C482.745 124.49 477.2 115.856 466.982 115.776Z" fill="black"/>
<path d="M407.256 89C404.052 92.0506 401.375 95.6106 399.334 99.5355C396.731 106.409 395.546 113.738 395.849 121.082C396.169 123.622 397.045 126.06 398.414 128.223C399.783 130.386 401.612 132.221 403.77 133.598C409.078 136.133 413.672 131.934 415.256 125.676C417.471 118.391 419.269 110.986 420.643 103.496C421.91 96.5254 419.93 90.109 407.256 89Z" fill="black"/>
<path d="M342.768 273.331C341.342 259.073 338.173 247.903 328.113 240.14C311.003 226.991 288.981 238.318 286.367 262.162C285.533 268.179 286.046 274.306 287.868 280.1C289.69 285.895 292.776 291.213 296.902 295.67C299.477 299.056 302.914 301.69 306.854 303.295C310.794 304.9 315.092 305.418 319.301 304.795C323.509 304.172 327.473 302.43 330.779 299.752C334.085 297.074 336.611 293.558 338.094 289.57C340.157 284.315 341.722 278.879 342.768 273.331Z" fill="#D1F24A"/>
<path d="M144.809 288.143C144.809 308.342 158.275 325.056 174.594 323.868C179.563 323.452 184.314 321.64 188.298 318.64C204.141 305.887 202.715 272.22 186.08 260.497C169.445 248.773 147.74 259.071 144.809 281.092C144.651 283.44 144.651 285.795 144.809 288.143Z" fill="#D1F24A"/>
<path d="M248.269 368.388C269.737 368.388 287.322 353.734 287.877 335.356C288.431 322.127 281.143 316.899 269.816 323.474C256.957 330.16 242.047 331.744 228.07 327.91C215.95 325.613 210.247 333.138 214.286 344.782C216.62 351.873 221.198 358.012 227.329 362.27C233.46 366.529 240.81 368.677 248.269 368.388Z" fill="#D1F24A"/>
<path d="M341.328 675C410.522 670.448 514.489 664.321 618.28 656.618C633.813 655.393 657.643 656.618 657.996 633.335C658.349 610.051 635.932 611.451 620.398 609.876C560.207 603.573 499.839 594.995 439.471 594.295C325.618 593.07 211.766 595.871 97.7378 598.847C64.2131 601.268 30.8558 605.593 -2.16969 611.802C-6.65977 612.02 -10.9995 613.475 -14.7021 616.003C-20.5271 621.605 -28.294 628.258 -29 635.085C-28.3289 638.768 -26.7312 642.223 -24.3552 645.13C-21.9793 648.037 -18.902 650.303 -15.4083 651.716C9.7197 658.482 35.4232 662.936 61.3758 665.021C142.396 669.223 224.829 670.974 341.328 675Z" fill="black"/>
</g>
<defs>
<clipPath id="clip0_153_455">
<rect width="1282" height="645" fill="white"/>
</clipPath>
</defs>
</svg>
