<svg width="1024" height="1024" viewBox="0 0 1024 1024" fill="none" xmlns="http://www.w3.org/2000/svg">
<g clip-path="url(#clip0_171_4)">
<rect width="1024" height="1024" fill="#D1F24A"/>
<path d="M738.524 823.918C773.678 821.385 806.607 813.367 836.772 796.022C873.281 775.042 897.069 742.928 914.437 705.483C924.58 683.633 931.639 660.88 932.002 636.53C932.02 632.325 931.498 628.135 930.45 624.063C926.044 606.387 911.133 598.788 893.534 605.176C876.937 611.211 865.77 623.7 855.869 637.576C853.953 640.252 852.124 642.995 850.252 645.704C841.563 639.096 835.649 640.131 829.327 649.008C823.468 657.169 821.816 666.739 820.065 676.199C816.971 692.906 807.863 705.362 793.821 714.338C776.777 725.41 757.022 731.592 736.707 732.212C736.212 727.873 735.485 723.941 735.363 719.987C734.504 690.858 733.987 661.717 732.941 632.587C731.938 604.284 732.247 575.782 725.231 548.062C718.723 522.434 706.267 500.937 680.926 489.45C667.974 483.58 654.153 481.014 640.078 480.133C572.898 475.937 505.564 478.415 438.307 478.778C422.36 478.866 406.369 478.305 390.488 479.153C371.039 480.188 352.019 483.712 335.313 494.791C317.031 506.906 307.251 524.659 302.571 545.529C297.141 569.758 298.276 594.295 298.925 618.81C299.762 649.768 300.401 680.737 301.414 711.694C301.591 717.113 299.751 720.89 296.216 724.8C275.853 747.3 260.159 772.74 251.613 801.958C239.08 844.821 249.642 882.354 279.818 914.765C295.643 931.769 315.137 942.816 337.416 949.776C332.475 1002.19 335.867 993.711 330.948 1045.77C321.961 1047.54 313.327 1048.99 304.869 1051C300.463 1052.1 293.855 1052.64 293.712 1058C293.613 1063.99 300.628 1064.54 305.089 1065.26C319.868 1067.59 334.725 1070.35 349.615 1070.77C416.861 1072.61 484.111 1074 551.364 1074.93C581.793 1075.38 612.244 1074.93 642.673 1074.18C669.23 1073.56 695.771 1072.43 722.298 1070.78C736.098 1069.9 749.831 1067.38 763.553 1065.49C765.733 1065.24 767.839 1064.55 769.743 1063.46C771.879 1062.14 765.264 1120.88 767.147 1119.11C765.187 1117.22 771.868 1053.76 769.533 1052.89C764.451 1050.88 759.132 1049.54 753.708 1048.88C746.153 1048.13 741.395 1046.32 739.093 1037.55C735.877 1025.34 724.472 1024.38 714.439 1017.05C716.887 1025.33 716.329 1014.89 713.355 1015.97C689.498 994.283 700.937 1022.18 699.252 1001.77C697.996 986.637 696.796 971.497 695.65 956.351C695.21 950.525 693.051 943.774 695.243 939.104C697.291 934.699 704.252 932.838 708.712 929.424C726.19 916.043 735.143 898.036 736.245 876.241C737.104 860.151 737.456 844.028 738.073 827.927C738.106 826.649 738.337 825.427 738.524 823.918ZM389.794 944.809C393.825 938.796 399.123 933.311 401.556 926.769C406.744 912.794 402.228 899.743 392.878 889.16C384.2 879.336 373.737 871.12 364.365 861.891C352.79 850.471 341.359 838.885 330.224 826.991C328.385 825.008 327.879 821.055 328.022 818.07C328.407 810.052 329.41 802.046 330.302 794.061C331.271 785.35 332.119 776.606 333.517 767.96C333.992 765.135 335.549 762.605 337.858 760.909C340.167 759.212 343.047 758.483 345.885 758.875C359.244 760.791 372.57 762.983 385.94 764.811C404.2 767.322 422.492 769.601 440.774 771.958C455.091 773.797 469.408 775.471 483.725 777.465C486.75 777.864 489.498 779.434 491.378 781.837C493.258 784.24 494.121 787.285 493.78 790.317C490.895 813.863 487.822 837.398 484.97 860.955C481.666 888.146 478.064 915.327 475.509 942.584C474.606 952.331 468.009 958.212 457.029 956.042C444.695 953.597 432.217 951.912 419.805 949.853C409.442 948.135 399.079 946.373 389.794 944.809ZM459.045 974.831C464.838 971.406 469.728 968.289 474.849 965.591C477.591 964.126 480.708 962.474 483.659 962.441C505.685 962.177 527.623 962.276 549.606 962.298C557.854 962.298 566.125 962.298 574.341 962.65C575.784 962.65 578.262 964.379 578.394 965.536C580.486 982.936 582.215 1000.37 584.132 1017.79C586.136 1035.93 581.429 993.333 583.445 1011.48C584.546 1021.18 585.46 1030.91 586.495 1040.99H594.932C557.564 1040.99 520.175 1040.53 482.818 1041.24C472.323 1041.45 465.649 1038.9 460.594 1029.48C456.75 1022.3 450.803 1016.26 454.129 1007.13C454.66 1005.39 455.007 1003.59 455.164 1001.77C459.294 972.165 455.091 1003.29 459.045 974.831ZM620.332 592.5C634.968 592.5 646.179 604.493 646.235 620.11C646.29 635.726 634.539 648.336 620.067 648.38C605.596 648.424 593.493 635.286 593.757 620.198C594.032 604.416 605.497 592.467 620.332 592.5ZM482.91 620.275C482.91 635.616 471.302 648.336 457.261 648.347C443.219 648.358 430.961 635.484 430.752 620.737C430.521 604.834 442.162 592.39 457.184 592.445C471.501 592.533 482.899 604.856 482.91 620.275ZM535.3 709.481C531.863 709.073 526.038 708.633 520.311 707.642C516.753 706.908 513.269 705.85 509.903 704.481C501.963 701.496 499.595 698.281 501.544 693.545C503.494 688.809 507.15 688.038 515.146 690.847C532.767 697.08 550.101 696.849 567.072 688.435C568.504 687.719 570.288 686.838 571.687 687.113C574 687.576 577.436 688.424 578.03 689.999C578.889 692.3 578.284 695.692 577.105 698.027C576.169 699.888 573.581 701.111 571.5 702.157C560.883 707.521 549.484 709.481 535.3 709.481Z" fill="#212523"/>
<path d="M218.165 466.092C243.495 466.092 268.825 465.585 294.045 466.257C312.911 466.763 326.809 454.418 326.82 433.449C326.82 391.276 326.82 349.114 326.82 306.963C326.971 302.584 326.62 298.201 325.774 293.902C324.263 287.432 320.615 281.661 315.419 277.52C310.224 273.38 303.784 271.112 297.14 271.083C243.991 270.972 190.838 270.972 137.681 271.083C119.245 271.083 108.519 287.349 108.651 300.532C109.113 345.256 108.805 389.98 108.86 434.715C108.86 453.614 121.305 466.048 140.104 466.07C166.139 466.07 192.167 466.07 218.187 466.07L218.165 466.092ZM246.964 428.46C246.017 427.094 244.244 425.365 243.506 423.262C242.405 420.211 242.471 416.775 241.436 413.713C236.59 399.286 226.403 390.74 211.623 387.733C208.154 387.018 205.082 385.454 205.566 382.095C205.875 379.98 209.145 378.251 211.194 376.456C211.678 376.037 212.648 376.203 213.275 375.872C219.465 372.568 226.216 370.002 231.645 365.74C239.156 359.837 241.37 350.685 243.528 341.677C244.09 339.32 246.733 337.459 248.418 335.366C250.114 337.426 252.372 339.243 253.374 341.6C254.696 344.727 254.663 348.417 255.863 351.621C261.226 365.938 272.383 373.251 286.612 377.073C288.902 377.689 290.576 380.619 292.526 382.48C290.532 384.253 288.814 386.577 286.501 387.7C280.995 390.399 274.662 391.731 269.618 395.068C260.367 401.191 255.235 410.343 253.925 421.5C253.528 424.859 252.647 428.14 246.964 428.46ZM148.012 335.399C150.027 333.868 151.217 332.337 152.714 331.93C164.829 328.692 171.668 321.093 173.133 308.549C173.298 307.084 175.071 305.818 176.106 304.463C177.207 305.664 178.914 306.743 179.157 308.098C181.359 320.036 187.78 327.833 199.718 331.038C201.26 331.456 202.328 333.582 203.617 334.915C202.306 336.17 201.172 338.152 199.63 338.538C187.516 341.588 181.403 349.683 179.245 361.544C178.97 363.042 177.196 364.253 176.106 365.597C175.071 364.32 173.309 363.141 173.1 361.742C171.293 349.562 164.708 341.919 152.637 339.033C151.161 338.67 149.994 337.007 148.012 335.399Z" fill="#212523"/>
<path d="M807.455 474.582C807.367 480.089 810.99 483.932 817.466 484.78C826.915 486.003 836.188 487.908 844.481 492.853C859.822 501.961 867.928 515.881 871.287 532.985C872.025 536.74 872.586 540.551 873.655 544.207C874.91 548.48 877.862 550.881 882.564 550.815C887.267 550.749 890.108 548.216 891.298 543.954C892.564 539.394 893.401 534.725 894.447 530.121C900.141 505.133 916.22 491.366 941 486.983C943.335 486.564 945.691 486.256 948.004 485.761C953.423 484.659 957.112 480.86 957.332 476.355C957.563 471.642 953.125 466.08 948.158 464.637C940.449 462.435 932.432 460.926 925.295 457.545C907.079 448.933 897.476 433.514 893.632 414.142C892.928 410.563 892.278 406.973 891.353 403.46C890.251 399.054 887.311 396.477 882.729 396.488C878.324 396.488 875.527 398.977 874.47 403.096C873.478 406.973 872.906 410.949 872.036 414.847C865.78 442.776 848.302 458.745 820.274 463.536C811.398 465.122 807.554 468.624 807.455 474.582Z" fill="#212523"/>
<path d="M79.2559 566.432C74.333 565.981 69.9278 564.758 65.7869 565.331C58.1988 566.432 55.0271 573.756 59.0689 580.243C65.06 589.846 71.2751 599.31 77.7141 608.634C82.3396 615.352 89.8284 616.993 96.3372 612.038C106.249 604.527 115.5 596.289 124.971 588.227C128.771 584.923 130.236 580.782 128.275 575.926C126.315 571.069 122.46 569.142 117.427 569.142C116.7 569.142 115.974 569.042 114.597 568.932C120.104 557.853 128.396 550.761 139.575 546.3C167.008 535.342 199.321 554.791 205.918 579.945C209.111 592.06 221.413 596.928 231.16 590.595C236.666 587.038 238.748 581.641 236.6 574.835C227.437 545.926 209.001 525.64 179.828 516.466C141.161 504.351 102.868 521.268 83.562 558.316C82.0092 561.223 80.4893 564.109 79.2559 566.432Z" fill="#212523"/>
<path d="M218.332 657.566C221.415 658.722 224.059 660.341 226.823 660.616C233.431 661.266 238.486 656.112 237.737 649.284C236.636 639.372 235.336 629.361 233.42 619.548C231.36 608.932 225.534 605.342 215.127 608.205C206.548 610.562 198.189 613.712 189.797 616.575C185.072 618.161 181.724 621.178 181.625 626.388C181.526 631.597 184.654 634.78 189.235 636.718C189.929 637.065 190.599 637.459 191.24 637.896C186.085 646.398 177.782 649.801 168.982 651.52C147.771 655.66 129.181 650.705 114.335 634.185C109.611 628.932 102.716 627.709 95.778 630.518C90.2714 632.72 87.2649 637.258 87.5733 643.987C87.6795 646.513 88.4838 648.96 89.897 651.057C102.683 668.744 120.348 678.469 141.659 681.684C171.075 686.156 196.438 677.378 218.332 657.566Z" fill="#212523"/>
<path d="M389.795 944.809C399.079 946.372 409.442 948.112 419.806 949.842C432.218 951.901 444.695 953.586 457.03 956.031C468.043 958.234 474.651 952.32 475.51 942.573C478.065 915.315 481.666 888.135 484.97 860.944C487.834 837.387 490.906 813.852 493.781 790.306C494.121 787.274 493.259 784.229 491.379 781.826C489.499 779.422 486.751 777.853 483.726 777.453C469.409 775.471 455.092 773.797 440.775 771.947C422.493 769.59 404.2 767.31 385.94 764.799C372.571 762.971 359.245 760.78 345.886 758.863C343.047 758.471 340.168 759.201 337.859 760.897C335.55 762.594 333.992 765.123 333.518 767.949C332.119 776.594 331.315 785.339 330.302 794.05C329.41 802.035 328.408 810.041 328.022 818.059C327.879 821.043 328.386 824.997 330.225 826.979C341.315 838.874 352.747 850.459 364.366 861.88C373.738 871.109 384.189 879.325 392.879 889.148C402.229 899.732 406.744 912.782 401.557 926.758C399.123 933.311 393.826 938.795 389.795 944.809ZM394.465 801.33C403.683 802.431 413.462 803.61 423.231 804.821C431.546 805.867 439.872 806.88 448.176 808.07C454.277 808.951 457.691 813.576 456.81 819.248C456.006 824.38 451.061 827.541 445.235 826.638C443.616 826.385 441.997 826.087 440.378 825.867C424.299 823.664 408.209 821.704 392.163 819.347C385.995 818.444 383.275 814.7 383.914 809.314C384.509 804.281 388.154 801.374 394.465 801.33ZM441.05 867.684C429.222 865.933 416.039 864.16 402.934 861.968C398.528 861.219 395.434 856.065 396.194 851.99C397.13 846.924 400.599 843.907 405.786 844.127C410.158 844.329 414.518 844.752 418.848 845.393C427.658 846.671 436.469 847.959 445.279 849.6C450.345 850.558 452.526 854.402 452.217 859.281C451.909 864.16 447.537 867.662 441.05 867.684Z" fill="#D3F34A"/>
<path d="M459.046 974.83C455.092 1003.29 450.973 1032.88 446.843 1062.48C446.685 1064.3 446.338 1066.1 445.808 1067.85C442.504 1076.97 448.429 1083.01 452.272 1090.19C457.328 1099.62 464.001 1102.16 474.497 1101.95C511.853 1101.25 549.243 1101.69 586.61 1101.7H593.361C592.326 1091.62 591.39 1081.88 590.311 1072.2C588.295 1054.05 586.148 1035.93 584.143 1017.79C582.227 1000.37 580.498 982.935 578.406 965.535C578.273 964.433 575.795 962.704 574.353 962.649C566.115 962.297 557.833 962.308 549.617 962.297C527.591 962.297 505.653 962.176 483.671 962.44C480.708 962.44 477.592 964.125 474.86 965.59C469.728 968.288 464.838 971.405 459.046 974.83Z" fill="#D3F34A"/>
<path d="M620.33 592.499C605.496 592.499 594.031 604.415 593.756 620.197C593.491 635.285 605.76 648.424 620.066 648.379C634.372 648.335 646.288 635.637 646.233 620.109C646.178 604.58 634.967 592.532 620.33 592.499Z" fill="#D3F34A"/>
<path d="M482.911 620.275C482.911 604.857 471.502 592.5 457.207 592.445C442.163 592.39 430.522 604.835 430.775 620.738C430.984 635.484 443.341 648.347 457.284 648.347C471.226 648.347 482.922 635.693 482.911 620.275Z" fill="#D3F34A"/>
<path d="M535.3 709.479C549.485 709.479 560.883 707.507 571.5 702.155C573.581 701.109 576.169 699.886 577.105 698.025C578.284 695.69 578.89 692.298 578.031 689.997C577.436 688.422 574 687.574 571.687 687.111C570.288 686.836 568.504 687.717 567.073 688.433C550.101 696.847 532.767 697.078 515.146 690.845C507.15 688.025 503.571 688.642 501.545 693.543C499.518 698.444 501.963 701.494 509.903 704.479C513.269 705.848 516.753 706.906 520.311 707.64C526.038 708.642 531.864 709.082 535.3 709.479Z" fill="#D3F34A"/>
<path d="M246.966 428.46C252.649 428.141 253.574 424.859 253.926 421.522C255.237 410.344 260.369 401.192 269.62 395.091C274.664 391.787 280.986 390.421 286.503 387.723C288.816 386.622 290.534 384.276 292.527 382.503C290.578 380.642 288.904 377.712 286.613 377.095C272.373 373.274 261.283 365.95 255.865 351.644C254.664 348.439 254.697 344.75 253.376 341.622C252.374 339.265 250.072 337.448 248.42 335.389C246.735 337.481 244.092 339.342 243.53 341.699C241.327 350.708 239.125 359.86 231.647 365.763C226.217 370.025 219.466 372.602 213.277 375.895C212.649 376.225 211.68 376.06 211.196 376.479C209.147 378.274 205.876 380.003 205.568 382.117C205.083 385.476 208.156 387.04 211.625 387.756C226.405 390.763 236.592 399.309 241.438 413.736C242.473 416.798 242.451 420.234 243.508 423.284C244.246 425.344 246.019 427.095 246.966 428.46Z" fill="#D3F34A"/>
<path d="M148.012 335.399C149.994 337.007 151.162 338.703 152.637 339.033C164.752 341.963 171.294 349.562 173.1 361.742C173.309 363.141 175.071 364.319 176.106 365.597C177.208 364.253 178.97 363.042 179.245 361.544C181.448 349.683 187.505 341.588 199.63 338.537C201.172 338.152 202.307 336.17 203.617 334.914C202.329 333.582 201.26 331.456 199.719 331.037C187.78 327.833 181.305 320.024 179.157 308.097C178.915 306.743 177.164 305.663 176.106 304.463C175.071 305.818 173.298 307.084 173.133 308.549C171.668 321.093 164.818 328.692 152.715 331.93C151.217 332.337 150.027 333.868 148.012 335.399Z" fill="#D3F34A"/>
<path d="M394.466 801.329C388.155 801.329 384.554 804.28 383.915 809.313C383.276 814.699 385.997 818.443 392.164 819.346C408.21 821.703 424.3 823.751 440.379 825.866C441.998 826.086 443.617 826.383 445.236 826.637C451.062 827.54 456.007 824.434 456.811 819.247C457.692 813.531 454.278 808.95 448.177 808.069C439.873 806.879 431.547 805.866 423.232 804.82C413.463 803.608 403.684 802.441 394.466 801.329Z" fill="#212523"/>
<path d="M441.049 867.685C447.536 867.685 451.886 864.215 452.183 859.282C452.481 854.348 450.311 850.559 445.245 849.601C436.435 847.96 427.624 846.671 418.814 845.394C414.484 844.752 410.124 844.33 405.752 844.127C400.554 843.907 397.096 846.925 396.16 851.991C395.4 856.066 398.439 861.22 402.9 861.969C416.038 864.16 429.221 865.933 441.049 867.685Z" fill="#212523"/>
</g>
<defs>
<clipPath id="clip0_171_4">
<rect width="1024" height="1024" fill="white"/>
</clipPath>
</defs>
</svg>
