<svg width="1024" height="1024" viewBox="0 0 1024 1024" fill="none" xmlns="http://www.w3.org/2000/svg">
<g clip-path="url(#clip0_139_1441)">
<rect width="1024" height="1024" fill="#D1F24A"/>
<path d="M928.009 287.497C921.114 270.871 913.036 254.76 903.835 239.291C868.559 188.554 818.666 170.705 758.654 179.138C671.517 191.365 584.52 204.155 497.524 216.944C453.393 223.55 409.122 229.734 365.413 238.026C280.244 254.048 238.924 322.352 247.216 401.197C253.681 464.582 264.081 527.686 272.514 590.509C272.719 595.323 271.855 600.123 269.984 604.563C253.822 654.878 236.535 704.771 222.199 755.507C217.843 772.296 217.554 789.882 221.356 806.806C231.475 852.763 286.709 865.553 326.201 831.541C343.423 857.469 368.273 877.407 397.316 888.602C400.127 889.586 402.516 894.645 402.938 898.018C404.944 909.193 405.838 920.538 405.608 931.889C404.08 938.946 401.472 945.725 397.879 951.987C390.661 964.393 385.309 977.795 381.997 991.76C381.474 995.536 381.792 999.379 382.928 1003.02C384.064 1006.66 385.99 1010 388.568 1012.8C391.147 1015.61 394.314 1017.81 397.843 1019.25C401.372 1020.69 405.175 1021.34 408.982 1021.13C452.972 1021.13 497.102 1019.87 540.952 1016.35C563.861 1014.53 573.277 997.664 575.104 969.133C576.931 940.603 579.882 909.824 582.272 879.326L762.87 855.012C762.87 884.807 762.87 912.073 762.87 939.338C762.217 943.929 760.322 948.255 757.389 951.846C754.437 956.203 750.081 959.717 746.848 963.793C741.259 969.265 737.351 976.22 735.583 983.84C733.815 991.459 734.262 999.424 736.87 1006.8C743.194 1022.26 758.794 1023.1 772.006 1023.24C804.19 1023.24 836.515 1023.24 868.7 1020.29C878.418 1019.8 887.73 1016.24 895.304 1010.13C902.878 1004.02 908.324 995.673 910.863 986.28C915.92 967.436 920.001 948.343 923.09 929.078C924.383 917.969 926.307 906.942 928.852 896.051C928.852 930.484 928.852 965.057 928.852 999.49C928.852 1020.71 932.225 1023.94 954.15 1023.94C969.047 1023.94 983.945 1023.94 998.983 1023.94C1021.19 1023.94 1024 1021.27 1024 999.49C1024 845.454 1024 691.326 1024 537.103C1024 360.955 1024 167.251 1024 -8.99075C1024 -33.867 1022.74 -35.1318 997.437 -34.9913C983.383 -34.9913 969.329 -34.9913 954.431 -34.9913C930.398 -34.9913 927.306 -32.321 927.306 -8.70966C927.306 62.9675 927.634 152.154 928.29 223.831C928.149 244.631 928.009 265.432 928.009 287.497ZM657.462 470.204L661.117 468.658C661.117 465.706 661.117 462.755 661.117 459.663C661.382 448.894 664.967 438.47 671.382 429.816C677.797 421.162 686.729 414.701 696.955 411.316C707.807 408.776 719.209 410.217 729.088 415.376C738.967 420.535 746.666 429.068 750.783 439.425C757.169 454.641 760.419 470.989 760.34 487.491C760.59 498.063 757.293 508.415 750.977 516.896C744.66 525.378 735.686 531.502 725.486 534.292C715.744 536.254 705.63 535.064 696.609 530.895C687.589 526.726 680.129 519.794 675.312 511.102C668.031 497.965 661.872 484.236 656.9 470.063L657.462 470.204ZM392.538 508.432C392.327 504.827 392.327 501.214 392.538 497.61C393.25 487.167 397.032 477.166 403.408 468.865C409.784 460.564 418.471 454.331 428.377 450.949C438.066 449.064 448.096 450.071 457.217 453.845C466.339 457.618 474.149 463.992 479.675 472.171C487.255 482.562 492.049 494.721 493.598 507.49C495.148 520.258 493.403 533.211 488.529 545.114C486.327 551.284 482.752 556.874 478.076 561.462C473.399 566.05 467.742 569.516 461.53 571.6C455.319 573.684 448.716 574.331 442.218 573.492C435.72 572.653 429.498 570.351 424.02 566.757C414.262 560.497 406.254 551.861 400.748 541.659C395.241 531.457 392.416 520.024 392.538 508.432ZM952.042 740.75C909.879 737.799 887.251 719.106 878.818 682.143C869.262 641.105 885.424 607.515 912.549 578.703C919.348 571.718 928.105 566.958 937.664 565.051C947.224 563.144 957.137 564.18 966.096 568.022C948.241 573.732 932.672 584.988 921.652 600.153C910.632 615.318 904.735 633.602 904.819 652.348C903.089 670.099 906.649 687.964 915.053 703.695C923.456 719.426 936.326 732.319 952.042 740.75ZM588.456 612.574C576.172 618.075 563.543 622.77 550.649 626.629C543.134 628.107 535.338 626.648 528.865 622.553C526.476 621.148 527.6 608.499 530.833 604.282C549.666 578.141 611.645 572.52 634.694 594.866C636.981 597.204 638.663 600.064 639.593 603.199C640.524 606.334 640.676 609.649 640.035 612.856C637.927 617.072 628.511 619.883 622.467 619.742C611.017 618.181 599.697 615.785 588.596 612.574H588.456Z" fill="#121212"/>
<path d="M656.911 470.065C661.643 484.604 667.614 498.71 674.76 512.228C679.578 520.919 687.037 527.852 696.058 532.021C705.079 536.19 715.192 537.38 724.934 535.417C735.135 532.628 744.108 526.504 750.425 518.022C756.742 509.541 760.038 499.189 759.789 488.616C759.868 472.115 756.617 455.767 750.232 440.55C746.114 430.194 738.416 421.66 728.537 416.502C718.658 411.343 707.255 409.902 696.404 412.442C686.177 415.826 677.245 422.288 670.83 430.941C664.415 439.595 660.83 450.02 660.565 460.789C660.565 463.881 660.565 466.832 660.565 469.783L656.911 470.065Z" fill="#D1F24A"/>
<path d="M392.538 508.432C392.431 520.037 395.28 531.479 400.812 541.682C406.344 551.884 414.379 560.513 424.163 566.757C429.611 570.275 435.78 572.524 442.214 573.338C448.647 574.151 455.182 573.509 461.335 571.458C467.487 569.408 473.1 566.001 477.759 561.489C482.418 556.978 486.003 551.477 488.251 545.394C493.125 533.491 494.87 520.539 493.32 507.77C491.77 495.002 486.977 482.843 479.396 472.452C473.87 464.272 466.06 457.899 456.939 454.125C447.817 450.352 437.788 449.345 428.098 451.23C418.192 454.611 409.506 460.844 403.13 469.146C396.754 477.447 392.972 487.447 392.259 497.89C392.153 501.406 392.244 504.926 392.538 508.432Z" fill="#D1F24A"/>
<path d="M952.042 740.75C936.23 732.282 923.298 719.301 914.888 703.458C906.479 687.615 902.974 669.628 904.82 651.787C904.737 633.041 910.633 614.757 921.653 599.592C932.673 584.427 948.242 573.171 966.097 567.461C957.139 563.619 947.225 562.583 937.666 564.49C928.106 566.396 919.349 571.157 912.55 578.142C885.425 606.251 869.263 640.544 878.82 681.582C887.393 719.248 909.879 737.799 952.042 740.75Z" fill="#D1F24A"/>
<path d="M665.162 563.092H509.442V656.524H665.162V563.092Z" fill="#121212"/>
<path d="M650.969 495.311C657.392 537.83 690.173 568.133 724.188 562.994C758.203 557.856 780.571 519.222 774.148 476.703C767.725 434.185 734.943 403.882 700.928 409.02C666.914 414.159 644.546 452.792 650.969 495.311Z" fill="#D1F24A"/>
<path d="M380.506 524.504C386.928 567.022 419.71 597.325 453.725 592.187C487.74 587.048 510.107 548.415 503.685 505.896C497.262 463.377 464.48 433.075 430.465 438.213C396.45 443.351 374.083 481.985 380.506 524.504Z" fill="#D1F24A"/>
<path d="M597.716 686.586C607.277 685.859 616.534 682.893 624.737 677.927C632.941 672.961 639.861 666.136 644.939 658.001C648.959 650.843 645.958 639.644 646.077 630.241C637.604 631.543 626.63 629.532 620.795 634.126C612.674 641.155 602.734 645.749 592.118 647.38C581.502 649.012 570.641 647.613 560.785 643.347C554.459 641.048 546.765 644.648 538.687 645.747C540.032 654.498 539.773 665.771 545.04 671.36C551.693 678.324 560.072 683.401 569.325 686.076C578.577 688.75 588.373 688.926 597.716 686.586Z" fill="#D1F24A"/>
<path d="M283 145C283 201.129 234.825 247.592 172.75 254.384V271C172.75 275.177 171.091 279.183 168.137 282.137C165.183 285.091 161.177 286.75 157 286.75C152.823 286.75 148.817 285.091 145.863 282.137C142.909 279.183 141.25 275.177 141.25 271V239.5C141.25 235.323 142.909 231.317 145.863 228.363C148.817 225.409 152.823 223.75 157 223.75C209.113 223.75 251.5 188.431 251.5 145C251.5 101.569 209.113 66.25 157 66.25C104.887 66.25 62.5 101.569 62.5 145C62.5 149.177 60.8406 153.183 57.8869 156.137C54.9332 159.091 50.9272 160.75 46.75 160.75C42.5728 160.75 38.5668 159.091 35.6131 156.137C32.6594 153.183 31 149.177 31 145C31 84.205 87.5228 34.75 157 34.75C226.477 34.75 283 84.205 283 145ZM157 334C150.77 334 144.68 335.847 139.5 339.309C134.319 342.77 130.282 347.69 127.898 353.445C125.514 359.201 124.89 365.535 126.105 371.645C127.321 377.756 130.321 383.369 134.726 387.774C139.131 392.179 144.744 395.179 150.855 396.395C156.965 397.61 163.299 396.986 169.055 394.602C174.81 392.218 179.73 388.181 183.191 383C186.653 377.82 188.5 371.73 188.5 365.5C188.5 357.146 185.181 349.134 179.274 343.226C173.366 337.319 165.354 334 157 334Z" fill="#121212"/>
</g>
<defs>
<clipPath id="clip0_139_1441">
<rect width="1024" height="1024" fill="white"/>
</clipPath>
</defs>
</svg>
