<svg width="1024" height="1024" viewBox="0 0 1024 1024" fill="none" xmlns="http://www.w3.org/2000/svg">
<rect width="1024" height="1024" fill="#D1F24A"/>
<rect x="281.301" y="355.567" width="193.342" height="203.608" fill="#212523"/>
<path d="M318.087 385.51H441.279" stroke="#D1F24A" stroke-width="7"/>
<path d="M335.197 408.608H424.169" stroke="#D1F24A" stroke-width="7"/>
<path d="M599.285 1005.01C596.347 989.931 593.344 976.941 591.386 963.819C589.717 954.894 590.089 945.706 592.474 936.944C594.86 928.183 599.196 920.074 605.16 913.227C609.477 908.111 614.931 904.077 621.086 901.447C627.242 898.817 633.927 897.664 640.608 898.081C646.961 897.871 653.259 899.313 658.889 902.265C664.518 905.217 669.286 909.579 672.726 914.924C665.545 918.71 662.215 912.313 657.776 910.681C632.97 901.28 610.97 910.681 604.442 936.793C601.552 948.25 600.999 960.172 602.816 971.847C604.633 983.523 608.782 994.713 615.017 1004.75C617.565 1009.22 621.09 1013.06 625.329 1015.97C629.568 1018.89 634.412 1020.81 639.498 1021.59C648.713 1023.44 658.109 1024.23 667.504 1023.94C695.64 1021.66 723.71 1018.52 751.716 1015.2C770.386 1013.04 789.122 1010.69 807.531 1007.1C820.542 1004.51 833.299 1000.77 845.655 995.937C857.393 991.102 867.18 982.486 873.465 971.457C876.453 967.303 878.338 962.459 878.944 957.378C879.549 952.297 878.854 947.146 876.925 942.407C871.944 930.699 869.007 918.224 868.243 905.523C873.4 915.185 876.141 920.146 878.687 925.107C880.776 929.285 882.735 933.594 884.563 938.164C895.922 965.255 920.402 966.039 939.595 958.923C953.891 953.636 960.876 941.101 961.986 925.695C962.915 906.053 960.147 886.411 953.826 867.79C944.959 837.571 929.884 809.534 909.565 785.471C904.832 780.292 901.168 774.229 898.782 767.631C896.396 761.033 895.335 754.029 895.66 747.021C896.313 719.603 895.66 692.054 895.138 664.636C895.138 652.102 893.31 639.634 891.743 627.23C885.738 581.534 850.225 547.783 797.674 544.715C792.19 544.389 786.706 544.715 781.158 544.715L548.104 545.433C530.814 544.879 513.577 547.627 497.316 553.529C459.257 568.739 437.91 596.352 436.931 637.675C436.082 672.992 436.278 708.375 436.931 743.627C437.777 770.344 433.34 796.965 423.875 821.964C415.964 840.662 412.051 860.808 412.385 881.108C418.913 887.114 426.355 883.915 433.079 884.894C440.54 885.449 447.741 887.876 454.016 891.949C460.292 896.022 465.439 901.611 468.984 908.2C469.875 911.261 470.401 914.416 470.55 917.6C466.018 912.952 461.2 908.591 456.124 904.544C450.609 900.092 444.134 896.985 437.212 895.467C430.289 893.949 423.108 894.062 416.237 895.796C409.24 897.364 402.929 901.132 398.23 906.548C393.531 911.964 390.69 918.743 390.124 925.891C387.631 946.266 390.21 966.941 397.632 986.08C405.661 1006.32 420.545 1017.61 442.871 1016.96C468.984 1016.24 494.574 1015 520.425 1013.89C534.526 1013.24 548.627 1012.45 562.727 1011.87C575.22 1011.74 587.594 1009.42 599.285 1005.01ZM681.147 721.235C682.126 702.304 694.203 690.227 709.871 690.357C713.787 690.372 717.66 691.174 721.26 692.718C724.859 694.261 728.111 696.513 730.822 699.34C733.532 702.166 735.646 705.509 737.038 709.17C738.429 712.831 739.07 716.734 738.921 720.648C739.378 739.644 727.105 752.896 709.283 752.7C705.351 752.535 701.493 751.584 697.935 749.902C694.378 748.221 691.193 745.843 688.57 742.91C685.947 739.976 683.939 736.547 682.664 732.824C681.389 729.101 680.873 725.161 681.147 721.235ZM551.173 751.133C547.449 751.177 543.753 750.476 540.304 749.071C536.855 747.666 533.721 745.585 531.088 742.952C528.454 740.318 526.373 737.185 524.968 733.736C523.563 730.287 522.862 726.591 522.906 722.867C521.992 703.805 533.678 690.227 551.238 690.227C554.949 690.056 558.655 690.65 562.126 691.972C565.598 693.294 568.76 695.315 571.417 697.911C574.074 700.507 576.169 703.621 577.572 707.061C578.974 710.501 579.654 714.192 579.57 717.906C580.288 736.902 568.603 750.742 551.173 751.133ZM600.982 769.151C603.728 769.701 606.385 770.624 608.881 771.893C613.878 775.721 619.965 777.855 626.259 777.984C632.552 778.113 638.722 776.231 643.872 772.611C646.544 771.025 649.453 769.879 652.489 769.216C653.246 769.161 654.005 769.294 654.7 769.601C655.394 769.909 656.002 770.382 656.471 770.979C657.385 772.872 658.364 775.81 657.515 777.507C645.634 796.569 615.213 799.441 600.721 782.925C599.779 782.025 599.038 780.936 598.548 779.728C598.059 778.521 597.831 777.223 597.881 775.921C597.93 774.619 598.255 773.342 598.835 772.175C599.415 771.008 600.235 769.977 601.243 769.151H600.982Z" fill="#212523"/>
<path d="M418.455 709.816V694.344C411.47 687.816 403.245 690.231 395.672 690.166C336.919 690.166 278.166 690.166 219.414 690.166C197.414 690.166 175.479 690.166 153.48 690.166C131.48 690.166 119.272 678.089 118.097 655.306C118.097 649.888 118.097 644.339 118.097 638.855C118.097 517.955 118.097 397.076 118.097 276.219C118.097 269.691 118.097 263.62 118.097 257.353C117.972 249.785 120.728 242.452 125.806 236.84C130.885 231.228 137.907 227.757 145.45 227.129C153.217 226.103 161.057 225.732 168.886 226.019H514.875C541.51 226.019 568.21 226.019 594.91 226.019C600.384 225.788 605.868 226.05 611.295 226.802C619.195 227.656 626.5 231.403 631.803 237.321C637.106 243.239 640.033 250.909 640.019 258.855C640.541 265.905 640.41 273.021 640.41 280.071C640.41 353.839 640.41 427.628 640.41 501.439C640.41 508.489 640.411 515.539 641.324 522.59C641.753 524.89 643.002 526.958 644.84 528.407C646.678 529.856 648.979 530.589 651.317 530.469C653.654 530.35 655.868 529.386 657.548 527.757C659.228 526.127 660.26 523.944 660.452 521.611C661.039 515.083 661.039 509.077 661.039 502.81V269.691C661.039 264.991 661.039 260.226 661.039 255.526C660.717 242.419 655.415 229.926 646.211 220.589C637.007 211.251 624.592 205.769 611.491 205.259C606.007 204.867 600.524 205.259 595.04 205.259H161.77C156.287 205.259 150.803 205.259 145.319 205.259C133.438 205.85 122.123 210.515 113.278 218.469C104.432 226.423 98.5958 237.181 96.7503 248.932C95.2365 258.998 94.6032 269.177 94.8573 279.353C94.8573 377.493 94.8573 475.631 94.8573 573.771C94.8573 598.055 94.8573 622.404 94.8573 646.754C94.7355 654.601 95.3035 662.443 96.5547 670.191C98.5255 680.673 103.805 690.248 111.619 697.51C119.432 704.771 129.368 709.335 139.967 710.534C145.432 711.078 150.926 711.296 156.417 711.186C236.452 711.186 316.508 711.186 396.586 711.186C403.767 710.991 409.969 710.338 418.455 709.816Z" fill="#212523"/>
<path d="M749.494 456.982C749.494 467.754 748.972 477.154 749.494 486.489C750.604 502.875 760.788 508.423 775.606 500.786C780.372 498.044 784.951 494.991 789.315 491.646C802.371 482.637 815.427 473.955 827.57 464.294C835.586 457.954 845.627 454.73 855.836 455.22C887.237 455.611 918.637 455.22 950.037 455.22C961.042 455.576 971.977 453.34 981.959 448.692C1006.57 436.68 1021.52 416.769 1022.5 389.939C1024 350.77 1024.33 311.602 1022.5 272.433C1022.04 254.107 1014.32 236.716 1001.03 224.082C987.751 211.448 969.995 204.607 951.669 205.063C890.435 205.063 829.202 205.063 767.968 205.063C758.699 204.664 749.445 206.156 740.771 209.449C732.097 212.741 724.184 217.766 717.514 224.216C710.844 230.665 705.558 238.405 701.976 246.964C698.395 255.523 696.593 264.722 696.681 274C695.811 312.428 695.811 350.901 696.681 389.417C696.543 402.496 700.291 415.322 707.45 426.27C714.609 437.217 724.857 445.793 736.895 450.911L749.494 456.982ZM771.755 438.703C763.007 435.7 755.565 433.612 748.449 430.609C741.098 427.735 734.678 422.897 729.889 416.622C725.099 410.348 722.126 402.88 721.292 395.031C720.704 390.376 720.443 385.686 720.509 380.995C720.509 347.223 720.509 313.517 720.509 279.875C720.432 275.16 720.716 270.446 721.358 265.774C722.635 256.387 727.007 247.694 733.783 241.072C740.558 234.45 749.349 230.278 758.764 229.217C767.433 228.255 776.156 227.862 784.876 228.042C816.994 228.042 849.134 228.042 881.296 228.042C905.581 228.042 929.865 228.042 954.15 228.89C980.784 230 998.149 247.169 998.737 273.673C999.607 311.275 999.607 348.877 998.737 386.479C998.084 414.158 980.001 430.87 952.061 431.327C926.927 431.784 901.86 431.327 876.792 431.327C828.157 431.914 840.822 425.321 797.345 456.917C792.253 460.638 787.096 464.163 781.743 467.362C779.34 468.313 776.81 468.907 774.235 469.125C773.321 459.528 772.603 450.389 771.755 438.703Z" fill="#212523"/>
<path d="M212.103 572.337C194.085 572.337 176.067 572.337 157.984 572.337C139.902 572.337 134.94 576.515 134.353 593.814C133.7 613.399 133.7 632.983 134.353 652.567C134.94 666.798 140.881 672.151 155.243 672.151C192.888 672.543 230.533 672.543 268.179 672.151C283.259 672.151 288.22 667.125 288.612 652.567C289.199 632.199 289.265 611.767 288.612 591.399C288.612 576.58 283.781 572.337 268.244 571.815C249.443 571.423 230.577 571.815 211.776 571.815L212.103 572.337Z" fill="#212523"/>
<path d="M418.455 668.555C418.833 652.118 420.25 635.721 422.699 619.463C426.998 604.107 432.386 589.075 438.823 574.485C433.881 573.536 428.89 572.86 423.874 572.461C391.755 572.461 359.615 572.461 327.453 572.461C324.313 572.385 321.171 572.538 318.053 572.918C313.697 573.163 309.593 575.037 306.557 578.17C303.521 581.303 301.775 585.464 301.667 589.826C301.08 596.354 301.276 602.36 301.276 608.626C301.276 623.511 301.276 638.46 301.602 653.344C302.059 664.768 308.13 672.145 318.445 672.21C350.498 672.21 382.616 671.753 414.669 671.361C415.191 671.231 415.779 670.644 418.455 668.555Z" fill="#212523"/>
<path d="M502.735 530.681C539.815 530.681 575.001 530.681 610.253 530.681C618.413 530.681 621.808 527.155 622.134 519.191C622.591 506.657 622.722 494.123 622.134 481.589C622.072 477.626 620.609 473.813 618.004 470.826C615.399 467.838 611.821 465.87 607.903 465.269C604.046 464.593 600.131 464.308 596.217 464.42C572.716 464.42 549.15 464.42 525.649 464.811C505.216 465.268 499.536 471.34 499.536 492.034C499.34 504.176 496.794 516.841 502.735 530.681Z" fill="#212523"/>
<path d="M562.071 355.858C549.015 355.858 535.437 355.858 522.185 355.858C506.909 356.381 500.185 362.386 499.532 376.944C498.683 396.528 498.814 416.112 499.532 435.697C499.413 438.084 499.791 440.469 500.64 442.703C501.49 444.937 502.793 446.97 504.467 448.675C506.141 450.38 508.151 451.719 510.369 452.609C512.587 453.499 514.965 453.92 517.354 453.845C526.624 454.759 536.089 454.433 545.425 454.563C561.875 454.563 578.065 454.955 594.712 454.563C600.164 454.527 605.588 453.758 610.836 452.278C613.959 451.614 616.764 449.908 618.792 447.441C620.82 444.975 621.951 441.892 621.999 438.699C621.999 415.982 622.456 393.003 621.999 370.612C622.08 368.622 621.737 366.638 620.993 364.791C620.248 362.944 619.119 361.276 617.68 359.899C616.241 358.522 614.526 357.467 612.648 356.804C610.77 356.141 608.773 355.886 606.788 356.054C591.97 355.401 577.086 356.054 562.202 356.054L562.071 355.858ZM611.489 369.306C611.489 380.469 611.881 390.588 611.489 400.641C611.097 410.694 614.427 420.225 608.225 429.625C592.949 422.444 588.64 404.166 571.733 399.14L552.148 416.243L536.873 408.214C525.449 410.825 522.25 423.032 511.935 426.427C508.541 392.415 509.259 381.905 515.722 368.326C547.655 365.278 579.82 365.607 611.685 369.306H611.489Z" fill="#212523"/>
<path d="M681.147 721.242C680.873 725.168 681.389 729.108 682.664 732.831C683.939 736.554 685.948 739.983 688.571 742.917C691.194 745.85 694.378 748.228 697.936 749.909C701.493 751.591 705.352 752.542 709.283 752.707C727.105 752.707 739.378 739.652 738.921 720.655C739.07 716.741 738.43 712.838 737.038 709.177C735.647 705.516 733.533 702.173 730.822 699.347C728.111 696.52 724.859 694.268 721.26 692.725C717.66 691.182 713.787 690.379 709.871 690.364C694.204 690.234 682.127 702.311 681.147 721.242Z" fill="#D1F24A"/>
<path d="M551.172 751.137C568.471 750.746 580.287 736.906 579.503 717.91C579.588 714.196 578.908 710.505 577.505 707.065C576.103 703.625 574.008 700.511 571.351 697.915C568.694 695.319 565.531 693.298 562.06 691.976C558.588 690.654 554.882 690.06 551.172 690.231C533.611 690.231 521.926 704.07 522.839 722.871C522.796 726.601 523.499 730.301 524.908 733.755C526.317 737.209 528.403 740.345 531.044 742.98C533.684 745.614 536.826 747.693 540.283 749.094C543.739 750.495 547.442 751.19 551.172 751.137Z" fill="#D1F24A"/>
<path d="M601.239 769.154C600.308 770.015 599.564 771.06 599.056 772.223C598.548 773.386 598.285 774.641 598.285 775.91C598.285 777.179 598.548 778.435 599.056 779.598C599.564 780.76 600.308 781.805 601.239 782.667C615.731 799.183 646.153 796.31 658.034 777.248C658.882 775.812 658.033 772.875 656.989 770.72C656.52 770.123 655.912 769.65 655.218 769.342C654.523 769.035 653.764 768.903 653.007 768.958C649.971 769.621 647.062 770.766 644.39 772.352C639.24 775.972 633.07 777.855 626.777 777.726C620.484 777.597 614.396 775.462 609.399 771.634C606.808 770.432 604.061 769.597 601.239 769.154Z" fill="#D1F24A"/>
<path d="M771.754 438.7C772.602 450.385 773.32 459.525 774.104 469.317C776.679 469.1 779.208 468.506 781.611 467.555C786.964 464.356 792.121 461.027 797.213 457.11C840.69 425.514 828.026 432.107 876.66 431.519C901.728 431.519 926.796 431.519 951.929 431.519C979.869 431.062 997.626 414.35 998.605 386.671C999.475 349.069 999.475 311.467 998.605 273.866C998.017 247.362 980.653 230.193 954.018 229.083C929.733 228.038 905.449 228.3 881.165 228.234C849.046 228.234 816.906 228.234 784.744 228.234C776.024 228.055 767.301 228.448 758.632 229.41C749.218 230.471 740.427 234.643 733.651 241.265C726.876 247.887 722.503 256.579 721.226 265.967C720.584 270.639 720.3 275.353 720.378 280.068C720.378 313.753 720.378 347.459 720.378 381.188C720.311 385.879 720.573 390.569 721.161 395.224C721.994 403.072 724.968 410.541 729.757 416.815C734.546 423.089 740.967 427.927 748.318 430.801C755.564 433.608 763.006 435.632 771.754 438.7ZM862.755 309.77H792.383C786.93 309.846 781.478 309.563 776.062 308.921C773.355 308.442 770.882 307.081 769.028 305.05C767.175 303.019 766.045 300.433 765.813 297.693C766.084 294.958 767.187 292.372 768.973 290.283C770.759 288.194 773.142 286.701 775.801 286.008C781.207 285.257 786.664 284.93 792.121 285.029C823.369 285.029 854.639 285.029 885.93 285.029C901.532 285.029 917.2 285.029 932.802 285.029C937.461 285.053 942.095 285.711 946.576 286.987C949.175 287.927 951.363 289.747 952.758 292.133C954.154 294.518 954.669 297.317 954.214 300.043C953.858 302.377 952.745 304.529 951.047 306.168C949.348 307.808 947.158 308.844 944.814 309.117C939.37 309.661 933.898 309.879 928.428 309.77C906.494 309.835 884.624 309.77 862.755 309.77ZM879.924 350.636H891.609C907.995 350.636 924.25 350.636 940.766 350.636C948.926 350.636 953.431 354.879 953.822 361.016C953.892 362.789 953.608 364.559 952.987 366.222C952.366 367.885 951.421 369.408 950.206 370.703C948.991 371.997 947.531 373.036 945.91 373.76C944.289 374.484 942.541 374.879 940.766 374.92C937.657 375.116 934.54 375.116 931.431 374.92H830.767C826.861 374.998 822.955 374.78 819.082 374.268C815.964 373.778 813.06 372.375 810.736 370.238C808.413 368.1 806.774 365.324 806.026 362.256C805.504 356.642 812.554 350.832 820.714 350.049C824.566 350.049 828.483 350.049 832.399 350.049L879.924 350.636Z" fill="#D1F24A"/>
<path d="M611.685 369.305C579.756 365.592 547.524 365.264 515.527 368.326C508.998 381.904 508.346 392.414 511.74 426.426C522.055 423.031 525.253 410.824 536.677 408.213L551.953 416.242L571.538 399.139C588.184 404.165 592.754 422.444 608.03 429.625C614.231 420.42 610.771 410.041 611.294 400.64C611.816 391.24 611.685 380.468 611.685 369.305ZM529.692 388.889C533.936 384.972 536.22 381.512 539.028 380.664C543.271 379.358 546.078 382.557 546.927 386.801C547.079 387.741 547.024 388.703 546.765 389.62C546.506 390.537 546.049 391.386 545.427 392.108C544.805 392.83 544.032 393.406 543.164 393.797C542.295 394.189 541.351 394.386 540.399 394.373C536.48 392.98 532.786 391.022 529.431 388.563L529.692 388.889Z" fill="#D1F24A"/>
<path d="M440.779 460.375C435.361 460.375 431.77 465.271 432.162 471.929C432.162 477.544 436.014 481.394 440.583 481.068C441.934 480.9 443.238 480.464 444.419 479.786C445.599 479.108 446.633 478.202 447.459 477.12C448.286 476.039 448.889 474.803 449.232 473.486C449.576 472.168 449.654 470.796 449.461 469.449C449.48 467.104 448.583 464.844 446.962 463.149C445.341 461.455 443.123 460.459 440.779 460.375Z" fill="#212523"/>
<path d="M862.758 309.773C884.627 309.773 906.496 309.773 928.43 309.773C933.9 309.882 939.372 309.664 944.816 309.121C947.161 308.847 949.351 307.811 951.049 306.172C952.748 304.532 953.86 302.38 954.216 300.047C954.671 297.321 954.156 294.521 952.76 292.136C951.365 289.751 949.178 287.93 946.579 286.99C942.098 285.715 937.463 285.056 932.804 285.033C917.202 285.033 901.534 285.033 885.932 285.033C854.685 285.033 823.415 285.033 792.124 285.033C786.666 284.934 781.21 285.26 775.803 286.011C773.144 286.705 770.761 288.197 768.975 290.286C767.189 292.376 766.087 294.962 765.816 297.697C766.047 300.436 767.177 303.023 769.031 305.053C770.884 307.084 773.357 308.445 776.065 308.925C781.48 309.566 786.932 309.85 792.385 309.773H862.758Z" fill="#212523"/>
<path d="M879.928 350.768H833.122C829.205 350.768 825.288 350.768 821.436 350.768C813.015 351.551 806.226 357.296 806.748 362.975C807.496 366.043 809.135 368.82 811.458 370.958C813.781 373.095 816.685 374.497 819.804 374.987C823.677 375.499 827.584 375.718 831.49 375.64H932.153C935.262 375.836 938.379 375.836 941.488 375.64C943.263 375.598 945.011 375.203 946.632 374.479C948.253 373.755 949.713 372.716 950.928 371.422C952.143 370.127 953.089 368.604 953.71 366.941C954.33 365.278 954.614 363.509 954.544 361.735C953.826 355.599 949.322 351.551 941.488 351.355C925.103 350.963 908.848 351.355 892.332 351.355L879.928 350.768Z" fill="#212523"/>
<path d="M529.431 388.568C532.764 390.902 536.413 392.748 540.267 394.052C541.22 394.064 542.164 393.868 543.033 393.476C543.902 393.085 544.674 392.509 545.296 391.787C545.918 391.065 546.375 390.216 546.634 389.299C546.893 388.382 546.948 387.42 546.796 386.479C545.947 382.236 543.14 379.037 538.897 380.343C535.959 381.192 533.935 384.652 529.431 388.568Z" fill="#212523"/>
<path d="M145.562 357.278C143.898 357.279 142.303 357.94 141.126 359.116C139.95 360.293 139.289 361.888 139.289 363.552V445.109C139.289 446.773 139.95 448.369 141.126 449.545C142.303 450.722 143.898 451.383 145.562 451.383H250.218C251.882 451.383 253.477 450.722 254.654 449.545C255.83 448.369 256.491 446.773 256.492 445.109V363.552C256.491 361.888 255.83 360.293 254.654 359.116C253.477 357.94 251.882 357.279 250.218 357.278H145.562ZM151.836 369.826H243.944V438.836H151.836V369.826Z" fill="#020202"/>
<path d="M219.053 389.819C216.943 390.012 215.005 391.067 213.696 392.735L200.751 409.244L192.393 401.472C188.947 398.267 183.459 398.878 180.801 402.762L166.312 423.935C162.816 429.045 166.474 435.983 172.663 435.984H234.242C239.884 435.983 243.608 430.113 241.207 425.006L226.718 394.208C225.339 391.279 222.276 389.525 219.053 389.819Z" fill="#212523"/>
<path d="M168.32 374.297C161.762 374.297 156.307 379.752 156.307 386.311C156.307 392.87 161.762 398.324 168.32 398.324C174.879 398.324 180.334 392.87 180.334 386.311C180.334 379.752 174.879 374.297 168.32 374.297Z" fill="#212523"/>
<path d="M145.562 465.071C143.898 465.071 142.303 465.732 141.126 466.909C139.95 468.085 139.289 469.681 139.289 471.345V552.902C139.289 554.566 139.95 556.161 141.126 557.338C142.303 558.514 143.898 559.176 145.562 559.176H250.218C251.882 559.176 253.477 558.514 254.654 557.338C255.83 556.161 256.491 554.566 256.492 552.902V471.345C256.491 469.681 255.83 468.085 254.654 466.909C253.477 465.732 251.882 465.071 250.218 465.071H145.562ZM151.836 477.618H243.944V546.628H151.836V477.618Z" fill="#020202"/>
<path d="M219.053 497.612C216.943 497.805 215.005 498.859 213.696 500.527L200.751 517.037L192.393 509.264C188.947 506.06 183.459 506.671 180.801 510.554L166.312 531.728C162.816 536.838 166.474 543.776 172.663 543.777H234.242C239.884 543.776 243.608 537.905 241.207 532.799L226.718 502C225.339 499.071 222.276 497.318 219.053 497.612Z" fill="#212523"/>
<path d="M168.32 482.09C161.762 482.09 156.307 487.544 156.307 494.103C156.307 500.662 161.762 506.117 168.32 506.117C174.879 506.117 180.334 500.662 180.334 494.103C180.334 487.544 174.879 482.09 168.32 482.09Z" fill="#212523"/>
<path d="M310.424 451.383C303.866 451.383 298.411 456.838 298.411 463.396C298.411 469.955 303.866 475.41 310.424 475.41C316.983 475.41 322.438 469.955 322.438 463.396C322.438 456.838 316.983 451.383 310.424 451.383Z" fill="#D1F24A"/>
<path d="M347.378 497.612C345.267 497.805 343.329 498.859 342.021 500.527L329.076 517.037L320.718 509.264C317.271 506.06 311.783 506.671 309.125 510.554L294.636 531.728C291.141 536.838 294.798 543.776 300.988 543.777H362.566C368.208 543.776 371.932 537.905 369.531 532.799L355.042 502C353.664 499.071 350.601 497.318 347.378 497.612Z" fill="#D1F24A"/>
<path d="M386.233 482.224C389.282 482.481 392.081 483.887 393.971 486.111L412.67 508.124L424.742 497.76C429.72 493.488 437.648 494.302 441.487 499.48L462.416 527.712C467.465 534.525 462.182 543.775 453.241 543.777H364.294C356.145 543.776 350.765 535.948 354.234 529.14L375.162 488.075C377.154 484.17 381.578 481.831 386.233 482.224Z" fill="#D1F24A"/>
<rect x="139.289" y="246.064" width="109.504" height="99.2376" rx="8" fill="#212523"/>
<rect x="262.48" y="246.064" width="109.504" height="99.2376" rx="8" fill="#212523"/>
<rect x="385.671" y="246.064" width="109.504" height="99.2376" rx="8" fill="#212523"/>
<rect x="508.863" y="246.064" width="109.504" height="99.2376" rx="8" fill="#212523"/>
</svg>
