<svg width="1282" height="928" viewBox="0 0 1282 928" fill="none" xmlns="http://www.w3.org/2000/svg">
<g clip-path="url(#clip0_151_397)">
<rect width="1282" height="928" fill="#D1F24A"/>
<path d="M827.001 733.958C842.671 734.553 857.432 735.086 872.193 735.713C884.352 736.225 896.502 736.831 908.651 737.447C920.142 738.021 931.55 738.784 943.01 739.181C946.353 739.296 947.648 740.738 948.86 743.631C959.808 769.591 970.537 795.655 982.216 821.28C985.883 829.345 991.617 836.699 997.488 843.448C1005.07 852.16 1015.32 855.984 1026.97 856.809C1043.86 857.948 1060.76 858.293 1077.35 854.96C1104.34 849.528 1114.03 832.354 1106.09 805.861C1100.2 786.19 1094.21 766.541 1088.67 746.765C1086.67 739.069 1085.16 731.253 1084.16 723.365C1084.12 722.261 1084.32 721.162 1084.75 720.145C1085.18 719.128 1085.84 718.219 1086.66 717.484C1101.99 706.074 1112.67 689.508 1116.74 670.84C1117.41 668.016 1117.3 665.059 1116.41 662.294C1108.91 641.704 1101.12 621.208 1093.43 600.66C1092.1 597.397 1091.06 594.028 1090.3 590.589C1104.57 598.08 1113.34 610.072 1119.08 624.353C1123.96 636.523 1127.7 649.174 1132.77 661.26C1138.93 675.969 1148.58 687.941 1164.11 693.519C1189.44 702.608 1216 687.512 1223.66 659.944C1229.82 637.735 1226.79 615.901 1220.03 594.465C1209.7 561.653 1191.14 533.875 1166.42 510.224C1158.06 502.201 1148.76 495.087 1139.6 487.931C1138.36 487.084 1137.36 485.915 1136.73 484.548C1136.09 483.182 1135.84 481.669 1135.99 480.169C1136.85 451.149 1137.44 422.108 1138.34 393.087C1139.08 369.164 1136.32 345.952 1124.45 324.704C1108.3 295.819 1083.09 278.739 1051.27 271.949C1033.05 268.073 1014.32 266.339 995.734 264.469C974.151 262.296 952.485 260.897 930.84 259.403C916.967 258.442 903.083 257.575 889.179 257.313C859.793 256.707 830.396 256.018 801.01 256.269C781.443 256.478 761.773 257.763 743.105 264.532C711.494 276.023 693.233 299.559 686.098 331.463C682.609 347.07 681.71 363.346 680.718 379.392C678.629 412.821 677.219 446.364 675.61 479.866C675.359 485.038 675.61 490.24 675.61 495.766C663.837 496.811 652.941 495.442 642.055 493.426C624.422 490.167 609.284 481.747 594.973 471.384C583.586 463.131 571.865 455.307 557.992 451.786C546.814 448.955 535.543 448.339 525.336 454.92C513.291 462.64 508.967 474.769 508.423 488.349C507.504 510.997 516.195 530.47 530.653 547.215C554.858 575.233 585.226 593.546 621.538 601.109C632.664 603.418 644.197 603.846 655.563 604.912C659.49 605.277 663.491 604.974 667.837 604.974C668.255 614.031 668.684 622.65 669.039 631.279C670.084 655.473 675.307 678.288 690.977 697.583C693.732 701.165 697.04 704.286 700.775 706.828C705.017 709.502 706.103 713.096 706.615 717.515C709.321 740.56 712.152 763.595 714.659 786.661C714.847 788.332 713.301 790.839 711.828 791.947C704.192 797.911 697.683 804.806 693.128 813.372C681.961 834.422 691.436 852.986 715.066 855.441C739.814 858 764.687 858.575 789.31 854.291C811.101 850.458 826.144 833.398 826.813 811.241C827.534 787.643 826.97 764.002 826.97 740.372L827.001 733.958ZM924.854 442.165C924.457 423.716 937.828 408.736 955.002 408.464C971.633 408.151 985.674 422.045 986.509 438.759C987.554 459.558 971.111 473.619 957.071 474.048C938.852 474.633 925.251 461.052 924.854 442.165ZM808.03 428.229C808.229 445.299 794.93 459.966 779.521 460.697C761.532 461.554 749.122 445.445 748.443 431.092C747.659 414.555 761.282 397.339 777.307 397.182C794.397 397.004 807.842 410.522 808.03 428.229ZM854.622 535.829C840.237 536.09 828.892 531.243 820.148 521.047C813.379 513.16 808.156 504.385 809.2 493.332C809.733 487.722 813.086 484.536 818.215 484.473C823.345 484.411 825.81 486.646 826.708 492.632C828.725 506.014 840.435 516.398 854.392 517.202C867.91 517.975 878.753 510.036 882.054 496.309C883.193 491.546 886.097 490.104 890.108 489.885C897.536 489.498 901.453 495.871 899.186 504.144C893.409 525.1 872.799 536.508 854.643 535.808L854.622 535.829Z" fill="#212523"/>
<path d="M395.391 90C370.842 90.3134 345.133 95.4531 322.62 111.342C301.142 126.521 288.69 147.049 287.52 173.739C286.298 201.841 307.776 230.924 330.581 235.844C337.308 237.286 344.255 237.777 351.119 238.56C360.75 239.605 367.645 244.692 368.543 252.841C368.961 256.643 368.063 261.49 365.88 264.509C358.306 274.956 356.164 286.102 359.288 298.429C362.787 312.24 370.194 323.397 382.051 331.461C395.005 340.268 409.358 344.164 424.976 345.167C481.188 348.792 531.656 300.623 542.249 249.383C553.447 195.228 526.015 140.102 478.525 112.011C453.61 97.3126 426.731 90.1149 395.391 90ZM397.773 171.546C391.3 171.543 385.084 169.016 380.445 164.502C375.806 159.988 373.111 153.843 372.931 147.372C372.722 133.969 383.942 122.426 397.522 122.071C410.486 121.726 421.957 133.123 422.155 146.568C422.249 149.825 421.686 153.068 420.501 156.103C419.315 159.138 417.53 161.904 415.253 164.234C412.976 166.565 410.253 168.414 407.246 169.67C404.239 170.926 401.01 171.564 397.752 171.546H397.773ZM447.833 263.611C459.627 262.452 472.278 272.689 472.623 288.087C472.926 301.668 461.935 312.417 448.261 312.543C434.586 312.668 423.983 302.222 423.973 288.338C423.962 274.455 434.336 263.611 447.833 263.611ZM493.484 253.958C490.285 254 487.11 253.408 484.141 252.218C481.172 251.027 478.468 249.261 476.184 247.021C473.901 244.781 472.083 242.111 470.835 239.166C469.587 236.22 468.934 233.057 468.914 229.858C468.851 215.829 479.548 204.787 493.108 204.787C499.584 204.872 505.763 207.52 510.291 212.15C514.82 216.78 517.329 223.016 517.271 229.493C517.292 242.718 506.459 253.906 493.484 253.938V253.958ZM489.681 162.217C489.828 175.724 479.747 186.307 466.574 186.474C460.175 186.519 454.018 184.035 449.442 179.562C444.866 175.09 442.241 168.991 442.139 162.593C441.857 149.284 453.119 137.521 466.083 137.521C479.047 137.521 489.535 148.574 489.681 162.196V162.217Z" fill="#212523"/>
<path d="M216.84 642.454C262.93 642.454 309.024 642.454 355.121 642.454C366.236 642.454 374.791 637.064 377.361 627.965C378.383 623.931 378.854 619.777 378.761 615.617C378.629 534.768 378.42 453.919 378.134 373.069C378.071 359.061 370.049 351.32 355.977 351.247C329.537 351.121 303.096 351.163 276.656 351.163C213.691 351.163 150.727 351.163 87.7621 351.163C83.4372 351.163 79.0915 351.905 74.7666 351.821C64.3201 351.612 55.0542 362.654 55.0855 373.842C55.3049 449.131 55.1895 524.429 55.1687 599.718C55.1687 606.153 54.981 612.577 55.0019 619.012C55.075 633.993 63.5574 642.444 78.5586 642.454C123.082 642.454 167.609 642.454 212.139 642.454H216.84ZM226.001 376.339H231.381C269.647 376.339 307.913 376.433 346.178 376.214C351.496 376.214 352.885 377.718 352.874 382.973C352.805 459.142 352.895 535.304 353.146 611.459C353.146 616.244 351.621 617.195 347.181 617.174C308.393 617.017 269.605 617.08 230.817 617.08H226.022L226.001 376.339ZM207.197 376.339V616.798C206.723 616.913 206.242 616.997 205.756 617.048C165.589 617.048 125.422 617.048 85.2443 617.163C80.418 617.163 80.5224 614.614 80.5224 611.219C80.5642 535.078 80.547 458.936 80.4704 382.795C80.4704 377.979 81.5151 376.182 86.7383 376.214C125.171 376.433 163.604 376.339 202.037 376.339H207.197Z" fill="#212523"/>
<path d="M189.971 810.851C189.971 829.655 190.076 848.459 189.971 867.2C189.919 873.332 191.726 877.5 197.733 880.341C229.647 895.458 261.457 910.877 293.183 926.306C298.313 928.792 302.972 928.594 308.059 926.306C340.889 911.152 373.761 896.084 406.674 881.104C412.66 878.377 414.478 873.791 414.405 867.701C414.134 845.415 413.914 823.157 413.747 800.927C413.642 785.623 413.559 770.318 413.695 754.962C413.695 749.394 411.417 745.769 406.487 743.471C373.677 728.247 340.872 713.002 308.07 697.736C306.12 696.773 303.976 696.272 301.802 696.272C299.628 696.272 297.483 696.773 295.534 697.736C263.191 712.277 230.828 726.767 198.444 741.204C192.374 743.92 189.606 748.036 189.731 754.962C190.076 773.567 189.846 792.173 189.846 810.778L189.971 810.851ZM395.246 865.873L311.308 904.17C311.308 871.378 311.308 839.6 311.444 807.811C311.444 806.349 313.136 804.186 314.578 803.538C330.686 796.393 346.879 789.467 363.071 782.52C373.643 777.986 384.235 773.515 395.246 768.845V865.873ZM220.131 752.121C247.187 739.94 273.596 727.979 300.12 716.258C301.791 715.516 304.518 716.101 306.387 716.937C322.59 724.333 338.689 731.938 354.839 739.449C364.502 743.93 374.207 748.349 384.089 752.894C383.483 753.458 383.306 753.729 383.045 753.844C356.698 765.158 330.362 776.503 303.943 787.66C302.028 788.234 299.968 788.086 298.156 787.242C272.259 775.698 246.445 763.998 220.131 752.121Z" fill="#212523"/>
<path d="M911.116 873.241C875.055 874.349 847.914 874.526 820.858 876.198C793.237 877.911 765.491 879.593 738.487 886.393C735.129 887.2 731.865 888.359 728.75 889.851C724.175 892.108 723.977 895.889 728.657 897.728C735.687 900.486 742.989 903.306 750.396 904.205C775.154 907.182 799.964 910.337 824.838 911.517C859.889 913.168 894.983 913.843 930.118 913.544C958.575 913.293 987.072 911.632 1015.45 909.303C1032.25 907.924 1048.87 904.079 1065.59 901.175C1068.46 900.551 1071.21 899.464 1073.74 897.958C1078.35 895.377 1078.4 891.826 1073.51 889.726C1068.18 887.269 1062.57 885.514 1056.79 884.503C1039.68 881.974 1022.54 879.279 1005.31 878.151C970.943 875.842 936.522 874.526 911.116 873.241Z" fill="#212523"/>
<path d="M226.272 295.287C227.139 294.033 229.333 292.247 229.636 290.178C232.425 271.113 242.736 258.274 260.558 251.056C262.543 250.251 265.29 247.044 264.924 245.697C264.49 244.382 263.792 243.17 262.872 242.135C261.953 241.1 260.831 240.264 259.576 239.68C245.327 234.153 235.935 224.313 231.485 209.75C230.752 207.448 230.227 205.085 229.918 202.688C229.531 199.304 228.518 196.086 224.799 195.95C220.798 195.804 219.91 199.231 218.844 202.594C216.755 209.301 214.749 216.175 211.354 222.297C206.831 230.361 199.33 235.616 190.785 239.199C187.526 240.568 183.326 242.229 184.266 246.052C184.893 248.622 188.56 251.119 191.432 252.32C207.51 259.309 216.16 271.75 219.064 288.611C219.67 292.121 220.369 295.203 226.272 295.287Z" fill="#212523"/>
<path d="M607.562 146.284C606.58 147.621 604.115 149.481 603.791 151.643C601.075 169.81 590.931 181.782 574.279 188.885C572.42 189.669 569.777 192.938 570.195 193.889C571.291 196.407 573.464 199.259 575.909 200.251C590.001 205.986 598.703 216.192 602.652 230.661C603.195 232.646 602.819 235.069 603.822 236.699C605.211 238.955 607.52 240.648 609.432 242.591C611.009 240.575 613.558 238.747 613.997 236.511C616.023 226.2 619.555 216.663 627.797 209.841C632.644 205.85 638.473 202.967 644.093 200.021C646.809 198.6 649.317 197.211 648.345 193.983C647.677 191.894 645.932 189.136 644.03 188.467C627.514 182.617 617.475 171.607 614.78 154.046C614.279 150.849 613.934 146.817 607.562 146.284Z" fill="#212523"/>
<path d="M445.535 734.309C447.75 730.966 449.505 729.201 450.215 727.08C453.067 718.556 456.807 710.616 464.088 705.006C467.222 702.604 470.952 701.058 474.148 698.739C476.674 696.713 479.08 694.543 481.356 692.241C479.006 690.151 476.979 687.404 474.263 686.265C465.081 682.421 457.81 676.602 453.485 667.629C451.793 664.119 451.48 659.971 449.965 656.357C449.15 654.403 447.133 652.962 445.65 651.301C444.208 652.868 441.962 654.205 441.471 656.033C437.23 670.658 429.176 681.794 414.31 687.237C412.587 687.864 410.55 690.308 410.487 691.969C410.425 693.63 412.462 695.981 414.144 696.691C428.466 702.719 437.073 713.405 441.054 728.229C441.503 729.984 443.3 731.374 445.535 734.309Z" fill="#212523"/>
<path d="M110.42 727.886C112.582 729.756 113.742 731.365 115.288 731.992C126.205 736.379 132.64 744.653 136.578 755.371C137.267 757.251 139.075 758.724 140.36 760.375C141.864 758.724 144.131 757.314 144.737 755.382C148.215 744.392 155.497 737.131 165.63 732.263C167.28 731.469 169.526 729.61 169.516 728.262C169.505 726.915 167.5 724.585 165.87 723.927C155.35 719.748 148.55 712.269 145.165 701.55C144.919 700.37 144.466 699.241 143.828 698.218C142.95 697.111 141.738 695.826 140.516 695.606C139.764 695.471 138.427 697.027 137.8 698.114C136.599 700.38 135.784 702.856 134.729 705.217C130.853 713.961 124.878 720.511 115.675 723.906C114.014 724.543 112.666 726.163 110.42 727.886Z" fill="#212523"/>
<path d="M924.855 442.162C925.252 461.05 938.853 474.651 957.072 474.097C971.112 473.669 987.555 459.608 986.51 438.809C985.675 422.094 971.634 408.148 955.003 408.514C937.829 408.817 924.458 423.714 924.855 442.162Z" fill="#D3F34A"/>
<path d="M808.029 428.226C807.82 410.519 794.375 397.001 777.305 397.179C761.28 397.336 747.658 414.552 748.441 431.088C749.12 445.442 761.531 461.551 779.52 460.694C794.949 460.005 808.248 445.296 808.029 428.226Z" fill="#D3F34A"/>
<path d="M854.642 535.803C872.757 536.503 893.409 525.095 899.207 504.077C901.474 495.803 897.556 489.452 890.129 489.817C886.117 490.037 883.213 491.478 882.075 496.242C878.774 510.011 867.93 517.95 854.412 517.135C840.456 516.331 828.745 505.947 826.729 492.565C825.831 486.579 823.491 484.333 818.236 484.406C812.981 484.479 809.754 487.655 809.221 493.265C808.176 504.317 813.399 513.113 820.169 520.979C828.923 531.217 840.257 536.064 854.642 535.803Z" fill="#D3F34A"/>
<path d="M397.752 171.544C401.005 171.559 404.229 170.921 407.23 169.666C410.231 168.411 412.95 166.566 415.225 164.24C417.499 161.914 419.282 159.154 420.469 156.126C421.656 153.097 422.223 149.86 422.135 146.608C421.936 133.164 410.466 121.766 397.502 122.111C383.921 122.466 372.701 134.01 372.91 147.413C373.101 153.876 375.801 160.01 380.439 164.515C385.076 169.02 391.286 171.542 397.752 171.544Z" fill="#D3F34A"/>
<path d="M447.834 263.61C434.337 263.61 423.953 274.422 423.974 288.337C423.995 302.252 434.473 312.656 448.262 312.542C462.051 312.427 472.927 301.646 472.624 288.086C472.279 272.667 459.628 262.43 447.834 263.61Z" fill="#D3F34A"/>
<path d="M493.486 253.941C506.46 253.941 517.293 242.752 517.272 229.443C517.331 222.967 514.821 216.731 510.293 212.101C505.764 207.47 499.586 204.823 493.11 204.737C479.529 204.737 468.853 215.811 468.915 229.809C468.932 233.01 469.582 236.177 470.828 239.126C472.074 242.075 473.891 244.748 476.175 246.992C478.459 249.235 481.165 251.004 484.136 252.197C487.107 253.389 490.284 253.982 493.486 253.941Z" fill="#D3F34A"/>
<path d="M489.681 162.196C489.535 148.616 478.974 137.511 466.082 137.49C453.191 137.469 441.857 149.264 442.139 162.562C442.241 168.96 444.865 175.059 449.441 179.531C454.018 184.004 460.175 186.488 466.574 186.443C479.747 186.307 489.827 175.704 489.681 162.196Z" fill="#D3F34A"/>
<path d="M226.001 376.338V617.078H230.796C269.584 617.078 308.372 617.016 347.16 617.172C351.6 617.172 353.146 616.243 353.125 611.458C352.888 535.296 352.797 459.134 352.853 382.971C352.853 377.748 351.474 376.181 346.157 376.212C307.891 376.432 269.626 376.338 231.36 376.338H226.001ZM286.382 566.12C273.689 566.12 260.986 566.12 248.283 566.12C241.942 566.12 239.926 564.167 239.926 558.306C239.926 537.967 239.863 517.565 240.051 497.267C240.051 495.031 240.783 492.044 242.319 490.706C255.015 479.633 267.874 468.758 280.897 458.082C284.376 455.22 288.482 455.763 291.898 458.636C304.12 468.925 316.228 479.351 328.461 489.672C331.898 492.576 333.276 496.097 333.245 500.62C333.098 519.226 333.245 537.841 333.193 556.447C333.193 563.759 330.79 566.11 323.488 566.131C311.088 566.141 298.74 566.11 286.382 566.12Z" fill="#D3F34A"/>
<path d="M207.197 376.337H202.037C163.604 376.337 125.171 376.431 86.7381 376.212C81.5149 376.212 80.4702 377.977 80.4702 382.793C80.5956 458.928 80.6128 535.069 80.5222 611.217C80.5222 614.612 80.4178 617.182 85.2441 617.161C125.421 617.005 165.589 617.067 205.756 617.047C206.241 616.995 206.723 616.912 207.197 616.796V376.337ZM143.714 500.568C132.236 500.568 120.745 500.568 109.24 500.568C103.296 500.568 102.178 499.523 102.168 493.621C102.168 472.237 102.168 450.842 102.105 429.447C102.105 424.809 103.829 422.918 108.571 422.95C131.874 423.075 155.184 423.075 178.5 422.95C183.139 422.95 185.134 424.642 185.113 429.353C185.009 450.748 185.113 472.184 185.04 493.527C185.04 499.909 184.246 500.557 177.612 500.568C166.316 500.581 155.017 500.581 143.714 500.568ZM144.225 544.391C132.567 544.391 120.909 544.589 109.261 544.213C106.994 544.14 103.714 542.354 102.784 540.432C99.044 532.774 103.296 526.454 111.716 526.433C129.294 526.433 146.868 526.433 164.439 526.433C168.963 526.433 173.497 526.287 178.02 526.496C183.515 526.747 186.158 530.215 186.001 536.493C185.844 542.364 183.703 544.422 177.644 544.433C166.497 544.412 155.361 544.391 144.225 544.391ZM156.281 578.144V578.05C148.968 578.05 141.656 578.164 134.395 578.05C128.556 577.935 127.218 576.253 127.208 569.786C127.197 563.32 129.13 560.928 134.625 560.886C149.041 560.781 163.457 560.781 177.873 560.886C183.515 560.886 186.053 563.78 185.97 569.4C185.876 575.501 183.473 578.133 177.612 578.217C170.519 578.217 163.405 578.144 156.281 578.144Z" fill="#D3F34A"/>
<path d="M395.245 865.876V768.848C384.234 773.518 373.642 777.989 363.07 782.523C346.878 789.47 330.686 796.396 314.577 803.541C313.136 804.189 311.443 806.351 311.443 807.814C311.266 839.603 311.307 871.381 311.307 904.173L395.245 865.876Z" fill="#D3F34A"/>
<path d="M220.13 752.123C246.444 764.011 272.258 775.7 298.134 787.244C299.947 788.088 302.006 788.236 303.921 787.662C330.341 776.505 356.677 765.16 383.023 753.846C383.273 753.731 383.451 753.46 384.067 752.896C374.185 748.351 364.48 743.933 354.817 739.451C338.667 731.94 322.568 724.335 306.366 716.939C304.527 716.103 301.8 715.518 300.098 716.26C273.595 727.981 247.186 739.973 220.13 752.123Z" fill="#D3F34A"/>
<path d="M286.381 566.11C298.74 566.11 311.087 566.11 323.446 566.11C330.758 566.11 333.14 563.697 333.151 556.426C333.151 537.821 333.057 519.205 333.203 500.6C333.203 496.076 331.855 492.556 328.419 489.652C316.207 479.331 304.099 468.905 291.856 458.615C288.44 455.742 284.334 455.199 280.855 458.061C267.846 468.759 254.986 479.633 242.276 490.686C240.741 492.023 240.03 495.011 240.009 497.246C239.821 517.596 239.853 537.988 239.884 558.286C239.884 564.146 241.921 566.068 248.241 566.1C260.986 566.173 273.689 566.12 286.381 566.11Z" fill="#212523"/>
<path d="M143.712 500.566C155.023 500.566 166.333 500.566 177.643 500.566C184.276 500.566 185.049 499.908 185.07 493.525C185.133 472.13 185.07 450.746 185.144 429.352C185.144 424.64 183.169 422.927 178.531 422.948C155.228 423.073 131.918 423.073 108.602 422.948C103.859 422.948 102.104 424.807 102.135 429.446C102.239 450.84 102.135 472.277 102.198 493.619C102.198 499.5 103.326 500.545 109.27 500.566C120.754 500.58 132.235 500.58 143.712 500.566Z" fill="#212523"/>
<path d="M144.224 544.391C155.36 544.391 166.496 544.391 177.653 544.391C183.712 544.391 185.853 542.302 186.01 536.452C186.167 530.184 183.524 526.705 178.029 526.454C173.516 526.245 168.983 526.392 164.449 526.392C146.878 526.392 129.303 526.392 111.725 526.392C103.305 526.392 99.0534 532.733 102.793 540.39C103.723 542.312 106.972 544.098 109.27 544.172C120.918 544.548 132.576 544.349 144.235 544.349L144.224 544.391Z" fill="#212523"/>
<path d="M156.28 578.145C163.405 578.145 170.519 578.218 177.644 578.145C183.473 578.061 185.876 575.429 186.001 569.328C186.085 563.708 183.546 560.856 177.905 560.814C163.489 560.723 149.073 560.723 134.656 560.814C129.161 560.814 127.229 563.363 127.239 569.714C127.25 576.066 128.587 577.863 134.426 577.978C141.739 578.134 149.052 577.978 156.312 577.978L156.28 578.145Z" fill="#212523"/>
</g>
<defs>
<clipPath id="clip0_151_397">
<rect width="1282" height="928" fill="white"/>
</clipPath>
</defs>
</svg>
