<svg width="1024" height="1024" viewBox="0 0 1024 1024" fill="none" xmlns="http://www.w3.org/2000/svg">
<g clip-path="url(#clip0_148_140)">
<rect width="1024" height="1024" fill="#D1F24A"/>
<path d="M984.043 748.73V993.063C984.15 997.985 983.726 1002.9 982.777 1007.73C982.356 1010.3 981.429 1012.75 980.052 1014.96C978.675 1017.16 976.873 1019.07 974.752 1020.57C972.632 1022.07 970.234 1023.14 967.698 1023.71C965.162 1024.28 962.538 1024.34 959.979 1023.88C957.376 1023.93 954.79 1023.44 952.386 1022.44C949.983 1021.43 947.814 1019.94 946.017 1018.06C944.221 1016.17 942.836 1013.93 941.951 1011.48C941.066 1009.03 940.7 1006.43 940.876 1003.83C940.876 975.965 940.876 948.207 940.876 920.344C940.876 917.811 940.876 915.172 940.876 910.951H647.237C628.239 910.951 618.423 902.613 618.634 886.887C618.845 871.161 629.189 862.612 647.553 862.506C663.174 862.506 740.554 862.506 756.386 862.506C752.058 839.286 747.731 816.7 743.404 793.164H654.325C654.325 823.56 653.797 853.007 654.325 882.454C656.318 901.01 654.778 919.776 649.786 937.759C644.72 952.218 648.52 969.422 648.415 985.887C648.415 991.269 648.415 996.441 648.415 1002.03C648.655 1004.92 648.282 1007.82 647.32 1010.54C646.359 1013.27 644.831 1015.76 642.837 1017.86C640.843 1019.95 638.428 1021.6 635.751 1022.69C633.074 1023.78 630.196 1024.3 627.306 1024.2C624.357 1024.38 621.402 1023.94 618.634 1022.9C615.866 1021.87 613.346 1020.27 611.237 1018.2C609.128 1016.13 607.477 1013.64 606.391 1010.89C605.304 1008.14 604.807 1005.2 604.93 1002.25C604.297 984.409 604.93 966.467 604.93 947.469C545.826 928.154 533.161 876.016 519.018 824.721C517.646 819.655 516.168 814.167 514.796 809.312C509.414 789.153 503.714 772.055 480.495 761.817C452.209 749.363 441.232 724.033 437.116 687.937C423.536 686.456 410.115 683.771 397.009 679.915C383.423 673.849 370.301 666.794 357.747 658.807C352.933 655.924 347.884 653.453 342.655 651.419C317.007 642.025 302.759 620.706 308.458 599.808C310.011 592.315 314.063 585.571 319.95 580.681C325.836 575.791 333.209 573.046 340.86 572.894C374.318 570.467 407.775 568.461 442.393 566.139C444.504 546.931 446.509 527.088 448.831 507.246C455.059 454.474 460.23 401.702 468.357 348.931C475.534 302.069 521.129 257.53 570.523 250.564C596.223 247.979 622.127 248.192 647.781 251.197C685.249 254.047 722.506 258.796 759.763 263.124C810.846 269.14 862.351 272.939 912.59 282.755C938.898 287.769 962.527 302.071 979.169 323.054C995.812 344.036 1004.36 370.3 1003.25 397.058C1002.3 436.743 996.286 476.216 991.959 515.69C989.426 538.804 984.993 561.707 982.882 584.821C983.146 591.632 985.799 598.134 990.376 603.185C1010.63 627.449 1022.44 657.639 1024.04 689.203C1025.52 718.967 1013.17 736.804 984.043 748.73ZM656.858 464.923C656.858 462.918 656.858 459.752 656.119 456.585C656.043 449.162 653.738 441.933 649.504 435.836C645.269 429.738 639.301 425.054 632.372 422.389C625.064 420.005 617.187 420.008 609.882 422.399C602.576 424.79 596.221 429.444 591.737 435.688C585.278 443.19 580.833 452.212 578.82 461.905C576.808 471.598 577.294 481.644 580.233 491.098C581.277 496.769 583.786 502.068 587.512 506.469C591.238 510.869 596.052 514.218 601.473 516.181C606.895 518.145 612.736 518.656 618.416 517.662C624.095 516.669 629.416 514.205 633.849 510.518C641.23 505.486 647.213 498.664 651.237 490.689C655.261 482.715 657.195 473.849 656.858 464.923ZM939.609 862.506V741.342C925.222 761.449 905.316 776.957 882.299 785.987C880.791 787.035 879.549 788.42 878.669 790.032C877.79 791.645 877.298 793.44 877.233 795.275C877.233 814.8 872.589 836.12 895.703 848.047C896.086 848.257 896.384 848.592 896.548 848.996C901.93 865.25 915.123 863.667 928.211 862.928C931.483 862.295 935.071 862.506 939.609 862.506ZM801.453 512.629C801.724 508.616 801.193 504.588 799.892 500.782C798.59 496.976 796.543 493.468 793.871 490.461C791.198 487.455 787.954 485.011 784.327 483.272C780.7 481.533 776.762 480.534 772.745 480.333C764.569 480.66 756.837 484.14 751.17 490.043C745.503 495.945 742.342 503.813 742.348 511.996C742.284 520.358 745.455 528.422 751.199 534.5C756.943 540.578 764.814 544.2 773.167 544.609C777.124 544.367 780.995 543.347 784.558 541.609C788.122 539.871 791.308 537.448 793.934 534.478C796.561 531.508 798.577 528.05 799.867 524.301C801.157 520.552 801.696 516.586 801.453 512.629Z" fill="black"/>
<path d="M358.887 493.254C359.017 504.696 358.24 516.13 356.565 527.45C355.953 530.776 354.634 533.932 352.698 536.704C350.763 539.477 348.254 541.802 345.343 543.523C342.432 545.243 339.186 546.32 335.823 546.678C332.461 547.037 329.06 546.671 325.852 545.604C307.759 541.675 291.363 532.147 278.99 518.373C271.466 509.878 262.029 503.294 251.459 499.165C240.888 495.036 229.487 493.48 218.197 494.626C186.006 496.737 153.604 495.154 121.308 495.154C98.5167 494.799 76.7217 485.751 60.3798 469.86C44.0378 453.969 34.3832 432.436 33.3902 409.663C32.5459 368.396 32.6514 327.128 33.3902 285.861C33.3563 273.841 35.7409 261.938 40.4021 250.859C45.0632 239.78 51.9056 229.751 60.5221 221.371C69.1386 212.991 79.353 206.43 90.5574 202.079C101.762 197.727 113.727 195.675 125.741 196.043H327.54C384.006 196.043 421.052 232.983 421.158 289.238C421.158 323.856 420.102 358.369 421.158 392.882C422.952 441.749 404.587 477.317 358.887 493.254ZM323.53 512.463L326.379 509.402C326.379 506.341 326.379 503.175 326.379 500.009C324.268 472.145 325.324 470.456 351.393 461.485C361.913 458.689 371.224 452.518 377.897 443.92C384.57 435.321 388.237 424.769 388.334 413.885C389.917 371.668 391.078 329.45 390.55 287.233C390.55 251.137 367.225 228.656 332.501 228.55C262.138 228.128 191.776 228.128 121.414 228.55C113.996 228.432 106.631 229.822 99.767 232.635C92.9025 235.448 86.681 239.627 81.4798 244.917C76.2786 250.207 72.2062 256.498 69.5095 263.409C66.8128 270.32 65.5481 277.707 65.7921 285.122C65.7921 324.067 65.7921 363.118 65.7921 402.064C65.7921 441.01 88.8006 462.541 127.219 462.541C165.636 462.541 207.01 461.907 246.799 462.541C257.27 463.527 267.271 467.359 275.718 473.623C292.394 485.971 307.698 499.586 323.53 512.463Z" fill="black"/>
<path d="M655.988 458.209C656.325 467.135 654.391 476.001 650.366 483.976C646.342 491.95 640.36 498.773 632.979 503.804C628.546 507.492 623.225 509.955 617.545 510.948C611.865 511.942 606.024 511.431 600.603 509.468C595.181 507.504 590.368 504.155 586.642 499.755C582.916 495.354 580.406 490.055 579.363 484.384C576.424 474.931 575.938 464.885 577.95 455.191C579.963 445.498 584.408 436.476 590.867 428.974C595.351 422.73 601.706 418.076 609.012 415.685C616.317 413.294 624.194 413.291 631.502 415.675C638.43 418.34 644.399 423.024 648.633 429.122C652.868 435.219 655.173 442.448 655.249 449.871C655.566 453.038 655.777 456.204 655.988 458.209Z" fill="#D1F24A"/>
<path d="M800.59 505.919C800.994 513.857 798.25 521.635 792.954 527.564C787.659 533.492 780.238 537.092 772.304 537.582C763.951 537.173 756.08 533.551 750.336 527.473C744.592 521.395 741.421 513.331 741.485 504.969C741.479 496.786 744.64 488.918 750.307 483.016C755.974 477.113 763.706 473.633 771.882 473.305C775.928 473.505 779.893 474.514 783.542 476.273C787.192 478.032 790.451 480.505 793.128 483.545C795.804 486.586 797.844 490.133 799.126 493.976C800.407 497.819 800.905 501.88 800.59 505.919Z" fill="#D1F24A"/>
<path d="M323.531 512.463C307.699 499.692 292.395 486.077 275.719 474.573C267.271 468.309 257.271 464.477 246.8 463.491C207.011 462.33 167.115 463.491 127.219 463.491C87.324 463.491 65.8985 441.01 65.793 403.014C65.6875 365.018 65.793 325.017 65.793 286.072C65.5491 278.657 66.8138 271.27 69.5104 264.359C72.2071 257.448 76.2796 251.157 81.4807 245.867C86.6819 240.577 92.9034 236.398 99.7679 233.585C106.632 230.772 113.997 229.382 121.415 229.5C191.777 229.078 262.139 229.078 332.502 229.5C367.226 229.5 390.129 252.087 390.551 288.183C391.079 330.4 389.918 372.618 388.335 414.835C388.238 425.719 384.571 436.27 377.898 444.869C371.225 453.468 361.914 459.639 351.394 462.435C325.325 471.406 324.269 472.99 326.38 500.959C326.38 504.125 326.38 507.291 326.38 510.352L323.531 512.463ZM228.541 323.329H317.198C327.752 323.329 337.04 320.796 338.307 307.814C339.046 297.259 331.763 290.927 317.198 290.927C257.671 290.927 198.145 290.927 138.618 290.927C124.686 290.927 117.509 297.259 117.509 307.497C117.509 317.735 124.159 323.329 139.251 323.434C168.276 323.329 198.25 323.223 228.225 323.223L228.541 323.329ZM203.105 401.325H270.231C280.786 401.325 290.39 398.581 290.39 385.494C290.39 372.406 280.68 368.818 270.337 368.712C225.586 368.29 180.871 368.29 136.191 368.712C123.314 368.712 115.926 376.206 117.298 386.444C118.67 396.681 126.586 401.431 137.457 401.22C158.988 401.009 180.941 401.22 202.789 401.22L203.105 401.325Z" fill="#D1F24A"/>
<path d="M228.223 323.225C198.248 323.225 168.274 323.225 138.3 323.225C123.207 323.225 116.558 318.053 116.558 307.288C116.558 296.522 124.262 290.717 137.666 290.717C197.193 290.717 256.72 290.717 316.246 290.717C330.6 290.717 337.355 296.839 337.355 307.604C336.405 320.586 327.539 323.119 316.246 323.119L228.223 323.225Z" fill="black"/>
<path d="M202.786 401.22C180.938 401.22 158.985 401.22 137.137 401.22C126.583 401.22 118.456 397.737 116.979 386.444C115.501 375.151 122.994 368.818 135.871 368.713C180.551 368.291 225.266 368.291 270.017 368.713C280.571 368.713 290.07 372.512 290.07 385.494C290.07 398.476 280.888 401.326 269.911 401.326H202.786V401.22Z" fill="black"/>
</g>
<defs>
<clipPath id="clip0_148_140">
<rect width="1024" height="1024" fill="white"/>
</clipPath>
</defs>
</svg>
