<svg width="568" height="423" viewBox="0 0 568 423" fill="none" xmlns="http://www.w3.org/2000/svg">
<path d="M190.093 378.769C190.112 378.759 190.154 378.743 190.455 378.702C190.697 378.669 191.195 378.613 191.701 378.376C192.256 378.116 192.723 377.695 193.104 377.094C193.796 376.001 194.258 374.21 194.588 371.305V371.302C194.688 370.394 194.819 369.236 194.509 368.137C194.183 366.984 193.437 366.054 192.219 365.325L191.969 365.183C182.194 359.678 177.245 350.96 175.709 340.035L175.571 338.971C175.277 336.494 175.089 334.005 174.881 331.469C174.673 328.946 174.447 326.387 174.075 323.839L174.074 323.834C173.922 322.812 173.325 321.861 172.708 321.152C172.079 320.43 171.262 319.767 170.414 319.383H170.415C165.229 316.966 159.873 314.789 154.677 312.547C149.455 310.293 144.346 307.953 139.517 305.165L139.514 305.163L138.629 304.65C120.101 293.807 105.988 278.792 98.3865 258.312C96.0292 251.952 94.9066 245.608 96.6824 239.219C98.3406 233.278 102.423 229.49 107.118 228.186C111.813 226.881 117.268 228.021 121.758 232.257C124.645 234.982 127.087 238.045 129.931 241.223L130.379 241.723H131.049C131.227 241.723 131.451 241.692 131.649 241.642C131.753 241.615 131.928 241.563 132.114 241.464C132.249 241.392 132.694 241.137 132.894 240.569L132.899 240.556L132.903 240.543C133.591 238.471 134.31 237.231 135.105 236.484C135.849 235.786 136.787 235.4 138.211 235.32C139.779 235.262 141.328 235.687 142.647 236.537C143.971 237.39 145 238.629 145.594 240.087L145.615 240.138L145.639 240.187C145.834 240.579 145.986 240.99 146.095 241.414C148.74 254.325 158.294 261.338 168.018 267.501L168.198 267.615L168.402 267.675C168.948 267.834 169.514 267.916 170.083 267.92L171.593 267.93V263.124C171.811 243.358 171.752 223.653 172.361 203.948V203.947C172.695 193.079 175.108 182.78 181.567 173.866L182.205 173.008C189.078 163.981 198.359 159.652 209.297 158.624L210.361 158.535C245.962 155.891 281.594 157.214 317.379 157.36H317.386C327.306 157.351 337.208 158.213 346.976 159.938V159.939C362.834 162.836 375.345 178.333 375.927 194.661L375.945 195.439C376.087 206.738 376.2 218.036 376.303 229.335L376.608 263.24V268.262L378.594 267.58C384.309 265.62 389.241 261.872 392.661 256.893C394.393 254.481 395.854 251.903 397.242 249.358C398.648 246.781 399.97 244.261 401.47 241.851L401.473 241.846C402.794 239.706 404.314 237.679 406.062 236.692L406.061 236.691C408.073 235.566 409.631 235.542 410.909 236.167C412.284 236.839 413.675 238.424 414.919 241.239L415.998 243.683L417.522 241.489C418.85 239.579 419.894 237.951 421.089 236.352C426.888 228.607 436.738 226.426 443.788 230.952L444.122 231.173C450.232 235.342 451.262 241.637 450.445 248.839V248.841C449.209 259.867 443.284 268.785 436.511 277.675C423.356 294.928 405.514 305.744 385.764 314.121H385.762C383.251 315.19 381.283 316.028 379.781 316.848C378.258 317.678 377.077 318.561 376.219 319.787C375.366 321.007 374.93 322.429 374.634 324.15C374.34 325.854 374.16 328.016 373.911 330.765L373.91 330.767C372.989 341.157 371.006 350.988 364.135 358.93C363.142 360.073 362.037 361.129 360.871 362.266C359.724 363.383 358.528 364.571 357.469 365.902L357.463 365.909C356.823 366.722 356.158 367.728 355.666 368.797C355.185 369.841 354.805 371.082 354.907 372.316V372.317C354.99 373.344 355.056 374.043 355.109 374.482C355.134 374.69 355.163 374.892 355.199 375.053C355.208 375.095 355.252 375.3 355.364 375.511C355.398 375.575 355.46 375.683 355.56 375.799C355.654 375.907 355.846 376.099 356.157 376.22C356.162 376.222 356.168 376.223 356.174 376.225C356.566 379.635 356.938 383.04 357.233 386.445L357.234 386.448C357.357 387.83 357.767 389.016 358.529 390.026C359.278 391.02 360.29 391.742 361.448 392.33L361.458 392.335C368.075 395.634 371.891 401.01 373.102 408.376C373.442 410.45 373.236 412.015 372.62 413.141C372.025 414.227 370.93 415.121 369.012 415.636L369.004 415.638C364.126 416.982 359.135 417.877 354.094 418.312C316.649 421.189 279.112 421.56 241.551 420.858C224.976 420.548 208.414 419.346 191.804 418.271C187.322 417.903 182.888 417.079 178.572 415.811L178.563 415.808L178.553 415.805L178.135 415.681C176.107 415.035 174.953 414.055 174.344 412.89C173.677 411.61 173.517 409.823 174.054 407.39C174.655 404.725 175.779 402.205 177.362 399.979C178.945 397.752 180.955 395.863 183.275 394.42L183.285 394.413L183.296 394.406C185.528 392.967 186.877 391.269 187.701 389.343C188.501 387.471 188.774 385.448 188.983 383.457V383.456C189.284 380.569 189.685 379.391 189.969 378.928C190.029 378.832 190.069 378.79 190.083 378.777C190.086 378.774 190.089 378.772 190.091 378.771C190.092 378.77 190.092 378.769 190.093 378.769ZM296.76 374.042C282.457 374.194 268.147 374.174 253.834 374.042H253.82C252.43 374.042 251.065 374.238 249.991 375.066C248.88 375.924 248.384 377.216 248.163 378.683C248.043 379.469 247.946 380.098 247.869 380.599C247.829 380.685 247.806 380.748 247.802 380.759C247.788 380.801 247.778 380.837 247.773 380.855C247.756 380.921 247.742 380.988 247.736 381.021C247.678 381.322 247.514 382.33 247.145 384.694V384.695C246.044 391.793 245.061 398.923 244.01 406.136L243.76 407.853H305.918L305.649 406.122C305.483 405.053 305.543 404.054 305.63 402.946C305.702 402.018 305.803 400.95 305.706 399.845L305.652 399.369C304.66 392.274 303.652 385.129 302.867 380.8C302.67 379.716 302.484 378.787 302.311 378.069C302.225 377.712 302.138 377.388 302.05 377.114C301.972 376.875 301.857 376.554 301.683 376.283C301.612 376.172 301.404 375.863 301.013 375.664C300.883 375.598 300.726 375.541 300.548 375.512C300.189 374.984 299.687 374.59 299.042 374.349C298.373 374.098 297.598 374.027 296.76 374.042ZM253.573 253.689C250.708 253.016 248.081 253.295 246.424 255.06C244.786 256.803 244.611 259.457 245.329 262.296V262.297C248.415 274.465 260.471 283.558 273.754 284.224V284.298L275.26 284.291C284.918 284.249 293.082 280.358 299.411 273.428V273.427C302.323 270.236 304.213 265.967 305.583 262.06L305.582 262.059C306.466 259.541 306.142 257.134 304.575 255.48C303.045 253.865 300.649 253.31 298.093 253.744L298.078 253.746L298.063 253.749C295.96 254.148 293.884 254.68 291.847 255.341C283.332 257.996 274.299 258.54 265.526 256.928C263.58 256.563 261.662 256.01 259.677 255.412C257.713 254.821 255.667 254.18 253.572 253.689H253.573ZM234.137 209.955C226.138 210.075 219.223 217.166 219.093 225.317V225.318C218.961 233.768 225.657 240.977 233.938 241.185V241.186C241.855 241.387 249.096 234.219 249.323 226.152V226.151C249.562 217.414 243.003 210.045 234.517 209.955H234.137ZM318.295 209.955C310.187 210.045 303.246 217.373 303.157 225.682C303.062 233.911 309.876 241.104 318.026 241.186C326.196 241.267 333.198 234.079 333.242 225.654L333.241 225.653C333.297 217.086 326.888 210.08 318.687 209.955H318.295Z" fill="#212523" stroke="#D1F24A" stroke-width="3"/>
<path d="M66.9668 55.8984C67.9078 55.9363 69.0503 56.4965 70.8848 58.1182L71.2607 58.457C78.654 65.227 86.1535 71.8972 94.3398 79.2695L96.8438 81.5244V78.1543C96.8437 74.6868 96.7976 72.0827 96.8438 69.4482L96.8428 69.4473C96.9074 66.1405 98.6273 63.8226 100.877 63.1221C102.909 62.492 104.775 62.8895 106.138 63.9297C107.42 64.9084 108.35 66.5306 108.489 68.6436L108.506 69.0732C108.597 75.771 108.454 82.8138 108.599 89.6221L108.6 89.6318C108.647 91.3587 109.326 93.0081 110.509 94.2676L110.548 94.3086L110.589 94.3467C116.273 99.5559 122.164 104.642 127.901 109.749L130.35 111.94C131.364 112.854 132.156 113.686 132.593 114.57C132.989 115.37 133.12 116.261 132.673 117.443C132.162 118.794 131.43 119.552 130.575 120.001C129.681 120.47 128.512 120.672 127.031 120.636C124.816 120.515 122.556 120.562 119.911 120.562H118.411V164.534L118.412 164.563C118.478 166.262 118.292 167.961 117.861 169.605C116.996 172.36 115.272 174.075 112.659 174.226L112.403 174.235C102.947 174.407 93.4854 174.361 83.9941 174.361C83.0202 174.361 82.719 174.089 82.585 173.908C82.3796 173.631 82.1987 173.064 82.2139 171.973L82.2148 171.961C82.2596 164.099 82.2588 156.239 82.2393 148.38L82.2148 140.521C82.2147 139.328 82.1846 138.288 82.0391 137.434C81.8913 136.566 81.5958 135.705 80.916 135.035C80.2386 134.368 79.3742 134.082 78.5088 133.94C77.6528 133.8 76.6102 133.773 75.4141 133.773C69.9627 133.773 64.6188 133.892 59.2402 133.773H59.2412C57.6234 133.73 56.0728 133.99 54.9678 135.061C53.8611 136.133 53.5537 137.677 53.5537 139.309C53.5537 147.075 53.4528 154.831 53.3662 162.606L53.2891 170.39C53.2792 171.627 53.2351 172.484 53.125 173.104C53.0165 173.715 52.8715 173.926 52.7891 174.011C52.7133 174.089 52.529 174.229 51.9619 174.335C51.5235 174.417 50.9536 174.46 50.1904 174.478L49.3604 174.487C41.3131 174.487 33.2636 174.499 25.2119 174.525C21.8298 174.525 19.6591 173.743 18.3154 172.409C17.0573 171.16 16.2792 169.185 16.1816 166.156L16.1709 165.536V120.589H6.92578C5.60376 120.589 4.54098 120.339 3.7207 119.862C2.9237 119.399 2.25278 118.662 1.78906 117.484C1.36361 116.404 1.44552 115.527 1.79102 114.724C2.16287 113.86 2.87153 113.016 3.81348 112.148C22.8027 94.6916 41.7911 77.2603 60.7803 59.8564L60.7812 59.8574C61.4305 59.2731 62.077 58.7167 62.7471 58.1338C64.7907 56.3664 65.9946 55.8594 66.9668 55.8984Z" fill="#212523" stroke="#D1F24A" stroke-width="3"/>
<path d="M467.064 206.771C495.833 206.844 524.638 206.772 553.396 206.818H553.42L553.443 206.817C554.439 206.788 555.435 206.865 556.414 207.047C559.586 207.73 561.807 208.996 563.255 210.778C564.615 212.453 565.418 214.737 565.533 217.804L565.548 218.428C565.641 230.872 565.547 243.323 565.494 255.785V255.786C565.446 271.223 565.389 286.658 565.322 302.091V302.097C565.322 305.526 564.194 308.272 562.317 310.157C560.441 312.041 557.696 313.186 554.233 313.186H554.229C539.53 313.225 524.867 313.192 510.2 313.192H466.869C462.909 313.192 459.957 312.035 457.995 310.07C456.156 308.228 455.024 305.513 454.888 301.913L454.873 301.182C454.873 287.249 454.741 273.402 454.933 259.528C454.975 256.48 455.264 253.426 455.547 250.295C455.793 247.575 456.033 244.8 456.083 242.01L456.093 240.812C456.092 233.451 455.422 226.021 454.835 218.74V218.738C454.513 214.78 455.831 211.844 458.006 209.876C460.217 207.875 463.441 206.762 467.064 206.771ZM507.115 230.293C505.458 230.281 504.06 231.306 502.72 232.582H502.719C498.656 236.453 494.568 240.323 490.516 244.229L490.515 244.23C484.338 250.188 478.108 256.165 472.051 262.289L472.031 262.309L472.014 262.329C471.346 263.055 470.836 263.911 470.516 264.843C470.195 265.775 470.071 266.764 470.151 267.746L470.157 267.812L470.168 267.879C470.298 268.632 470.82 269.135 471.142 269.396C471.516 269.701 471.963 269.952 472.395 270.15C473.244 270.54 474.301 270.846 475.188 270.892H475.188C476.302 270.948 476.611 271.253 476.733 271.425C476.903 271.663 477.039 272.097 477.07 272.924L477.077 273.303C477.031 278.249 476.958 283.243 477.024 288.203C477.05 290.1 476.949 291.278 476.941 292.593C476.935 293.697 476.991 294.96 477.693 295.969C478.451 297.057 479.684 297.495 481.052 297.717C482.436 297.941 484.333 297.996 486.857 297.998H486.858C488.567 297.998 490.162 297.683 491.271 296.561C492.383 295.435 492.664 293.845 492.632 292.169C492.52 286.223 492.632 280.312 492.632 274.31C492.632 272.514 492.936 271.868 493.232 271.579C493.505 271.313 494.073 271.051 495.452 270.979L496.095 270.96H503.688C505.824 270.96 506.62 271.277 506.985 271.639C507.349 271.998 507.673 272.784 507.687 274.915V274.916C507.726 280.988 507.792 287.034 507.687 293.066H507.688C507.66 294.342 507.846 295.667 508.819 296.585C509.766 297.478 511.082 297.617 512.272 297.6L512.273 297.601V297.6L512.276 297.601L512.275 297.6C521.085 297.487 529.89 297.455 538.693 297.555H538.71C540.339 297.555 541.829 297.214 542.84 296.091C543.819 295.002 544.03 293.518 544.013 292.061C543.847 277.628 543.754 263.195 543.648 248.757C543.639 247.342 543.626 246.152 543.504 245.225C543.382 244.302 543.12 243.332 542.361 242.612C541.61 241.899 540.63 241.679 539.709 241.587C538.777 241.494 537.582 241.511 536.165 241.53C534.833 241.533 533.497 241.776 532.552 242.74C531.604 243.708 531.395 245.049 531.42 246.364V246.365C531.442 247.902 531.286 249.359 531.107 251.214C530.668 250.884 530.235 250.547 529.81 250.198C523.689 244.368 517.586 238.512 511.501 232.63L511.496 232.625L510.991 232.157C509.805 231.1 508.558 230.304 507.115 230.293Z" fill="#212523" stroke="#D1F24A" stroke-width="3"/>
<path d="M17.2908 295.607C42.1086 295.577 66.9222 295.577 91.7312 295.607H91.7332C96.1675 295.607 99.4318 296.85 101.59 299.001C103.747 301.152 105.002 304.414 105.009 308.864C105.044 334.782 105.044 360.7 105.009 386.617V386.619C105.009 390.468 103.709 393.58 101.545 395.728C99.3797 397.877 96.2372 399.173 92.3474 399.179H92.3464C66.9815 399.227 41.6166 399.227 16.2517 399.179H16.2488C9.24623 399.179 4.18362 394.111 4.15991 387.124V387.123L4.13452 377.215C4.12148 367.303 4.1394 357.381 4.1394 347.449V308.736C4.1394 304.56 5.43798 301.314 7.63647 299.115C9.83488 296.916 13.087 295.611 17.2898 295.607H17.2908ZM53.9128 315.193L52.4148 315.195V315.856H26.7898C24.5407 315.856 22.5727 316.435 21.1687 317.816C19.7618 319.201 19.1594 321.156 19.1482 323.404V323.406C19.0985 336.062 19.0697 348.717 19.0623 361.371V374.024C19.0623 376.208 19.6214 378.136 20.9734 379.515C22.3281 380.896 24.2433 381.484 26.447 381.486V381.487C36.8191 381.567 47.1893 381.533 57.5583 381.486C58.7908 381.486 60.1547 381.275 61.2429 380.492C62.4256 379.641 63.0271 378.305 63.0271 376.635C63.0271 375.764 62.8727 374.968 62.5095 374.28C62.1371 373.575 61.594 373.078 60.9763 372.747C59.8389 372.137 58.4448 372.101 57.4128 372.101C50.216 372.101 43.0867 372.2 35.9314 372.101H35.9324C33.5476 372.059 31.7185 372.158 30.6326 372.167C30.0467 372.172 29.692 372.151 29.4636 372.109C29.4342 372.104 29.4106 372.095 29.3904 372.09C29.3835 372.066 29.375 372.037 29.3669 372.001C29.3131 371.761 29.2756 371.384 29.2585 370.769C29.2418 370.163 29.2453 369.421 29.2468 368.469C29.2483 367.529 29.2466 366.413 29.2166 365.099H29.2175C29.1975 363.989 29.4372 363.593 29.5906 363.441C29.752 363.282 30.1578 363.052 31.2449 363.055H31.2488C47.1501 363.055 63.0294 363.029 78.8865 362.976C79.7224 362.976 79.9092 363.158 79.9265 363.176C79.9485 363.199 80.1201 363.396 80.1033 364.221V364.225C80.0367 367.878 80.1033 371.579 80.1033 375.164C80.1033 376.438 80.3491 377.757 81.1833 378.774C82.0659 379.85 83.3691 380.308 84.8621 380.308C86.3318 380.308 87.6534 379.89 88.6355 378.924C89.541 378.033 89.9924 376.837 90.1462 375.548L90.1726 375.289L90.1736 375.276C90.2321 374.544 90.1785 373.663 90.1785 373.17V324.876C90.1785 321.869 89.4866 319.357 87.7214 317.617C85.9617 315.883 83.4218 315.2 80.3738 315.193H80.3728C71.5507 315.18 62.7306 315.18 53.9128 315.193Z" fill="#212523" stroke="#D1F24A" stroke-width="3"/>
<path d="M480.704 1.50293C482.5 1.45911 484.359 1.98257 486.36 3.22266C505.231 14.9283 524.123 26.5228 542.921 38.333C544.491 39.3249 545.996 41.0181 546.504 42.5059L546.592 42.8008C547.033 44.5333 546.603 45.853 545.702 46.7695C544.756 47.7322 543.117 48.417 540.896 48.417C520.954 48.4258 501.002 48.4258 481.042 48.417H421.174C418.828 48.417 417.134 47.7156 416.166 46.7314C415.247 45.7967 414.808 44.436 415.272 42.6172C415.457 41.8995 415.932 41.0765 416.642 40.25C417.34 39.4365 418.197 38.6997 419.023 38.1465C425.388 33.9059 431.971 30.0265 438.551 25.9707H438.552C449.182 19.4131 459.859 12.8957 470.463 6.2793L475.002 3.4375C477.024 2.16772 478.9 1.54697 480.704 1.50293Z" fill="#212523" stroke="#D1F24A" stroke-width="3"/>
<path d="M421.354 126.77H421.379C460.761 126.77 500.143 126.783 539.524 126.81H539.551L539.577 126.809C541.324 126.748 543.064 127.048 544.688 127.691C545.793 128.207 546.703 129.407 547.17 131.306C547.636 133.203 547.603 135.622 546.956 138.171C546.537 139.814 545.923 140.763 545.132 141.34C544.321 141.931 543.097 142.298 541.12 142.301H478.828L478.835 142.348H421.326C418.309 142.348 416.762 141.822 415.901 140.965C415.041 140.108 414.508 138.564 414.491 135.553V132.261C414.515 130.572 414.859 129.51 415.415 128.788C415.965 128.074 416.88 127.484 418.479 127.069C419.422 126.853 420.388 126.753 421.354 126.77Z" fill="#212523" stroke="#D1F24A" stroke-width="3"/>
<path d="M426.278 57.3398C426.902 57.1388 427.702 57.157 428.898 57.168C435.187 57.2277 441.502 57.221 447.768 57.168C448.768 57.168 449.383 57.1868 449.83 57.3525C450.011 57.42 450.126 57.5011 450.214 57.6006C450.305 57.7037 450.428 57.8948 450.523 58.2656C450.789 59.3055 450.892 60.212 450.758 60.9277C450.641 61.5576 450.341 62.0673 449.62 62.457L449.612 62.4619L449.605 62.4658C448.385 63.143 447.598 64.0132 447.172 65.1035C446.778 66.1133 446.749 67.1888 446.752 68.1221V68.123C446.805 80.9282 446.805 93.7117 446.752 106.473V106.479C446.752 107.371 446.792 108.398 447.182 109.362C447.603 110.402 448.367 111.223 449.525 111.852L449.537 111.858C450.369 112.3 450.746 112.922 450.875 113.595C451.013 114.318 450.872 115.177 450.491 115.96C450.392 116.16 450.016 116.552 449.29 116.928C448.602 117.284 447.862 117.487 447.347 117.509H447.344C441.232 117.778 435.111 117.64 428.868 117.606H428.859C427.508 117.606 426.537 117.651 425.748 117.402C425.407 117.295 425.171 117.148 424.994 116.955C424.837 116.785 424.666 116.512 424.54 116.05L424.488 115.84C424.217 114.573 424.368 113.617 424.765 112.885C425.169 112.141 425.922 111.453 427.165 110.906L427.185 110.896L427.207 110.887C427.621 110.689 428.019 110.459 428.397 110.199L429.047 109.753V108.963C429.047 95.1428 429.047 81.2517 428.981 67.3672V67.3145L428.977 67.2617L428.949 66.9873C428.865 66.3502 428.658 65.7341 428.34 65.1738C427.977 64.5336 427.476 63.9815 426.875 63.5576L426.81 63.5127L426.743 63.4746L426.546 63.3604C425.607 62.783 425.244 62.1446 425.096 61.4951C424.939 60.8033 424.999 59.9678 425.21 58.9512L425.31 58.5049C425.425 58.0532 425.582 57.8121 425.711 57.6738C425.841 57.5352 426.014 57.4248 426.278 57.3398Z" fill="#212523" stroke="#D1F24A" stroke-width="3"/>
<path d="M522.895 57.2266C526.109 57.2266 529.031 57.0226 532.025 57.3047V57.3057C532.546 57.3566 533.326 57.5686 533.982 57.8691C534.29 58.0104 534.514 58.1468 534.649 58.252C534.713 58.8184 534.645 59.4831 534.471 60.2764C534.264 61.2191 533.985 62.057 533.703 63.1201L533.702 63.125C533.591 63.5476 533.356 63.9518 532.988 64.6592C532.68 65.2509 532.233 66.1409 532.222 67.1523L532.221 67.1582C532.136 78.8248 532.126 90.4931 532.19 102.163L532.221 107.165C532.225 108.18 532.691 109.063 533.005 109.637C533.386 110.331 533.628 110.717 533.752 111.129V111.13C533.904 111.655 534.08 112.187 534.239 112.68C534.402 113.184 534.552 113.658 534.674 114.12C534.906 114.991 535.003 115.702 534.938 116.304C534.922 116.322 534.902 116.346 534.875 116.373C534.722 116.521 534.475 116.704 534.151 116.887C533.468 117.273 532.754 117.489 532.38 117.501H532.377C526.041 117.725 519.703 117.56 513.283 117.5H513.269C512.399 117.5 511.885 117.435 511.569 117.279C511.447 117.219 511.37 117.151 511.307 117.058C511.239 116.955 511.143 116.755 511.091 116.371V116.368L510.993 115.594C510.91 114.877 510.881 114.32 510.971 113.819C511.07 113.269 511.324 112.739 512.094 112.194L512.114 112.181L512.133 112.166C512.819 111.648 513.391 110.994 513.814 110.246C514.237 109.498 514.503 108.672 514.594 107.817L514.602 107.747L514.603 107.676C514.742 96.0745 514.8 84.5153 514.719 72.9424L514.676 67.9814C514.673 66.8975 514.293 65.844 513.834 64.9609C513.363 64.057 512.75 63.2198 512.152 62.5439C511.437 61.7323 511.002 61.0841 510.793 60.4648C510.601 59.8978 510.566 59.2562 510.861 58.3779V58.377C511.015 57.9193 511.19 57.6843 511.326 57.5547C511.458 57.4284 511.623 57.3353 511.864 57.2695C512.475 57.1031 513.15 57.1699 514.331 57.1738H519.323L519.27 57.2266H522.895ZM534.617 58.0254L534.619 58.0312C534.619 58.0327 534.619 58.0347 534.619 58.0361C534.618 58.0326 534.617 58.029 534.617 58.0254Z" fill="#212523" stroke="#D1F24A" stroke-width="3"/>
<path d="M472.12 106.653C472.054 100.157 472.087 93.6665 472.087 87.1436C472.087 80.903 472.213 74.5385 472.007 68.2383V68.2344L471.995 68.0352C471.921 67.0444 471.56 66.1353 471.195 65.3779C470.997 64.9663 470.779 64.564 470.579 64.1963C470.373 63.8176 470.187 63.4787 470.021 63.1465L470.019 63.1406C469.679 62.4655 469.191 61.8438 468.881 61.4189C468.568 60.9909 468.378 60.6925 468.274 60.4297L468.235 60.3193C467.942 59.3753 468.127 58.6306 468.503 58.1338C468.884 57.6297 469.579 57.225 470.597 57.2178C477.007 57.178 483.376 57.1124 489.756 57.2969V57.2979C490.18 57.3106 490.875 57.4732 491.491 57.7441C491.784 57.8732 491.997 58.0005 492.124 58.0986C492.259 58.7859 492.321 59.6362 492.255 60.4121C492.176 61.3448 491.945 61.8137 491.817 61.9424C489.332 64.3742 489.182 66.9825 489.195 69.5166V69.5176C489.235 81.7374 489.142 94.039 489.288 106.263C489.293 107.411 489.796 108.432 490.182 109.165C490.628 110.012 490.959 110.558 491.137 111.144C491.696 113.194 492.212 115.062 492.248 116.833C492.106 116.903 491.927 116.982 491.712 117.062C490.958 117.342 490.102 117.532 489.595 117.546H489.594C483.44 117.718 477.294 117.75 471.145 117.5C470.674 117.481 469.963 117.289 469.311 116.956C468.995 116.795 468.737 116.623 468.554 116.463C468.374 116.306 468.325 116.212 468.321 116.206L468.32 116.205C467.987 115.378 467.872 114.466 468.03 113.7C468.179 112.981 468.563 112.375 469.329 111.973L469.328 111.972C470.518 111.351 471.304 110.546 471.725 109.494C472.107 108.536 472.12 107.51 472.12 106.669V106.653Z" fill="#212523" stroke="#D1F24A" stroke-width="3"/>
<path d="M248.606 257.084C249.148 256.508 250.294 256.067 252.426 256.485L252.865 256.581C254.83 257.045 256.761 257.65 258.778 258.256C260.773 258.856 262.836 259.452 264.96 259.849L264.965 259.85C274.215 261.55 283.741 260.976 292.72 258.177L292.738 258.171C294.655 257.548 296.61 257.046 298.591 256.67C300.476 256.354 301.726 256.838 302.363 257.513C302.968 258.154 303.329 259.3 302.728 261.047C301.507 264.6 299.889 268.165 297.635 270.851L297.176 271.376C291.399 277.703 284.02 281.223 275.249 281.262C262.612 281.26 251.064 272.707 248.217 261.528C247.605 259.077 248.008 257.719 248.606 257.084Z" fill="#D3F34A" stroke="#D1F24A" stroke-width="3"/>
<path d="M234.488 212.926C241.14 213.014 246.529 218.815 246.331 226.04C246.148 232.549 240.19 238.315 234.021 238.158H234.015C227.532 238.02 222.157 232.427 222.092 225.686L222.093 225.363C222.2 218.662 228.06 212.87 234.488 212.926Z" fill="#D3F34A" stroke="#D1F24A" stroke-width="3"/>
<path d="M318.329 212.954H318.636C324.946 213.051 330.123 218.396 330.24 225.301L330.242 225.636C330.194 232.521 324.492 238.273 318.061 238.186C311.69 238.099 306.252 232.53 306.157 226.026V225.715C306.229 218.919 311.968 213.024 318.329 212.954Z" fill="#D3F34A" stroke="#D1F24A" stroke-width="3"/>
<path d="M507.075 233.34C507.454 233.343 508.09 233.582 509.393 234.836V234.837C515.511 240.721 521.634 246.596 527.761 252.463L527.809 252.509L527.861 252.55C529.048 253.502 530.287 254.388 531.573 255.203L533.685 256.544L533.872 254.049C534.079 251.301 534.41 249 534.4 246.791L534.393 246.351C534.37 245.271 534.581 244.966 534.663 244.883C534.749 244.796 535.06 244.578 536.16 244.578H536.17L536.18 244.577C537.658 244.557 538.65 244.548 539.37 244.62C540.1 244.693 540.241 244.827 540.25 244.836C540.254 244.84 540.393 244.962 540.49 245.67C540.561 246.198 540.59 246.883 540.608 247.814L540.622 248.833C540.728 263.266 540.822 277.705 540.988 292.144V292.145C541.003 293.41 540.78 293.914 540.583 294.132C540.418 294.315 539.99 294.6 538.688 294.601C529.859 294.501 521.032 294.536 512.209 294.648H512.206C511.131 294.664 510.885 294.477 510.853 294.446C510.844 294.438 510.636 294.239 510.661 293.174V293.171C510.755 288.609 510.741 284.041 510.703 279.487L510.661 274.938C510.659 272.776 510.385 270.845 509.075 269.558C507.934 268.437 506.304 268.097 504.467 268.023L503.668 268.007H496.056C494.111 268.007 492.332 268.274 491.116 269.471C489.894 270.673 489.616 272.439 489.606 274.349V274.356C489.606 280.279 489.494 286.294 489.607 292.273V292.274C489.634 293.686 489.36 294.248 489.11 294.502C488.858 294.757 488.286 295.049 486.836 295.046H486.832C484.286 295.046 482.618 294.986 481.504 294.806C480.374 294.623 480.176 294.369 480.13 294.304C480.029 294.158 479.909 293.804 479.915 292.657C479.921 291.72 480.022 290.01 479.997 288.21C479.931 283.27 479.998 278.315 480.051 273.365V273.35C480.051 272.179 479.933 270.82 479.164 269.733C478.321 268.542 476.966 268.025 475.313 267.942C474.887 267.921 474.207 267.746 473.614 267.473C473.392 267.37 473.221 267.271 473.103 267.189C473.105 266.74 473.18 266.292 473.327 265.865C473.51 265.33 473.802 264.839 474.183 264.421C480.202 258.324 486.39 252.413 492.572 246.437C496.615 242.539 500.689 238.684 504.761 234.804C506.067 233.563 506.7 233.337 507.075 233.34Z" fill="#D3F34A" stroke="#D1F24A" stroke-width="3"/>
<path d="M80.3704 318.193C83.0378 318.193 84.6511 318.797 85.6155 319.748C86.5754 320.695 87.179 322.271 87.179 324.876V375.071C87.0913 375.981 86.8235 376.497 86.5305 376.785C86.2488 377.062 85.7645 377.308 84.8625 377.308C83.9833 377.308 83.6521 377.059 83.4963 376.87C83.2946 376.625 83.0972 376.125 83.1028 375.173V375.163C83.1028 371.499 83.0565 367.883 83.1028 364.271L83.1018 364.27C83.1229 363.16 82.9377 361.971 82.094 361.092C81.2393 360.201 80.0413 359.972 78.8811 359.976H78.8801C62.9815 360.042 47.1047 360.068 31.2502 360.055H31.2483C29.8545 360.055 28.4729 360.328 27.4788 361.312C26.4753 362.306 26.1907 363.699 26.217 365.153L26.218 365.155C26.2433 366.436 26.2411 367.526 26.2375 368.46C26.234 369.383 26.2285 370.186 26.2463 370.85C26.2639 371.503 26.3057 372.122 26.427 372.659C26.5516 373.211 26.7869 373.802 27.2825 374.278C27.7791 374.755 28.3764 374.962 28.9202 375.061C29.4467 375.156 30.0428 375.172 30.6536 375.167C31.9607 375.157 33.5067 375.058 35.8801 375.1H35.8811C43.0645 375.219 50.2799 375.1 57.4133 375.1C58.4998 375.1 59.1699 375.183 59.5637 375.393C59.7118 375.472 59.7984 375.558 59.8635 375.682C59.9377 375.822 60.0313 376.101 60.0276 376.624V376.635C60.0275 377.535 59.7438 377.875 59.4905 378.058C59.1444 378.307 58.5238 378.487 57.552 378.487C47.1708 378.487 36.8243 378.547 26.467 378.487H26.4583C24.7711 378.487 23.7397 378.039 23.1213 377.41C22.4986 376.776 22.0618 375.722 22.0618 374.024C22.0618 357.158 22.0903 340.288 22.1477 323.417V323.412C22.1477 321.682 22.6067 320.616 23.2639 319.971C23.9272 319.32 25.0293 318.864 26.7971 318.855H55.4143V318.193H80.3704ZM83.175 350.769C83.0759 343.297 83.089 335.816 83.175 328.339V328.321C83.175 326.797 82.8975 325.31 81.8625 324.247C80.8784 323.237 79.5045 322.907 78.0256 322.892L77.7288 322.893C69.9885 322.985 62.3021 322.912 54.5774 322.912C46.836 322.912 39.1647 323.024 31.4749 322.853H31.4729C29.7761 322.816 28.2156 323.133 27.135 324.248C26.1323 325.283 25.84 326.702 25.8313 328.162L25.8333 328.455C25.9492 335.105 26.0602 341.746 26.1038 348.386L26.1184 351.23C26.1189 352.39 26.2757 353.684 27.1174 354.645C28.016 355.67 29.3345 355.934 30.6985 355.892L30.6975 355.891C34.8492 355.766 39.0079 355.794 43.2053 355.893H43.2073C44.5372 355.922 45.8968 355.699 46.8723 354.741C47.7349 353.894 48.0266 352.743 48.0559 351.546L48.053 351.031C48.0009 348.805 48.0142 346.572 48.0266 344.313C48.0359 342.621 48.0448 340.915 48.0247 339.204L47.9934 337.493C47.9632 336.245 48.2713 335.671 48.5774 335.377C48.9105 335.057 49.5396 334.782 50.7219 334.75C52.0502 334.714 53.3438 334.732 54.6711 334.744C55.9876 334.756 57.3321 334.761 58.7034 334.696L58.7083 334.695C59.8954 334.635 60.2712 334.898 60.4036 335.042C60.5519 335.203 60.7442 335.584 60.7698 336.484V336.904C60.6576 341.521 60.7679 346.304 60.7161 350.837H60.717C60.6959 352.133 60.9095 353.476 61.7981 354.476C62.726 355.52 64.0726 355.847 65.5051 355.819L65.5042 355.818C69.784 355.746 74.0931 355.733 78.3655 355.727L78.3645 355.726C79.7054 355.725 81.0236 355.439 81.97 354.459C82.9048 353.491 83.175 352.156 83.175 350.788V350.769Z" fill="#D3F34A" stroke="#D1F24A" stroke-width="3"/>
<path d="M31.3477 325.834C38.9793 326.004 46.6293 325.897 54.2119 325.895L54.2559 325.914H54.5635C62.256 325.914 69.9944 325.987 77.7139 325.874C78.9889 325.856 79.4761 326.125 79.6797 326.331C79.886 326.541 80.1398 327.029 80.1162 328.274V328.288C80.0524 334.846 80.0336 341.411 80.0879 347.975L80.1162 350.787C80.1139 351.835 79.8936 352.214 79.7568 352.355C79.6467 352.47 79.3754 352.652 78.6426 352.698L78.2988 352.709C74.01 352.709 69.6755 352.708 65.3848 352.801C64.3877 352.819 64.0802 352.581 63.9746 352.463C63.8343 352.306 63.633 351.898 63.6562 350.871V350.862C63.6963 348.524 63.6816 346.186 63.6709 343.873C63.6601 341.553 63.6533 339.254 63.709 336.96C63.7449 335.52 63.5282 334.05 62.5488 332.988C61.5961 331.956 60.239 331.641 58.7881 331.671L58.4961 331.682C57.2163 331.742 55.9276 331.742 54.6074 331.733C53.2969 331.724 51.9429 331.705 50.5918 331.732C49.071 331.763 47.576 332.135 46.4736 333.183C45.3446 334.256 44.8917 335.784 44.9346 337.549V337.55C44.9902 339.779 44.9792 342.017 44.9668 344.279C44.9544 346.534 44.9405 348.815 44.9941 351.097C45.0168 352.153 44.7927 352.478 44.6914 352.577C44.5831 352.683 44.2475 352.894 43.2129 352.874C39.011 352.781 34.7968 352.755 30.5498 352.875H30.5469C29.5396 352.906 29.3415 352.681 29.3164 352.652C29.2452 352.571 29.1028 352.311 29.0664 351.558L29.0586 351.203C29.0585 343.589 28.9058 335.975 28.7734 328.383V328.382L28.7764 327.929C28.8118 326.953 29.0306 326.523 29.2295 326.317C29.4458 326.094 29.965 325.804 31.3477 325.834Z" fill="#212523" stroke="#D1F24A" stroke-width="3"/>
</svg>
