<svg width="100" height="100" viewBox="0 0 100 100" fill="none" xmlns="http://www.w3.org/2000/svg">
<g clip-path="url(#clip0_164_486)">
<rect width="100" height="100" fill="#D1F24A"/>
<path d="M62.3107 20.2005C62.58 19.404 63.4442 18.974 64.242 19.2395C65.0413 19.5057 65.4712 20.3692 65.2013 21.1673L62.1083 30.3136C61.839 31.1101 60.9748 31.5401 60.177 31.2746L51.0158 28.2261C50.2163 27.9601 49.7867 27.0966 50.0565 26.2983C50.3258 25.5018 51.19 25.0718 51.9878 25.3373L59.7043 27.9047L62.3107 20.2005Z" fill="#212523" stroke="#212523"/>
<path d="M44.6961 13.1068C47.5925 11.6656 50.1511 11.9364 52.1339 12.9813C54.0316 13.9816 55.3025 15.6314 55.9195 16.8711L61.0058 27.0925L60.4783 28.6651L60.3184 29.1395L58.2719 28.453L53.1856 18.2315C52.7862 17.4292 51.9203 16.3208 50.7098 15.6828C49.5841 15.0895 48.0616 14.8419 46.0561 15.8399C45.3014 16.2153 44.3852 15.9081 44.0096 15.1534C43.6342 14.3986 43.9415 13.4825 44.6961 13.1068Z" fill="#212523" stroke="#212523"/>
<path d="M60.6981 30.3321L60.7894 30.3161C60.7935 30.315 60.7972 30.3126 60.8012 30.3114C60.8268 30.3036 60.8522 30.2942 60.8773 30.2822C60.894 30.2742 60.9104 30.2654 60.9263 30.2557C60.9291 30.254 60.9318 30.2522 60.9346 30.2505C60.958 30.2355 60.9801 30.2185 61.001 30.1999L61.0111 30.2113L61.334 30.5731L61.6621 30.9432L61.6665 30.9476C61.6188 30.99 61.5671 31.0274 61.5147 31.0635C61.5104 31.0665 61.5065 31.0701 61.5021 31.073C61.4491 31.1086 61.3941 31.1406 61.3372 31.1692C61.3349 31.1704 61.333 31.1724 61.3307 31.1736C61.3223 31.1778 61.3128 31.1805 61.3044 31.1845C61.2812 31.1955 61.2579 31.2063 61.2341 31.2162C61.2113 31.2257 61.1885 31.2345 61.1654 31.2427C61.1435 31.2506 61.1214 31.258 61.099 31.2649C61.0816 31.2702 61.0645 31.2762 61.047 31.2809C61.0212 31.2879 60.995 31.2935 60.9688 31.2991C60.951 31.3029 60.9334 31.3072 60.9155 31.3104C60.8734 31.3178 60.8308 31.3242 60.7879 31.328L60.6981 30.3321Z" fill="#212523" stroke="#212523"/>
<path d="M92 27C96.4183 27 100 30.5817 100 35V100H36L35.5879 99.9893C31.3611 99.7748 28 96.2801 28 92V35C28 30.5817 31.5817 27 36 27H48.5039C48.1892 27.4182 48 27.9363 48 28.5C48 28.6712 48.017 28.8385 48.0498 29H36C32.6863 29 30 31.6863 30 35V92C30 95.3137 32.6863 98 36 98H98V35C98 31.6863 95.3137 29 92 29H67.9502C67.983 28.8385 68 28.6712 68 28.5C68 27.9363 67.8108 27.4182 67.4961 27H92Z" fill="#212523"/>
<path fill-rule="evenodd" clip-rule="evenodd" d="M50.2175 37H90.7825C94.6815 37 96.099 37.406 97.5235 38.1691C98.948 38.9321 100.068 40.0522 100.831 41.4767C101.594 42.9013 102 44.3154 102 48.2181V74.5046L86.6315 60.3183C86.0738 59.8037 85.4112 59.4161 84.6893 59.1823C83.9674 58.9484 83.2034 58.8738 82.4499 58.9636C81.6965 59.0535 80.9714 59.3056 80.3247 59.7026C79.678 60.0996 79.1251 60.6321 78.704 61.2633L67.749 77.6968L59.6885 72.5165C58.6139 71.826 57.3244 71.5511 56.0616 71.7431C54.7988 71.9351 53.6494 72.5809 52.8285 73.5595L39.0175 90.0279C39.006 89.6139 39.0002 89.1996 39 88.7854V48.2181C39 44.3154 39.406 42.9013 40.169 41.4767C40.932 40.0522 42.052 38.9321 43.4765 38.1691C44.901 37.406 46.315 37 50.2175 37ZM83.387 66.8567L102 84.0321V88.7819C102 92.6811 101.594 94.0987 100.831 95.5232C100.085 96.9325 98.9327 98.0849 97.5235 98.8309C96.099 99.594 94.685 100 90.7825 100H50.2175C46.315 100 44.901 99.594 43.4765 98.8309C42.8609 98.5035 42.2903 98.0976 41.779 97.6234L57.2 79.2368L65.411 84.5151C66.5696 85.2596 67.9742 85.519 69.3222 85.2375C70.6703 84.956 71.8537 84.156 72.6175 83.0101L83.387 66.8567ZM56.458 47.5006C52.573 47.5006 49.5 50.4127 49.5 54.459C49.5 58.5087 52.5765 61.5014 56.458 61.5014C60.4235 61.5014 63.5 58.5087 63.5 54.459C63.5 50.4127 60.4235 47.5006 56.458 47.5006Z" fill="#212523"/>
<path d="M22.5 23.3538L39.6696 12.7817C39.396 12.4853 39.0679 12.2482 38.667 12.011L25.8173 4.06716C24.6873 3.37545 23.5936 3 22.5 3C21.4064 3 20.3128 3.37545 19.1828 4.06716L6.33301 12.011C5.93204 12.2482 5.60394 12.4853 5.33052 12.7817L22.5 23.3538ZM21.2606 46V25.7252L4.14581 15.1333C4.05467 15.5681 4 16.0423 4 16.6351V32.029C4 34.8943 4.92955 35.9614 6.62464 37.0088L20.8961 45.8222C21.0237 45.9012 21.133 45.9605 21.2606 46ZM23.7394 46C23.8671 45.9605 23.9764 45.9012 24.104 45.8222L38.3754 37.0088C40.0705 35.9614 41 34.8943 41 32.029V16.6351C41 16.0423 40.9455 15.5681 40.8544 15.1333L23.7394 25.7252V46Z" fill="#212523"/>
</g>
<defs>
<clipPath id="clip0_164_486">
<rect width="100" height="100" fill="white"/>
</clipPath>
</defs>
</svg>
