<svg width="100" height="100" viewBox="0 0 100 100" fill="none" xmlns="http://www.w3.org/2000/svg">
<rect width="100" height="100" fill="#D1F24A"/>
<path d="M89 56.4375C89 54.975 88.025 54 86.5625 54H84.125C84.125 53.2687 84.125 52.2938 84.125 51.5625C84.125 31.3312 67.7938 15 47.5625 15C27.3312 15 11 31.3312 11 51.5625C11 70.8188 26.1125 86.6625 45.125 87.8812V88.125C45.125 88.125 45.125 88.125 45.125 88.3688C45.125 88.6125 45.125 88.6125 45.125 88.8562C45.125 89.1 45.125 89.1 45.3688 89.3438C45.3688 89.5875 45.6125 89.5875 45.6125 89.8313C45.6125 90.075 45.8563 90.075 45.8563 90.3187C45.8563 90.3187 45.8563 90.3187 45.8563 90.5625C45.8563 90.5625 46.1 90.5625 46.1 90.8062C46.1 90.8062 46.3438 90.8063 46.3438 91.05C46.5875 91.05 46.8312 91.2937 47.3187 91.2937H86.3187H86.5625C86.8063 91.2937 86.8063 91.2937 87.05 91.2937C87.2938 91.2937 87.2937 91.05 87.5375 91.05C87.5375 91.05 87.7812 91.05 87.7812 90.8062C88.025 90.8062 88.025 90.5625 88.025 90.3187L88.2688 90.075C88.2688 89.8312 88.2688 89.8313 88.2688 89.5875C88.2688 89.3438 88.2688 89.3437 88.2688 89.1V56.4375H89ZM84.125 81.3L76.325 71.7937C75.8375 71.3062 75.1063 71.0625 74.375 71.0625C73.6437 71.0625 72.9125 71.3062 72.425 71.7937L69.5 74.7188L63.8938 67.1625C62.9188 65.9437 60.9688 65.9437 59.9938 67.1625L50 80.8125V58.875H84.125V81.3ZM35.375 51.5625C35.375 47.4187 35.6187 43.7625 36.35 40.35C39.7625 39.8625 43.6625 39.375 47.5625 39.375C51.4625 39.375 55.3625 39.6187 58.775 40.35C59.2625 43.7625 59.75 47.6625 59.75 51.5625C59.75 52.2938 59.75 53.2687 59.75 54H47.5625C46.1 54 45.125 54.975 45.125 56.4375V63.75C41.9563 63.75 39.0312 63.2625 36.35 63.0188C35.6187 59.3625 35.375 55.7063 35.375 51.5625ZM31.2313 61.8C21.725 59.6063 15.875 55.4625 15.875 51.5625C15.875 47.6625 21.725 43.5188 31.2313 41.325C30.7438 44.4938 30.5 47.9062 30.5 51.5625C30.5 55.2188 30.7438 58.6313 31.2313 61.8ZM47.5625 19.875C51.4625 19.875 55.6063 25.725 57.8 35.2313C54.6313 34.7438 51.2188 34.5 47.5625 34.5C43.9062 34.5 40.4938 34.7438 37.325 35.2313C39.5188 25.725 43.6625 19.875 47.5625 19.875ZM78.5188 54H64.625C64.625 53.2687 64.625 52.2938 64.625 51.5625C64.625 47.9062 64.3813 44.4938 63.8938 41.325C73.4 43.7625 79.25 47.9062 79.25 51.5625C79.25 52.2938 79.0063 53.2687 78.5188 54ZM45.125 68.625V82.5188C41.9563 80.5688 39.0313 75.45 37.325 67.8938C39.7625 68.3813 42.4437 68.3812 45.125 68.625ZM77.5437 41.5687C73.8875 39.1312 69.0125 37.1813 62.9187 35.9625C61.7 30.1125 59.75 24.9937 57.3125 21.3375C67.0625 24.75 74.375 32.0625 77.5437 41.5687ZM37.5687 21.5813C35.1312 25.2375 33.1813 30.1125 31.9625 36.2062C26.1125 37.425 20.9937 39.375 17.3375 41.8125C20.75 32.0625 28.0625 24.75 37.5687 21.5813ZM17.5813 61.5563C21.2375 63.9938 26.1125 65.9437 32.2062 67.1625C33.425 73.0125 35.375 78.1312 37.8125 81.7875C28.0625 78.375 20.75 71.0625 17.5813 61.5563Z" fill="#212523"/>
<path d="M78.3097 12.2996C77.3121 11.4901 75.8748 12.5773 76.3822 13.7575L77.7784 17.0048C77.9596 17.4262 77.8876 17.9166 77.592 18.2757L75.3133 21.0428C74.4851 22.0485 75.5553 23.4633 76.7484 22.9401L80.0313 21.5005C80.4572 21.3137 80.9487 21.3779 81.3049 21.667L84.0497 23.8942C85.0472 24.7037 86.4845 23.6165 85.9771 22.4363L84.5809 19.189C84.3997 18.7676 84.4717 18.2772 84.7674 17.9181L87.0461 15.151C87.8742 14.1453 86.804 12.7305 85.6109 13.2537L82.3281 14.6933C81.9021 14.8801 81.4106 14.8158 81.0545 14.5268L78.3097 12.2996Z" fill="#212523"/>
<path fill-rule="evenodd" clip-rule="evenodd" d="M78.1466 14.087L80.1068 15.6776C80.8903 16.3134 81.9716 16.4547 82.9087 16.0438L85.2532 15.0157L83.6259 16.9918C82.9754 17.7818 82.8171 18.8607 83.2156 19.7877L84.2127 22.1068L82.2525 20.5162C81.469 19.8803 80.3877 19.7391 79.4506 20.15L77.1061 21.1781L78.7335 19.202C79.384 18.412 79.5423 17.3331 79.1437 16.4061L78.1466 14.087ZM76.3822 13.7575C75.8748 12.5773 77.3121 11.4901 78.3097 12.2996L81.0545 14.5268C81.4106 14.8158 81.9021 14.8801 82.3281 14.6933L85.6109 13.2537C86.804 12.7305 87.8742 14.1453 87.0461 15.151L84.7674 17.9181C84.4717 18.2772 84.3997 18.7676 84.5809 19.189L85.9771 22.4363C86.4845 23.6165 85.0472 24.7037 84.0497 23.8942L81.3049 21.667C80.9487 21.3779 80.4572 21.3137 80.0313 21.5005L76.7484 22.9401C75.5553 23.4633 74.4851 22.0485 75.3133 21.0428L77.592 18.2757C77.8876 17.9166 77.9596 17.4262 77.7784 17.0048L76.3822 13.7575Z" fill="#212523"/>
<path d="M66.0995 13.5064C66.7068 14.3092 67.8602 14.4599 68.6757 13.843C69.4913 13.2262 69.6602 12.0753 69.0529 11.2724C68.4457 10.4696 67.2923 10.3189 66.4767 10.9358C65.6611 11.5527 65.4923 12.7036 66.0995 13.5064Z" fill="#212523"/>
<path d="M81.4928 33.8571C82.1001 34.66 83.2535 34.8107 84.0691 34.1938C84.8846 33.5769 85.0535 32.426 84.4462 31.6232C83.839 30.8204 82.6856 30.6697 81.87 31.2865C81.0544 31.9034 80.8856 33.0543 81.4928 33.8571Z" fill="#212523"/>
</svg>
