<svg width="100" height="100" viewBox="0 0 100 100" fill="none" xmlns="http://www.w3.org/2000/svg">
<rect width="100" height="100" fill="#D1F24A"/>
<path d="M90 10H10V90H90V10Z" fill="white" fill-opacity="0.01"/>
<path d="M27.6428 17.6443C28.9446 16.3425 31.0551 16.3425 32.3569 17.6443C33.6586 18.946 33.6586 21.0566 32.3569 22.3583L22.3569 32.3583C21.0551 33.6601 18.9446 33.6601 17.6428 32.3583C16.3411 31.0566 16.3411 28.946 17.6428 27.6443L27.6428 17.6443Z" fill="#212523"/>
<path d="M77.6428 67.6443C78.9446 66.3425 81.0551 66.3425 82.3569 67.6443C83.6586 68.946 83.6586 71.0566 82.3569 72.3583L72.3569 82.3583C71.0551 83.6601 68.9446 83.6601 67.6428 82.3583C66.3411 81.0566 66.3411 78.946 67.6428 77.6443L77.6428 67.6443Z" fill="#212523" fill-opacity="0.4"/>
<path d="M44.3095 17.6443C45.6113 16.3425 47.7218 16.3425 49.0236 17.6443C50.3253 18.946 50.3253 21.0566 49.0236 22.3583L22.3569 49.025C21.0551 50.3268 18.9445 50.3268 17.6428 49.025C16.3411 47.7233 16.3411 45.6127 17.6428 44.311L44.3095 17.6443Z" fill="#212523" fill-opacity="0.9"/>
<path d="M60.9761 17.6443C62.2779 16.3425 64.3884 16.3425 65.6902 17.6443C66.9919 18.946 66.9919 21.0566 65.6902 22.3583L22.3569 65.6916C21.0551 66.9934 18.9446 66.9934 17.6428 65.6916C16.3411 64.3899 16.3411 62.2793 17.6428 60.9776L60.9761 17.6443Z" fill="#212523" fill-opacity="0.8"/>
<path d="M77.6428 17.6443C78.9446 16.3425 81.0551 16.3425 82.3569 17.6443C83.6586 18.946 83.6586 21.0566 82.3569 22.3583L22.3569 82.3583C21.0551 83.6601 18.9446 83.6601 17.6428 82.3583C16.3411 81.0566 16.3411 78.946 17.6428 77.6443L77.6428 17.6443Z" fill="#212523" fill-opacity="0.7"/>
<path d="M77.6431 34.3083C78.9448 33.0066 81.0554 33.0066 82.3572 34.3083C83.6589 35.6101 83.6589 37.7206 82.3572 39.0224L39.0239 82.3557C37.7221 83.6574 35.6115 83.6574 34.3098 82.3557C33.0081 81.054 33.0081 78.9434 34.3098 77.6416L77.6431 34.3083Z" fill="#212523" fill-opacity="0.6"/>
<path d="M77.643 50.9763C78.9448 49.6746 81.0553 49.6746 82.3571 50.9763C83.6588 52.278 83.6588 54.3886 82.3571 55.6904L55.6904 82.3571C54.3886 83.6588 52.278 83.6588 50.9763 82.3571C49.6746 81.0553 49.6746 78.9448 50.9763 77.643L77.643 50.9763Z" fill="#212523" fill-opacity="0.5"/>
</svg>
