<svg width="100" height="100" viewBox="0 0 100 100" fill="none" xmlns="http://www.w3.org/2000/svg">
<rect width="100" height="100" fill="#D1F24A"/>
<path d="M50 90C55.9616 89.9944 61.7662 88.0897 66.5702 84.5627C71.3741 81.0357 74.9272 76.0701 76.713 70.3875C78.4989 64.705 78.4244 58.6015 76.5005 52.9641C74.5766 47.3267 70.9035 42.449 66.015 39.04V30C66.015 28.9391 65.5931 27.9217 64.8423 27.1716C64.0914 26.4214 63.0731 26 62.0112 26H37.9888C36.9269 26 35.9086 26.4214 35.1577 27.1716C34.4069 27.9217 33.985 28.9391 33.985 30V39.04C29.0965 42.449 25.4234 47.3267 23.4995 52.9641C21.5756 58.6015 21.5011 64.705 23.287 70.3875C25.0728 76.0701 28.6259 81.0357 33.4298 84.5627C38.2338 88.0897 44.0384 89.9944 50 90ZM62.0112 14C62.0112 12.9391 61.5894 11.9217 60.8386 11.1716C60.0877 10.4214 59.0693 10 58.0075 10H41.9925C40.9307 10 39.9123 10.4214 39.1615 11.1716C38.4106 11.9217 37.9888 12.9391 37.9888 14V18H62.0112V14Z" fill="#212523"/>
</svg>
