<svg width="100" height="100" viewBox="0 0 100 100" fill="none" xmlns="http://www.w3.org/2000/svg">
<rect width="100" height="100" fill="#D1F24A"/>
<path d="M92 27C96.4183 27 100 30.5817 100 35V100H36L35.5879 99.9893C31.3611 99.7748 28 96.2801 28 92V35C28 30.5817 31.5817 27 36 27H48.5039C48.1892 27.4182 48 27.9363 48 28.5C48 28.6712 48.017 28.8385 48.0498 29H36C32.6863 29 30 31.6863 30 35V92C30 95.3137 32.6863 98 36 98H98V35C98 31.6863 95.3137 29 92 29H47.4541C47.4869 28.8385 47.5039 28.6712 47.5039 28.5C47.5039 27.9363 47.3147 27.4182 47 27H92Z" fill="#212523"/>
<path d="M32.1667 14.6C32.1667 13.164 31.0101 12 29.5834 12C28.1566 12 27 13.164 27 14.6V48.3999C27 49.8359 28.1566 51 29.5834 51H55.4167C56.8434 51 58 49.8359 58 48.3999C58 46.964 56.8434 45.8 55.4167 45.8H32.1667V14.6Z" fill="#212523"/>
<path d="M30.7216 10.7147C29.7421 9.74641 28.1933 9.76202 27.2322 10.7615L19.7322 18.5615C18.7559 19.5769 18.7559 21.2231 19.7322 22.2385C20.7085 23.2538 22.2915 23.2538 23.2678 22.2385L29 16.277L34.7322 22.2385C35.7085 23.2538 37.2915 23.2538 38.2678 22.2385C39.2441 21.2231 39.2441 19.5769 38.2678 18.5615L30.7678 10.7615L30.7216 10.7147Z" fill="#212523"/>
<path d="M27 76.4613V48.5382C27 47.1362 28.1566 45.8027 29.5833 45.8027H83.9166C85.3434 45.8027 86.5 47.1362 86.5 48.5382C86.5 49.9402 85.3434 51.0766 83.9166 51.0766H32.1666V76.4613C32.1666 77.8633 31.01 78.9998 29.5833 78.9998C28.1566 78.9998 27 77.8633 27 76.4613Z" fill="#212523"/>
<path d="M34.7322 68.7615C35.7085 67.7462 37.2915 67.7462 38.2678 68.7615C39.2441 69.7769 39.2441 71.4231 38.2678 72.4385L30.7678 80.2385C29.7915 81.2538 28.2085 81.2538 27.2322 80.2385L19.7322 72.4385C18.7559 71.4231 18.7559 69.7769 19.7322 68.7615C20.7085 67.7462 22.2915 67.7462 23.2678 68.7615L29 74.723L34.7322 68.7615Z" fill="#212523"/>
<path d="M74 91C76.9808 90.9972 79.8831 90.0449 82.2851 88.2814C84.6871 86.5178 86.4636 84.035 87.3565 81.1938C88.2494 78.3525 88.2122 75.3007 87.2503 72.482C86.2883 69.6633 84.4518 67.2245 82.0075 65.52V61C82.0075 60.4696 81.7966 59.9609 81.4211 59.5858C81.0457 59.2107 80.5365 59 80.0056 59H67.9944C67.4635 59 66.9543 59.2107 66.5789 59.5858C66.2034 59.9609 65.9925 60.4696 65.9925 61V65.52C63.5482 67.2245 61.7117 69.6633 60.7497 72.482C59.7878 75.3007 59.7506 78.3525 60.6435 81.1938C61.5364 84.035 63.3129 86.5178 65.7149 88.2814C68.1169 90.0449 71.0192 90.9972 74 91ZM80.0056 53C80.0056 52.4696 79.7947 51.9609 79.4193 51.5858C79.0439 51.2107 78.5347 51 78.0037 51H69.9963C69.4653 51 68.9561 51.2107 68.5807 51.5858C68.2053 51.9609 67.9944 52.4696 67.9944 53V55H80.0056V53Z" fill="#212523"/>
</svg>
