<svg width="100" height="100" viewBox="0 0 100 100" fill="none" xmlns="http://www.w3.org/2000/svg">
<g clip-path="url(#clip0_164_246)">
<rect width="100" height="100" fill="#D1F24A"/>
<path d="M92 27C96.4183 27 100 30.5817 100 35V100H36L35.5879 99.9893C31.3611 99.7748 28 96.2801 28 92V35C28 30.5817 31.5817 27 36 27H48.5039C48.1892 27.4182 48 27.9363 48 28.5C48 28.6712 48.017 28.8385 48.0498 29H36C32.6863 29 30 31.6863 30 35V92C30 95.3137 32.6863 98 36 98H98V35C98 31.6863 95.3137 29 92 29H47.4541C47.4869 28.8385 47.5039 28.6712 47.5039 28.5C47.5039 27.9363 47.3147 27.4182 47 27H92Z" fill="#212523"/>
<path d="M109 40H40V109H109V40Z" fill="white" fill-opacity="0.01"/>
<path d="M55.2168 46.594C56.3396 45.4713 58.1599 45.4713 59.2827 46.594C60.4055 47.7168 60.4055 49.5371 59.2827 50.6599L50.6577 59.2849C49.5349 60.4077 47.7146 60.4077 46.5918 59.2849C45.4691 58.1621 45.4691 56.3418 46.5918 55.219L55.2168 46.594Z" fill="#212523"/>
<path d="M98.3418 89.719C99.4646 88.5963 101.285 88.5963 102.408 89.719C103.53 90.8418 103.53 92.6621 102.408 93.7849L93.7827 102.41C92.6599 103.533 90.8396 103.533 89.7168 102.41C88.5941 101.287 88.5941 99.4668 89.7168 98.344L98.3418 89.719Z" fill="#212523" fill-opacity="0.4"/>
<path d="M69.5918 46.594C70.7146 45.4713 72.535 45.4713 73.6577 46.594C74.7805 47.7168 74.7805 49.5371 73.6577 50.6599L50.6577 73.6599C49.5349 74.7827 47.7146 74.7827 46.5918 73.6599C45.4691 72.5372 45.4691 70.7168 46.5918 69.594L69.5918 46.594Z" fill="#212523" fill-opacity="0.9"/>
<path d="M83.9668 46.594C85.0895 45.4713 86.9099 45.4713 88.0327 46.594C89.1554 47.7168 89.1554 49.5371 88.0327 50.6599L50.6577 88.0349C49.5349 89.1576 47.7146 89.1576 46.5918 88.0349C45.4691 86.9121 45.4691 85.0917 46.5918 83.969L83.9668 46.594Z" fill="#212523" fill-opacity="0.8"/>
<path d="M98.3418 46.594C99.4646 45.4713 101.285 45.4713 102.408 46.594C103.53 47.7168 103.53 49.5371 102.408 50.6599L50.6577 102.41C49.5349 103.533 47.7146 103.533 46.5918 102.41C45.4691 101.287 45.4691 99.4668 46.5918 98.344L98.3418 46.594Z" fill="#212523" fill-opacity="0.7"/>
<path d="M98.3423 60.9651C99.465 59.8424 101.285 59.8424 102.408 60.9651C103.531 62.0879 103.531 63.9082 102.408 65.031L65.0332 102.406C63.9104 103.529 62.0901 103.529 60.9673 102.406C59.8446 101.283 59.8446 99.4628 60.9673 98.3401L98.3423 60.9651Z" fill="#212523" fill-opacity="0.6"/>
<path d="M98.3421 75.3421C99.4648 74.2193 101.285 74.2193 102.408 75.3421C103.531 76.4648 103.531 78.2852 102.408 79.4079L79.4079 102.408C78.2852 103.531 76.4648 103.531 75.3421 102.408C74.2193 101.285 74.2193 99.4648 75.3421 98.3421L98.3421 75.3421Z" fill="#212523" fill-opacity="0.5"/>
<path d="M32.1667 14.6C32.1667 13.164 31.0101 12 29.5834 12C28.1566 12 27 13.164 27 14.6V48.3999C27 49.8359 28.1566 51 29.5834 51H55.4167C56.8434 51 58 49.8359 58 48.3999C58 46.964 56.8434 45.8 55.4167 45.8H32.1667V14.6Z" fill="#212523"/>
<path d="M30.7216 10.7147C29.7421 9.74641 28.1933 9.76202 27.2322 10.7615L19.7322 18.5615C18.7559 19.5769 18.7559 21.2231 19.7322 22.2385C20.7085 23.2538 22.2915 23.2538 23.2678 22.2385L29 16.277L34.7322 22.2385C35.7085 23.2538 37.2915 23.2538 38.2678 22.2385C39.2441 21.2231 39.2441 19.5769 38.2678 18.5615L30.7678 10.7615L30.7216 10.7147Z" fill="#212523"/>
<path d="M27 76.4616V48.5384C27 47.1365 28.1566 46 29.5833 46H55.4166C56.8434 46 58 47.1365 58 48.5384C58 49.9404 56.8434 51.0769 55.4166 51.0769H32.1666V76.4616C32.1666 77.8635 31.01 79 29.5833 79C28.1566 79 27 77.8635 27 76.4616Z" fill="#212523"/>
<path d="M34.7322 68.7615C35.7085 67.7462 37.2915 67.7462 38.2678 68.7615C39.2441 69.7769 39.2441 71.4231 38.2678 72.4385L30.7678 80.2385C29.7915 81.2538 28.2085 81.2538 27.2322 80.2385L19.7322 72.4385C18.7559 71.4231 18.7559 69.7769 19.7322 68.7615C20.7085 67.7462 22.2915 67.7462 23.2678 68.7615L29 74.723L34.7322 68.7615Z" fill="#212523"/>
</g>
<defs>
<clipPath id="clip0_164_246">
<rect width="100" height="100" fill="white"/>
</clipPath>
</defs>
</svg>
