<svg width="100" height="100" viewBox="0 0 100 100" fill="none" xmlns="http://www.w3.org/2000/svg">
<g clip-path="url(#clip0_164_150)">
<rect width="100" height="100" fill="#D1F24A"/>
<path d="M62.3107 20.2005C62.58 19.404 63.4442 18.974 64.242 19.2395C65.0413 19.5057 65.4712 20.3692 65.2013 21.1673L62.1083 30.3136C61.839 31.1101 60.9748 31.5401 60.177 31.2746L51.0158 28.2261C50.2163 27.9601 49.7867 27.0966 50.0565 26.2983C50.3258 25.5018 51.19 25.0718 51.9878 25.3373L59.7043 27.9047L62.3107 20.2005Z" fill="#212523" stroke="#212523"/>
<path d="M44.6961 13.1068C47.5925 11.6656 50.1511 11.9364 52.1339 12.9813C54.0316 13.9816 55.3025 15.6314 55.9195 16.8711L61.0058 27.0925L60.4783 28.6651L60.3184 29.1395L58.2719 28.453L53.1856 18.2315C52.7862 17.4292 51.9203 16.3208 50.7098 15.6828C49.5841 15.0895 48.0616 14.8419 46.0561 15.8399C45.3014 16.2153 44.3852 15.9081 44.0096 15.1534C43.6342 14.3986 43.9415 13.4825 44.6961 13.1068Z" fill="#212523" stroke="#212523"/>
<path d="M60.6983 30.3321L60.7896 30.3161C60.7936 30.315 60.7973 30.3126 60.8014 30.3114C60.8269 30.3036 60.8524 30.2942 60.8774 30.2822C60.8942 30.2742 60.9105 30.2654 60.9264 30.2557C60.9292 30.254 60.9319 30.2522 60.9347 30.2505C60.9581 30.2355 60.9802 30.2185 61.0012 30.1999L61.0112 30.2113L61.3341 30.5731L61.6623 30.9432L61.6666 30.9476C61.6189 30.99 61.5673 31.0274 61.5149 31.0635C61.5105 31.0665 61.5066 31.0701 61.5022 31.073C61.4493 31.1086 61.3942 31.1406 61.3373 31.1692C61.335 31.1704 61.3331 31.1724 61.3308 31.1736C61.3224 31.1778 61.3129 31.1805 61.3046 31.1845C61.2813 31.1955 61.258 31.2063 61.2342 31.2162C61.2114 31.2257 61.1886 31.2345 61.1656 31.2427C61.1436 31.2506 61.1215 31.258 61.0991 31.2649C61.0818 31.2702 61.0646 31.2762 61.0471 31.2809C61.0213 31.2879 60.9952 31.2935 60.9689 31.2991C60.9511 31.3029 60.9335 31.3072 60.9156 31.3104C60.8735 31.3178 60.8309 31.3242 60.7881 31.328L60.6983 30.3321Z" fill="#212523" stroke="#212523"/>
<path d="M92 27C96.4183 27 100 30.5817 100 35V100H36L35.5879 99.9893C31.3611 99.7748 28 96.2801 28 92V35C28 30.5817 31.5817 27 36 27H48.5039C48.1892 27.4182 48 27.9363 48 28.5C48 28.6712 48.017 28.8385 48.0498 29H36C32.6863 29 30 31.6863 30 35V92C30 95.3137 32.6863 98 36 98H98V35C98 31.6863 95.3137 29 92 29H67.9502C67.983 28.8385 68 28.6712 68 28.5C68 27.9363 67.8108 27.4182 67.4961 27H92Z" fill="#212523"/>
<path d="M43 56.3665V48.4332L71 36.5332L99 48.4332V56.3665L71 68.2665L43 56.3665Z" fill="#212523"/>
<path d="M71 100L43 88.2404V80.4004L71 92.1604L99 80.4004V88.2404L71 100Z" fill="#212523"/>
<path d="M43 72.3732L71 84.1332L99 72.3732V64.5332L71 76.2932L43 64.5332V72.3732Z" fill="#212523"/>
<path fill-rule="evenodd" clip-rule="evenodd" d="M9.41 3H32.59C34.818 3 35.628 3.23201 36.442 3.66804C37.256 4.10406 37.896 4.7441 38.332 5.55814C38.768 6.37219 39 7.18023 39 9.41036V24.4312L30.218 16.3247C29.8993 16.0307 29.5207 15.8092 29.1082 15.6756C28.6957 15.5419 28.2591 15.4993 27.8285 15.5506C27.398 15.602 26.9837 15.746 26.6141 15.9729C26.2446 16.1998 25.9286 16.504 25.688 16.8648L19.428 26.2553L14.822 23.2951C14.2079 22.9006 13.4711 22.7435 12.7495 22.8532C12.0279 22.9629 11.3711 23.3319 10.902 23.8912L3.01 33.3017C3.00343 33.0651 3.0001 32.8284 3 32.5916V9.41036C3 7.18023 3.232 6.37219 3.668 5.55814C4.104 4.7441 4.744 4.10406 5.558 3.66804C6.372 3.23201 7.18 3 9.41 3ZM28.364 20.0609L39 29.8755V32.5896C39 34.8178 38.768 35.6278 38.332 36.4419C37.9057 37.2471 37.2472 37.9057 36.442 38.332C35.628 38.768 34.82 39 32.59 39H9.41C7.18 39 6.372 38.768 5.558 38.332C5.20621 38.1448 4.88015 37.9129 4.588 37.6419L13.4 27.1353L18.092 30.1515C18.754 30.5769 19.5567 30.7252 20.327 30.5643C21.0973 30.4034 21.7735 29.9463 22.21 29.2915L28.364 20.0609ZM12.976 9.00033C10.756 9.00033 9 10.6644 9 12.9766C9 15.2907 10.758 17.0008 12.976 17.0008C15.242 17.0008 17 15.2907 17 12.9766C17 10.6644 15.242 9.00033 12.976 9.00033Z" fill="#212523"/>
</g>
<defs>
<clipPath id="clip0_164_150">
<rect width="100" height="100" fill="white"/>
</clipPath>
</defs>
</svg>
