<svg width="100" height="100" viewBox="0 0 100 100" fill="none" xmlns="http://www.w3.org/2000/svg">
<rect width="100" height="100" fill="#D1F24A"/>
<path d="M18 36.1335V27.0668L50 13.4668L82 27.0668V36.1335L50 49.7335L18 36.1335Z" fill="#212523"/>
<path d="M50 85.9996L18 72.5596V63.5996L50 77.0396L82 63.5996V72.5596L50 85.9996Z" fill="#212523"/>
<path d="M18 54.4268L50 67.8668L82 54.4268V45.4668L50 58.9068L18 45.4668V54.4268Z" fill="#212523"/>
<path fill-rule="evenodd" clip-rule="evenodd" d="M42.0991 25.2062C42.4543 25.5538 42.4604 26.1237 42.1127 26.4789L38.5454 30.1236L42.1901 33.6909C42.5453 34.0386 42.5515 34.6084 42.2038 34.9637C41.8561 35.3189 41.2863 35.325 40.9311 34.9773L36.6431 30.7804C36.2879 30.4328 36.2818 29.8629 36.6295 29.5077L40.8264 25.2198C41.1741 24.8646 41.7439 24.8585 42.0991 25.2062Z" fill="#D1F24A"/>
<path fill-rule="evenodd" clip-rule="evenodd" d="M57.7959 25.0377C58.1436 24.6825 58.7134 24.6764 59.0687 25.0241L63.3566 29.221C63.7118 29.5687 63.7179 30.1385 63.3702 30.4937L59.1733 34.7816C58.8257 35.1368 58.2558 35.1429 57.9006 34.7953C57.5454 34.4476 57.5393 33.8778 57.887 33.5225L61.4543 29.8778L57.8096 26.3105C57.4544 25.9628 57.4483 25.393 57.7959 25.0377Z" fill="#D1F24A"/>
<path fill-rule="evenodd" clip-rule="evenodd" d="M63.627 29.8545C63.6323 30.3515 63.2337 30.7588 62.7367 30.7641L52.8378 30.8703C52.3407 30.8756 51.9335 30.477 51.9282 29.98C51.9228 29.483 52.3214 29.0757 52.8185 29.0704L62.7174 28.9642C63.2144 28.9589 63.6217 29.3575 63.627 29.8545Z" fill="#D1F24A"/>
<path fill-rule="evenodd" clip-rule="evenodd" d="M48.7786 30.0138C48.784 30.5108 48.3854 30.9181 47.8883 30.9234L37.2823 31.0372C36.7853 31.0425 36.3781 30.6439 36.3727 30.1469C36.3674 29.6499 36.766 29.2426 37.263 29.2373L47.869 29.1235C48.366 29.1182 48.7733 29.5168 48.7786 30.0138Z" fill="#D1F24A"/>
<path d="M50.578 17.973C50.1917 18.3677 49.5585 18.3745 49.1638 17.9882C48.7691 17.6018 48.7624 16.9687 49.1487 16.574C49.535 16.1793 50.1681 16.1725 50.5628 16.5589C50.9575 16.9452 50.9643 17.5783 50.578 17.973Z" fill="#D1F24A"/>
<path d="M50.851 43.4274C50.4647 43.8221 49.8316 43.8289 49.4369 43.4425C49.0422 43.0562 49.0354 42.4231 49.4217 42.0284C49.808 41.6337 50.4412 41.6269 50.8359 42.0132C51.2306 42.3995 51.2374 43.0327 50.851 43.4274Z" fill="#D1F24A"/>
</svg>
