<svg width="100" height="100" viewBox="0 0 100 100" fill="none" xmlns="http://www.w3.org/2000/svg">
<g clip-path="url(#clip0_164_64)">
<rect width="100" height="100" fill="#D1F24A"/>
<path d="M62.3107 20.2005C62.58 19.404 63.4442 18.974 64.242 19.2395C65.0413 19.5057 65.4712 20.3692 65.2013 21.1673L62.1083 30.3136C61.839 31.1101 60.9748 31.5401 60.177 31.2746L51.0158 28.2261C50.2163 27.9601 49.7867 27.0966 50.0565 26.2983C50.3258 25.5018 51.19 25.0718 51.9878 25.3373L59.7043 27.9047L62.3107 20.2005Z" fill="#212523" stroke="#212523"/>
<path d="M44.6961 13.1068C47.5925 11.6656 50.1511 11.9364 52.1339 12.9813C54.0316 13.9816 55.3025 15.6314 55.9195 16.8711L61.0058 27.0925L60.4783 28.6651L60.3184 29.1395L58.2719 28.453L53.1856 18.2315C52.7862 17.4292 51.9203 16.3208 50.7098 15.6828C49.5841 15.0895 48.0616 14.8419 46.0561 15.8399C45.3014 16.2153 44.3852 15.9081 44.0096 15.1534C43.6342 14.3986 43.9415 13.4825 44.6961 13.1068Z" fill="#212523" stroke="#212523"/>
<path d="M60.6983 30.3321L60.7896 30.3161C60.7936 30.315 60.7973 30.3126 60.8014 30.3114C60.8269 30.3036 60.8524 30.2942 60.8774 30.2822C60.8942 30.2742 60.9105 30.2654 60.9264 30.2557C60.9292 30.254 60.9319 30.2522 60.9347 30.2505C60.9581 30.2355 60.9802 30.2185 61.0012 30.1999L61.0112 30.2113L61.3341 30.5731L61.6623 30.9432L61.6666 30.9476C61.6189 30.99 61.5673 31.0274 61.5149 31.0635C61.5105 31.0665 61.5066 31.0701 61.5022 31.073C61.4493 31.1086 61.3942 31.1406 61.3373 31.1692C61.335 31.1704 61.3331 31.1724 61.3308 31.1736C61.3224 31.1778 61.3129 31.1805 61.3046 31.1845C61.2813 31.1955 61.258 31.2063 61.2342 31.2162C61.2114 31.2257 61.1886 31.2345 61.1656 31.2427C61.1436 31.2506 61.1215 31.258 61.0991 31.2649C61.0818 31.2702 61.0646 31.2762 61.0471 31.2809C61.0213 31.2879 60.9952 31.2935 60.9689 31.2991C60.9511 31.3029 60.9335 31.3072 60.9156 31.3104C60.8735 31.3178 60.8309 31.3242 60.7881 31.328L60.6983 30.3321Z" fill="#212523" stroke="#212523"/>
<path d="M92 27C96.4183 27 100 30.5817 100 35V100H36L35.5879 99.9893C31.3611 99.7748 28 96.2801 28 92V35C28 30.5817 31.5817 27 36 27H48.5039C48.1892 27.4182 48 27.9363 48 28.5C48 28.6712 48.017 28.8385 48.0498 29H36C32.6863 29 30 31.6863 30 35V92C30 95.3137 32.6863 98 36 98H98V35C98 31.6863 95.3137 29 92 29H67.9502C67.983 28.8385 68 28.6712 68 28.5C68 27.9363 67.8108 27.4182 67.4961 27H92Z" fill="#212523"/>
<path d="M7.00004 19.1426L20.3572 19.1426L20.3572 16.714L7.00004 16.714L7.00004 19.1426Z" fill="#212523"/>
<path d="M7.00004 14.2852L20.3572 14.2852L20.3572 11.8566L7.00004 11.8566L7.00004 14.2852Z" fill="#212523"/>
<path d="M20.3572 9.42773L20.3572 6.99916L8.21433 6.99917C7.48576 6.99917 7.00004 7.48488 7.00004 8.21345L7.00004 9.42774L20.3572 9.42773Z" fill="#212523"/>
<path d="M22.7857 20.3572C22.7857 21.0857 22.3 21.5714 21.5714 21.5714L7.00002 21.5714L7.00002 24L19.1429 24C19.8714 24 20.3572 24.4857 20.3572 25.2143C20.3572 25.9429 19.8714 26.4286 19.1429 26.4286L7.00002 26.4286L7.00002 39.7857C7.00002 40.5143 7.48574 41 8.21431 41L25.2143 41L25.2143 25.2143C25.2143 24.4857 25.7 24 26.4286 24L41 24L41 8.21431C41 7.48574 40.5143 7.00002 39.7857 7.00002L31.2857 7.00002L31.2857 17.9286L34.9286 17.9286C35.6571 17.9286 36.1429 18.4143 36.1429 19.1429C36.1429 19.8714 35.6571 20.3572 34.9286 20.3572L30.0714 20.3572C29.3429 20.3572 28.8571 19.8714 28.8571 19.1429L28.8571 7.00002L22.7857 7.00002L22.7857 20.3572Z" fill="#212523"/>
<path d="M28 27L28 41L39.7857 41C40.5143 41 41 40.5143 41 39.7857L41 27L28 27Z" fill="#212523"/>
<path d="M39.4396 65.4898C39.8002 64.59 40.6733 64 41.6443 64H45.833C46.804 64 47.6772 64.59 48.0378 65.4898L49.9374 70.2298C50.5613 71.7866 49.4127 73.48 47.7327 73.48H44.5302V78.22H46.9048C47.342 78.22 47.6964 78.5737 47.6964 79.01C47.6964 79.4463 47.342 79.8 46.9048 79.8H40.5726C40.1354 79.8 39.781 79.4463 39.781 79.01C39.781 78.5737 40.1354 78.22 40.5726 78.22H42.9472V73.48H39.7446C38.0647 73.48 36.9159 71.7866 37.5399 70.2298L39.4396 65.4898Z" fill="#212523"/>
<path fill-rule="evenodd" clip-rule="evenodd" d="M52.9258 79.5723C54.0642 79.5723 54.9871 80.4951 54.9871 81.6336V88.5045C54.9871 89.6429 54.0642 90.5658 52.9258 90.5658L50.8645 90.5651V99.4981C50.8645 99.8776 50.5569 100.185 50.1774 100.185C49.798 100.185 49.4903 99.8776 49.4903 99.4981V90.5651H38.4968V99.4981C38.4968 99.8776 38.1892 100.185 37.8097 100.185C37.4302 100.185 37.1226 99.8776 37.1226 99.4981V90.5651L35.0613 90.5658C33.9229 90.5658 33 89.6429 33 88.5045V81.6336C33 80.4951 33.9229 79.5723 35.0613 79.5723H52.9258Z" fill="#212523"/>
<path d="M66.8248 83.4305V85.4055H76.8676H86.9104V83.4305C86.9104 80.1626 89.6009 77.5127 92.9224 77.5055C92.9054 76.8577 92.8672 76.3872 92.7816 75.9643C92.1477 72.8304 89.6563 70.3806 86.4693 69.7573C85.6932 69.6055 84.7598 69.6055 82.8933 69.6055H76.8676H70.8419C68.9753 69.6055 68.042 69.6055 67.2659 69.7573C64.0788 70.3806 61.5874 72.8304 60.9534 75.9643C60.8679 76.3872 60.8297 76.8577 60.8127 77.5055C64.1343 77.5127 66.8248 80.1626 66.8248 83.4305Z" fill="#212523"/>
<path d="M89.9324 95.5987H64.3127C63.7619 95.5987 63.2259 95.5341 62.7114 95.412V97.6375C62.7114 98.4819 62.0439 99.1665 61.2206 99.1665C60.3973 99.1665 59.7298 98.4819 59.7298 97.6375V93.8685C58.2093 92.5388 57.2451 90.5599 57.2451 88.3499V83.3665C57.2451 81.1145 59.025 79.2891 61.2206 79.2891C63.4162 79.2891 65.1961 81.1145 65.1961 83.3665V85.8129C65.1961 86.7136 65.908 87.4439 66.7863 87.4439H87.4588C88.337 87.4439 89.049 86.7136 89.049 85.8129V83.3665C89.049 81.1145 90.8288 79.2891 93.0245 79.2891C95.2202 79.2891 97 81.1145 97 83.3665V88.3499C97 90.5599 96.0357 92.5388 94.5153 93.8685V97.6375C94.5153 98.4819 93.8478 99.1665 93.0245 99.1665C92.2012 99.1665 91.5337 98.4819 91.5337 97.6375V95.412C91.0193 95.5341 90.4832 95.5987 89.9324 95.5987Z" fill="#212523"/>
<path d="M89.9891 35H62.0109C61.1771 35 60.4668 35.2857 59.8801 35.8572C59.2934 36.4287 59 37.1205 59 37.9326V60.4007C59 61.2128 59.2934 61.9046 59.8801 62.4761C60.4668 63.0476 61.1771 63.3333 62.0109 63.3333H89.9891C90.8229 63.3333 91.5332 63.0476 92.1199 62.4761C92.7066 61.9046 93 61.2128 93 60.4007V37.9326C93 37.1205 92.7066 36.4287 92.1199 35.8572C91.5332 35.2857 90.8229 35 89.9891 35ZM89.2943 58.3705C89.2943 58.7916 89.1399 59.1525 88.8311 59.4533C88.5223 59.7541 88.1517 59.9045 87.7193 59.9045H84.7548C84.6004 59.6037 84.3379 59.3179 83.9673 59.0472C83.3188 58.5359 82.485 58.2351 81.4659 58.1449V56.1147C81.96 56.265 82.3769 56.2951 82.7166 56.2049C82.9637 56.1147 83.1644 55.9793 83.3188 55.7988L83.4578 55.5732C84.0445 55.9342 84.7548 55.9793 85.5886 55.7086C85.9591 55.5582 86.2834 55.2875 86.5613 54.8965C86.8392 54.4453 86.9782 53.8739 86.9782 53.1821C86.9473 52.1895 86.5304 51.4676 85.7275 51.0165C85.6658 50.9563 85.6194 50.8886 85.5886 50.8134C85.5577 50.7382 85.5731 50.6555 85.6349 50.5653C85.8202 50.2645 85.9205 49.9412 85.936 49.5953C85.9514 49.2494 85.8665 48.911 85.6812 48.5801C85.4959 48.1591 85.0481 47.8282 84.3379 47.5876C84.1526 47.5274 84.0445 47.3921 84.0136 47.1815C83.8283 46.0386 83.5195 44.9708 83.0872 43.9782C82.7166 43.1361 82.2997 42.4443 81.8365 41.9029C81.4042 41.4216 81.0336 41.166 80.7248 41.1359C80.2616 41.0757 79.8138 41.948 79.3815 43.7527V43.9331C78.0536 44.6249 77.1889 45.4521 76.7875 46.4145C76.4787 47.0763 76.4015 47.753 76.5559 48.4448C76.5867 48.5651 76.5636 48.6929 76.4864 48.8283C76.4092 48.9636 76.2934 49.0464 76.139 49.0764C75.4287 49.1967 74.7184 49.678 74.0082 50.5202C73.545 51.0616 73.2593 51.6631 73.1512 52.3248C73.0431 52.9866 73.1435 53.5881 73.4523 54.1295C73.7611 54.6709 74.2707 55.0619 74.9809 55.3025C75.3206 55.4229 75.7221 55.4229 76.1853 55.3025C76.4015 55.2725 76.6022 55.2123 76.7875 55.1221L76.8801 55.3477C76.9728 55.5281 77.0963 55.6785 77.2507 55.7988C77.436 55.9793 77.6521 56.0996 77.8992 56.1598C78.3933 56.3102 78.8719 56.3252 79.3351 56.2049V58.1449C78.3778 58.2652 77.5749 58.566 76.9264 59.0472C76.5559 59.3179 76.2934 59.6037 76.139 59.9045H64.188C63.7557 59.9045 63.3851 59.7541 63.0763 59.4533C62.7675 59.1525 62.6131 58.7916 62.6131 58.3705V40.2335C62.6131 39.8125 62.7675 39.4515 63.0763 39.1507C63.3851 38.85 63.7557 38.6996 64.188 38.6996H87.7193C88.1517 38.6996 88.5223 38.85 88.8311 39.1507C89.1399 39.4515 89.2943 39.8125 89.2943 40.2335V58.3705ZM64.6975 44.5196C64.6975 45.6927 65.1222 46.6928 65.9714 47.5199C66.8206 48.347 67.8474 48.7606 69.0518 48.7606C70.2561 48.7606 71.2829 48.347 72.1322 47.5199C72.9814 46.6928 73.406 45.7002 73.406 44.5422C73.406 43.3842 72.9814 42.3916 72.1322 41.5645C71.2829 40.7373 70.2561 40.3238 69.0518 40.3238C67.8474 40.3238 66.8206 40.7373 65.9714 41.5645C65.1222 42.3916 64.6975 43.3767 64.6975 44.5196Z" fill="#212523"/>
</g>
<defs>
<clipPath id="clip0_164_64">
<rect width="100" height="100" fill="white"/>
</clipPath>
</defs>
</svg>
