<svg width="100" height="100" viewBox="0 0 100 100" fill="none" xmlns="http://www.w3.org/2000/svg">
<rect width="100" height="100" fill="#D1F24A"/>
<path d="M24.454 54.5596C24.8155 53.6578 25.6906 53.0664 26.6638 53.0664H30.8621C31.8352 53.0664 32.7104 53.6578 33.0718 54.5596L34.9758 59.3104C35.6011 60.8707 34.4498 62.568 32.7661 62.568H29.5563V67.3188H31.9363C32.3745 67.3188 32.7296 67.6733 32.7296 68.1106C32.7296 68.5479 32.3745 68.9024 31.9363 68.9024H25.5896C25.1515 68.9024 24.7963 68.5479 24.7963 68.1106C24.7963 67.6733 25.1515 67.3188 25.5896 67.3188H27.9696V62.568H24.7598C23.076 62.568 21.9247 60.8707 22.55 59.3104L24.454 54.5596Z" fill="#212523"/>
<path fill-rule="evenodd" clip-rule="evenodd" d="M37.9712 68.6738C39.1122 68.6738 40.0371 69.5988 40.0371 70.7398V77.6264C40.0371 78.7674 39.1122 79.6924 37.9712 79.6924L35.9052 79.6917V88.645C35.9052 89.0253 35.5969 89.3337 35.2165 89.3337C34.8362 89.3337 34.5279 89.0253 34.5279 88.645V79.6917H23.5093V88.645C23.5093 89.0253 23.201 89.3337 22.8206 89.3337C22.4403 89.3337 22.132 89.0253 22.132 88.645V79.6917L20.066 79.6924C18.925 79.6924 18 78.7674 18 77.6264V70.7398C18 69.5988 18.925 68.6738 20.066 68.6738H37.9712Z" fill="#212523"/>
<path d="M51.9017 72.542V74.5215H61.9673H72.033V72.542C72.033 69.2667 74.7296 66.6108 78.0587 66.6035C78.0416 65.9542 78.0034 65.4827 77.9176 65.0588C77.2823 61.9178 74.7852 59.4625 71.5909 58.8377C70.8131 58.6855 69.8776 58.6855 68.0068 58.6855H61.9673H55.9279C54.0571 58.6855 53.1217 58.6855 52.3438 58.8377C49.1495 59.4625 46.6524 61.9178 46.017 65.0588C45.9312 65.4827 45.893 65.9542 45.876 66.6035C49.2051 66.6108 51.9017 69.2667 51.9017 72.542Z" fill="#212523"/>
<path d="M75.0619 84.7374H49.3839C48.8319 84.7374 48.2947 84.6727 47.779 84.5503V86.7808C47.779 87.6271 47.11 88.3133 46.2848 88.3133C45.4596 88.3133 44.7906 87.6271 44.7906 86.7808V83.0032C43.2667 81.6706 42.3003 79.6871 42.3003 77.4721V72.4773C42.3003 70.2202 44.0842 68.3906 46.2848 68.3906C48.4854 68.3906 50.2694 70.2202 50.2694 72.4773V74.9293C50.2694 75.8321 50.9829 76.564 51.8632 76.564H72.5827C73.4629 76.564 74.1766 75.8321 74.1766 74.9293V72.4773C74.1766 70.2202 75.9604 68.3906 78.1611 68.3906C80.3618 68.3906 82.1456 70.2202 82.1456 72.4773V77.4721C82.1456 79.6871 81.1792 81.6706 79.6553 83.0032V86.7808C79.6553 87.6271 78.9863 88.3133 78.1611 88.3133C77.3359 88.3133 76.6669 87.6271 76.6669 86.7808V84.5503C76.1513 84.6727 75.614 84.7374 75.0619 84.7374Z" fill="#212523"/>
<path d="M70.1223 36H51.9551C51.4137 36 50.9525 36.1855 50.5715 36.5566C50.1905 36.9277 50 37.3769 50 37.9042V52.4936C50 53.0209 50.1905 53.4701 50.5715 53.8412C50.9525 54.2123 51.4137 54.3978 51.9551 54.3978H70.1223C70.6637 54.3978 71.1249 54.2123 71.5059 53.8412C71.8869 53.4701 72.0774 53.0209 72.0774 52.4936V37.9042C72.0774 37.3769 71.8869 36.9277 71.5059 36.5566C71.1249 36.1855 70.6637 36 70.1223 36ZM69.6711 51.1753C69.6711 51.4487 69.5709 51.6831 69.3703 51.8784C69.1698 52.0737 68.9292 52.1713 68.6485 52.1713H66.7235C66.6232 51.976 66.4528 51.7905 66.2121 51.6147C65.791 51.2827 65.2496 51.0874 64.5879 51.0288V49.7105C64.9087 49.8081 65.1794 49.8277 65.4 49.7691C65.5604 49.7105 65.6908 49.6226 65.791 49.5054L65.8813 49.3589C66.2623 49.5933 66.7235 49.6226 67.2649 49.4468C67.5055 49.3492 67.716 49.1734 67.8965 48.9195C68.077 48.6265 68.1672 48.2554 68.1672 47.8062C68.1472 47.1617 67.8765 46.693 67.3551 46.4C67.315 46.361 67.2849 46.317 67.2649 46.2682C67.2448 46.2194 67.2548 46.1657 67.2949 46.1071C67.4153 45.9118 67.4804 45.7018 67.4905 45.4772C67.5005 45.2526 67.4453 45.0329 67.325 44.8181C67.2047 44.5446 66.914 44.3298 66.4528 44.1736C66.3324 44.1345 66.2623 44.0466 66.2422 43.9099C66.1219 43.1677 65.9214 42.4744 65.6406 41.8299C65.4 41.283 65.1293 40.8338 64.8285 40.4823C64.5478 40.1698 64.3072 40.0038 64.1067 39.9842C63.8059 39.9452 63.5151 40.5116 63.2344 41.6834V41.8006C62.3722 42.2498 61.8107 42.7869 61.55 43.4119C61.3495 43.8415 61.2994 44.281 61.3996 44.7302C61.4197 44.8083 61.4046 44.8913 61.3545 44.9792C61.3044 45.0671 61.2292 45.1208 61.1289 45.1403C60.6677 45.2184 60.2065 45.5309 59.7453 46.0778C59.4445 46.4293 59.2591 46.8199 59.1889 47.2496C59.1187 47.6793 59.1839 48.0699 59.3844 48.4215C59.5849 48.773 59.9158 49.0269 60.377 49.1831C60.5975 49.2613 60.8582 49.2613 61.159 49.1831C61.2994 49.1636 61.4297 49.1246 61.55 49.066L61.6102 49.2124C61.6703 49.3296 61.7505 49.4273 61.8508 49.5054C61.9711 49.6226 62.1115 49.7007 62.2719 49.7398C62.5927 49.8374 62.9035 49.8472 63.2043 49.7691V51.0288C62.5827 51.1069 62.0613 51.3022 61.6403 51.6147C61.3996 51.7905 61.2292 51.976 61.1289 52.1713H53.3688C53.088 52.1713 52.8474 52.0737 52.6469 51.8784C52.4464 51.6831 52.3461 51.4487 52.3461 51.1753V39.3983C52.3461 39.1249 52.4464 38.8905 52.6469 38.6952C52.8474 38.4999 53.088 38.4023 53.3688 38.4023H68.6485C68.9292 38.4023 69.1698 38.4999 69.3703 38.6952C69.5709 38.8905 69.6711 39.1249 69.6711 39.3983V51.1753ZM53.6996 42.1814C53.6996 42.9431 53.9753 43.5925 54.5268 44.1296C55.0782 44.6667 55.7449 44.9352 56.527 44.9352C57.309 44.9352 57.9757 44.6667 58.5272 44.1296C59.0786 43.5925 59.3543 42.948 59.3543 42.1961C59.3543 41.4442 59.0786 40.7996 58.5272 40.2626C57.9757 39.7255 57.309 39.4569 56.527 39.4569C55.7449 39.4569 55.0782 39.7255 54.5268 40.2626C53.9753 40.7996 53.6996 41.4393 53.6996 42.1814Z" fill="#212523"/>
<path d="M25.0001 40.8327C24.3557 40.8327 23.8334 40.3103 23.8334 39.666C23.8334 39.0217 24.3557 38.4993 25.0001 38.4993C25.6444 38.4993 26.1667 39.0217 26.1667 39.666C26.1667 40.3103 25.6444 40.8327 25.0001 40.8327Z" fill="#212523"/>
<path d="M39.0001 17.4993C38.3557 17.4993 37.8334 16.977 37.8334 16.3327C37.8334 15.6884 38.3557 15.166 39.0001 15.166C39.6444 15.166 40.1667 15.6884 40.1667 16.3327C40.1667 16.977 39.6444 17.4993 39.0001 17.4993Z" fill="#212523"/>
<path d="M43.6667 22.166C43.0224 22.166 42.5001 21.6437 42.5001 20.9993C42.5001 20.355 43.0224 19.8327 43.6667 19.8327C44.3111 19.8327 44.8334 20.355 44.8334 20.9993C44.8334 21.6437 44.3111 22.166 43.6667 22.166Z" fill="#212523"/>
<path d="M30.4773 19.8637C30.8645 18.2668 33.1356 18.2668 33.5229 19.8637L34.5883 24.2576C34.7266 24.8277 35.1717 25.2729 35.7418 25.4111L40.1358 26.4766C41.7326 26.8638 41.7326 29.1349 40.1358 29.5221L35.7418 30.5876C35.1717 30.7258 34.7266 31.171 34.5883 31.7411L33.5229 36.135C33.1356 37.7319 30.8645 37.7319 30.4773 36.135L29.4118 31.7411C29.2736 31.171 28.8284 30.7258 28.2583 30.5876L23.8644 29.5221C22.2675 29.1349 22.2675 26.8638 23.8644 26.4766L28.2583 25.4111C28.8284 25.2729 29.2736 24.8277 29.4118 24.2576L30.4773 19.8637Z" fill="#212523"/>
<path fill-rule="evenodd" clip-rule="evenodd" d="M44.0339 31.4939C44.5772 31.6967 44.8532 32.3015 44.6505 32.8448C43.337 36.364 40.6102 39.1908 37.1601 40.6346C36.6251 40.8585 36.01 40.6063 35.7861 40.0714C35.5622 39.5364 35.8144 38.9213 36.3494 38.6974C39.2654 37.4771 41.5728 35.085 42.683 32.1105C42.8858 31.5672 43.4906 31.2911 44.0339 31.4939Z" fill="#212523"/>
<path fill-rule="evenodd" clip-rule="evenodd" d="M28.5243 15.9648C28.7275 16.5079 28.4519 17.1129 27.9088 17.3161C24.9179 18.4351 22.5159 20.7694 21.3047 23.7184C21.0844 24.2548 20.4709 24.5111 19.9345 24.2908C19.3981 24.0705 19.1418 23.457 19.3621 22.9206C20.7946 19.4329 23.6327 16.6737 27.173 15.3493C27.7161 15.1461 28.3211 15.4216 28.5243 15.9648Z" fill="#212523"/>
<path d="M20.3334 36.166C19.6891 36.166 19.1667 35.6437 19.1667 34.9993C19.1667 34.355 19.6891 33.8327 20.3334 33.8327C20.9777 33.8327 21.5001 34.355 21.5001 34.9993C21.5001 35.6437 20.9777 36.166 20.3334 36.166Z" fill="#212523"/>
</svg>
