<svg width="100" height="100" viewBox="0 0 100 100" fill="none" xmlns="http://www.w3.org/2000/svg">
<g clip-path="url(#clip0_164_133)">
<rect width="100" height="100" fill="#D1F24A"/>
<path d="M62.3107 20.2005C62.58 19.404 63.4442 18.974 64.242 19.2395C65.0413 19.5057 65.4712 20.3692 65.2013 21.1673L62.1083 30.3136C61.839 31.1101 60.9748 31.5401 60.177 31.2746L51.0158 28.2261C50.2163 27.9601 49.7867 27.0966 50.0565 26.2983C50.3258 25.5018 51.19 25.0718 51.9878 25.3373L59.7043 27.9047L62.3107 20.2005Z" fill="#212523" stroke="#212523"/>
<path d="M44.6961 13.1068C47.5925 11.6656 50.1511 11.9364 52.1339 12.9813C54.0316 13.9816 55.3025 15.6314 55.9195 16.8711L61.0058 27.0925L60.4783 28.6651L60.3184 29.1395L58.2719 28.453L53.1856 18.2315C52.7862 17.4292 51.9203 16.3208 50.7098 15.6828C49.5841 15.0895 48.0616 14.8419 46.0561 15.8399C45.3014 16.2153 44.3852 15.9081 44.0096 15.1534C43.6342 14.3986 43.9415 13.4825 44.6961 13.1068Z" fill="#212523" stroke="#212523"/>
<path d="M60.6983 30.3321L60.7896 30.3161C60.7936 30.315 60.7973 30.3126 60.8014 30.3114C60.8269 30.3036 60.8524 30.2942 60.8774 30.2822C60.8942 30.2742 60.9105 30.2654 60.9264 30.2557C60.9292 30.254 60.9319 30.2522 60.9347 30.2505C60.9581 30.2355 60.9802 30.2185 61.0012 30.1999L61.0112 30.2113L61.3341 30.5731L61.6623 30.9432L61.6666 30.9476C61.6189 30.99 61.5673 31.0274 61.5149 31.0635C61.5105 31.0665 61.5066 31.0701 61.5022 31.073C61.4493 31.1086 61.3942 31.1406 61.3373 31.1692C61.335 31.1704 61.3331 31.1724 61.3308 31.1736C61.3224 31.1778 61.3129 31.1805 61.3046 31.1845C61.2813 31.1955 61.258 31.2063 61.2342 31.2162C61.2114 31.2257 61.1886 31.2345 61.1656 31.2427C61.1436 31.2506 61.1215 31.258 61.0991 31.2649C61.0818 31.2702 61.0646 31.2762 61.0471 31.2809C61.0213 31.2879 60.9952 31.2935 60.9689 31.2991C60.9511 31.3029 60.9335 31.3072 60.9156 31.3104C60.8735 31.3178 60.8309 31.3242 60.7881 31.328L60.6983 30.3321Z" fill="#212523" stroke="#212523"/>
<path d="M92 27C96.4183 27 100 30.5817 100 35V100H36L35.5879 99.9893C31.3611 99.7748 28 96.2801 28 92V35C28 30.5817 31.5817 27 36 27H48.5039C48.1892 27.4182 48 27.9363 48 28.5C48 28.6712 48.017 28.8385 48.0498 29H36C32.6863 29 30 31.6863 30 35V92C30 95.3137 32.6863 98 36 98H98V35C98 31.6863 95.3137 29 92 29H67.9502C67.983 28.8385 68 28.6712 68 28.5C68 27.9363 67.8108 27.4182 67.4961 27H92Z" fill="#212523"/>
<path d="M7.00004 19.1426L20.3572 19.1426L20.3572 16.714L7.00004 16.714L7.00004 19.1426Z" fill="#212523"/>
<path d="M7.00004 14.2852L20.3572 14.2852L20.3572 11.8566L7.00004 11.8566L7.00004 14.2852Z" fill="#212523"/>
<path d="M20.3572 9.42773L20.3572 6.99916L8.21433 6.99917C7.48576 6.99917 7.00004 7.48488 7.00004 8.21345L7.00004 9.42774L20.3572 9.42773Z" fill="#212523"/>
<path d="M22.7857 20.3572C22.7857 21.0857 22.3 21.5714 21.5714 21.5714L7.00002 21.5714L7.00002 24L19.1429 24C19.8714 24 20.3572 24.4857 20.3572 25.2143C20.3572 25.9429 19.8714 26.4286 19.1429 26.4286L7.00002 26.4286L7.00002 39.7857C7.00002 40.5143 7.48574 41 8.21431 41L25.2143 41L25.2143 25.2143C25.2143 24.4857 25.7 24 26.4286 24L41 24L41 8.21431C41 7.48574 40.5143 7.00002 39.7857 7.00002L31.2857 7.00002L31.2857 17.9286L34.9286 17.9286C35.6571 17.9286 36.1429 18.4143 36.1429 19.1429C36.1429 19.8714 35.6571 20.3572 34.9286 20.3572L30.0714 20.3572C29.3429 20.3572 28.8571 19.8714 28.8571 19.1429L28.8571 7.00002L22.7857 7.00002L22.7857 20.3572Z" fill="#212523"/>
<path d="M28 27L28 41L39.7857 41C40.5143 41 41 40.5143 41 39.7857L41 27L28 27Z" fill="#212523"/>
<path d="M100.331 65.0428L93.6597 58.3716C93.4993 58.2112 93.2842 58.1254 93.0597 58.1084V50.5477C93.0597 50.2977 92.9597 50.058 92.7833 49.8807L86.179 43.2764C86.0017 43.1 85.762 43 85.512 43H56.2649C55.7432 43 55.3215 43.4226 55.3215 43.9434V98.6637C55.3215 99.1845 55.7433 99.6071 56.2649 99.6071H66.6429H92.1162C92.638 99.6071 93.0596 99.1845 93.0596 98.6637V73.6339L100.33 66.3778C100.507 66.2013 100.607 65.9618 100.607 65.7108C100.607 65.4608 100.507 65.2202 100.331 65.0428ZM86.4555 46.2209L89.8388 49.6042H86.4555V46.2209ZM61.054 64.1173C60.9078 63.7644 60.9889 63.3588 61.2587 63.0889L63.9315 60.416C63.8617 60.2849 63.8126 60.1414 63.8126 59.9821V53.378C63.8126 52.8572 64.2344 52.4346 64.756 52.4346H68.5299C69.0516 52.4346 69.4733 52.8572 69.4733 53.378V54.8743L72.5801 51.7675C72.948 51.3996 73.5452 51.3996 73.9141 51.7675L85.2355 63.0889C85.5054 63.3588 85.5864 63.7644 85.4402 64.1173C85.294 64.4701 84.9496 64.6994 84.5684 64.6994H82.6815V68.0345L82.3777 68.3393C82.3588 68.3553 82.3362 68.361 82.3182 68.3788C82.3003 68.3958 82.2946 68.4194 82.2785 68.4383L80.7944 69.9252V64.6994H65.6995V77.9077H69.4734V73.1905C69.4734 72.6697 69.8951 72.2471 70.4168 72.2471H75.1604C75.6822 72.2471 76.1038 72.6697 76.1038 73.1905V74.6254L75.7463 74.984C75.7143 75.0085 75.6765 75.0208 75.6473 75.0501C75.617 75.0793 75.6058 75.118 75.5803 75.1501L74.2169 76.5163V74.1341H71.3602V77.908H72.8282L72.43 78.307C72.3914 78.3353 72.347 78.3513 72.3121 78.3862C72.2763 78.4212 72.2612 78.4665 72.2329 78.5052L70.9451 79.7949H70.4168H64.756C64.2342 79.7949 63.8126 79.3722 63.8126 78.8515V64.6994H61.9257C61.5445 64.6994 61.1992 64.4702 61.054 64.1173ZM91.4511 72.5735C91.4511 72.5735 91.4502 72.5735 91.4502 72.5744L66.644 97.3306L61.3719 92.0596L63.0031 90.4246L64.973 92.3954C65.1579 92.5794 65.3984 92.6718 65.64 92.6718C65.8815 92.6718 66.123 92.5793 66.307 92.3954C66.6759 92.0275 66.6759 91.4293 66.307 91.0614L64.3361 89.0897L66.3353 87.0857L69.643 90.3934C69.8279 90.5774 70.0695 90.6698 70.311 90.6698C70.5516 90.6698 70.7931 90.5773 70.978 90.3934C71.3459 90.0245 71.3459 89.4283 70.978 89.0594L67.6684 85.7498L69.6676 83.7469L71.6451 85.7234C71.8291 85.9083 72.0706 85.9998 72.3121 85.9998C72.5527 85.9998 72.7942 85.9083 72.9791 85.7234C73.347 85.3555 73.347 84.7583 72.9791 84.3894L71.0007 82.411L72.9999 80.408L76.3143 83.7224C76.4983 83.9073 76.7397 83.9988 76.9813 83.9988C77.2228 83.9988 77.4643 83.9073 77.6483 83.7224C78.0162 83.3545 78.0162 82.7573 77.6483 82.3884L74.332 79.0721L76.3321 77.0692L78.3162 79.0523C78.5002 79.2363 78.7416 79.3287 78.9832 79.3287C79.2247 79.3287 79.4662 79.2362 79.6502 79.0523C80.0191 78.6834 80.0191 78.0862 79.6502 77.7183L77.6642 75.7333L79.6643 73.7294L82.9853 77.0512C83.1693 77.2352 83.4108 77.3276 83.6523 77.3276C83.8939 77.3276 84.1353 77.2351 84.3193 77.0512C84.6882 76.6823 84.6882 76.0861 84.3193 75.7172L80.9974 72.3943L82.407 70.982H82.4061L82.9967 70.3914L84.9864 72.3812C85.1713 72.5661 85.4119 72.6576 85.6534 72.6576C85.895 72.6576 86.1364 72.5661 86.3204 72.3812C86.6893 72.0133 86.6893 71.4161 86.3204 71.0472L84.3288 69.0555L86.3289 67.0526L89.6565 70.3802C89.8414 70.5642 90.0829 70.6566 90.3235 70.6566C90.565 70.6566 90.8065 70.5641 90.9905 70.3802C91.3594 70.0113 91.3594 69.4141 90.9905 69.0462L87.6611 65.7168L89.6612 63.7128L91.6575 65.7101C91.8424 65.8941 92.0839 65.9865 92.3255 65.9865C92.566 65.9865 92.8076 65.894 92.9925 65.7101C93.3604 65.3412 93.3604 64.745 92.9925 64.3761L90.9933 62.3779L92.784 60.5835L92.9934 60.3741L98.3286 65.7103L91.4511 72.5735Z" fill="#212523"/>
<path d="M67.5864 54.3223H65.6995V58.1178L67.5864 56.3761V54.3223Z" fill="#212523"/>
<path d="M81.7382 62.8135H82.291L73.2471 53.7695L64.2031 62.8135H64.756H81.7382Z" fill="#212523"/>
<path d="M51.5477 49.6035H44V51.4904H51.5477V49.6035Z" fill="#212523"/>
<path d="M47.7738 43C45.6926 43 44 44.6926 44 46.7737V47.7171H51.5477V46.7737C51.5477 44.6926 49.8551 43 47.7738 43Z" fill="#212523"/>
<path d="M44 91.1154C44 91.2286 44.0198 91.3409 44.0595 91.4466L46.8898 98.9943C47.0285 99.3622 47.3804 99.6065 47.7738 99.6065C48.1673 99.6065 48.5192 99.3622 48.6579 98.9943L51.4882 91.4466C51.5279 91.3409 51.5477 91.2286 51.5477 91.1154V89.2285H44V91.1154Z" fill="#212523"/>
<path d="M51.5477 53.3789H44V87.3432H51.5477V53.3789Z" fill="#212523"/>
</g>
<defs>
<clipPath id="clip0_164_133">
<rect width="100" height="100" fill="white"/>
</clipPath>
</defs>
</svg>
