<svg width="100" height="100" viewBox="0 0 100 100" fill="none" xmlns="http://www.w3.org/2000/svg">
<rect width="100" height="100" fill="#D1F24A"/>
<path d="M13.9999 39.7148L42.2856 39.7148L42.2856 34.572L13.9999 34.572L13.9999 39.7148Z" fill="#212523"/>
<path d="M13.9999 29.4277L42.2856 29.4277L42.2856 24.2849L13.9999 24.2849L13.9999 29.4277Z" fill="#212523"/>
<path d="M42.2856 19.1426L42.2856 13.9997L16.5714 13.9997C15.0285 13.9997 13.9999 15.0283 13.9999 16.5712L13.9999 19.1426L42.2856 19.1426Z" fill="#212523"/>
<path d="M47.4286 42.2857C47.4286 43.8286 46.4 44.8571 44.8571 44.8571L14 44.8571L14 50L39.7143 50C41.2571 50 42.2857 51.0286 42.2857 52.5714C42.2857 54.1143 41.2571 55.1429 39.7143 55.1429L14 55.1429L14 83.4286C14 84.9714 15.0286 86 16.5714 86L52.5714 86L52.5714 52.5714C52.5714 51.0286 53.6 50 55.1428 50L86 50L86 16.5714C86 15.0286 84.9714 14 83.4286 14L65.4286 14L65.4286 37.1429L73.1429 37.1429C74.6857 37.1428 75.7143 38.1714 75.7143 39.7143C75.7143 41.2571 74.6857 42.2857 73.1429 42.2857L62.8571 42.2857C61.3143 42.2857 60.2857 41.2571 60.2857 39.7143L60.2857 14L47.4286 14L47.4286 42.2857Z" fill="#212523"/>
<path d="M58.4706 56.3529L58.4706 86L83.4286 86C84.9714 86 86 84.9714 86 83.4286L86 56.3529L58.4706 56.3529Z" fill="#212523"/>
<path d="M66.2581 81.5481C65.7237 81.5481 65.2904 81.1149 65.2904 80.5804C65.2904 80.0459 65.7237 79.6127 66.2581 79.6127C66.7926 79.6127 67.2259 80.0459 67.2259 80.5804C67.2259 81.1149 66.7926 81.5481 66.2581 81.5481Z" fill="#D1F24A"/>
<path d="M77.8711 62.1933C77.3366 62.1933 76.9033 61.76 76.9033 61.2256C76.9033 60.6911 77.3366 60.2578 77.8711 60.2578C78.4055 60.2578 78.8388 60.6911 78.8388 61.2256C78.8388 61.76 78.4055 62.1933 77.8711 62.1933Z" fill="#D1F24A"/>
<path d="M81.742 66.0643C81.2076 66.0643 80.7743 65.631 80.7743 65.0965C80.7743 64.5621 81.2076 64.1288 81.742 64.1288C82.2765 64.1288 82.7098 64.5621 82.7098 65.0965C82.7098 65.631 82.2765 66.0643 81.742 66.0643Z" fill="#D1F24A"/>
<path d="M70.8015 64.1545C71.1227 62.8299 73.0065 62.8299 73.3277 64.1545L74.2115 67.7992C74.3262 68.2721 74.6954 68.6414 75.1684 68.7561L78.8131 69.6398C80.1377 69.961 80.1377 71.8449 78.8131 72.1661L75.1684 73.0499C74.6954 73.1646 74.3262 73.5338 74.2115 74.0068L73.3277 77.6515C73.0065 78.9761 71.1227 78.9761 70.8015 77.6515L69.9177 74.0068C69.803 73.5338 69.4338 73.1646 68.9608 73.0499L65.3161 72.1661C63.9915 71.8449 63.9915 69.961 65.3161 69.6398L68.9608 68.7561C69.4338 68.6414 69.803 68.2721 69.9177 67.7992L70.8015 64.1545Z" fill="#D1F24A"/>
<path fill-rule="evenodd" clip-rule="evenodd" d="M82.0466 73.8017C82.4972 73.9699 82.7262 74.4716 82.558 74.9222C81.4685 77.8414 79.2067 80.1862 76.3448 81.3839C75.901 81.5696 75.3908 81.3604 75.2051 80.9166C75.0194 80.4729 75.2286 79.9627 75.6723 79.777C78.0912 78.7647 80.0051 76.7805 80.926 74.3131C81.0942 73.8625 81.5959 73.6335 82.0466 73.8017Z" fill="#D1F24A"/>
<path fill-rule="evenodd" clip-rule="evenodd" d="M69.1815 60.9204C69.35 61.3709 69.1214 61.8728 68.6709 62.0413C66.19 62.9695 64.1976 64.9058 63.1928 67.352C63.0101 67.7969 62.5012 68.0095 62.0563 67.8267C61.6113 67.644 61.3988 67.1351 61.5815 66.6902C62.7698 63.7971 65.1239 61.5085 68.0605 60.4098C68.5111 60.2413 69.0129 60.4698 69.1815 60.9204Z" fill="#D1F24A"/>
<path d="M62.3872 77.6772C61.8527 77.6772 61.4194 77.2439 61.4194 76.7094C61.4194 76.175 61.8527 75.7417 62.3872 75.7417C62.9216 75.7417 63.3549 76.175 63.3549 76.7094C63.3549 77.2439 62.9216 77.6772 62.3872 77.6772Z" fill="#D1F24A"/>
</svg>
