<svg width="100" height="100" viewBox="0 0 100 100" fill="none" xmlns="http://www.w3.org/2000/svg">
<rect width="100" height="100" fill="#D1F24A"/>
<path d="M89.6092 41.1519L80.1812 31.7239C79.9545 31.4972 79.6505 31.3758 79.3332 31.3518V20.6667C79.3332 20.3134 79.1919 19.9747 78.9426 19.7241L69.6092 10.3906C69.3585 10.1414 69.0198 10 68.6665 10H27.3333C26.5959 10 26 10.5973 26 11.3333V88.6664C26 89.4024 26.596 89.9997 27.3333 89.9997H41.9999H77.9998C78.7372 89.9997 79.3331 89.4024 79.3331 88.6664V53.2932L89.6077 43.0386C89.8584 42.7892 89.9998 42.4506 89.9998 42.0959C89.9998 41.7426 89.8586 41.4025 89.6092 41.1519ZM69.9999 14.552L74.7813 19.3333H69.9999V14.552ZM34.1014 39.8439C33.8947 39.3452 34.0094 38.7719 34.3907 38.3905L38.168 34.6131C38.0694 34.4277 38 34.225 38 33.9998V24.6666C38 23.9307 38.596 23.3334 39.3332 23.3334H44.6666C45.404 23.3334 45.9998 23.9307 45.9998 24.6666V26.7813L50.3906 22.3906C50.9105 21.8707 51.7545 21.8707 52.2758 22.3906L68.2757 38.3905C68.6572 38.7719 68.7717 39.3452 68.565 39.8439C68.3584 40.3425 67.8716 40.6666 67.3329 40.6666H64.6663V45.3799L64.2369 45.8106C64.2102 45.8333 64.1783 45.8412 64.1529 45.8665C64.1276 45.8905 64.1195 45.9238 64.0968 45.9505L61.9994 48.0518V40.6666H40.6666V59.3331H46V52.6665C46 51.9306 46.596 51.3333 47.3333 51.3333H54.0372C54.7746 51.3333 55.3705 51.9306 55.3705 52.6665V54.6945L54.8652 55.2012C54.8199 55.2358 54.7665 55.2531 54.7252 55.2946C54.6825 55.3359 54.6666 55.3905 54.6305 55.436L52.7038 57.3667V54.0001H48.6665V59.3335H50.7412L50.1785 59.8974C50.1238 59.9374 50.0611 59.96 50.0119 60.0094C49.9612 60.0588 49.9399 60.1228 49.8999 60.1774L48.0799 62.0001H47.3333H39.3332C38.5958 62.0001 38 61.4028 38 60.6669V40.6666H35.3333C34.7946 40.6666 34.3066 40.3427 34.1014 39.8439ZM77.0599 51.7946C77.0599 51.7946 77.0586 51.7946 77.0586 51.7958L42.0013 86.7824L34.5506 79.3331L36.8559 77.0225L39.6398 79.8078C39.9011 80.0678 40.2411 80.1984 40.5825 80.1984C40.9238 80.1984 41.2651 80.0677 41.5251 79.8078C42.0465 79.2879 42.0465 78.4425 41.5251 77.9225L38.7398 75.1359L41.5651 72.3039L46.2397 76.9785C46.501 77.2385 46.8424 77.3691 47.1838 77.3691C47.5237 77.3691 47.8651 77.2383 48.1264 76.9785C48.6463 76.4571 48.6463 75.6145 48.1264 75.0932L43.4491 70.4159L46.2745 67.5853L49.0692 70.3786C49.3293 70.6399 49.6705 70.7692 50.0119 70.7692C50.3518 70.7692 50.6932 70.6399 50.9545 70.3786C51.4744 69.8586 51.4744 69.0146 50.9545 68.4933L48.1585 65.6973L50.9839 62.8667L55.6678 67.5506C55.9279 67.812 56.2691 67.9413 56.6105 67.9413C56.9519 67.9413 57.2931 67.812 57.5531 67.5506C58.073 67.0307 58.073 66.1867 57.5531 65.6654L52.8665 60.9787L55.6931 58.1481L58.497 60.9507C58.7571 61.2108 59.0983 61.3414 59.4397 61.3414C59.781 61.3414 60.1223 61.2106 60.3823 60.9507C60.9037 60.4294 60.9037 59.5854 60.3823 59.0655L57.5757 56.2601L60.4023 53.4281L65.0957 58.1227C65.3557 58.3827 65.6969 58.5133 66.0383 58.5133C66.3797 58.5133 66.7209 58.3826 66.9809 58.1227C67.5023 57.6013 67.5023 56.7588 66.9809 56.2374L62.2863 51.5414L64.2784 49.5454H64.2771L65.1117 48.7108L67.9237 51.5228C68.185 51.7841 68.525 51.9134 68.8664 51.9134C69.2077 51.9134 69.549 51.7841 69.809 51.5228C70.3304 51.0029 70.3304 50.1589 69.809 49.6375L66.9943 46.8228L69.8209 43.9922L74.5236 48.6949C74.7849 48.9549 75.1263 49.0855 75.4663 49.0855C75.8076 49.0855 76.1489 48.9547 76.4089 48.6949C76.9303 48.1735 76.9303 47.3295 76.4089 46.8096L71.7037 42.1043L74.5303 39.2723L77.3515 42.095C77.6129 42.355 77.9542 42.4856 78.2956 42.4856C78.6356 42.4856 78.9769 42.3549 79.2382 42.095C79.7582 41.5736 79.7582 40.7311 79.2382 40.2097L76.4129 37.3857L78.9436 34.8498L79.2395 34.5539L86.7795 42.0951L77.0599 51.7946Z" fill="#212523"/>
<path d="M43.3334 26H40.6667V31.364L43.3334 28.9026V26Z" fill="#212523"/>
<path d="M63.3333 38.0001H64.1146L51.3334 25.2188L38.552 38.0001H39.3334H63.3333Z" fill="#212523"/>
<path d="M20.6667 19.332H10V21.9987H20.6667V19.332Z" fill="#212523"/>
<path d="M15.3334 10C12.392 10 10 12.392 10 15.3332V16.6665H20.6667V15.3332C20.6667 12.392 18.2747 10 15.3334 10Z" fill="#212523"/>
<path d="M10 77.9987C10 78.1587 10.028 78.3174 10.084 78.4667L14.084 89.1334C14.28 89.6533 14.7774 89.9987 15.3334 89.9987C15.8893 89.9987 16.3867 89.6533 16.5827 89.1334L20.5827 78.4667C20.6388 78.3174 20.6667 78.1587 20.6667 77.9987V75.332H10V77.9987Z" fill="#212523"/>
<path d="M20.6667 24.668H10V72.6679H20.6667V24.668Z" fill="#212523"/>
</svg>
