<svg width="100" height="100" viewBox="0 0 100 100" fill="none" xmlns="http://www.w3.org/2000/svg">
<g clip-path="url(#clip0_164_97)">
<rect width="100" height="100" fill="#D1F24A"/>
<path d="M62.3107 20.2005C62.58 19.404 63.4442 18.974 64.242 19.2395C65.0413 19.5057 65.4712 20.3692 65.2013 21.1673L62.1083 30.3136C61.839 31.1101 60.9748 31.5401 60.177 31.2746L51.0158 28.2261C50.2163 27.9601 49.7867 27.0966 50.0565 26.2983C50.3258 25.5018 51.19 25.0718 51.9878 25.3373L59.7043 27.9047L62.3107 20.2005Z" fill="#212523" stroke="#212523"/>
<path d="M44.6961 13.1068C47.5925 11.6656 50.1511 11.9364 52.1339 12.9813C54.0316 13.9816 55.3025 15.6314 55.9195 16.8711L61.0058 27.0925L60.4783 28.6651L60.3184 29.1395L58.2719 28.453L53.1856 18.2315C52.7862 17.4292 51.9203 16.3208 50.7098 15.6828C49.5841 15.0895 48.0616 14.8419 46.0561 15.8399C45.3014 16.2153 44.3852 15.9081 44.0096 15.1534C43.6342 14.3986 43.9415 13.4825 44.6961 13.1068Z" fill="#212523" stroke="#212523"/>
<path d="M60.6983 30.3321L60.7896 30.3161C60.7936 30.315 60.7973 30.3126 60.8014 30.3114C60.8269 30.3036 60.8524 30.2942 60.8774 30.2822C60.8942 30.2742 60.9105 30.2654 60.9264 30.2557C60.9292 30.254 60.9319 30.2522 60.9347 30.2505C60.9581 30.2355 60.9802 30.2185 61.0012 30.1999L61.0112 30.2113L61.3341 30.5731L61.6623 30.9432L61.6666 30.9476C61.6189 30.99 61.5673 31.0274 61.5149 31.0635C61.5105 31.0665 61.5066 31.0701 61.5022 31.073C61.4493 31.1086 61.3942 31.1406 61.3373 31.1692C61.335 31.1704 61.3331 31.1724 61.3308 31.1736C61.3224 31.1778 61.3129 31.1805 61.3046 31.1845C61.2813 31.1955 61.258 31.2063 61.2342 31.2162C61.2114 31.2257 61.1886 31.2345 61.1656 31.2427C61.1436 31.2506 61.1215 31.258 61.0991 31.2649C61.0818 31.2702 61.0646 31.2762 61.0471 31.2809C61.0213 31.2879 60.9952 31.2935 60.9689 31.2991C60.9511 31.3029 60.9335 31.3072 60.9156 31.3104C60.8735 31.3178 60.8309 31.3242 60.7881 31.328L60.6983 30.3321Z" fill="#212523" stroke="#212523"/>
<path d="M92 27C96.4183 27 100 30.5817 100 35V100H36L35.5879 99.9893C31.3611 99.7748 28 96.2801 28 92V35C28 30.5817 31.5817 27 36 27H48.5039C48.1892 27.4182 48 27.9363 48 28.5C48 28.6712 48.017 28.8385 48.0498 29H36C32.6863 29 30 31.6863 30 35V92C30 95.3137 32.6863 98 36 98H98V35C98 31.6863 95.3137 29 92 29H67.9502C67.983 28.8385 68 28.6712 68 28.5C68 27.9363 67.8108 27.4182 67.4961 27H92Z" fill="#212523"/>
<path d="M7.00004 19.1426L20.3572 19.1426L20.3572 16.714L7.00004 16.714L7.00004 19.1426Z" fill="#212523"/>
<path d="M7.00004 14.2852L20.3572 14.2852L20.3572 11.8566L7.00004 11.8566L7.00004 14.2852Z" fill="#212523"/>
<path d="M20.3572 9.42773L20.3572 6.99916L8.21433 6.99917C7.48576 6.99917 7.00004 7.48488 7.00004 8.21345L7.00004 9.42774L20.3572 9.42773Z" fill="#212523"/>
<path d="M22.7857 20.3572C22.7857 21.0857 22.3 21.5714 21.5714 21.5714L7.00002 21.5714L7.00002 24L19.1429 24C19.8714 24 20.3572 24.4857 20.3572 25.2143C20.3572 25.9429 19.8714 26.4286 19.1429 26.4286L7.00002 26.4286L7.00002 39.7857C7.00002 40.5143 7.48574 41 8.21431 41L25.2143 41L25.2143 25.2143C25.2143 24.4857 25.7 24 26.4286 24L41 24L41 8.21431C41 7.48574 40.5143 7.00002 39.7857 7.00002L31.2857 7.00002L31.2857 17.9286L34.9286 17.9286C35.6571 17.9286 36.1429 18.4143 36.1429 19.1429C36.1429 19.8714 35.6571 20.3572 34.9286 20.3572L30.0714 20.3572C29.3429 20.3572 28.8571 19.8714 28.8571 19.1429L28.8571 7.00002L22.7857 7.00002L22.7857 20.3572Z" fill="#212523"/>
<path d="M28 27L28 41L39.7857 41C40.5143 41 41 40.5143 41 39.7857L41 27L28 27Z" fill="#212523"/>
<path d="M72.5 72.5073L97.0943 58.739C96.7023 58.3529 96.2324 58.0442 95.6581 57.7353L77.2518 47.3898C75.6331 46.489 74.0666 46 72.5 46C70.9335 46 69.367 46.489 67.7483 47.3898L49.3419 57.7353C48.7675 58.0442 48.2975 58.3529 47.9059 58.739L72.5 72.5073ZM70.7247 102V75.5957L46.2089 61.8014C46.0783 62.3677 46 62.9853 46 63.7574V83.8052C46 87.5367 47.3315 88.9265 49.7596 90.2905L70.2025 101.768C70.3853 101.871 70.5419 101.949 70.7247 102ZM74.2754 102C74.4582 101.949 74.6148 101.871 74.7977 101.768L95.2405 90.2905C97.6686 88.9265 99 87.5367 99 83.8052V63.7574C99 62.9853 98.9219 62.3677 98.7915 61.8014L74.2754 75.5957V102Z" fill="#212523"/>
</g>
<defs>
<clipPath id="clip0_164_97">
<rect width="100" height="100" fill="white"/>
</clipPath>
</defs>
</svg>
