<svg width="100" height="100" viewBox="0 0 100 100" fill="none" xmlns="http://www.w3.org/2000/svg">
<rect width="100" height="100" fill="#D1F24A"/>
<path d="M68.6499 47.9707C64.5914 47.9707 61.3014 51.2607 61.3014 55.3199C61.3014 55.9913 61.3014 65.0041 61.3014 65.0041C61.3014 66.6096 59.9996 67.9106 58.394 67.9106H36.605C35.0003 67.9106 33.6985 66.6096 33.6985 65.0041C33.6985 65.0041 33.6985 55.9913 33.6985 55.3199C33.6985 51.2607 30.4085 47.9707 26.3492 47.9707C22.2899 47.9707 19 51.2607 19 55.3199C19 57.9377 20.3696 60.2362 22.4305 61.5381C22.8104 61.7784 23.2441 62.1565 23.2441 66.0769C23.2441 69.9983 23.2441 72.8303 23.2441 72.8303C23.2441 76.4689 26.1949 79.4188 29.8334 79.4188H65.1665C68.8052 79.4188 71.7551 76.4688 71.7551 72.8303C71.7551 72.8303 71.7551 69.9983 71.7551 66.0769C71.7551 62.1565 72.1886 61.7783 72.5686 61.5381C74.6304 60.2362 76 57.9376 76 55.3199C76 51.2607 72.7091 47.9707 68.6499 47.9707Z" fill="#212523"/>
<path d="M30.3096 90.5372H33.7911L36.401 81.4004H31.0347L30.3096 90.5372Z" fill="#212523"/>
<path d="M58.5989 81.4004L61.2086 90.5372H64.6895L63.9643 81.4004H58.5989Z" fill="#212523"/>
<path d="M35.7496 56.3188V66.003C35.7496 66.4749 36.1329 66.8591 36.6048 66.8591H58.394C58.8657 66.8591 59.2501 66.4749 59.2501 66.003V56.3188C59.2501 51.825 62.4203 48.0598 66.6418 47.1369V43.2199C66.6418 38.4042 63.1593 34 58.3428 34H37.5C32.6825 34 28.3579 38.4042 28.3579 43.2198V47.1368C32.5785 48.0598 35.7496 51.8249 35.7496 56.3188ZM53.7517 44.7542C54.5706 44.7542 55.2332 45.4177 55.2332 46.2356C55.2332 47.0535 54.5706 47.7162 53.7517 47.7162C52.9347 47.7162 52.2712 47.0535 52.2712 46.2356C52.2712 45.4178 52.9347 44.7542 53.7517 44.7542ZM53.7517 56.0343C54.5706 56.0343 55.2332 56.6978 55.2332 57.5157C55.2332 58.3337 54.5706 58.9972 53.7517 58.9972C52.9347 58.9972 52.2712 58.3337 52.2712 57.5157C52.2712 56.6979 52.9347 56.0343 53.7517 56.0343ZM41.5609 44.7542C42.378 44.7542 43.0414 45.4177 43.0414 46.2356C43.0414 47.0535 42.3779 47.7162 41.5609 47.7162C40.7422 47.7162 40.0794 47.0535 40.0794 46.2356C40.0795 45.4178 40.7422 44.7542 41.5609 44.7542ZM41.5609 56.0343C42.378 56.0343 43.0414 56.6978 43.0414 57.5157C43.0414 58.3337 42.3779 58.9972 41.5609 58.9972C40.7422 58.9972 40.0794 58.3337 40.0794 57.5157C40.0795 56.6979 40.7422 56.0343 41.5609 56.0343Z" fill="#212523"/>
<path fill-rule="evenodd" clip-rule="evenodd" d="M72.5376 29.5005C71.9811 30.0685 71.9811 30.9895 72.5376 31.5575C73.094 32.1256 73.9962 32.1256 74.5526 31.5575L78.5827 27.4435C79.1391 26.8754 79.1391 25.9545 78.5827 25.3864L74.5526 21.2724C73.9962 20.7043 73.094 20.7043 72.5376 21.2724C71.9811 21.8404 71.9811 22.7614 72.5376 23.3294L74.1353 24.9604L60.8647 24.9604L62.4624 23.3294C63.0189 22.7614 63.0189 21.8404 62.4624 21.2724C61.906 20.7043 61.0038 20.7043 60.4474 21.2724L56.4173 25.3864C55.8609 25.9545 55.8609 26.8754 56.4173 27.4435L60.4474 31.5575C61.0038 32.1256 61.906 32.1256 62.4624 31.5575C63.0189 30.9895 63.0189 30.0685 62.4624 29.5005L60.8647 27.8695H74.1353L72.5376 29.5005Z" fill="#212523"/>
<path d="M74.7555 10.4666C74.9032 9.84446 75.77 9.84446 75.9178 10.4666L76.3244 12.1785C76.3772 12.4007 76.5471 12.5741 76.7647 12.628L78.4416 13.0431C79.0511 13.1939 79.0511 14.0788 78.4416 14.2297L76.7647 14.6448C76.5471 14.6986 76.3772 14.8721 76.3244 15.0942L75.9178 16.8061C75.77 17.4283 74.9032 17.4283 74.7555 16.8061L74.3488 15.0942C74.2961 14.8721 74.1262 14.6986 73.9086 14.6448L72.2316 14.2297C71.6222 14.0788 71.6222 13.1939 72.2316 13.0431L73.9086 12.628C74.1262 12.5741 74.2961 12.4007 74.3488 12.1785L74.7555 10.4666Z" fill="#212523"/>
<path fill-rule="evenodd" clip-rule="evenodd" d="M75.3366 11.1286L75.0462 12.3512C74.9302 12.8399 74.5564 13.2214 74.0777 13.3399L72.8801 13.6364L74.0777 13.9328C74.5564 14.0513 74.9302 14.4329 75.0462 14.9216L75.3366 16.1441L75.627 14.9216C75.7431 14.4329 76.1169 14.0513 76.5956 13.9328L77.7932 13.6364L76.5956 13.3399C76.1169 13.2214 75.7431 12.8399 75.627 12.3512L75.3366 11.1286ZM75.9178 10.4666C75.77 9.84446 74.9032 9.84446 74.7555 10.4666L74.3488 12.1785C74.2961 12.4007 74.1262 12.5741 73.9086 12.628L72.2316 13.0431C71.6222 13.1939 71.6222 14.0788 72.2316 14.2297L73.9086 14.6448C74.1262 14.6986 74.2961 14.8721 74.3488 15.0942L74.7555 16.8061C74.9032 17.4283 75.77 17.4283 75.9178 16.8061L76.3244 15.0942C76.3772 14.8721 76.5471 14.6986 76.7647 14.6448L78.4416 14.2297C79.0511 14.0788 79.0511 13.1939 78.4416 13.0431L76.7647 12.628C76.5471 12.5741 76.3772 12.4007 76.3244 12.1785L75.9178 10.4666Z" fill="#212523"/>
<path d="M78.8987 36.1818C78.8987 36.9851 78.2608 37.6364 77.4739 37.6364C76.687 37.6364 76.0491 36.9851 76.0491 36.1818C76.0491 35.3785 76.687 34.7273 77.4739 34.7273C78.2608 34.7273 78.8987 35.3785 78.8987 36.1818Z" fill="#212523"/>
<path d="M74.6242 40.5455C74.6242 41.3488 73.9863 42 73.1994 42C72.4125 42 71.7745 41.3488 71.7745 40.5455C71.7745 39.7421 72.4125 39.0909 73.1994 39.0909C73.9863 39.0909 74.6242 39.7421 74.6242 40.5455Z" fill="#212523"/>
</svg>
