<svg width="100" height="100" viewBox="0 0 100 100" fill="none" xmlns="http://www.w3.org/2000/svg">
<rect width="100" height="100" fill="#D1F24A"/>
<path d="M69.3187 47.7168C65.2873 47.7168 62.0193 50.9848 62.0193 55.017C62.0193 55.6838 62.0193 64.6366 62.0193 64.6366C62.0193 66.2314 60.7261 67.5237 59.1312 67.5237H37.4876C35.8936 67.5237 34.6004 66.2314 34.6004 64.6366C34.6004 64.6366 34.6004 55.6838 34.6004 55.017C34.6004 50.9848 31.3324 47.7168 27.3002 47.7168C23.2679 47.7168 20 50.9848 20 55.017C20 57.6173 21.3605 59.9005 23.4076 61.1937C23.7849 61.4324 24.2157 61.8079 24.2157 65.7022C24.2157 69.5975 24.2157 72.4106 24.2157 72.4106C24.2157 76.0249 27.1469 78.9551 30.7611 78.9551H65.8585C69.473 78.9551 72.4032 76.0248 72.4032 72.4106C72.4032 72.4106 72.4032 69.5975 72.4032 65.7022C72.4032 61.8079 72.8338 61.4323 73.2113 61.1937C75.2593 59.9005 76.6198 57.6172 76.6198 55.017C76.6198 50.9848 73.3509 47.7168 69.3187 47.7168Z" fill="#212523"/>
<path d="M31.2341 89.9997H34.6924L37.285 80.9238H31.9544L31.2341 89.9997Z" fill="#212523"/>
<path d="M59.3347 80.9238L61.9271 89.9997H65.3847L64.6644 80.9238H59.3347Z" fill="#212523"/>
<path d="M36.6378 56.0098V65.6293C36.6378 66.0981 37.0186 66.4797 37.4873 66.4797H59.1311C59.5998 66.4797 59.9815 66.0981 59.9815 65.6293V56.0098C59.9815 51.5459 63.1306 47.8058 67.3239 46.8891V42.9982C67.3239 38.2147 63.8647 33.8398 59.0803 33.8398H38.3765C33.5912 33.8398 29.2954 38.2147 29.2954 42.9981V46.889C33.4878 47.8058 36.6378 51.5458 36.6378 56.0098ZM54.5198 44.5223C55.3332 44.5223 55.9914 45.1814 55.9914 45.9938C55.9914 46.8063 55.3332 47.4645 54.5198 47.4645C53.7083 47.4645 53.0492 46.8063 53.0492 45.9938C53.0492 45.1815 53.7083 44.5223 54.5198 44.5223ZM54.5198 55.7272C55.3332 55.7272 55.9914 56.3863 55.9914 57.1987C55.9914 58.0112 55.3332 58.6703 54.5198 58.6703C53.7083 58.6703 53.0492 58.0112 53.0492 57.1987C53.0492 56.3864 53.7083 55.7272 54.5198 55.7272ZM42.4103 44.5223C43.222 44.5223 43.881 45.1814 43.881 45.9938C43.881 46.8063 43.2219 47.4645 42.4103 47.4645C41.5971 47.4645 40.9387 46.8063 40.9387 45.9938C40.9388 45.1815 41.5971 44.5223 42.4103 44.5223ZM42.4103 55.7272C43.222 55.7272 43.881 56.3863 43.881 57.1987C43.881 58.0112 43.2219 58.6703 42.4103 58.6703C41.5971 58.6703 40.9387 58.0112 40.9387 57.1987C40.9388 56.3864 41.5971 55.7272 42.4103 55.7272Z" fill="#212523"/>
<path fill-rule="evenodd" clip-rule="evenodd" d="M73.1804 29.3704C72.6277 29.9347 72.6277 30.8495 73.1804 31.4138C73.7332 31.978 74.6293 31.978 75.182 31.4138L79.1852 27.3271C79.7379 26.7629 79.7379 25.848 79.1852 25.2838L75.182 21.1972C74.6293 20.6329 73.7332 20.6329 73.1804 21.1972C72.6277 21.7614 72.6277 22.6762 73.1804 23.2405L74.7675 24.8606L61.5854 24.8606L63.1725 23.2405C63.7252 22.6762 63.7252 21.7614 63.1725 21.1972C62.6198 20.6329 61.7236 20.6329 61.1709 21.1972L57.1677 25.2838C56.615 25.848 56.615 26.7629 57.1677 27.3271L61.1709 31.4138C61.7236 31.978 62.6198 31.978 63.1725 31.4138C63.7252 30.8495 63.7252 29.9347 63.1725 29.3704L61.5854 27.7503H74.7675L73.1804 29.3704Z" fill="#212523"/>
<path d="M75.3835 10.4635C75.5303 9.8455 76.3913 9.8455 76.5381 10.4635L76.942 12.164C76.9945 12.3846 77.1632 12.5569 77.3794 12.6104L79.0451 13.0228C79.6505 13.1726 79.6505 14.0516 79.0451 14.2014L77.3794 14.6138C77.1632 14.6673 76.9945 14.8396 76.942 15.0602L76.5381 16.7607C76.3913 17.3787 75.5303 17.3787 75.3835 16.7607L74.9796 15.0602C74.9272 14.8396 74.7584 14.6673 74.5423 14.6138L72.8765 14.2014C72.2711 14.0516 72.2711 13.1726 72.8765 13.0228L74.5423 12.6104C74.7584 12.5569 74.9272 12.3846 74.9796 12.164L75.3835 10.4635Z" fill="#212523"/>
<path fill-rule="evenodd" clip-rule="evenodd" d="M75.9608 11.1211L75.6724 12.3355C75.5571 12.8209 75.1858 13.1999 74.7103 13.3176L73.5207 13.6121L74.7103 13.9066C75.1858 14.0243 75.5571 14.4033 75.6724 14.8887L75.9608 16.1031L76.2493 14.8887C76.3646 14.4033 76.7359 14.0243 77.2114 13.9066L78.401 13.6121L77.2114 13.3176C76.7359 13.1999 76.3646 12.8209 76.2493 12.3355L75.9608 11.1211ZM76.5381 10.4635C76.3913 9.8455 75.5303 9.8455 75.3835 10.4635L74.9796 12.164C74.9272 12.3846 74.7584 12.5569 74.5423 12.6104L72.8765 13.0228C72.2711 13.1726 72.2711 14.0516 72.8765 14.2014L74.5423 14.6138C74.7584 14.6673 74.9272 14.8396 74.9796 15.0602L75.3835 16.7607C75.5303 17.3787 76.3913 17.3787 76.5381 16.7607L76.942 15.0602C76.9945 14.8396 77.1632 14.6673 77.3794 14.6138L79.0451 14.2014C79.6505 14.0516 79.6505 13.1726 79.0451 13.0228L77.3794 12.6104C77.1632 12.5569 76.9945 12.3846 76.942 12.164L76.5381 10.4635Z" fill="#212523"/>
<path d="M79.4992 36.0072C79.4992 36.8051 78.8655 37.452 78.0838 37.452C77.3022 37.452 76.6685 36.8051 76.6685 36.0072C76.6685 35.2092 77.3022 34.5623 78.0838 34.5623C78.8655 34.5623 79.4992 35.2092 79.4992 36.0072Z" fill="#212523"/>
<path d="M75.2532 40.3417C75.2532 41.1397 74.6195 41.7865 73.8378 41.7865C73.0561 41.7865 72.4225 41.1397 72.4225 40.3417C72.4225 39.5437 73.0561 38.8969 73.8378 38.8969C74.6195 38.8969 75.2532 39.5437 75.2532 40.3417Z" fill="#212523"/>
</svg>
