<svg width="100" height="100" viewBox="0 0 100 100" fill="none" xmlns="http://www.w3.org/2000/svg">
<g clip-path="url(#clip0_164_328)">
<rect width="100" height="100" fill="#D1F24A"/>
<path d="M92 27C96.4183 27 100 30.5817 100 35V100H36L35.5879 99.9893C31.3611 99.7748 28 96.2801 28 92V35C28 30.5817 31.5817 27 36 27H48.5039C48.1892 27.4182 48 27.9363 48 28.5C48 28.6712 48.017 28.8385 48.0498 29H36C32.6863 29 30 31.6863 30 35V92C30 95.3137 32.6863 98 36 98H98V35C98 31.6863 95.3137 29 92 29H47.4541C47.4869 28.8385 47.5039 28.6712 47.5039 28.5C47.5039 27.9363 47.3147 27.4182 47 27H92Z" fill="#212523"/>
<path d="M32.1667 14.6C32.1667 13.164 31.0101 12 29.5834 12C28.1566 12 27 13.164 27 14.6V48.3999C27 49.8359 28.1566 51 29.5834 51H55.4167C56.8434 51 58 49.8359 58 48.3999C58 46.964 56.8434 45.8 55.4167 45.8H32.1667V14.6Z" fill="#212523"/>
<path d="M30.7216 10.7147C29.7421 9.74641 28.1933 9.76202 27.2322 10.7615L19.7322 18.5615C18.7559 19.5769 18.7559 21.2231 19.7322 22.2385C20.7085 23.2538 22.2915 23.2538 23.2678 22.2385L29 16.277L34.7322 22.2385C35.7085 23.2538 37.2915 23.2538 38.2678 22.2385C39.2441 21.2231 39.2441 19.5769 38.2678 18.5615L30.7678 10.7615L30.7216 10.7147Z" fill="#212523"/>
<path d="M27 76.4616V48.5384C27 47.1365 28.1566 46 29.5833 46H55.4166C56.8434 46 58 47.1365 58 48.5384C58 49.9404 56.8434 51.0769 55.4166 51.0769H32.1666V76.4616C32.1666 77.8635 31.01 79 29.5833 79C28.1566 79 27 77.8635 27 76.4616Z" fill="#212523"/>
<path d="M34.7322 68.7615C35.7085 67.7462 37.2915 67.7462 38.2678 68.7615C39.2441 69.7769 39.2441 71.4231 38.2678 72.4385L30.7678 80.2385C29.7915 81.2538 28.2085 81.2538 27.2322 80.2385L19.7322 72.4385C18.7559 71.4231 18.7559 69.7769 19.7322 68.7615C20.7085 67.7462 22.2915 67.7462 23.2678 68.7615L29 74.723L34.7322 68.7615Z" fill="#212523"/>
<path d="M88.6499 59.9707C84.5914 59.9707 81.3014 63.2607 81.3014 67.3199C81.3014 67.9913 81.3014 77.0041 81.3014 77.0041C81.3014 78.6096 79.9996 79.9106 78.394 79.9106H56.605C55.0003 79.9106 53.6985 78.6096 53.6985 77.0041C53.6985 77.0041 53.6985 67.9913 53.6985 67.3199C53.6985 63.2607 50.4085 59.9707 46.3492 59.9707C42.2899 59.9707 39 63.2607 39 67.3199C39 69.9377 40.3696 72.2362 42.4305 73.5381C42.8104 73.7784 43.2441 74.1565 43.2441 78.0769C43.2441 81.9983 43.2441 84.8303 43.2441 84.8303C43.2441 88.4689 46.1949 91.4188 49.8334 91.4188H85.1665C88.8052 91.4188 91.7551 88.4688 91.7551 84.8303C91.7551 84.8303 91.7551 81.9983 91.7551 78.0769C91.7551 74.1565 92.1886 73.7783 92.5686 73.5381C94.6304 72.2362 96 69.9376 96 67.3199C96 63.2607 92.7091 59.9707 88.6499 59.9707Z" fill="#212523"/>
<path d="M50.3096 102.537H53.7911L56.401 93.4004H51.0347L50.3096 102.537Z" fill="#212523"/>
<path d="M78.5989 93.4004L81.2086 102.537H84.6895L83.9643 93.4004H78.5989Z" fill="#212523"/>
<path d="M55.7496 68.3188V78.003C55.7496 78.4749 56.1329 78.8591 56.6048 78.8591H78.394C78.8657 78.8591 79.2501 78.4749 79.2501 78.003V68.3188C79.2501 63.825 82.4203 60.0598 86.6418 59.1369V55.2199C86.6418 50.4042 83.1593 46 78.3428 46H57.5C52.6825 46 48.3579 50.4042 48.3579 55.2198V59.1368C52.5785 60.0598 55.7496 63.8249 55.7496 68.3188ZM73.7517 56.7542C74.5706 56.7542 75.2332 57.4177 75.2332 58.2356C75.2332 59.0535 74.5706 59.7162 73.7517 59.7162C72.9347 59.7162 72.2712 59.0535 72.2712 58.2356C72.2712 57.4178 72.9347 56.7542 73.7517 56.7542ZM73.7517 68.0343C74.5706 68.0343 75.2332 68.6978 75.2332 69.5157C75.2332 70.3337 74.5706 70.9972 73.7517 70.9972C72.9347 70.9972 72.2712 70.3337 72.2712 69.5157C72.2712 68.6979 72.9347 68.0343 73.7517 68.0343ZM61.5609 56.7542C62.378 56.7542 63.0414 57.4177 63.0414 58.2356C63.0414 59.0535 62.3779 59.7162 61.5609 59.7162C60.7422 59.7162 60.0794 59.0535 60.0794 58.2356C60.0795 57.4178 60.7422 56.7542 61.5609 56.7542ZM61.5609 68.0343C62.378 68.0343 63.0414 68.6978 63.0414 69.5157C63.0414 70.3337 62.3779 70.9972 61.5609 70.9972C60.7422 70.9972 60.0794 70.3337 60.0794 69.5157C60.0795 68.6979 60.7422 68.0343 61.5609 68.0343Z" fill="#212523"/>
</g>
<defs>
<clipPath id="clip0_164_328">
<rect width="100" height="100" fill="white"/>
</clipPath>
</defs>
</svg>
