<svg width="100" height="100" viewBox="0 0 100 100" fill="none" xmlns="http://www.w3.org/2000/svg">
<g clip-path="url(#clip0_164_280)">
<rect width="100" height="100" fill="#D1F24A"/>
<path d="M92 27C96.4183 27 100 30.5817 100 35V100H36L35.5879 99.9893C31.3611 99.7748 28 96.2801 28 92V35C28 30.5817 31.5817 27 36 27H48.5039C48.1892 27.4182 48 27.9363 48 28.5C48 28.6712 48.017 28.8385 48.0498 29H36C32.6863 29 30 31.6863 30 35V92C30 95.3137 32.6863 98 36 98H98V35C98 31.6863 95.3137 29 92 29H47.4541C47.4869 28.8385 47.5039 28.6712 47.5039 28.5C47.5039 27.9363 47.3147 27.4182 47 27H92Z" fill="#212523"/>
<path d="M109 40H40V109H109V40Z" fill="white" fill-opacity="0.01"/>
<path d="M55.2168 46.594C56.3396 45.4713 58.1599 45.4713 59.2827 46.594C60.4055 47.7168 60.4055 49.5371 59.2827 50.6599L50.6577 59.2849C49.5349 60.4077 47.7146 60.4077 46.5918 59.2849C45.4691 58.1621 45.4691 56.3418 46.5918 55.219L55.2168 46.594Z" fill="#212523"/>
<path d="M98.3418 89.719C99.4646 88.5963 101.285 88.5963 102.408 89.719C103.53 90.8418 103.53 92.6621 102.408 93.7849L93.7827 102.41C92.6599 103.533 90.8396 103.533 89.7168 102.41C88.5941 101.287 88.5941 99.4668 89.7168 98.344L98.3418 89.719Z" fill="#212523" fill-opacity="0.4"/>
<path d="M69.5918 46.594C70.7146 45.4713 72.535 45.4713 73.6577 46.594C74.7805 47.7168 74.7805 49.5371 73.6577 50.6599L50.6577 73.6599C49.5349 74.7827 47.7146 74.7827 46.5918 73.6599C45.4691 72.5372 45.4691 70.7168 46.5918 69.594L69.5918 46.594Z" fill="#212523" fill-opacity="0.9"/>
<path d="M83.9668 46.594C85.0895 45.4713 86.9099 45.4713 88.0327 46.594C89.1554 47.7168 89.1554 49.5371 88.0327 50.6599L50.6577 88.0349C49.5349 89.1576 47.7146 89.1576 46.5918 88.0349C45.4691 86.9121 45.4691 85.0917 46.5918 83.969L83.9668 46.594Z" fill="#212523" fill-opacity="0.8"/>
<path d="M98.3418 46.594C99.4646 45.4713 101.285 45.4713 102.408 46.594C103.53 47.7168 103.53 49.5371 102.408 50.6599L50.6577 102.41C49.5349 103.533 47.7146 103.533 46.5918 102.41C45.4691 101.287 45.4691 99.4668 46.5918 98.344L98.3418 46.594Z" fill="#212523" fill-opacity="0.7"/>
<path d="M98.3423 60.9651C99.465 59.8424 101.285 59.8424 102.408 60.9651C103.531 62.0879 103.531 63.9082 102.408 65.031L65.0332 102.406C63.9104 103.529 62.0901 103.529 60.9673 102.406C59.8446 101.283 59.8446 99.4628 60.9673 98.3401L98.3423 60.9651Z" fill="#212523" fill-opacity="0.6"/>
<path d="M98.3421 75.3421C99.4648 74.2193 101.285 74.2193 102.408 75.3421C103.531 76.4648 103.531 78.2852 102.408 79.4079L79.4079 102.408C78.2852 103.531 76.4648 103.531 75.3421 102.408C74.2193 101.285 74.2193 99.4648 75.3421 98.3421L98.3421 75.3421Z" fill="#212523" fill-opacity="0.5"/>
<path d="M35.7627 21.7644C30.128 21.7644 28.7893 9.53782 22.688 21.6218C20.4347 26.0828 16.9653 26.6974 14 24.2895V37.4158C14 38.2871 14.6 39 15.3333 39H44.6667C45.4 39 46 38.2871 46 37.4158V15C43.5387 17.7881 39.4 21.7644 35.7627 21.7644Z" fill="#212523"/>
<path d="M15.3403 36.4893H44.687C45.1472 36.4893 45.521 36.863 45.521 37.3232V39.9912C45.5208 40.4512 45.1471 40.8252 44.687 40.8252H36.6831C35.6708 40.8254 34.8491 41.6468 34.8491 42.6592V58.666C34.8491 59.1262 34.4753 59.5 34.0151 59.5H26.0122C25.552 59.5 25.1782 59.1262 25.1782 58.666V42.6592C25.1782 41.6468 24.3566 40.8253 23.3442 40.8252H15.3403C14.8803 40.8252 14.5066 40.4512 14.5063 39.9912V37.3232C14.5063 36.863 14.8801 36.4893 15.3403 36.4893ZM44.7896 -3.5C45.2079 -3.44569 45.521 -3.10243 45.521 -2.69531V9.11426C45.4833 9.15483 45.4384 9.20437 45.3853 9.26074C45.2121 9.44436 44.9592 9.70726 44.6431 10.0234C44.01 10.6565 43.1252 11.4996 42.1157 12.3408C41.1043 13.1836 39.9778 14.0163 38.8628 14.6357C37.7382 15.2605 36.6746 15.6396 35.7759 15.6396C35.5968 15.6395 35.3248 15.5408 34.9224 15.2764C34.5322 15.02 34.0942 14.6602 33.5903 14.2393C32.6046 13.4158 31.3957 12.3821 30.0249 11.7402C28.6317 11.088 27.0341 10.8227 25.2974 11.5703C23.5873 12.3066 21.819 13.9931 19.981 17.0566H19.98C19.1315 18.4716 18.1671 18.9742 17.2808 18.9355C16.3935 18.8968 15.4095 18.3106 14.5063 17.1426V-2.69531C14.5063 -3.10242 14.8194 -3.44568 15.2378 -3.5H44.7896Z" fill="#212523" stroke="#D1F24A"/>
</g>
<defs>
<clipPath id="clip0_164_280">
<rect width="100" height="100" fill="white"/>
</clipPath>
</defs>
</svg>
