<svg width="100" height="100" viewBox="0 0 100 100" fill="none" xmlns="http://www.w3.org/2000/svg">
<rect width="100" height="100" fill="#D1F24A"/>
<path d="M59.9272 42.2054C52.8839 42.2054 51.2105 26.9223 43.5839 42.0272C40.7672 47.6035 36.4305 48.3718 32.7239 45.3619V61.7698C32.7239 62.8589 33.4739 63.75 34.3905 63.75H71.0572C71.9739 63.75 72.7239 62.8589 72.7239 61.7698V33.75C69.6472 37.2351 64.4739 42.2054 59.9272 42.2054Z" fill="#212523"/>
<path d="M34.3989 60.4863H71.0825C71.7267 60.4863 72.2503 61.0092 72.2505 61.6533V64.9883C72.2505 65.6326 71.7268 66.1562 71.0825 66.1562H61.0786C59.8821 66.1562 58.9107 67.1268 58.9106 68.3232V88.333C58.9104 88.977 58.3877 89.4999 57.7437 89.5H47.7388C47.0947 89.5 46.572 88.9771 46.5718 88.333V68.3232C46.5717 67.1268 45.6003 66.1562 44.4038 66.1562H34.3989C33.7548 66.156 33.2319 65.6324 33.2319 64.9883V61.6533C33.2321 61.0093 33.755 60.4866 34.3989 60.4863ZM71.2251 10.5C71.8072 10.5746 72.2505 11.0543 72.2505 11.6309V26.4414C72.1977 26.4985 72.1297 26.5728 72.0464 26.6611C71.8292 26.8915 71.512 27.2219 71.1157 27.6182C70.3226 28.4113 69.2133 29.4678 67.9478 30.5225C66.6803 31.5786 65.2668 32.6248 63.8638 33.4043C62.4511 34.1891 61.0996 34.6747 59.9448 34.6748C59.6823 34.6748 59.3155 34.5336 58.8081 34.2002C58.3134 33.8751 57.7601 33.4208 57.1313 32.8955C55.8958 31.8633 54.3978 30.5821 52.7017 29.7881C50.9834 28.9837 49.0256 28.6606 46.896 29.5771C44.7928 30.4825 42.5986 32.5654 40.3071 36.3848C39.2319 38.1779 37.9886 38.8448 36.8198 38.7939C35.6512 38.7429 34.3799 37.9694 33.2319 36.4717V11.6309C33.2319 11.0546 33.6746 10.5749 34.2563 10.5H71.2251Z" fill="#212523" stroke="#D1F24A"/>
<path d="M39.8034 13.9972C38.7278 13.1244 37.1779 14.2967 37.7251 15.5693L39.2306 19.0708C39.4259 19.5252 39.3483 20.0539 39.0295 20.4411L36.5725 23.4248C35.6795 24.5092 36.8334 26.0348 38.1199 25.4707L41.6597 23.9184C42.119 23.7169 42.649 23.7862 43.033 24.0978L45.9926 26.4994C47.0683 27.3723 48.6181 26.2 48.0709 24.9274L46.5654 21.4259C46.3701 20.9715 46.4477 20.4427 46.7665 20.0556L49.2236 17.0718C50.1165 15.9875 48.9626 14.4619 47.6761 15.026L44.1363 16.5783C43.677 16.7797 43.1471 16.7105 42.763 16.3989L39.8034 13.9972Z" fill="#D1F24A"/>
<path fill-rule="evenodd" clip-rule="evenodd" d="M39.6275 15.9246L41.7412 17.6397C42.586 18.3253 43.7519 18.4777 44.7624 18.0345L47.2904 16.9259L45.5357 19.0568C44.8343 19.9085 44.6636 21.0719 45.0933 22.0714L46.1685 24.5721L44.0548 22.857C43.21 22.1714 42.0441 22.019 41.0336 22.4621L38.5056 23.5707L40.2604 21.4399C40.9618 20.5881 41.1325 19.4248 40.7027 18.4252L39.6275 15.9246ZM37.7251 15.5693C37.1779 14.2967 38.7278 13.1244 39.8034 13.9972L42.763 16.3989C43.1471 16.7105 43.677 16.7797 44.1363 16.5783L47.6761 15.026C48.9626 14.4619 50.1165 15.9875 49.2236 17.0718L46.7665 20.0556C46.4477 20.4427 46.3701 20.9715 46.5654 21.4259L48.0709 24.9274C48.6181 26.2 47.0683 27.3723 45.9926 26.4994L43.033 24.0978C42.649 23.7862 42.119 23.7169 41.6597 23.9184L38.1199 25.4707C36.8334 26.0348 35.6795 24.5092 36.5725 23.4248L39.0295 20.4411C39.3483 20.0539 39.4259 19.5252 39.2306 19.0708L37.7251 15.5693Z" fill="#D1F24A"/>
<path d="M62.8157 54.5C63.4705 55.3657 64.7142 55.5282 65.5936 54.863C66.473 54.1978 66.655 52.9568 66.0003 52.0912C65.3455 51.2255 64.1018 51.063 63.2224 51.7282C62.343 52.3934 62.1609 53.6343 62.8157 54.5Z" fill="#D1F24A"/>
<path d="M35.6072 43.6683C36.262 44.534 37.5056 44.6965 38.385 44.0313C39.2644 43.3661 39.4465 42.1252 38.7917 41.2595C38.137 40.3939 36.8933 40.2313 36.0139 40.8965C35.1345 41.5617 34.9524 42.8027 35.6072 43.6683Z" fill="#212523"/>
<path d="M17.5468 35.4978C16.4712 34.625 14.9214 35.7973 15.4685 37.0698L16.974 40.5714C17.1694 41.0257 17.0918 41.5545 16.773 41.9417L14.3159 44.9254C13.4229 46.0098 14.5769 47.5354 15.8634 46.9712L19.4032 45.4189C19.8625 45.2175 20.3924 45.2868 20.7764 45.5984L23.7361 48C24.8117 48.8728 26.3615 47.7005 25.8144 46.428L24.3089 42.9264C24.1136 42.4721 24.1911 41.9433 24.51 41.5561L26.967 38.5724C27.86 37.488 26.706 35.9624 25.4196 36.5266L21.8798 38.0789C21.4205 38.2803 20.8905 38.211 20.5065 37.8994L17.5468 35.4978Z" fill="#212523"/>
<path fill-rule="evenodd" clip-rule="evenodd" d="M17.371 37.4252L19.4846 39.1403C20.3295 39.8259 21.4954 39.9782 22.5059 39.5351L25.0338 38.4265L23.2791 40.5574C22.5777 41.4091 22.407 42.5724 22.8368 43.572L23.9119 46.0726L21.7983 44.3575C20.9534 43.6719 19.7875 43.5196 18.7771 43.9627L16.2491 45.0713L18.0038 42.9404C18.7052 42.0887 18.8759 40.9254 18.4461 39.9258L17.371 37.4252ZM15.4685 37.0698C14.9214 35.7973 16.4712 34.625 17.5468 35.4978L20.5065 37.8994C20.8905 38.211 21.4205 38.2803 21.8798 38.0789L25.4196 36.5266C26.706 35.9624 27.86 37.488 26.967 38.5724L24.51 41.5561C24.1911 41.9433 24.1136 42.4721 24.3089 42.9264L25.8144 46.428C26.3615 47.7005 24.8117 48.8728 23.7361 48L20.7764 45.5984C20.3924 45.2868 19.8625 45.2175 19.4032 45.4189L15.8634 46.9712C14.5769 47.5354 13.4229 46.0098 14.3159 44.9254L16.773 41.9417C17.0918 41.5545 17.1694 41.0257 16.974 40.5714L15.4685 37.0698Z" fill="#212523"/>
<path d="M68.8245 73C67.7489 72.1272 66.199 73.2995 66.7462 74.572L68.2517 78.0736C68.447 78.5279 68.3694 79.0567 68.0506 79.4439L65.5936 82.4276C64.7006 83.512 65.8546 85.0376 67.141 84.4734L70.6808 82.9211C71.1401 82.7197 71.6701 82.789 72.0541 83.1006L75.0138 85.5022C76.0894 86.375 77.6392 85.2027 77.0921 83.9302L75.5866 80.4286C75.3912 79.9743 75.4688 79.4455 75.7876 79.0583L78.2447 76.0746C79.1377 74.9902 77.9837 73.4646 76.6972 74.0288L73.1574 75.5811C72.6981 75.7825 72.1682 75.7132 71.7841 75.4016L68.8245 73Z" fill="#212523"/>
<path fill-rule="evenodd" clip-rule="evenodd" d="M68.6487 74.9274L70.7623 76.6425C71.6072 77.3281 72.7731 77.4804 73.7835 77.0373L76.3115 75.9287L74.5568 78.0596C73.8554 78.9113 73.6847 80.0746 74.1144 81.0742L75.1896 83.5748L73.076 81.8597C72.2311 81.1741 71.0652 81.0218 70.0547 81.4649L67.5268 82.5735L69.2815 80.4426C69.9829 79.5909 70.1536 78.4276 69.7238 77.428L68.6487 74.9274ZM66.7462 74.572C66.199 73.2995 67.7489 72.1272 68.8245 73L71.7841 75.4016C72.1682 75.7132 72.6981 75.7825 73.1574 75.5811L76.6972 74.0288C77.9837 73.4646 79.1377 74.9902 78.2447 76.0746L75.7876 79.0583C75.4688 79.4455 75.3912 79.9743 75.5866 80.4286L77.0921 83.9302C77.6392 85.2027 76.0894 86.375 75.0138 85.5022L72.0541 83.1006C71.6701 82.789 71.1401 82.7197 70.6808 82.9211L67.141 84.4734C65.8546 85.0376 64.7006 83.512 65.5936 82.4276L68.0506 79.4439C68.3694 79.0567 68.447 78.5279 68.2517 78.0736L66.7462 74.572Z" fill="#212523"/>
</svg>
