<svg width="100" height="100" viewBox="0 0 100 100" fill="none" xmlns="http://www.w3.org/2000/svg">
<rect width="100" height="100" fill="#D1F24A"/>
<path d="M88.2624 15.3008H22.688C21.1831 15.3008 19.9504 16.5175 19.9504 18.0384V20.776H17.2128C15.7079 20.776 14.4752 21.9927 14.4752 23.5136V26.2512H11.7376C10.2327 26.2512 9 27.4679 9 28.9888V82.268C9 83.7729 10.2167 85.0056 11.7376 85.0056H77.312C78.8169 85.0056 80.0496 83.7889 80.0496 82.268V79.5304H82.7872C84.2921 79.5304 85.5248 78.3137 85.5248 76.7928V74.0552H88.2624C89.7673 74.0552 91 72.8385 91 71.3176V18.0384C91 16.5175 89.7833 15.3008 88.2624 15.3008ZM77.328 59.4867L70.1718 51.2899C69.6275 50.6655 68.6669 50.6655 68.1066 51.2899L59.4615 61.1836L35.8957 40.2434C35.3834 39.7791 34.599 39.7791 34.0867 40.2434L11.7696 60.079V30.3336C11.7696 29.5811 12.378 28.9728 13.1304 28.9728H75.9672C76.7196 28.9728 77.328 29.5811 77.328 30.3336V59.4867ZM81.4424 76.7768H80.0816V28.9568C80.0816 27.4519 78.8649 26.2192 77.344 26.2192H17.2288V24.8584C17.2288 24.1059 17.8372 23.4976 18.5896 23.4976H81.4264C82.1788 23.4976 82.7872 24.1059 82.7872 24.8584L82.8032 75.416C82.8032 76.1684 82.1948 76.7768 81.4424 76.7768ZM86.9016 71.3016H85.5408V23.4976C85.5408 21.9927 84.3241 20.76 82.8032 20.76H22.688V19.3992C22.688 18.6467 23.2964 18.0384 24.0488 18.0384H86.8856C87.638 18.0384 88.2464 18.6467 88.2464 19.3992V69.9408H88.2624C88.2624 70.6932 87.654 71.3016 86.9016 71.3016Z" fill="#212523"/>
<path d="M58.2129 37.1523C55.2031 37.1523 52.7537 39.6018 52.7537 42.6115C52.7537 45.6213 55.2031 48.0707 58.2129 48.0707C61.2226 48.0707 63.6721 45.6213 63.6721 42.6115C63.6721 39.6018 61.2226 37.1523 58.2129 37.1523Z" fill="#212523"/>
<path fill-rule="evenodd" clip-rule="evenodd" d="M39.9418 70.6079C39.4374 71.1123 39.4374 71.9301 39.9418 72.4346C40.4462 72.939 41.2641 72.939 41.7685 72.4346L45.4219 68.7812C45.9263 68.2768 45.9263 67.4589 45.4219 66.9545L41.7685 63.3011C41.2641 62.7967 40.4462 62.7967 39.9418 63.3011C39.4374 63.8055 39.4374 64.6234 39.9418 65.1278L41.3902 66.5762L29.36 66.5762L30.8083 65.1278C31.3128 64.6234 31.3128 63.8055 30.8083 63.3011C30.3039 62.7967 29.4861 62.7967 28.9817 63.3011L25.3283 66.9545C24.8238 67.4589 24.8238 68.2768 25.3283 68.7812L28.9817 72.4346C29.4861 72.939 30.3039 72.939 30.8083 72.4346C31.3128 71.9301 31.3128 71.1123 30.8083 70.6079L29.36 69.1595H41.3902L39.9418 70.6079Z" fill="#D1F24A"/>
<path d="M41.9524 53.7054C42.0864 53.1529 42.8721 53.1529 43.0061 53.7054L43.3747 55.2256C43.4226 55.4229 43.5766 55.5769 43.7738 55.6247L45.294 55.9933C45.8465 56.1273 45.8465 56.9131 45.294 57.047L43.7738 57.4157C43.5766 57.4635 43.4226 57.6175 43.3747 57.8148L43.0061 59.335C42.8721 59.8875 42.0864 59.8875 41.9524 59.335L41.5838 57.8148C41.5359 57.6175 41.3819 57.4635 41.1847 57.4157L39.6644 57.047C39.112 56.9131 39.112 56.1273 39.6644 55.9933L41.1847 55.6247C41.3819 55.5769 41.5359 55.4229 41.5838 55.2256L41.9524 53.7054Z" fill="#D1F24A"/>
<path fill-rule="evenodd" clip-rule="evenodd" d="M42.4792 54.2932L42.216 55.3789C42.1108 55.8129 41.7719 56.1517 41.338 56.2569L40.2523 56.5202L41.338 56.7834C41.7719 56.8887 42.1108 57.2275 42.216 57.6615L42.4792 58.7471L42.7425 57.6615C42.8477 57.2275 43.1866 56.8887 43.6205 56.7834L44.7062 56.5202L43.6205 56.2569C43.1866 56.1517 42.8477 55.8129 42.7425 55.3789L42.4792 54.2932ZM43.0061 53.7054C42.8721 53.1529 42.0864 53.1529 41.9524 53.7054L41.5838 55.2256C41.5359 55.4229 41.3819 55.5769 41.1847 55.6247L39.6644 55.9933C39.112 56.1273 39.112 56.9131 39.6644 57.047L41.1847 57.4157C41.3819 57.4635 41.5359 57.6175 41.5838 57.8148L41.9524 59.335C42.0864 59.8875 42.8721 59.8875 43.0061 59.335L43.3747 57.8148C43.4226 57.6175 43.5766 57.4635 43.7738 57.4157L45.294 57.047C45.8465 56.9131 45.8465 56.1273 45.294 55.9933L43.7738 55.6247C43.5766 55.5769 43.4226 55.4229 43.3747 55.2256L43.0061 53.7054Z" fill="#D1F24A"/>
<path d="M45.7084 76.541C45.7084 77.2544 45.1301 77.8327 44.4167 77.8327C43.7034 77.8327 43.1251 77.2544 43.1251 76.541C43.1251 75.8276 43.7034 75.2493 44.4167 75.2493C45.1301 75.2493 45.7084 75.8276 45.7084 76.541Z" fill="#D1F24A"/>
<path d="M41.8334 80.416C41.8334 81.1294 41.2551 81.7077 40.5417 81.7077C39.8284 81.7077 39.2501 81.1294 39.2501 80.416C39.2501 79.7026 39.8284 79.1243 40.5417 79.1243C41.2551 79.1243 41.8334 79.7026 41.8334 80.416Z" fill="#D1F24A"/>
</svg>
