<svg width="100" height="100" viewBox="0 0 100 100" fill="none" xmlns="http://www.w3.org/2000/svg">
<rect width="100" height="100" fill="#D1F24A"/>
<path d="M37.7041 21.7484H62.4051V78.0506H37.7041V21.7484ZM89 86.2923V50V13.7078C89 12.4515 87.6899 11.6263 86.5593 12.1704L66.252 21.9443V49.9999V78.0557L86.5593 87.8295C87.6899 88.3737 89 87.5485 89 86.2923ZM13.4407 87.8296L33.7481 78.0557V50V21.9443L13.4407 12.1704C12.3102 11.6262 11 12.4514 11 13.7078V50V86.2923C11 87.5485 12.3102 88.3737 13.4407 87.8296Z" fill="#212523"/>
<path d="M77.4632 60.9237C77.6844 60.0254 78.9822 60.0254 79.2035 60.9237L79.8123 63.3953C79.8913 63.716 80.1457 63.9664 80.4715 64.0441L82.9823 64.6434C83.8948 64.8612 83.8948 66.1388 82.9823 66.3566L80.4715 66.9559C80.1457 67.0336 79.8913 67.284 79.8123 67.6047L79.2035 70.0763C78.9822 70.9746 77.6844 70.9746 77.4632 70.0763L76.8543 67.6047C76.7753 67.284 76.521 67.0336 76.1952 66.9559L73.6844 66.3566C72.7719 66.1388 72.7719 64.8612 73.6844 64.6434L76.1952 64.0441C76.521 63.9664 76.7753 63.716 76.8543 63.3953L77.4632 60.9237Z" fill="#D1F24A"/>
<path fill-rule="evenodd" clip-rule="evenodd" d="M78.3333 61.8794L77.8985 63.6445C77.7247 64.35 77.1651 64.9009 76.4484 65.072L74.6553 65.5L76.4484 65.928C77.1651 66.0991 77.7247 66.65 77.8985 67.3555L78.3333 69.1206L78.7681 67.3555C78.9419 66.65 79.5015 66.0991 80.2183 65.928L82.0114 65.5L80.2183 65.072C79.5015 64.9009 78.9419 64.35 78.7681 63.6445L78.3333 61.8794ZM79.2035 60.9237C78.9822 60.0254 77.6844 60.0254 77.4632 60.9237L76.8543 63.3953C76.7753 63.716 76.521 63.9664 76.1952 64.0441L73.6844 64.6434C72.7719 64.8612 72.7719 66.1388 73.6844 66.3566L76.1952 66.9559C76.521 67.0336 76.7753 67.284 76.8543 67.6047L77.4632 70.0763C77.6844 70.9746 78.9822 70.9746 79.2035 70.0763L79.8123 67.6047C79.8913 67.284 80.1457 67.0336 80.4715 66.9559L82.9823 66.3566C83.8948 66.1388 83.8948 64.8612 82.9823 64.6434L80.4715 64.0441C80.1457 63.9664 79.8913 63.716 79.8123 63.3953L79.2035 60.9237Z" fill="#D1F24A"/>
<path d="M85 56.3125C85 57.0374 84.403 57.625 83.6667 57.625C82.9303 57.625 82.3333 57.0374 82.3333 56.3125C82.3333 55.5876 82.9303 55 83.6667 55C84.403 55 85 55.5876 85 56.3125Z" fill="#D1F24A"/>
<path d="M85 74.6875C85 75.4124 84.403 76 83.6667 76C82.9303 76 82.3333 75.4124 82.3333 74.6875C82.3333 73.9626 82.9303 73.375 83.6667 73.375C84.403 73.375 85 73.9626 85 74.6875Z" fill="#D1F24A"/>
<path d="M23.5368 29.9237C23.3156 29.0254 22.0178 29.0254 21.7965 29.9237L21.1877 32.3953C21.1087 32.716 20.8543 32.9664 20.5285 33.0441L18.0177 33.6434C17.1052 33.8612 17.1052 35.1388 18.0177 35.3566L20.5285 35.9559C20.8543 36.0336 21.1087 36.284 21.1877 36.6047L21.7965 39.0763C22.0178 39.9746 23.3156 39.9746 23.5368 39.0763L24.1457 36.6047C24.2247 36.284 24.479 36.0336 24.8048 35.9559L27.3156 35.3566C28.2281 35.1388 28.2281 33.8612 27.3156 33.6434L24.8048 33.0441C24.479 32.9664 24.2247 32.716 24.1457 32.3953L23.5368 29.9237Z" fill="#D1F24A"/>
<path fill-rule="evenodd" clip-rule="evenodd" d="M22.6667 30.8794L23.1015 32.6445C23.2753 33.35 23.8349 33.9009 24.5516 34.072L26.3447 34.5L24.5516 34.928C23.8349 35.0991 23.2753 35.65 23.1015 36.3555L22.6667 38.1206L22.2319 36.3555C22.0581 35.65 21.4985 35.0991 20.7817 34.928L18.9886 34.5L20.7817 34.072C21.4985 33.9009 22.0581 33.35 22.2319 32.6445L22.6667 30.8794ZM21.7965 29.9237C22.0178 29.0254 23.3156 29.0254 23.5368 29.9237L24.1457 32.3953C24.2247 32.716 24.479 32.9664 24.8048 33.0441L27.3156 33.6434C28.2281 33.8612 28.2281 35.1388 27.3156 35.3566L24.8048 35.9559C24.479 36.0336 24.2247 36.284 24.1457 36.6047L23.5368 39.0763C23.3156 39.9746 22.0178 39.9746 21.7965 39.0763L21.1877 36.6047C21.1087 36.284 20.8543 36.0336 20.5285 35.9559L18.0177 35.3566C17.1052 35.1388 17.1052 33.8612 18.0177 33.6434L20.5285 33.0441C20.8543 32.9664 21.1087 32.716 21.1877 32.3953L21.7965 29.9237Z" fill="#D1F24A"/>
<path d="M16 25.3125C16 26.0374 16.597 26.625 17.3333 26.625C18.0697 26.625 18.6667 26.0374 18.6667 25.3125C18.6667 24.5876 18.0697 24 17.3333 24C16.597 24 16 24.5876 16 25.3125Z" fill="#D1F24A"/>
<path d="M16 43.6875C16 44.4124 16.597 45 17.3333 45C18.0697 45 18.6667 44.4124 18.6667 43.6875C18.6667 42.9626 18.0697 42.375 17.3333 42.375C16.597 42.375 16 42.9626 16 43.6875Z" fill="#D1F24A"/>
<path d="M66.2869 80.0047C65.7377 80.0448 65.2023 80.3394 64.8723 80.792C64.3443 81.5162 64.6957 82.4827 65.4877 82.9655C66.6317 83.6092 68.48 84.896 68.48 86.3443C68.48 89.402 60.56 92.7814 50 92.7814C39.44 92.7814 31.52 89.402 31.52 86.3443C31.52 84.896 33.2793 83.6887 34.3353 83.2059C35.1273 82.7232 35.3927 81.6781 34.8647 80.9539C34.3367 80.1493 33.28 79.9069 32.4 80.3897C28.792 82.4818 28 84.8155 28 86.3443C28 91.8159 37.416 96 50 96C62.584 96 72 91.8159 72 86.3443C72 84.7351 71.2077 82.4019 67.2477 80.2294C66.9507 80.0484 66.6164 79.9806 66.2869 80.0047Z" fill="#212523"/>
</svg>
