<svg width="100" height="100" viewBox="0 0 100 100" fill="none" xmlns="http://www.w3.org/2000/svg">
<rect width="100" height="100" fill="#D1F24A"/>
<path d="M62.3107 20.2005C62.58 19.404 63.4442 18.974 64.242 19.2395C65.0413 19.5057 65.4712 20.3692 65.2013 21.1673L62.1083 30.3136C61.839 31.1101 60.9748 31.5401 60.177 31.2746L51.0158 28.2261C50.2163 27.9601 49.7867 27.0966 50.0565 26.2983C50.3258 25.5018 51.19 25.0718 51.9878 25.3373L59.7043 27.9047L62.3107 20.2005Z" fill="#212523" stroke="#212523"/>
<path d="M44.6961 13.1068C47.5925 11.6656 50.1511 11.9364 52.1339 12.9813C54.0316 13.9816 55.3025 15.6314 55.9195 16.8711L61.0058 27.0925L60.4783 28.6651L60.3184 29.1395L58.2719 28.453L53.1856 18.2315C52.7862 17.4292 51.9203 16.3208 50.7098 15.6828C49.5841 15.0895 48.0616 14.8419 46.0561 15.8399C45.3014 16.2153 44.3852 15.9081 44.0096 15.1534C43.6342 14.3986 43.9415 13.4825 44.6961 13.1068Z" fill="#212523" stroke="#212523"/>
<path d="M60.6983 30.3321L60.7896 30.3161C60.7936 30.315 60.7973 30.3126 60.8014 30.3114C60.8269 30.3036 60.8524 30.2942 60.8774 30.2822C60.8942 30.2742 60.9105 30.2654 60.9264 30.2557C60.9292 30.254 60.9319 30.2522 60.9347 30.2505C60.9581 30.2355 60.9802 30.2185 61.0012 30.1999L61.0112 30.2113L61.3341 30.5731L61.6623 30.9432L61.6666 30.9476C61.6189 30.99 61.5673 31.0274 61.5149 31.0635C61.5105 31.0665 61.5066 31.0701 61.5022 31.073C61.4493 31.1086 61.3942 31.1406 61.3373 31.1692C61.335 31.1704 61.3331 31.1724 61.3308 31.1736C61.3224 31.1778 61.3129 31.1805 61.3046 31.1845C61.2813 31.1955 61.258 31.2063 61.2342 31.2162C61.2114 31.2257 61.1886 31.2345 61.1656 31.2427C61.1436 31.2506 61.1215 31.258 61.0991 31.2649C61.0818 31.2702 61.0646 31.2762 61.0471 31.2809C61.0213 31.2879 60.9952 31.2935 60.9689 31.2991C60.9511 31.3029 60.9335 31.3072 60.9156 31.3104C60.8735 31.3178 60.8309 31.3242 60.7881 31.328L60.6983 30.3321Z" fill="#212523" stroke="#212523"/>
<path d="M92 27C96.4183 27 100 30.5817 100 35V100H36L35.5879 99.9893C31.3611 99.7748 28 96.2801 28 92V35C28 30.5817 31.5817 27 36 27H48.5039C48.1892 27.4182 48 27.9363 48 28.5C48 28.6712 48.017 28.8385 48.0498 29H36C32.6863 29 30 31.6863 30 35V92C30 95.3137 32.6863 98 36 98H98V35C98 31.6863 95.3137 29 92 29H67.9502C67.983 28.8385 68 28.6712 68 28.5C68 27.9363 67.8108 27.4182 67.4961 27H92Z" fill="#212523"/>
<path fill-rule="evenodd" clip-rule="evenodd" d="M58.4858 43.9086C58.4858 43.0769 58.9358 42.5308 59.8357 41.4382C63.1274 37.4414 70.3884 30 78.8163 30C87.2443 30 94.5051 37.4414 97.797 41.4382C98.6968 42.5308 99.1467 43.0769 99.1467 43.9086C99.1467 44.7404 98.6968 45.2865 97.797 46.379C94.5051 50.3759 87.2443 57.8173 78.8163 57.8173C70.3884 57.8173 63.1274 50.3759 59.8357 46.379C58.9358 45.2865 58.4858 44.7404 58.4858 43.9086ZM78.8163 50.863C74.9755 50.863 71.862 47.7495 71.862 43.9086C71.862 40.0678 74.9755 36.9543 78.8163 36.9543C82.657 36.9543 85.7706 40.0678 85.7706 43.9086C85.7706 47.7495 82.657 50.863 78.8163 50.863Z" fill="#212523"/>
<path d="M77.4556 70.4629C75.6934 73.3972 74.6816 76.7172 74.5087 80.1314L74.5011 80.2941V80.2942C74.3528 83.7657 75.0766 87.2186 76.6061 90.3403L80.7694 88.3005C79.5802 85.8732 79.0179 83.1896 79.1331 80.4923L79.139 80.3659C79.2733 77.7129 80.0596 75.1321 81.4302 72.8499L77.4556 70.4629Z" fill="#212523"/>
<path d="M76.4254 65.0819C75.5216 64.1752 74.0538 64.1729 73.1471 65.0768C72.2404 65.9806 72.2381 67.4484 73.142 68.3551C76.2737 71.4967 81.6771 74.9901 86.3364 77.7365C88.5919 79.0659 90.7316 80.2536 92.4533 81.1835C90.7316 82.1133 88.5919 83.3011 86.3364 84.6305C81.6771 87.3768 76.2737 90.8703 73.142 94.012C72.2381 94.9187 72.2405 96.3864 73.1472 97.2902C74.0539 98.194 75.5216 98.1917 76.4254 97.285C79.0908 94.6111 84.0161 91.3798 88.6906 88.6245C93.2985 85.9086 97.42 83.794 98.3083 83.3431L98.3083 83.343C100.076 82.4457 100.076 79.9211 98.3083 79.0239C97.4199 78.5729 93.2984 76.4583 88.6906 73.7424C84.0161 70.9871 79.0908 67.7557 76.4254 65.0819ZM96.2095 83.1579L96.2097 83.158C96.2077 83.157 96.2058 83.1559 96.2039 83.1549C96.2058 83.1559 96.2077 83.1569 96.2095 83.1579ZM96.2095 79.2091C96.2077 79.2101 96.2058 79.211 96.2039 79.212L96.2097 79.209L96.2095 79.2091Z" fill="#212523"/>
<path d="M60.3185 78.8652C59.0382 78.8652 58.0004 79.9031 58.0004 81.1833C58.0004 82.4636 59.0382 83.5014 60.3185 83.5014H70.6109C71.8911 83.5014 72.929 82.4636 72.929 81.1833C72.929 79.9031 71.8911 78.8652 70.6109 78.8652H60.3185Z" fill="#212523"/>
<path d="M61.177 68.7377C59.9877 68.2636 58.6393 68.8433 58.1652 70.0326C57.6911 71.2218 58.2709 72.5702 59.4601 73.0443L69.7525 77.1474C70.9418 77.6215 72.2902 77.0417 72.7643 75.8525C73.2384 74.6632 72.6586 73.3148 71.4694 72.8407L61.177 68.7377Z" fill="#212523"/>
<path d="M72.7643 86.515C72.2902 85.3258 70.9418 84.746 69.7525 85.2201L59.4601 89.3231C58.2709 89.7972 57.6911 91.1457 58.1652 92.3349C58.6393 93.5241 59.9877 94.1039 61.177 93.6298L71.4694 89.5268C72.6586 89.0527 73.2384 87.7042 72.7643 86.515Z" fill="#212523"/>
<path fill-rule="evenodd" clip-rule="evenodd" d="M75.4099 76.0799C75.8018 74.5509 76.3696 73.0661 77.1061 71.6562L95.3684 81.19L77.4008 91.2674C76.5202 89.6986 75.8525 88.0275 75.4095 86.2982C76.4001 86.9729 77.5971 87.3675 78.8862 87.3675C82.2999 87.3675 85.067 84.6014 85.067 81.1892C85.067 77.7771 82.2999 75.0109 78.8862 75.0109C77.5973 75.0109 76.4005 75.4053 75.4099 76.0799Z" fill="#212523"/>
<path fill-rule="evenodd" clip-rule="evenodd" d="M18.7778 39H27.2222C33.1523 39 36.1172 39 38.2471 37.5701C39.169 36.9509 39.9607 36.1555 40.5769 35.2291C42 33.0891 42 30.1098 42 24.1514C42 18.1933 42 15.214 40.5769 13.0739C39.9607 12.1475 39.169 11.352 38.2471 10.733C36.8784 9.81414 35.1651 9.48572 32.5418 9.36834C31.2899 9.36834 30.2122 8.41521 29.9667 7.18181C29.5983 5.33173 27.9816 4 26.104 4H19.896C18.0183 4 16.4016 5.33173 16.0333 7.18181C15.7878 8.41521 14.71 9.36834 13.4582 9.36834C10.8349 9.48572 9.12154 9.81414 7.75296 10.733C6.8309 11.352 6.03923 12.1475 5.42314 13.0739C4 15.214 4 18.1933 4 24.1514C4 30.1098 4 33.0891 5.42314 35.2291C6.03923 36.1555 6.8309 36.9509 7.75296 37.5701C9.88286 39 12.8478 39 18.7778 39ZM23 16.197C18.6277 16.197 15.0833 19.7584 15.0833 24.1514C15.0833 28.5447 18.6277 32.106 23 32.106C27.3723 32.106 30.9167 28.5447 30.9167 24.1514C30.9167 19.7584 27.3723 16.197 23 16.197ZM23 19.3788C20.3767 19.3788 18.25 21.5156 18.25 24.1514C18.25 26.7873 20.3767 28.9243 23 28.9243C25.6233 28.9243 27.75 26.7873 27.75 24.1514C27.75 21.5156 25.6233 19.3788 23 19.3788ZM31.9722 17.7879C31.9722 16.9092 32.6811 16.197 33.5556 16.197H35.6667C36.5411 16.197 37.25 16.9092 37.25 17.7879C37.25 18.6666 36.5411 19.3788 35.6667 19.3788H33.5556C32.6811 19.3788 31.9722 18.6666 31.9722 17.7879Z" fill="#212523"/>
</svg>
