<svg width="100" height="100" viewBox="0 0 100 100" fill="none" xmlns="http://www.w3.org/2000/svg">
<rect width="100" height="100" fill="#D1F24A"/>
<path fill-rule="evenodd" clip-rule="evenodd" d="M82 66H74C69.58 66 66 69.58 66 74V82C66 86.42 69.58 90 74 90H82C86.42 90 90 86.42 90 82V74C90 69.58 86.42 66 82 66ZM54 66H46C41.58 66 38 69.58 38 74V82C38 86.42 41.58 90 46 90H54C58.42 90 62 86.42 62 82V74C62 69.58 58.42 66 54 66ZM26 66H18C13.58 66 10 69.58 10 74V82C10 86.42 13.58 90 18 90H26C30.42 90 34 86.42 34 82V74C34 69.58 30.42 66 26 66ZM82 38H74C69.58 38 66 41.58 66 46V54C66 58.42 69.58 62 74 62H82C86.42 62 90 58.42 90 54V46C90 41.58 86.42 38 82 38ZM54 38H46C41.58 38 38 41.58 38 46V54C38 58.42 41.58 62 46 62H54C58.42 62 62 58.42 62 54V46C62 41.58 58.42 38 54 38ZM26 38H18C13.58 38 10 41.58 10 46V54C10 58.42 13.58 62 18 62H26C30.42 62 34 58.42 34 54V46C34 41.58 30.42 38 26 38ZM82 10H74C69.58 10 66 13.58 66 18V26C66 30.42 69.58 34 74 34H82C86.42 34 90 30.42 90 26V18C90 13.58 86.42 10 82 10ZM54 10H46C41.58 10 38 13.58 38 18V26C38 30.42 41.58 34 46 34H54C58.42 34 62 30.42 62 26V18C62 13.58 58.42 10 54 10ZM34 18V26C34 30.42 30.42 34 26 34H18C13.58 34 10 30.42 10 26V18C10 13.58 13.58 10 18 10H26C30.42 10 34 13.58 34 18Z" fill="#212523"/>
</svg>
