<svg width="100" height="100" viewBox="0 0 100 100" fill="none" xmlns="http://www.w3.org/2000/svg">
<rect width="100" height="100" fill="#D1F24A"/>
<path d="M62.3107 20.2005C62.58 19.404 63.4442 18.974 64.242 19.2395C65.0413 19.5057 65.4712 20.3692 65.2013 21.1673L62.1083 30.3136C61.839 31.1101 60.9748 31.5401 60.177 31.2746L51.0158 28.2261C50.2163 27.9601 49.7867 27.0966 50.0565 26.2983C50.3258 25.5018 51.19 25.0718 51.9878 25.3373L59.7043 27.9047L62.3107 20.2005Z" fill="#212523" stroke="#212523"/>
<path d="M44.6961 13.1068C47.5925 11.6656 50.1511 11.9364 52.1339 12.9813C54.0316 13.9816 55.3025 15.6314 55.9195 16.8711L61.0058 27.0925L60.4783 28.6651L60.3184 29.1395L58.2719 28.453L53.1856 18.2315C52.7862 17.4292 51.9203 16.3208 50.7098 15.6828C49.5841 15.0895 48.0616 14.8419 46.0561 15.8399C45.3014 16.2153 44.3852 15.9081 44.0096 15.1534C43.6342 14.3986 43.9415 13.4825 44.6961 13.1068Z" fill="#212523" stroke="#212523"/>
<path d="M60.6983 30.3321L60.7896 30.3161C60.7936 30.315 60.7973 30.3126 60.8014 30.3114C60.8269 30.3036 60.8524 30.2942 60.8774 30.2822C60.8942 30.2742 60.9105 30.2654 60.9264 30.2557C60.9292 30.254 60.9319 30.2522 60.9347 30.2505C60.9581 30.2355 60.9802 30.2185 61.0012 30.1999L61.0112 30.2113L61.3341 30.5731L61.6623 30.9432L61.6666 30.9476C61.6189 30.99 61.5673 31.0274 61.5149 31.0635C61.5105 31.0665 61.5066 31.0701 61.5022 31.073C61.4493 31.1086 61.3942 31.1406 61.3373 31.1692C61.335 31.1704 61.3331 31.1724 61.3308 31.1736C61.3224 31.1778 61.3129 31.1805 61.3046 31.1845C61.2813 31.1955 61.258 31.2063 61.2342 31.2162C61.2114 31.2257 61.1886 31.2345 61.1656 31.2427C61.1436 31.2506 61.1215 31.258 61.0991 31.2649C61.0818 31.2702 61.0646 31.2762 61.0471 31.2809C61.0213 31.2879 60.9952 31.2935 60.9689 31.2991C60.9511 31.3029 60.9335 31.3072 60.9156 31.3104C60.8735 31.3178 60.8309 31.3242 60.7881 31.328L60.6983 30.3321Z" fill="#212523" stroke="#212523"/>
<path d="M92 27C96.4183 27 100 30.5817 100 35V100H36L35.5879 99.9893C31.3611 99.7748 28 96.2801 28 92V35C28 30.5817 31.5817 27 36 27H48.5039C48.1892 27.4182 48 27.9363 48 28.5C48 28.6712 48.017 28.8385 48.0498 29H36C32.6863 29 30 31.6863 30 35V92C30 95.3137 32.6863 98 36 98H98V35C98 31.6863 95.3137 29 92 29H67.9502C67.983 28.8385 68 28.6712 68 28.5C68 27.9363 67.8108 27.4182 67.4961 27H92Z" fill="#212523"/>
<path d="M24.0521 6.18749C24.0521 4.97937 25.0315 4 26.2396 4H36.8125C38.0206 4 39 4.97937 39 6.18749V11.6562C39 12.8643 38.0206 13.8437 36.8125 13.8437H26.2396C25.0315 13.8437 24.0521 12.8643 24.0521 11.6562V6.18749Z" fill="#212523"/>
<path d="M24.0521 21.1367C24.0521 19.9286 25.0315 18.9492 26.2396 18.9492H36.8125C38.0206 18.9492 39 19.9286 39 21.1367V36.8137C39 38.0218 38.0206 39.0012 36.8125 39.0012H26.2396C25.0315 39.0012 24.0521 38.0218 24.0521 36.8137V21.1367Z" fill="#212523"/>
<path d="M18.948 6.18749C18.948 4.97937 17.9686 4 16.7605 4H6.18763C4.97952 4 4.00014 4.97937 4.00014 6.18749V21.8645C4.00014 23.0726 4.97952 24.052 6.18763 24.052H16.7605C17.9686 24.052 18.948 23.0726 18.948 21.8645V6.18749Z" fill="#212523"/>
<path d="M4.00014 31.3437C4.00014 30.1356 4.97952 29.1562 6.18763 29.1562H16.7605C17.9686 29.1562 18.948 30.1356 18.948 31.3437V36.8125C18.948 38.0206 17.9686 39 16.7605 39H6.18763C4.97952 39 4.00014 38.0206 4.00014 36.8125V31.3437Z" fill="#212523"/>
<path d="M72.3939 51.6719H41.4076C40.4885 51.6719 39.6351 51.7041 38.8473 51.7363C31.0679 52.1875 29 54.9912 29 63.6925V65.5617C29 67.3341 30.4771 68.7843 32.2824 68.7843H81.519C83.3244 68.7843 84.8015 67.3341 84.8015 65.5617V63.6925C84.8015 54.0889 82.3068 51.6719 72.3939 51.6719Z" fill="#212523"/>
<path d="M32.2824 73.9902C30.4771 73.9902 29 75.4364 29 77.2039V86.5558C29 96.1326 31.4947 98.5429 41.4076 98.5429H72.3939C82.1427 98.5429 84.703 96.229 84.8015 87.07V77.2039C84.8015 75.4364 83.3244 73.9902 81.519 73.9902H32.2824ZM45.2809 90.7015H39.6679C38.3221 90.7015 37.2061 89.6088 37.2061 88.2912C37.2061 86.9736 38.3221 85.8809 39.6679 85.8809H45.3137C46.6595 85.8809 47.7756 86.9736 47.7756 88.2912C47.7756 89.6088 46.6595 90.7015 45.2809 90.7015ZM63.6297 90.7015H52.3381C50.9923 90.7015 49.8763 89.6088 49.8763 88.2912C49.8763 86.9736 50.9923 85.8809 52.3381 85.8809H63.6297C64.9755 85.8809 66.0916 86.9736 66.0916 88.2912C66.0916 89.6088 65.0084 90.7015 63.6297 90.7015Z" fill="#212523"/>
<path d="M94.474 73.5682V56.5674C94.474 46.4124 88.5976 42 79.7339 42H50.4177C47.9228 42 45.6904 42.3569 43.7207 43.1031C42.1777 43.6546 40.7989 44.4657 39.6828 45.5364C39.0918 46.088 39.5514 46.9964 40.405 46.9964H76.0899C83.4763 46.9964 89.4512 52.9012 89.4512 60.2011V83.4637C89.4512 84.2748 90.3375 84.729 90.9285 84.145C93.1936 81.7766 94.474 78.3051 94.474 73.5682Z" fill="#212523"/>
</svg>
