<svg width="100" height="100" viewBox="0 0 100 100" fill="none" xmlns="http://www.w3.org/2000/svg">
<g clip-path="url(#clip0_164_541)">
<rect width="100" height="100" fill="#D1F24A"/>
<path d="M62.3107 20.2005C62.58 19.404 63.4442 18.974 64.242 19.2395C65.0413 19.5057 65.4712 20.3692 65.2013 21.1673L62.1083 30.3136C61.839 31.1101 60.9748 31.5401 60.177 31.2746L51.0158 28.2261C50.2163 27.9601 49.7867 27.0966 50.0565 26.2983C50.3258 25.5018 51.19 25.0718 51.9878 25.3373L59.7043 27.9047L62.3107 20.2005Z" fill="#212523" stroke="#212523"/>
<path d="M44.6961 13.1068C47.5925 11.6656 50.1511 11.9364 52.1339 12.9813C54.0316 13.9816 55.3025 15.6314 55.9195 16.8711L61.0058 27.0925L60.4783 28.6651L60.3184 29.1395L58.2719 28.453L53.1856 18.2315C52.7862 17.4292 51.9203 16.3208 50.7098 15.6828C49.5841 15.0895 48.0616 14.8419 46.0561 15.8399C45.3014 16.2153 44.3852 15.9081 44.0096 15.1534C43.6342 14.3986 43.9415 13.4825 44.6961 13.1068Z" fill="#212523" stroke="#212523"/>
<path d="M60.6983 30.3321L60.7896 30.3161C60.7936 30.315 60.7973 30.3126 60.8014 30.3114C60.8269 30.3036 60.8524 30.2942 60.8774 30.2822C60.8942 30.2742 60.9105 30.2654 60.9264 30.2557C60.9292 30.254 60.9319 30.2522 60.9347 30.2505C60.9581 30.2355 60.9802 30.2185 61.0012 30.1999L61.0112 30.2113L61.3341 30.5731L61.6623 30.9432L61.6666 30.9476C61.6189 30.99 61.5673 31.0274 61.5149 31.0635C61.5105 31.0665 61.5066 31.0701 61.5022 31.073C61.4493 31.1086 61.3942 31.1406 61.3373 31.1692C61.335 31.1704 61.3331 31.1724 61.3308 31.1736C61.3224 31.1778 61.3129 31.1805 61.3046 31.1845C61.2813 31.1955 61.258 31.2063 61.2342 31.2162C61.2114 31.2257 61.1886 31.2345 61.1656 31.2427C61.1436 31.2506 61.1215 31.258 61.0991 31.2649C61.0818 31.2702 61.0646 31.2762 61.0471 31.2809C61.0213 31.2879 60.9952 31.2935 60.9689 31.2991C60.9511 31.3029 60.9335 31.3072 60.9156 31.3104C60.8735 31.3178 60.8309 31.3242 60.7881 31.328L60.6983 30.3321Z" fill="#212523" stroke="#212523"/>
<path d="M92 27C96.4183 27 100 30.5817 100 35V100H36L35.5879 99.9893C31.3611 99.7748 28 96.2801 28 92V35C28 30.5817 31.5817 27 36 27H48.5039C48.1892 27.4182 48 27.9363 48 28.5C48 28.6712 48.017 28.8385 48.0498 29H36C32.6863 29 30 31.6863 30 35V92C30 95.3137 32.6863 98 36 98H98V35C98 31.6863 95.3137 29 92 29H67.9502C67.983 28.8385 68 28.6712 68 28.5C68 27.9363 67.8108 27.4182 67.4961 27H92Z" fill="#212523"/>
<path d="M24.0521 6.18749C24.0521 4.97937 25.0315 4 26.2396 4H36.8125C38.0206 4 39 4.97937 39 6.18749V11.6562C39 12.8643 38.0206 13.8437 36.8125 13.8437H26.2396C25.0315 13.8437 24.0521 12.8643 24.0521 11.6562V6.18749Z" fill="#212523"/>
<path d="M24.0521 21.1367C24.0521 19.9286 25.0315 18.9492 26.2396 18.9492H36.8125C38.0206 18.9492 39 19.9286 39 21.1367V36.8137C39 38.0218 38.0206 39.0012 36.8125 39.0012H26.2396C25.0315 39.0012 24.0521 38.0218 24.0521 36.8137V21.1367Z" fill="#212523"/>
<path d="M18.948 6.18749C18.948 4.97937 17.9686 4 16.7605 4H6.18763C4.97952 4 4.00014 4.97937 4.00014 6.18749V21.8645C4.00014 23.0726 4.97952 24.052 6.18763 24.052H16.7605C17.9686 24.052 18.948 23.0726 18.948 21.8645V6.18749Z" fill="#212523"/>
<path d="M4.00014 31.3437C4.00014 30.1356 4.97952 29.1562 6.18763 29.1562H16.7605C17.9686 29.1562 18.948 30.1356 18.948 31.3437V36.8125C18.948 38.0206 17.9686 39 16.7605 39H6.18763C4.97952 39 4.00014 38.0206 4.00014 36.8125V31.3437Z" fill="#212523"/>
<path d="M72.8 98.7996V94.8513L61.6464 101.544C60.1309 102.453 58.1653 101.961 57.256 100.446C56.3467 98.9304 56.8382 96.9649 58.3536 96.0556L72.8 87.3878V82.7996H63.84C62.1006 82.7996 60.6036 82.8022 59.3759 82.7019C58.1109 82.5985 56.8527 82.3702 55.642 81.7534V81.7535C53.8635 80.8475 52.4126 79.41 51.4899 77.6425L51.4464 77.5581C50.8294 76.3473 50.6012 75.089 50.4978 73.8239C50.3975 72.5961 50.3999 71.0991 50.3999 69.3597V53.9998C50.4 52.2325 51.8327 50.7999 53.6 50.7999C55.3673 50.7999 56.8 52.2326 56.8 53.9998V69.3597C56.8 71.2047 56.8025 72.396 56.8766 73.3027C56.9476 74.172 57.0682 74.4943 57.1487 74.6524V74.6525C57.446 75.2359 57.9147 75.7135 58.4909 76.0215L58.5469 76.0507L58.5473 76.0509C58.7055 76.1315 59.0278 76.2521 59.8971 76.3231C60.8038 76.3972 61.995 76.3997 63.84 76.3997H88.16C90.005 76.3997 91.1963 76.3972 92.103 76.3231C92.9723 76.2521 93.2946 76.1316 93.4527 76.051L93.4531 76.0508C94.0549 75.7442 94.5445 75.2546 94.8511 74.6527L94.8513 74.6524C94.9318 74.4943 95.0524 74.1721 95.1234 73.3027C95.1975 72.396 95.2 71.2047 95.2 69.3597V53.9998C95.2 52.2326 96.6327 50.7999 98.4 50.7999C100.167 50.7999 101.6 52.2325 101.6 53.9998V69.3597C101.6 71.0991 101.602 72.5961 101.502 73.8239C101.399 75.089 101.171 76.3474 100.554 77.5582L100.554 77.5581C99.6333 79.3644 98.1645 80.8332 96.3582 81.7534L96.3581 81.7533C95.1474 82.3702 93.8891 82.5985 92.6241 82.7019C91.3964 82.8022 89.8994 82.7996 88.16 82.7996H79.2V87.3878L93.6464 96.0556C95.1618 96.9649 95.6533 98.9304 94.744 100.446C93.8347 101.961 91.8691 102.453 90.3536 101.544L79.2 94.8513V98.7996C79.2 100.567 77.7673 102 76 102C74.2327 102 72.8 100.567 72.8 98.7996ZM104.8 38C106.567 38 108 39.4326 108 41.1999C108 42.9672 106.567 44.3999 104.8 44.3999H47.2C45.4327 44.3999 44 42.9672 44 41.1999C44 39.4326 45.4327 38 47.2 38H104.8Z" fill="#212523"/>
</g>
<defs>
<clipPath id="clip0_164_541">
<rect width="100" height="100" fill="white"/>
</clipPath>
</defs>
</svg>
