<svg width="100" height="100" viewBox="0 0 100 100" fill="none" xmlns="http://www.w3.org/2000/svg">
<rect width="100" height="100" fill="#D1F24A"/>
<path d="M63.0212 26.8184H25.1604C24.0374 26.8184 22.9946 26.8577 22.032 26.8971C12.5267 27.4484 10 30.8741 10 41.5059V43.7897C10 45.9554 11.8048 47.7274 14.0107 47.7274H74.1709C76.3768 47.7274 78.1816 45.9554 78.1816 43.7897V41.5059C78.1816 29.7716 75.1335 26.8184 63.0212 26.8184Z" fill="#212523"/>
<path d="M14.0107 54.0879C11.8048 54.0879 10 55.8549 10 58.0146V69.4412C10 81.1428 13.0481 84.0878 25.1604 84.0878H63.0212C74.9329 84.0878 78.0613 81.2606 78.1816 70.0695V58.0146C78.1816 55.8549 76.3768 54.0879 74.1709 54.0879H14.0107ZM29.893 74.5067H23.0347C21.3903 74.5067 20.0267 73.1716 20.0267 71.5617C20.0267 69.9517 21.3903 68.6166 23.0347 68.6166H29.9331C31.5775 68.6166 32.9411 69.9517 32.9411 71.5617C32.9411 73.1716 31.5775 74.5067 29.893 74.5067ZM52.3127 74.5067H38.5159C36.8716 74.5067 35.5079 73.1716 35.5079 71.5617C35.5079 69.9517 36.8716 68.6166 38.5159 68.6166H52.3127C53.9571 68.6166 55.3207 69.9517 55.3207 71.5617C55.3207 73.1716 53.9972 74.5067 52.3127 74.5067Z" fill="#212523"/>
<path d="M90 53.5719V32.7993C90 20.3913 82.82 15 71.9897 15H36.1695C33.121 15 30.3934 15.4361 27.9866 16.3478C26.1014 17.0217 24.4167 18.0128 23.0529 19.321C22.3308 19.9949 22.8924 21.1049 23.9353 21.1049H67.5373C76.5625 21.1049 83.8629 28.3198 83.8629 37.2392V65.6628C83.8629 66.6538 84.9459 67.2088 85.6679 66.4953C88.4357 63.6014 90 59.3597 90 53.5719Z" fill="#212523"/>
</svg>
