<svg width="100" height="100" viewBox="0 0 100 100" fill="none" xmlns="http://www.w3.org/2000/svg">
<rect width="100" height="100" fill="#D1F24A"/>
<path d="M51.7227 24.2499C51.7227 23.0073 52.9202 22 54.3974 22H67.3253C68.8025 22 70 23.0073 70 24.2499V29.8748C70 31.1174 68.8025 32.1248 67.3253 32.1248H54.3974C52.9202 32.1248 51.7227 31.1174 51.7227 29.8748V24.2499Z" fill="#212523"/>
<path d="M51.7227 36.6249C51.7227 35.3823 52.9202 34.375 54.3974 34.375H67.3253C68.8025 34.375 70 35.3823 70 36.6249V52.7496C70 53.9922 68.8025 54.9995 67.3253 54.9995H54.3974C52.9202 54.9995 51.7227 53.9922 51.7227 52.7496V36.6249Z" fill="#212523"/>
<path d="M49.2773 24.2499C49.2773 23.0073 48.0798 22 46.6026 22H33.6747C32.1975 22 31 23.0073 31 24.2499V40.3746C31 41.6172 32.1975 42.6245 33.6747 42.6245H46.6026C48.0798 42.6245 49.2773 41.6172 49.2773 40.3746V24.2499Z" fill="#212523"/>
<path d="M31 47.1249C31 45.8823 32.1975 44.875 33.6747 44.875H46.6026C48.0798 44.875 49.2773 45.8823 49.2773 47.1249V52.7498C49.2773 53.9924 48.0798 54.9998 46.6026 54.9998H33.6747C32.1975 54.9998 31 53.9924 31 52.7498V47.1249Z" fill="#212523"/>
<path d="M46.1 85.0995V80.2875L32.5065 88.4436C30.6596 89.5518 28.2639 88.9529 27.1557 87.1059C26.0476 85.259 26.6465 82.8634 28.4935 81.7553L46.1 71.1914V65.5996H35.1799C33.0601 65.5996 31.2357 65.6026 29.7393 65.4804C28.1976 65.3544 26.6642 65.0762 25.1887 64.3244V64.3246C23.0211 63.2204 21.2529 61.4684 20.1283 59.3143L20.0753 59.2114C19.3233 57.7358 19.0452 56.2022 18.9192 54.6604C18.797 53.164 18.7999 51.3395 18.7999 49.2197V30.4998C18.8 28.3459 20.5461 26.5999 22.7 26.5999C24.8539 26.5999 26.6 28.3459 26.6 30.4998V49.2197C26.6 51.4682 26.603 52.9202 26.6933 54.0252C26.7799 55.0847 26.9268 55.4774 27.025 55.6702V55.6703C27.3873 56.3813 27.9586 56.9633 28.6607 57.3387L28.7291 57.3743L28.7295 57.3745C28.9223 57.4728 29.3151 57.6198 30.3746 57.7063C31.4796 57.7966 32.9314 57.7997 35.1799 57.7997H64.8201C67.0686 57.7997 68.5205 57.7966 69.6255 57.7063C70.685 57.6198 71.0778 57.4728 71.2705 57.3746L71.2709 57.3744C72.0045 57.0007 72.6011 56.404 72.9748 55.6705L72.975 55.6702C73.0732 55.4775 73.2201 55.0847 73.3067 54.0252C73.397 52.9202 73.4 51.4682 73.4 49.2197V30.4998C73.4 28.3459 75.1461 26.5999 77.3 26.5999C79.4539 26.5999 81.2001 28.3459 81.2001 30.4998V49.2197C81.2001 51.3395 81.203 53.164 81.0808 54.6604C80.9548 56.2022 80.6767 57.7359 79.9247 59.2116L79.9246 59.2114C78.803 61.4129 77.013 63.2029 74.8116 64.3244L74.8115 64.3243C73.3359 65.0762 71.8024 65.3544 70.2607 65.4804C68.7643 65.6026 66.9399 65.5996 64.8201 65.5996H53.9V71.1914L71.5065 81.7553C73.3535 82.8634 73.9524 85.259 72.8443 87.1059C71.7361 88.9529 69.3404 89.5518 67.4935 88.4436L53.9 80.2875V85.0995C53.9 87.2533 52.1539 88.9994 50 88.9994C47.8461 88.9994 46.1 87.2533 46.1 85.0995ZM85.1 11C87.2539 11 89 12.746 89 14.8999C89 17.0538 87.2539 18.7999 85.1 18.7999H14.9C12.7461 18.7999 11 17.0538 11 14.8999C11 12.746 12.7461 11 14.9 11H85.1Z" fill="#212523"/>
<path d="M60.5921 44.5708C60.6958 44.1431 61.3042 44.1431 61.4079 44.5708L61.6933 45.7477C61.7303 45.9005 61.8495 46.0197 62.0023 46.0567L63.1792 46.3421C63.6069 46.4458 63.6069 47.0542 63.1792 47.1579L62.0023 47.4433C61.8495 47.4803 61.7303 47.5995 61.6933 47.7523L61.4079 48.9292C61.3042 49.3569 60.6958 49.3569 60.5921 48.9292L60.3067 47.7523C60.2697 47.5995 60.1505 47.4803 59.9977 47.4433L58.8208 47.1579C58.3931 47.0542 58.3931 46.4458 58.8208 46.3421L59.9977 46.0567C60.1505 46.0197 60.2697 45.9005 60.3067 45.7477L60.5921 44.5708Z" fill="#D1F24A"/>
<path fill-rule="evenodd" clip-rule="evenodd" d="M61 45.0259L60.7962 45.8664C60.7147 46.2024 60.4524 46.4647 60.1164 46.5462L59.2759 46.75L60.1164 46.9538C60.4524 47.0353 60.7147 47.2976 60.7962 47.6336L61 48.4741L61.2038 47.6336C61.2853 47.2976 61.5476 47.0353 61.8836 46.9538L62.7241 46.75L61.8836 46.5462C61.5476 46.4647 61.2853 46.2024 61.2038 45.8664L61 45.0259ZM61.4079 44.5708C61.3042 44.1431 60.6958 44.1431 60.5921 44.5708L60.3067 45.7477C60.2697 45.9005 60.1505 46.0197 59.9977 46.0567L58.8208 46.3421C58.3931 46.4458 58.3931 47.0542 58.8208 47.1579L59.9977 47.4433C60.1505 47.4803 60.2697 47.5995 60.3067 47.7523L60.5921 48.9292C60.6958 49.3569 61.3042 49.3569 61.4079 48.9292L61.6933 47.7523C61.7303 47.5995 61.8495 47.4803 62.0023 47.4433L63.1792 47.1579C63.6069 47.0542 63.6069 46.4458 63.1792 46.3421L62.0023 46.0567C61.8495 46.0197 61.7303 45.9005 61.6933 45.7477L61.4079 44.5708Z" fill="#D1F24A"/>
<path d="M56 49.25C56 49.9404 55.4404 50.5 54.75 50.5C54.0596 50.5 53.5 49.9404 53.5 49.25C53.5 48.5596 54.0596 48 54.75 48C55.4404 48 56 48.5596 56 49.25Z" fill="#D1F24A"/>
<path d="M63.5 26.75C63.5 27.4404 62.9404 28 62.25 28C61.5596 28 61 27.4404 61 26.75C61 26.0596 61.5596 25.5 62.25 25.5C62.9404 25.5 63.5 26.0596 63.5 26.75Z" fill="#D1F24A"/>
<path d="M47.25 26.75C47.25 27.4404 46.6904 28 46 28C45.3096 28 44.75 27.4404 44.75 26.75C44.75 26.0596 45.3096 25.5 46 25.5C46.6904 25.5 47.25 26.0596 47.25 26.75Z" fill="#D1F24A"/>
<path d="M40.5921 29.5708C40.6958 29.1431 41.3042 29.1431 41.4079 29.5708L41.6933 30.7477C41.7303 30.9005 41.8495 31.0197 42.0023 31.0567L43.1792 31.3421C43.6069 31.4458 43.6069 32.0542 43.1792 32.1579L42.0023 32.4433C41.8495 32.4803 41.7303 32.5995 41.6933 32.7523L41.4079 33.9292C41.3042 34.3569 40.6958 34.3569 40.5921 33.9292L40.3067 32.7523C40.2697 32.5995 40.1505 32.4803 39.9977 32.4433L38.8208 32.1579C38.3931 32.0542 38.3931 31.4458 38.8208 31.3421L39.9977 31.0567C40.1505 31.0197 40.2697 30.9005 40.3067 30.7477L40.5921 29.5708Z" fill="#D1F24A"/>
<path fill-rule="evenodd" clip-rule="evenodd" d="M41 30.0259L40.7962 30.8664C40.7147 31.2024 40.4524 31.4647 40.1164 31.5462L39.2759 31.75L40.1164 31.9538C40.4524 32.0353 40.7147 32.2976 40.7962 32.6336L41 33.4741L41.2038 32.6336C41.2853 32.2976 41.5476 32.0353 41.8836 31.9538L42.7241 31.75L41.8836 31.5462C41.5476 31.4647 41.2853 31.2024 41.2038 30.8664L41 30.0259ZM41.4079 29.5708C41.3042 29.1431 40.6958 29.1431 40.5921 29.5708L40.3067 30.7477C40.2697 30.9005 40.1505 31.0197 39.9977 31.0567L38.8208 31.3421C38.3931 31.4458 38.3931 32.0542 38.8208 32.1579L39.9977 32.4433C40.1505 32.4803 40.2697 32.5995 40.3067 32.7523L40.5921 33.9292C40.6958 34.3569 41.3042 34.3569 41.4079 33.9292L41.6933 32.7523C41.7303 32.5995 41.8495 32.4803 42.0023 32.4433L43.1792 32.1579C43.6069 32.0542 43.6069 31.4458 43.1792 31.3421L42.0023 31.0567C41.8495 31.0197 41.7303 30.9005 41.6933 30.7477L41.4079 29.5708Z" fill="#D1F24A"/>
</svg>
