<svg width="100" height="100" viewBox="0 0 100 100" fill="none" xmlns="http://www.w3.org/2000/svg">
<rect width="100" height="100" fill="#D1F24A"/>
<path d="M18.0493 45.9892C18.5001 44.8645 19.5916 44.127 20.8053 44.127H26.0412C27.2549 44.127 28.3464 44.8645 28.7971 45.9892L31.1717 51.9142C31.9515 53.8602 30.5157 55.977 28.4158 55.977H24.4127V61.902H27.3809C27.9274 61.902 28.3703 62.3441 28.3703 62.8895C28.3703 63.4349 27.9274 63.877 27.3809 63.877H19.4656C18.9191 63.877 18.4762 63.4349 18.4762 62.8895C18.4762 62.3441 18.9191 61.902 19.4656 61.902H22.4338V55.977H18.4307C16.3307 55.977 14.8948 53.8602 15.6747 51.9142L18.0493 45.9892Z" fill="#212523"/>
<path fill-rule="evenodd" clip-rule="evenodd" d="M34.9073 63.5918C36.3303 63.5918 37.4839 64.7454 37.4839 66.1684V74.7571C37.4839 76.1802 36.3303 77.3337 34.9073 77.3337L32.3307 77.3329V88.4991C32.3307 88.9734 31.9461 89.3579 31.4718 89.3579C30.9974 89.3579 30.6129 88.9734 30.6129 88.4991V77.3329H16.871V88.4991C16.871 88.9734 16.4864 89.3579 16.0121 89.3579C15.5378 89.3579 15.1532 88.9734 15.1532 88.4991V77.3329L12.5766 77.3337C11.1536 77.3337 10 76.1802 10 74.7571V66.1684C10 64.7454 11.1536 63.5918 12.5766 63.5918H34.9073Z" fill="#212523"/>
<path d="M52.2809 68.416V70.8848H64.8344H77.388V68.416C77.388 64.3312 80.751 61.0189 84.903 61.0098C84.8817 60.2 84.834 59.6119 84.727 59.0833C83.9346 55.1659 80.8203 52.1037 76.8366 51.3245C75.8665 51.1348 74.6997 51.1348 72.3665 51.1348H64.8344H57.3023C54.9691 51.1348 53.8025 51.1348 52.8323 51.3245C48.8485 52.1037 45.7342 55.1659 44.9417 59.0833C44.8348 59.6119 44.7871 60.2 44.7659 61.0098C48.9179 61.0189 52.2809 64.3312 52.2809 68.416Z" fill="#212523"/>
<path d="M81.1655 83.6273H49.1408C48.4524 83.6273 47.7824 83.5466 47.1393 83.3939V86.1757C47.1393 87.2313 46.3049 88.087 45.2758 88.087C44.2466 88.087 43.4122 87.2313 43.4122 86.1757V81.4645C41.5117 79.8025 40.3064 77.3288 40.3064 74.5663V68.337C40.3064 65.5221 42.5313 63.2402 45.2758 63.2402C48.0203 63.2402 50.2451 65.5221 50.2451 68.337V71.3951C50.2451 72.521 51.1351 73.4338 52.2329 73.4338H78.0735C79.1713 73.4338 80.0613 72.521 80.0613 71.3951V68.337C80.0613 65.5221 82.2861 63.2402 85.0306 63.2402C87.7752 63.2402 90 65.5221 90 68.337V74.5663C90 77.3288 88.7947 79.8025 86.8941 81.4645V86.1757C86.8941 87.2313 86.0598 88.087 85.0306 88.087C84.0015 88.087 83.1671 87.2313 83.1671 86.1757V83.3939C82.5241 83.5466 81.854 83.6273 81.1655 83.6273Z" fill="#212523"/>
<path d="M75.0049 22.8438H52.3475C51.6723 22.8438 51.0971 23.0751 50.6219 23.5379C50.1468 24.0007 49.9092 24.561 49.9092 25.2186V43.4139C49.9092 44.0716 50.1468 44.6318 50.6219 45.0946C51.0971 45.5574 51.6723 45.7888 52.3475 45.7888H75.0049C75.6802 45.7888 76.2554 45.5574 76.7305 45.0946C77.2057 44.6318 77.4432 44.0716 77.4432 43.4139V25.2186C77.4432 24.561 77.2057 24.0007 76.7305 23.5379C76.2554 23.0751 75.6802 22.8438 75.0049 22.8438ZM74.4423 41.7698C74.4423 42.1108 74.3172 42.4031 74.0671 42.6467C73.8171 42.8902 73.517 43.012 73.1668 43.012H70.766C70.641 42.7684 70.4284 42.537 70.1283 42.3178C69.6032 41.9037 68.9279 41.6602 68.1027 41.5871V39.9429C68.5028 40.0647 68.8404 40.0891 69.1155 40.016C69.3156 39.9429 69.4781 39.8333 69.6032 39.6872L69.7157 39.5045C70.1909 39.7968 70.766 39.8333 71.4413 39.6141C71.7414 39.4923 72.004 39.2731 72.229 38.9564C72.4541 38.5911 72.5666 38.1283 72.5666 37.568C72.5416 36.7642 72.204 36.1797 71.5538 35.8143C71.5038 35.7656 71.4663 35.7108 71.4413 35.6499C71.4163 35.589 71.4288 35.522 71.4788 35.4489C71.6288 35.2053 71.7101 34.9435 71.7226 34.6634C71.7351 34.3833 71.6663 34.1092 71.5163 33.8413C71.3662 33.5003 71.0036 33.2324 70.4284 33.0375C70.2784 32.9888 70.1909 32.8792 70.1659 32.7087C70.0158 31.7831 69.7657 30.9184 69.4156 30.1146C69.1155 29.4325 68.7779 28.8723 68.4028 28.4339C68.0527 28.0441 67.7526 27.8371 67.5025 27.8127C67.1274 27.764 66.7647 28.4704 66.4146 29.9319V30.078C65.3393 30.6382 64.639 31.3081 64.3139 32.0875C64.0638 32.6234 64.0013 33.1715 64.1264 33.7317C64.1514 33.8291 64.1326 33.9326 64.0701 34.0423C64.0076 34.1519 63.9138 34.2188 63.7888 34.2432C63.2136 34.3406 62.6384 34.7304 62.0632 35.4124C61.6881 35.8508 61.4567 36.338 61.3692 36.8738C61.2817 37.4097 61.363 37.8969 61.613 38.3353C61.8631 38.7738 62.2758 39.0904 62.8509 39.2853C63.126 39.3827 63.4511 39.3827 63.8263 39.2853C64.0013 39.2609 64.1639 39.2122 64.3139 39.1391L64.3889 39.3218C64.464 39.468 64.564 39.5897 64.689 39.6872C64.8391 39.8333 65.0142 39.9308 65.2142 39.9795C65.6144 40.1013 66.002 40.1134 66.3771 40.016V41.5871C65.6018 41.6845 64.9516 41.9281 64.4265 42.3178C64.1264 42.537 63.9138 42.7684 63.7888 43.012H54.1106C53.7604 43.012 53.4603 42.8902 53.2103 42.6467C52.9602 42.4031 52.8351 42.1108 52.8351 41.7698V27.082C52.8351 26.741 52.9602 26.4487 53.2103 26.2051C53.4603 25.9615 53.7604 25.8398 54.1106 25.8398H73.1668C73.517 25.8398 73.8171 25.9615 74.0671 26.2051C74.3172 26.4487 74.4423 26.741 74.4423 27.082V41.7698ZM54.5232 30.553C54.5232 31.503 54.8671 32.3128 55.5548 32.9827C56.2425 33.6525 57.074 33.9874 58.0494 33.9874C59.0247 33.9874 59.8562 33.6525 60.5439 32.9827C61.2317 32.3128 61.5755 31.509 61.5755 30.5713C61.5755 29.6335 61.2317 28.8297 60.5439 28.1598C59.8562 27.49 59.0247 27.1551 58.0494 27.1551C57.074 27.1551 56.2425 27.49 55.5548 28.1598C54.8671 28.8297 54.5232 29.6274 54.5232 30.553Z" fill="#212523"/>
<path fill-rule="evenodd" clip-rule="evenodd" d="M22.3647 36.8403C23.119 37.593 23.119 38.8134 22.3647 39.5661C21.6104 40.3188 20.3874 40.3188 19.6331 39.5661L14.1699 34.1145C13.4156 33.3618 13.4156 32.1414 14.1699 31.3887L19.6331 25.9371C20.3874 25.1844 21.6104 25.1844 22.3647 25.9371C23.119 26.6898 23.119 27.9102 22.3647 28.6629L20.1988 30.8242L38.1885 30.8242L36.0227 28.6629C35.2684 27.9102 35.2684 26.6898 36.0227 25.9371C36.777 25.1844 38 25.1844 38.7543 25.9371L44.2175 31.3887C44.9718 32.1414 44.9718 33.3618 44.2175 34.1145L38.7543 39.5661C38 40.3188 36.777 40.3188 36.0227 39.5661C35.2684 38.8134 35.2684 37.593 36.0227 36.8403L38.1885 34.679H20.1988L22.3647 36.8403Z" fill="#212523"/>
<path d="M19.3581 11.6183C19.1578 10.7939 17.9827 10.7939 17.7824 11.6183L17.2312 13.8868C17.1596 14.1811 16.9293 14.411 16.6344 14.4823L14.3611 15.0324C13.5349 15.2323 13.5349 16.4048 14.3611 16.6048L16.6344 17.1548C16.9293 17.2262 17.1596 17.456 17.2312 17.7504L17.7824 20.0188C17.9827 20.8433 19.1578 20.8433 19.3581 20.0188L19.9093 17.7504C19.9809 17.456 20.2112 17.2262 20.5061 17.1548L22.7794 16.6048C23.6056 16.4048 23.6056 15.2323 22.7794 15.0324L20.5061 14.4823C20.2112 14.411 19.9809 14.1811 19.9093 13.8868L19.3581 11.6183Z" fill="#212523"/>
<path fill-rule="evenodd" clip-rule="evenodd" d="M18.5703 12.4955L18.9639 14.1156C19.1213 14.7631 19.628 15.2687 20.2769 15.4257L21.9004 15.8186L20.2769 16.2114C19.628 16.3684 19.1213 16.874 18.9639 17.5216L18.5703 19.1416L18.1766 17.5216C18.0192 16.874 17.5125 16.3684 16.8636 16.2114L15.2401 15.8186L16.8636 15.4257C17.5125 15.2687 18.0192 14.7631 18.1766 14.1156L18.5703 12.4955ZM17.7824 11.6183C17.9827 10.7939 19.1578 10.7939 19.3581 11.6183L19.9093 13.8868C19.9809 14.1811 20.2112 14.411 20.5061 14.4823L22.7794 15.0324C23.6056 15.2323 23.6056 16.4048 22.7794 16.6048L20.5061 17.1548C20.2112 17.2262 19.9809 17.456 19.9093 17.7504L19.3581 20.0188C19.1578 20.8433 17.9827 20.8433 17.7824 20.0188L17.2312 17.7504C17.1596 17.456 16.9293 17.2262 16.6344 17.1548L14.3611 16.6048C13.5349 16.4048 13.5349 15.2323 14.3611 15.0324L16.6344 14.4823C16.9293 14.411 17.1596 14.1811 17.2312 13.8868L17.7824 11.6183Z" fill="#212523"/>
<path d="M13.7414 45.6938C13.7414 46.7583 14.6062 47.6212 15.673 47.6212C16.7397 47.6212 17.6045 46.7583 17.6045 45.6938C17.6045 44.6293 16.7397 43.7663 15.673 43.7663C14.6062 43.7663 13.7414 44.6293 13.7414 45.6938Z" fill="#212523"/>
<path d="M19.536 51.4761C19.536 52.5406 20.4008 53.4035 21.4676 53.4035C22.5343 53.4035 23.3991 52.5406 23.3991 51.4761C23.3991 50.4116 22.5343 49.5486 21.4676 49.5486C20.4008 49.5486 19.536 50.4116 19.536 51.4761Z" fill="#212523"/>
</svg>
