<svg width="100" height="100" viewBox="0 0 100 100" fill="none" xmlns="http://www.w3.org/2000/svg">
<g clip-path="url(#clip0_164_417)">
<rect width="100" height="100" fill="#D1F24A"/>
<path d="M92 27C96.4183 27 100 30.5817 100 35V100H36L35.5879 99.9893C31.3611 99.7748 28 96.2801 28 92V35C28 30.5817 31.5817 27 36 27H48.5039C48.1892 27.4182 48 27.9363 48 28.5C48 28.6712 48.017 28.8385 48.0498 29H36C32.6863 29 30 31.6863 30 35V92C30 95.3137 32.6863 98 36 98H98V35C98 31.6863 95.3137 29 92 29H47.4541C47.4869 28.8385 47.5039 28.6712 47.5039 28.5C47.5039 27.9363 47.3147 27.4182 47 27H92Z" fill="#212523"/>
<path d="M32.1667 6.66665C32.1667 5.74618 31.0101 5.00001 29.5834 5C28.1566 5 27 5.74618 27 6.66665V28.3333C27 29.2538 28.1566 30 29.5834 30H55.4167C56.8434 30 58 29.2538 58 28.3333C58 27.4128 56.8434 26.6667 55.4167 26.6667H32.1667V6.66665Z" fill="#212523"/>
<path d="M30.7216 2.71467C29.7421 1.74641 28.1933 1.76202 27.2322 2.76152L19.7322 10.5615C18.7559 11.5769 18.7559 13.2231 19.7322 14.2385C20.7085 15.2538 22.2915 15.2538 23.2678 14.2385L29 8.27697L34.7322 14.2385C35.7085 15.2538 37.2915 15.2538 38.2678 14.2385C39.2441 13.2231 39.2441 11.5769 38.2678 10.5615L30.7678 2.76152L30.7216 2.71467Z" fill="#212523"/>
<path d="M27 55.4616V27.5384C27 26.1365 28.1566 25 29.5833 25H55.4166C56.8434 25 58 26.1365 58 27.5384C58 28.9404 56.8434 30.0769 55.4166 30.0769H32.1666V55.4616C32.1666 56.8635 31.01 58 29.5833 58C28.1566 58 27 56.8635 27 55.4616Z" fill="#212523"/>
<path d="M34.7322 47.7615C35.7085 46.7462 37.2915 46.7462 38.2678 47.7615C39.2441 48.7769 39.2441 50.4231 38.2678 51.4385L30.7678 59.2385C29.7915 60.2538 28.2085 60.2538 27.2322 59.2385L19.7322 51.4385C18.7559 50.4231 18.7559 48.7769 19.7322 47.7615C20.7085 46.7462 22.2915 46.7462 23.2678 47.7615L29 53.723L34.7322 47.7615Z" fill="#212523"/>
<path d="M39.4396 66.4898C39.8002 65.59 40.6733 65 41.6443 65H45.833C46.804 65 47.6772 65.59 48.0378 66.4898L49.9374 71.2298C50.5613 72.7866 49.4127 74.48 47.7327 74.48H44.5302V79.22H46.9048C47.342 79.22 47.6964 79.5737 47.6964 80.01C47.6964 80.4463 47.342 80.8 46.9048 80.8H40.5726C40.1354 80.8 39.781 80.4463 39.781 80.01C39.781 79.5737 40.1354 79.22 40.5726 79.22H42.9472V74.48H39.7446C38.0647 74.48 36.9159 72.7866 37.5399 71.2298L39.4396 66.4898Z" fill="#212523"/>
<path fill-rule="evenodd" clip-rule="evenodd" d="M52.9258 80.5723C54.0642 80.5723 54.9871 81.4951 54.9871 82.6336V89.5045C54.9871 90.6429 54.0642 91.5658 52.9258 91.5658L50.8645 91.5651V100.498C50.8645 100.878 50.5569 101.185 50.1774 101.185C49.798 101.185 49.4903 100.878 49.4903 100.498V91.5651H38.4968V100.498C38.4968 100.878 38.1892 101.185 37.8097 101.185C37.4302 101.185 37.1226 100.878 37.1226 100.498V91.5651L35.0613 91.5658C33.9229 91.5658 33 90.6429 33 89.5045V82.6336C33 81.4951 33.9229 80.5723 35.0613 80.5723H52.9258Z" fill="#212523"/>
<path d="M66.8248 84.4305V86.4055H76.8676H86.9104V84.4305C86.9104 81.1626 89.6009 78.5127 92.9224 78.5055C92.9054 77.8577 92.8672 77.3872 92.7816 76.9643C92.1477 73.8304 89.6563 71.3806 86.4693 70.7573C85.6932 70.6055 84.7598 70.6055 82.8933 70.6055H76.8676H70.8419C68.9753 70.6055 68.042 70.6055 67.2659 70.7573C64.0788 71.3806 61.5874 73.8304 60.9534 76.9643C60.8679 77.3872 60.8297 77.8577 60.8127 78.5055C64.1343 78.5127 66.8248 81.1626 66.8248 84.4305Z" fill="#212523"/>
<path d="M89.9324 96.5987H64.3127C63.7619 96.5987 63.2259 96.5341 62.7114 96.412V98.6375C62.7114 99.4819 62.0439 100.166 61.2206 100.166C60.3973 100.166 59.7298 99.4819 59.7298 98.6375V94.8685C58.2093 93.5388 57.2451 91.5599 57.2451 89.3499V84.3665C57.2451 82.1145 59.025 80.2891 61.2206 80.2891C63.4162 80.2891 65.1961 82.1145 65.1961 84.3665V86.8129C65.1961 87.7136 65.908 88.4439 66.7863 88.4439H87.4588C88.337 88.4439 89.049 87.7136 89.049 86.8129V84.3665C89.049 82.1145 90.8288 80.2891 93.0245 80.2891C95.2202 80.2891 97 82.1145 97 84.3665V89.3499C97 91.5599 96.0357 93.5388 94.5153 94.8685V98.6375C94.5153 99.4819 93.8478 100.166 93.0245 100.166C92.2012 100.166 91.5337 99.4819 91.5337 98.6375V96.412C91.0193 96.5341 90.4832 96.5987 89.9324 96.5987Z" fill="#212523"/>
<path d="M89.9891 36H62.0109C61.1771 36 60.4668 36.2857 59.8801 36.8572C59.2934 37.4287 59 38.1205 59 38.9326V61.4007C59 62.2128 59.2934 62.9046 59.8801 63.4761C60.4668 64.0476 61.1771 64.3333 62.0109 64.3333H89.9891C90.8229 64.3333 91.5332 64.0476 92.1199 63.4761C92.7066 62.9046 93 62.2128 93 61.4007V38.9326C93 38.1205 92.7066 37.4287 92.1199 36.8572C91.5332 36.2857 90.8229 36 89.9891 36ZM89.2943 59.3705C89.2943 59.7916 89.1399 60.1525 88.8311 60.4533C88.5223 60.7541 88.1517 60.9045 87.7193 60.9045H84.7548C84.6004 60.6037 84.3379 60.3179 83.9673 60.0472C83.3188 59.5359 82.485 59.2351 81.4659 59.1449V57.1147C81.96 57.265 82.3769 57.2951 82.7166 57.2049C82.9637 57.1147 83.1644 56.9793 83.3188 56.7988L83.4578 56.5732C84.0445 56.9342 84.7548 56.9793 85.5886 56.7086C85.9591 56.5582 86.2834 56.2875 86.5613 55.8965C86.8392 55.4453 86.9782 54.8739 86.9782 54.1821C86.9473 53.1895 86.5304 52.4676 85.7275 52.0165C85.6658 51.9563 85.6194 51.8886 85.5886 51.8134C85.5577 51.7382 85.5731 51.6555 85.6349 51.5653C85.8202 51.2645 85.9205 50.9412 85.936 50.5953C85.9514 50.2494 85.8665 49.911 85.6812 49.5801C85.4959 49.1591 85.0481 48.8282 84.3379 48.5876C84.1526 48.5274 84.0445 48.3921 84.0136 48.1815C83.8283 47.0386 83.5195 45.9708 83.0872 44.9782C82.7166 44.1361 82.2997 43.4443 81.8365 42.9029C81.4042 42.4216 81.0336 42.166 80.7248 42.1359C80.2616 42.0757 79.8138 42.948 79.3815 44.7527V44.9331C78.0536 45.6249 77.1889 46.4521 76.7875 47.4145C76.4787 48.0763 76.4015 48.753 76.5559 49.4448C76.5867 49.5651 76.5636 49.6929 76.4864 49.8283C76.4092 49.9636 76.2934 50.0464 76.139 50.0764C75.4287 50.1967 74.7184 50.678 74.0082 51.5202C73.545 52.0616 73.2593 52.6631 73.1512 53.3248C73.0431 53.9866 73.1435 54.5881 73.4523 55.1295C73.7611 55.6709 74.2707 56.0619 74.9809 56.3025C75.3206 56.4229 75.7221 56.4229 76.1853 56.3025C76.4015 56.2725 76.6022 56.2123 76.7875 56.1221L76.8801 56.3477C76.9728 56.5281 77.0963 56.6785 77.2507 56.7988C77.436 56.9793 77.6521 57.0996 77.8992 57.1598C78.3933 57.3102 78.8719 57.3252 79.3351 57.2049V59.1449C78.3778 59.2652 77.5749 59.566 76.9264 60.0472C76.5559 60.3179 76.2934 60.6037 76.139 60.9045H64.188C63.7557 60.9045 63.3851 60.7541 63.0763 60.4533C62.7675 60.1525 62.6131 59.7916 62.6131 59.3705V41.2335C62.6131 40.8125 62.7675 40.4515 63.0763 40.1507C63.3851 39.85 63.7557 39.6996 64.188 39.6996H87.7193C88.1517 39.6996 88.5223 39.85 88.8311 40.1507C89.1399 40.4515 89.2943 40.8125 89.2943 41.2335V59.3705ZM64.6975 45.5196C64.6975 46.6927 65.1222 47.6928 65.9714 48.5199C66.8206 49.347 67.8474 49.7606 69.0518 49.7606C70.2561 49.7606 71.2829 49.347 72.1322 48.5199C72.9814 47.6928 73.406 46.7002 73.406 45.5422C73.406 44.3842 72.9814 43.3916 72.1322 42.5645C71.2829 41.7373 70.2561 41.3238 69.0518 41.3238C67.8474 41.3238 66.8206 41.7373 65.9714 42.5645C65.1222 43.3916 64.6975 44.3767 64.6975 45.5196Z" fill="#212523"/>
</g>
<defs>
<clipPath id="clip0_164_417">
<rect width="100" height="100" fill="white"/>
</clipPath>
</defs>
</svg>
