<svg width="100" height="100" viewBox="0 0 100 100" fill="none" xmlns="http://www.w3.org/2000/svg">
<rect width="100" height="100" fill="#D1F24A"/>
<path d="M27.454 57.5596C27.8155 56.6578 28.6906 56.0664 29.6638 56.0664H33.8621C34.8352 56.0664 35.7104 56.6578 36.0718 57.5596L37.9758 62.3104C38.6011 63.8707 37.4498 65.568 35.7661 65.568H32.5563V70.3188H34.9363C35.3745 70.3188 35.7296 70.6733 35.7296 71.1106C35.7296 71.5479 35.3745 71.9024 34.9363 71.9024H28.5896C28.1515 71.9024 27.7963 71.5479 27.7963 71.1106C27.7963 70.6733 28.1515 70.3188 28.5896 70.3188H30.9696V65.568H27.7598C26.076 65.568 24.9247 63.8707 25.55 62.3104L27.454 57.5596Z" fill="#212523"/>
<path fill-rule="evenodd" clip-rule="evenodd" d="M40.9712 71.6738C42.1122 71.6738 43.0371 72.5988 43.0371 73.7398V80.6264C43.0371 81.7674 42.1122 82.6924 40.9712 82.6924L38.9052 82.6917V91.645C38.9052 92.0253 38.5969 92.3337 38.2165 92.3337C37.8362 92.3337 37.5279 92.0253 37.5279 91.645V82.6917H26.5093V91.645C26.5093 92.0253 26.201 92.3337 25.8206 92.3337C25.4403 92.3337 25.132 92.0253 25.132 91.645V82.6917L23.066 82.6924C21.925 82.6924 21 81.7674 21 80.6264V73.7398C21 72.5988 21.925 71.6738 23.066 71.6738H40.9712Z" fill="#212523"/>
<path d="M54.9017 75.542V77.5215H64.9673H75.033V75.542C75.033 72.2667 77.7296 69.6108 81.0587 69.6035C81.0416 68.9542 81.0034 68.4827 80.9176 68.0588C80.2823 64.9178 77.7852 62.4625 74.5909 61.8377C73.8131 61.6855 72.8776 61.6855 71.0068 61.6855H64.9673H58.9279C57.0571 61.6855 56.1217 61.6855 55.3438 61.8377C52.1495 62.4625 49.6524 64.9178 49.017 68.0588C48.9312 68.4827 48.893 68.9542 48.876 69.6035C52.2051 69.6108 54.9017 72.2667 54.9017 75.542Z" fill="#212523"/>
<path d="M78.0619 87.7374H52.3839C51.8319 87.7374 51.2947 87.6727 50.779 87.5503V89.7808C50.779 90.6271 50.11 91.3133 49.2848 91.3133C48.4596 91.3133 47.7906 90.6271 47.7906 89.7808V86.0032C46.2667 84.6706 45.3003 82.6871 45.3003 80.4721V75.4773C45.3003 73.2202 47.0842 71.3906 49.2848 71.3906C51.4854 71.3906 53.2694 73.2202 53.2694 75.4773V77.9293C53.2694 78.8321 53.9829 79.564 54.8632 79.564H75.5827C76.4629 79.564 77.1766 78.8321 77.1766 77.9293V75.4773C77.1766 73.2202 78.9604 71.3906 81.1611 71.3906C83.3618 71.3906 85.1456 73.2202 85.1456 75.4773V80.4721C85.1456 82.6871 84.1792 84.6706 82.6553 86.0032V89.7808C82.6553 90.6271 81.9863 91.3133 81.1611 91.3133C80.3359 91.3133 79.6669 90.6271 79.6669 89.7808V87.5503C79.1513 87.6727 78.614 87.7374 78.0619 87.7374Z" fill="#212523"/>
<path d="M73.1223 39H54.9551C54.4137 39 53.9525 39.1855 53.5715 39.5566C53.1905 39.9277 53 40.3769 53 40.9042V55.4936C53 56.0209 53.1905 56.4701 53.5715 56.8412C53.9525 57.2123 54.4137 57.3978 54.9551 57.3978H73.1223C73.6637 57.3978 74.1249 57.2123 74.5059 56.8412C74.8869 56.4701 75.0774 56.0209 75.0774 55.4936V40.9042C75.0774 40.3769 74.8869 39.9277 74.5059 39.5566C74.1249 39.1855 73.6637 39 73.1223 39ZM72.6711 54.1753C72.6711 54.4487 72.5709 54.6831 72.3703 54.8784C72.1698 55.0737 71.9292 55.1713 71.6485 55.1713H69.7235C69.6232 54.976 69.4528 54.7905 69.2121 54.6147C68.791 54.2827 68.2496 54.0874 67.5879 54.0288V52.7105C67.9087 52.8081 68.1794 52.8277 68.4 52.7691C68.5604 52.7105 68.6908 52.6226 68.791 52.5054L68.8813 52.3589C69.2623 52.5933 69.7235 52.6226 70.2649 52.4468C70.5055 52.3492 70.716 52.1734 70.8965 51.9195C71.077 51.6265 71.1672 51.2554 71.1672 50.8062C71.1472 50.1617 70.8765 49.693 70.3551 49.4C70.315 49.361 70.2849 49.317 70.2649 49.2682C70.2448 49.2194 70.2548 49.1657 70.2949 49.1071C70.4153 48.9118 70.4804 48.7018 70.4905 48.4772C70.5005 48.2526 70.4453 48.0329 70.325 47.8181C70.2047 47.5446 69.914 47.3298 69.4528 47.1736C69.3324 47.1345 69.2623 47.0466 69.2422 46.9099C69.1219 46.1677 68.9214 45.4744 68.6406 44.8299C68.4 44.283 68.1293 43.8338 67.8285 43.4823C67.5478 43.1698 67.3072 43.0038 67.1067 42.9842C66.8059 42.9452 66.5151 43.5116 66.2344 44.6834V44.8006C65.3722 45.2498 64.8107 45.7869 64.55 46.4119C64.3495 46.8415 64.2994 47.281 64.3996 47.7302C64.4197 47.8083 64.4046 47.8913 64.3545 47.9792C64.3044 48.0671 64.2292 48.1208 64.1289 48.1403C63.6677 48.2184 63.2065 48.5309 62.7453 49.0778C62.4445 49.4293 62.2591 49.8199 62.1889 50.2496C62.1187 50.6793 62.1839 51.0699 62.3844 51.4215C62.5849 51.773 62.9158 52.0269 63.377 52.1831C63.5975 52.2613 63.8582 52.2613 64.159 52.1831C64.2994 52.1636 64.4297 52.1246 64.55 52.066L64.6102 52.2124C64.6703 52.3296 64.7505 52.4273 64.8508 52.5054C64.9711 52.6226 65.1115 52.7007 65.2719 52.7398C65.5927 52.8374 65.9035 52.8472 66.2043 52.7691V54.0288C65.5827 54.1069 65.0613 54.3022 64.6403 54.6147C64.3996 54.7905 64.2292 54.976 64.1289 55.1713H56.3688C56.088 55.1713 55.8474 55.0737 55.6469 54.8784C55.4464 54.6831 55.3461 54.4487 55.3461 54.1753V42.3983C55.3461 42.1249 55.4464 41.8905 55.6469 41.6952C55.8474 41.4999 56.088 41.4023 56.3688 41.4023H71.6485C71.9292 41.4023 72.1698 41.4999 72.3703 41.6952C72.5709 41.8905 72.6711 42.1249 72.6711 42.3983V54.1753ZM56.6996 45.1814C56.6996 45.9431 56.9753 46.5925 57.5268 47.1296C58.0782 47.6667 58.7449 47.9352 59.527 47.9352C60.309 47.9352 60.9757 47.6667 61.5272 47.1296C62.0786 46.5925 62.3543 45.948 62.3543 45.1961C62.3543 44.4442 62.0786 43.7996 61.5272 43.2626C60.9757 42.7255 60.309 42.4569 59.527 42.4569C58.7449 42.4569 58.0782 42.7255 57.5268 43.2626C56.9753 43.7996 56.6996 44.4393 56.6996 45.1814Z" fill="#212523"/>
<path fill-rule="evenodd" clip-rule="evenodd" d="M28.0244 34.7193C28.6292 35.3228 28.6292 36.3014 28.0244 36.9049C27.4196 37.5084 26.4389 37.5084 25.8341 36.9049L21.4536 32.5337C20.8488 31.9302 20.8488 30.9516 21.4536 30.3481L25.8341 25.9769C26.4389 25.3733 27.4196 25.3733 28.0244 25.9769C28.6292 26.5804 28.6292 27.5589 28.0244 28.1625L26.2877 29.8954L40.7123 29.8954L38.9756 28.1625C38.3708 27.5589 38.3708 26.5804 38.9756 25.9769C39.5805 25.3733 40.5611 25.3733 41.1659 25.9769L45.5464 30.3481C46.1512 30.9516 46.1512 31.9302 45.5464 32.5337L41.1659 36.9049C40.5611 37.5084 39.5805 37.5084 38.9756 36.9049C38.3708 36.3014 38.3708 35.3228 38.9756 34.7193L40.7123 32.9863H26.2877L28.0244 34.7193Z" fill="#212523"/>
<path d="M25.6136 14.4958C25.453 13.8347 24.5108 13.8347 24.3502 14.4958L23.9082 16.3147C23.8509 16.5507 23.6662 16.735 23.4297 16.7922L21.6069 17.2333C20.9445 17.3936 20.9445 18.3337 21.6069 18.494L23.4297 18.9351C23.6662 18.9923 23.8509 19.1766 23.9082 19.4126L24.3502 21.2315C24.5108 21.8925 25.453 21.8925 25.6136 21.2315L26.0556 19.4126C26.113 19.1766 26.2976 18.9923 26.5342 18.9351L28.3569 18.494C29.0194 18.3337 29.0194 17.3936 28.3569 17.2333L26.5342 16.7922C26.2976 16.735 26.113 16.5507 26.0556 16.3147L25.6136 14.4958Z" fill="#212523"/>
<path fill-rule="evenodd" clip-rule="evenodd" d="M24.9819 15.1991L25.2976 16.4981C25.4237 17.0173 25.83 17.4227 26.3503 17.5487L27.6521 17.8636L26.3503 18.1786C25.83 18.3045 25.4237 18.7099 25.2976 19.2292L24.9819 20.5281L24.6663 19.2292C24.5401 18.7099 24.1338 18.3045 23.6135 18.1786L22.3118 17.8636L23.6135 17.5487C24.1338 17.4227 24.5401 17.0173 24.6663 16.4981L24.9819 15.1991ZM24.3502 14.4958C24.5108 13.8347 25.453 13.8347 25.6136 14.4958L26.0556 16.3147C26.113 16.5507 26.2976 16.735 26.5342 16.7922L28.3569 17.2333C29.0194 17.3936 29.0194 18.3337 28.3569 18.494L26.5342 18.9351C26.2976 18.9923 26.113 19.1766 26.0556 19.4126L25.6136 21.2315C25.453 21.8925 24.5108 21.8925 24.3502 21.2315L23.9082 19.4126C23.8509 19.1766 23.6662 18.9923 23.4297 18.9351L21.6069 18.494C20.9445 18.3337 20.9445 17.3936 21.6069 17.2333L23.4297 16.7922C23.6662 16.735 23.8509 16.5507 23.9082 16.3147L24.3502 14.4958Z" fill="#212523"/>
<path d="M21.1101 41.8182C21.1101 42.6717 21.8035 43.3636 22.6588 43.3636C23.5142 43.3636 24.2076 42.6717 24.2076 41.8182C24.2076 40.9647 23.5142 40.2727 22.6588 40.2727C21.8035 40.2727 21.1101 40.9647 21.1101 41.8182Z" fill="#212523"/>
<path d="M25.7563 46.4545C25.7563 47.3081 26.4497 48 27.305 48C28.1604 48 28.8538 47.3081 28.8538 46.4545C28.8538 45.601 28.1604 44.9091 27.305 44.9091C26.4497 44.9091 25.7563 45.601 25.7563 46.4545Z" fill="#212523"/>
</svg>
