<svg width="100" height="100" viewBox="0 0 100 100" fill="none" xmlns="http://www.w3.org/2000/svg">
<rect width="100" height="100" fill="#D1F24A"/>
<path d="M24 23.9871L40.7056 14.6443C40.4393 14.3824 40.1201 14.1728 39.73 13.9632L27.2277 6.94307C26.1282 6.33179 25.0641 6 24 6C22.936 6 21.8719 6.33179 20.7724 6.94307L8.26996 13.9632C7.87983 14.1728 7.56059 14.3824 7.29456 14.6443L24 23.9871ZM22.7941 44V26.0828L6.14187 16.7224C6.05319 17.1067 6 17.5258 6 18.0497V31.6535C6 34.1856 6.90443 35.1287 8.5537 36.0543L22.4394 43.8429C22.5636 43.9127 22.67 43.9651 22.7941 44ZM25.206 44C25.3301 43.9651 25.4365 43.9127 25.5607 43.8429L39.4464 36.0543C41.0956 35.1287 42 34.1856 42 31.6535V18.0497C42 17.5258 41.947 17.1067 41.8584 16.7224L25.206 26.0828V44Z" fill="#212523"/>
<path d="M62.3107 20.2005C62.58 19.404 63.4442 18.974 64.242 19.2395C65.0413 19.5057 65.4712 20.3692 65.2013 21.1673L62.1083 30.3136C61.839 31.1101 60.9748 31.5401 60.177 31.2746L51.0158 28.2261C50.2163 27.9601 49.7867 27.0966 50.0565 26.2983C50.3258 25.5018 51.19 25.0718 51.9878 25.3373L59.7043 27.9047L62.3107 20.2005Z" fill="#212523" stroke="#212523"/>
<path d="M44.6961 13.1088C47.5925 11.6675 50.1511 11.9383 52.1339 12.9833C54.0316 13.9835 55.3025 15.6333 55.9195 16.8731L61.0058 27.0945L60.4783 28.667L60.3184 29.1414L58.2719 28.4549L53.1856 18.2335C52.7862 17.4312 51.9203 16.3228 50.7098 15.6848C49.5841 15.0915 48.0616 14.8439 46.0561 15.8418C45.3014 16.2173 44.3852 15.9101 44.0096 15.1553C43.6342 14.4006 43.9415 13.4844 44.6961 13.1088Z" fill="#212523" stroke="#212523"/>
<path d="M60.6983 30.3341L60.7896 30.3181C60.7936 30.317 60.7973 30.3145 60.8014 30.3133C60.8269 30.3056 60.8524 30.2962 60.8774 30.2842C60.8942 30.2762 60.9105 30.2674 60.9264 30.2576C60.9292 30.2559 60.9319 30.2542 60.9347 30.2524C60.9581 30.2374 60.9802 30.2205 61.0012 30.2019L61.0112 30.2133L61.3341 30.5751L61.6623 30.9452L61.6666 30.9495C61.6189 30.992 61.5673 31.0294 61.5149 31.0654C61.5105 31.0684 61.5066 31.072 61.5022 31.075C61.4493 31.1106 61.3942 31.1425 61.3373 31.1712C61.335 31.1724 61.3331 31.1744 61.3308 31.1756C61.3224 31.1797 61.3129 31.1824 61.3046 31.1864C61.2813 31.1975 61.258 31.2083 61.2342 31.2182C61.2114 31.2276 61.1886 31.2364 61.1656 31.2447C61.1436 31.2526 61.1215 31.2599 61.0991 31.2668C61.0818 31.2722 61.0646 31.2782 61.0471 31.2829C61.0213 31.2899 60.9952 31.2955 60.9689 31.3011C60.9511 31.3049 60.9335 31.3092 60.9156 31.3123C60.8735 31.3198 60.8309 31.3261 60.7881 31.33L60.6983 30.3341Z" fill="#212523" stroke="#212523"/>
<path d="M92 27C96.4183 27 100 30.5817 100 35V100H36L35.5879 99.9893C31.3611 99.7748 28 96.2801 28 92V35C28 30.5817 31.5817 27 36 27H48.5039C48.1892 27.4182 48 27.9363 48 28.5C48 28.6712 48.017 28.8385 48.0498 29H36C32.6863 29 30 31.6863 30 35V92C30 95.3137 32.6863 98 36 98H98V35C98 31.6863 95.3137 29 92 29H67.9502C67.983 28.8385 68 28.6712 68 28.5C68 27.9363 67.8108 27.4182 67.4961 27H92Z" fill="#212523"/>
<path d="M44.2436 45.8225L44.9304 45.141L45.6161 45.8257L47.0387 47.2462L47.7286 47.933L47.0398 48.6229L42.5116 53.1521L44.7307 55.3713L46.7638 53.3382L47.4527 52.6494L48.1384 53.3382L49.5621 54.7567L50.2509 55.4444L49.5631 56.1333L47.5258 58.1685L49.7481 60.3908L51.7802 58.3546L52.4669 57.6678L53.1558 58.3546L54.5784 59.7762L55.2683 60.4619L54.5784 61.1507L52.5453 63.1859L54.2544 64.8939L64.8923 54.256L49.0279 38.3905C48.7737 38.1403 48.4313 38 48.0746 38C47.7179 38 47.3755 38.1403 47.1213 38.3905L38.391 47.1208C38.1405 47.375 38 47.7177 38 48.0746C38 48.4316 38.1405 48.7742 38.391 49.0285L39.7144 50.3497L44.0701 45.9929L44.2436 45.8225ZM83.5571 59.8566L73.1449 49.4455L66.0432 56.5473L54.9411 67.6483L43.5035 79.0838L44.0074 79.4277L45.8889 80.7113L46.0854 80.8451L46.1983 81.0541L46.3028 81.2402L48.2053 84.7775L51.9286 86.7813L52.1377 86.8942L52.2715 87.0907L53.4903 88.8813L53.9084 89.4991L65.3502 78.0583L78.0526 65.3559L83.5571 59.8566ZM94.61 83.9736L78.7466 68.1082L68.1066 78.7493L69.8157 80.4573L71.8498 78.4231L72.5376 77.7322L73.2264 78.4242L74.647 79.8479L75.3338 80.5346L74.647 81.2224L72.6129 83.2555L74.8331 85.4757L76.8682 83.4406L77.5571 82.7538L78.2449 83.4406L79.6644 84.8621L80.3533 85.55L79.6644 86.2378L77.6292 88.2719L79.8494 90.4921L84.2052 86.1343L84.3818 85.9597L85.0696 85.2771L85.7553 85.9628L87.1759 87.3834L87.8626 88.0733L87.1759 88.7611L82.6498 93.2872L83.9721 94.6085C84.2264 94.8593 84.5692 95 84.9264 95C85.2836 95 85.6265 94.8593 85.8808 94.6085L90.2459 90.2444L94.61 85.8761C94.8599 85.6219 95 85.2797 95 84.9233C95 84.5668 94.8599 84.2247 94.61 83.9705V83.9736ZM46.6656 86.7123L46.4084 86.5743L46.2704 86.3182L45.8837 85.6001L44.2279 82.5196L43.2067 81.8256L42.5042 81.3458L41.6168 86.8534L46.1513 91.3848L51.6495 90.5005L50.461 88.7559L46.6656 86.7123ZM92.1097 51.2999C92.3596 51.0457 92.4996 50.7035 92.4996 50.3471C92.4996 49.9906 92.3596 49.6485 92.1097 49.3943L83.6031 40.8898C83.3489 40.6399 83.0067 40.4998 82.6503 40.4998C82.2938 40.4998 81.9517 40.6399 81.6975 40.8898L76.9268 45.6616L87.3379 56.0737L92.1097 51.2999ZM85.6174 57.7932L75.2052 47.3821L74.8655 47.7218L85.2776 58.133L85.6174 57.7932ZM40.9656 90.8956L40.7492 92.2545L43.1847 91.8646L41.1412 89.8189L40.9656 90.8956Z" fill="#212523"/>
</svg>
