<svg width="100" height="100" viewBox="0 0 100 100" fill="none" xmlns="http://www.w3.org/2000/svg">
<rect width="100" height="100" fill="#D1F24A"/>
<path fill-rule="evenodd" clip-rule="evenodd" d="M72.9824 60.4991C74.4772 59.0043 76.9008 59.0043 78.3956 60.4991L86.0511 68.1546C87.546 69.6494 87.546 72.073 86.0511 73.5679C84.5563 75.0627 82.1327 75.0627 80.6379 73.5679L79.5167 72.4467V86.1722C79.5167 88.2863 77.803 90 75.689 90C73.575 90 71.8612 88.2863 71.8612 86.1722V72.4467L70.7401 73.5679C69.2453 75.0627 66.8217 75.0627 65.3269 73.5679C63.832 72.073 63.832 69.6494 65.3269 68.1546L72.9824 60.4991Z" fill="#212523"/>
<path d="M63.8604 51.7708C64.1571 51.6916 63.5606 51.7043 63.8604 51.7708C65.8545 51.016 68.5486 51.5981 69.523 52.2085C71.3145 53.3307 73.6766 52.7882 74.7989 50.9967C75.9212 49.2052 75.3786 46.8431 73.5871 45.7208C72.5263 45.0563 71.3611 44.3805 69.9472 44.0669C66.1194 43.218 63.37 43.9783 61.8865 44.3741C60.1833 44.8287 58.7073 45.8875 57.2364 46.9427L56.88 47.198L47.2891 54.0459C45.455 55.3554 45.2276 55.4603 45.0719 55.5081C44.8092 55.5889 44.5322 55.6121 44.2597 55.5762C44.0982 55.5549 43.8565 55.4893 41.8302 54.5032L39.8077 53.5189L39.4894 53.3635C38.155 52.711 36.8128 52.0547 35.3531 51.8327C34.0789 51.639 32.7787 51.7046 31.5305 52.0257C30.1006 52.3935 28.8314 53.1816 27.5694 53.9652L27.2683 54.1519L18.0745 62.436C16.2765 63.5478 15.7202 65.9067 16.832 67.7047C17.9437 69.5028 20.3026 70.0591 22.1007 68.9473L31.2945 60.6632C33.0744 59.5626 33.2891 59.478 33.4377 59.4398C33.6874 59.3756 33.9474 59.3625 34.2022 59.4012C34.3539 59.4243 34.576 59.4868 36.4578 60.4026L38.4802 61.3868L38.8237 61.5546C40.2569 62.2556 41.6974 62.9602 43.2595 63.1661C44.622 63.3456 46.0072 63.2296 47.3209 62.8259C48.8269 62.363 50.1301 61.4286 51.4267 60.4989L51.7375 60.2763L61.3285 53.4284C63.4205 51.9347 63.6863 51.8172 63.8604 51.7708Z" fill="#212523"/>
<path fill-rule="evenodd" clip-rule="evenodd" d="M11 44.067C11 25.2523 26.2523 10 45.067 10H52.7225C71.5372 10 86.7895 25.2523 86.7895 44.067V45.9809C86.7895 47.8835 85.2471 49.4258 83.3445 49.4258C81.4419 49.4258 79.8995 47.8835 79.8995 45.9809V44.067C79.8995 29.0575 67.7319 16.89 52.7225 16.89H45.067C30.0575 16.89 17.89 29.0575 17.89 44.067V51.7225C17.89 66.7319 30.0575 78.8995 45.067 78.8995H56.1473C58.0499 78.8995 59.5923 80.4419 59.5923 82.3445C59.5923 84.2471 58.0499 85.7895 56.1473 85.7895H45.067C26.2523 85.7895 11 70.5372 11 51.7225V44.067Z" fill="#212523"/>
<path d="M54.967 21.7296C53.2606 20.3449 50.8019 22.2047 51.6699 24.2235L54.0583 29.7783C54.3682 30.4991 54.2451 31.338 53.7393 31.9522L49.8414 36.6856C48.4248 38.4058 50.2555 40.8261 52.2963 39.9311L57.9119 37.4685C58.6405 37.149 59.4812 37.2588 60.0905 37.7532L64.7857 41.5632C66.492 42.9478 68.9507 41.0881 68.0827 39.0693L65.6944 33.5144C65.3845 32.7936 65.5076 31.9548 66.0133 31.3406L69.9112 26.6072C71.3278 24.8869 69.4972 22.4667 67.4563 23.3616L61.8408 25.8242C61.1121 26.1438 60.2714 26.0339 59.6622 25.5395L54.967 21.7296Z" fill="#212523"/>
<path fill-rule="evenodd" clip-rule="evenodd" d="M54.688 24.7872L58.0411 27.5081C59.3814 28.5956 61.231 28.8373 62.834 28.1344L66.8444 26.3757L64.0607 29.7561C62.948 31.1073 62.6772 32.9528 63.359 34.5385L65.0646 38.5056L61.7115 35.7847C60.3712 34.6971 58.5216 34.4554 56.9186 35.1584L52.9082 36.917L55.6919 33.5366C56.8046 32.1854 57.0754 30.3399 56.3936 28.7542L54.688 24.7872ZM51.6699 24.2235C50.8019 22.2047 53.2606 20.3449 54.967 21.7296L59.6622 25.5395C60.2714 26.0339 61.1121 26.1438 61.8408 25.8242L67.4563 23.3616C69.4972 22.4667 71.3278 24.8869 69.9112 26.6072L66.0133 31.3406C65.5076 31.9548 65.3845 32.7936 65.6944 33.5144L68.0827 39.0693C68.9507 41.0881 66.492 42.9478 64.7857 41.5632L60.0905 37.7532C59.4812 37.2588 58.6405 37.149 57.9119 37.4685L52.2963 39.9311C50.2555 40.8261 48.4248 38.4058 49.8414 36.6856L53.7393 31.9522C54.2451 31.338 54.3682 30.4991 54.0583 29.7783L51.6699 24.2235Z" fill="#212523"/>
<path d="M27.793 37.9304C28.8317 39.3037 30.8047 39.5615 32.1998 38.5063C33.5949 37.4511 33.8837 35.4824 32.845 34.1091C31.8063 32.7358 29.8333 32.478 28.4382 33.5332C27.0431 34.5885 26.7542 36.5571 27.793 37.9304Z" fill="#212523"/>
<path d="M49.8414 73.0106C50.8801 74.3839 52.8531 74.6417 54.2482 73.5865C55.6433 72.5312 55.9322 70.5625 54.8934 69.1893C53.8547 67.816 51.8817 67.5582 50.4866 68.6134C49.0915 69.6686 48.8027 71.6373 49.8414 73.0106Z" fill="#212523"/>
</svg>
