<svg width="100" height="100" viewBox="0 0 100 100" fill="none" xmlns="http://www.w3.org/2000/svg">
<g clip-path="url(#clip0_164_47)">
<rect width="100" height="100" fill="#D1F24A"/>
<path d="M24 23.9871L40.7056 14.6443C40.4393 14.3824 40.1201 14.1728 39.73 13.9632L27.2277 6.94307C26.1282 6.33179 25.0641 6 24 6C22.936 6 21.8719 6.33179 20.7724 6.94307L8.26996 13.9632C7.87983 14.1728 7.56059 14.3824 7.29456 14.6443L24 23.9871ZM22.7941 44V26.0828L6.14187 16.7224C6.05319 17.1067 6 17.5258 6 18.0497V31.6535C6 34.1856 6.90443 35.1287 8.5537 36.0543L22.4394 43.8429C22.5636 43.9127 22.67 43.9651 22.7941 44ZM25.206 44C25.3301 43.9651 25.4365 43.9127 25.5607 43.8429L39.4464 36.0543C41.0956 35.1287 42 34.1856 42 31.6535V18.0497C42 17.5258 41.947 17.1067 41.8584 16.7224L25.206 26.0828V44Z" fill="#212523"/>
<path d="M62.3107 20.2005C62.58 19.404 63.4442 18.974 64.242 19.2395C65.0413 19.5057 65.4712 20.3692 65.2013 21.1673L62.1083 30.3136C61.839 31.1101 60.9748 31.5401 60.177 31.2746L51.0158 28.2261C50.2163 27.9601 49.7867 27.0966 50.0565 26.2983C50.3258 25.5018 51.19 25.0718 51.9878 25.3373L59.7043 27.9047L62.3107 20.2005Z" fill="#212523" stroke="#212523"/>
<path d="M44.6961 13.1088C47.5925 11.6675 50.1511 11.9383 52.1339 12.9833C54.0316 13.9835 55.3025 15.6333 55.9195 16.8731L61.0058 27.0945L60.4783 28.667L60.3184 29.1414L58.2719 28.4549L53.1856 18.2335C52.7862 17.4312 51.9203 16.3228 50.7098 15.6848C49.5841 15.0915 48.0616 14.8439 46.0561 15.8418C45.3014 16.2173 44.3852 15.9101 44.0096 15.1553C43.6342 14.4006 43.9415 13.4844 44.6961 13.1088Z" fill="#212523" stroke="#212523"/>
<path d="M60.6983 30.3341L60.7896 30.3181C60.7936 30.317 60.7973 30.3145 60.8014 30.3133C60.8269 30.3056 60.8524 30.2962 60.8774 30.2842C60.8942 30.2762 60.9105 30.2674 60.9264 30.2576C60.9292 30.2559 60.9319 30.2542 60.9347 30.2524C60.9581 30.2374 60.9802 30.2205 61.0012 30.2019L61.0112 30.2133L61.3341 30.5751L61.6623 30.9452L61.6666 30.9495C61.6189 30.992 61.5673 31.0294 61.5149 31.0654C61.5105 31.0684 61.5066 31.072 61.5022 31.075C61.4493 31.1106 61.3942 31.1425 61.3373 31.1712C61.335 31.1724 61.3331 31.1744 61.3308 31.1756C61.3224 31.1797 61.3129 31.1824 61.3046 31.1864C61.2813 31.1975 61.258 31.2083 61.2342 31.2182C61.2114 31.2276 61.1886 31.2364 61.1656 31.2447C61.1436 31.2526 61.1215 31.2599 61.0991 31.2668C61.0818 31.2722 61.0646 31.2782 61.0471 31.2829C61.0213 31.2899 60.9952 31.2955 60.9689 31.3011C60.9511 31.3049 60.9335 31.3092 60.9156 31.3123C60.8735 31.3198 60.8309 31.3261 60.7881 31.33L60.6983 30.3341Z" fill="#212523" stroke="#212523"/>
<path d="M92 27C96.4183 27 100 30.5817 100 35V100H36L35.5879 99.9893C31.3611 99.7748 28 96.2801 28 92V35C28 30.5817 31.5817 27 36 27H48.5039C48.1892 27.4182 48 27.9363 48 28.5C48 28.6712 48.017 28.8385 48.0498 29H36C32.6863 29 30 31.6863 30 35V92C30 95.3137 32.6863 98 36 98H98V35C98 31.6863 95.3137 29 92 29H67.9502C67.983 28.8385 68 28.6712 68 28.5C68 27.9363 67.8108 27.4182 67.4961 27H92Z" fill="#212523"/>
<path d="M73.0833 53.5417C73.0833 54.2821 72.7892 54.9921 72.2657 55.5157C71.7421 56.0392 71.0321 56.3333 70.2917 56.3333C66.5897 56.3333 63.0393 57.8039 60.4216 60.4216C57.8039 63.0393 56.3333 66.5897 56.3333 70.2917C56.3333 71.0321 56.0392 71.7421 55.5157 72.2657C54.9921 72.7892 54.2821 73.0833 53.5417 73.0833C52.8013 73.0833 52.0912 72.7892 51.5677 72.2657C51.0441 71.7421 50.75 71.0321 50.75 70.2917C50.75 66.5897 49.2794 63.0393 46.6617 60.4216C44.044 57.8039 40.4936 56.3333 36.7917 56.3333C36.0513 56.3333 35.3412 56.0392 34.8177 55.5157C34.2941 54.9921 34 54.2821 34 53.5417C34 52.8013 34.2941 52.0912 34.8177 51.5677C35.3412 51.0441 36.0513 50.75 36.7917 50.75C40.4936 50.75 44.044 49.2794 46.6617 46.6617C49.2794 44.044 50.75 40.4936 50.75 36.7917C50.75 36.0513 51.0441 35.3412 51.5677 34.8177C52.0912 34.2941 52.8013 34 53.5417 34C54.2821 34 54.9921 34.2941 55.5157 34.8177C56.0392 35.3412 56.3333 36.0513 56.3333 36.7917C56.3333 40.4936 57.8039 44.044 60.4216 46.6617C63.0393 49.2794 66.5897 50.75 70.2917 50.75C71.0321 50.75 71.7421 51.0441 72.2657 51.5677C72.7892 52.0912 73.0833 52.8013 73.0833 53.5417Z" fill="#212523"/>
<path d="M75.8751 89.8327C75.8751 90.5731 75.581 91.2832 75.0574 91.8067C74.5339 92.3302 73.8238 92.6243 73.0834 92.6243C71.6026 92.6243 70.1825 93.2126 69.1354 94.2597C68.0883 95.3067 67.5001 96.7269 67.5001 98.2077C67.5001 98.9481 67.206 99.6582 66.6824 100.182C66.1589 100.705 65.4488 100.999 64.7084 100.999C63.968 100.999 63.2579 100.705 62.7344 100.182C62.2109 99.6582 61.9167 98.9481 61.9167 98.2077C61.9167 96.7269 61.3285 95.3067 60.2814 94.2597C59.2343 93.2126 57.8142 92.6243 56.3334 92.6243C55.593 92.6243 54.8829 92.3302 54.3594 91.8067C53.8359 91.2832 53.5417 90.5731 53.5417 89.8327C53.5417 89.0923 53.8359 88.3822 54.3594 87.8587C54.8829 87.3351 55.593 87.041 56.3334 87.041C57.8142 87.041 59.2343 86.4528 60.2814 85.4057C61.3285 84.3586 61.9167 82.9385 61.9167 81.4577C61.9167 80.7173 62.2109 80.0072 62.7344 79.4837C63.2579 78.9601 63.968 78.666 64.7084 78.666C65.4488 78.666 66.1589 78.9601 66.6824 79.4837C67.206 80.0072 67.5001 80.7173 67.5001 81.4577C67.5001 82.9385 68.0883 84.3586 69.1354 85.4057C70.1825 86.4528 71.6026 87.041 73.0834 87.041C73.8238 87.041 74.5339 87.3351 75.0574 87.8587C75.581 88.3822 75.8751 89.0923 75.8751 89.8327Z" fill="#212523"/>
<path d="M101 70.291C101 71.0314 100.706 71.7415 100.182 72.265C99.6588 72.7886 98.9487 73.0827 98.2083 73.0827C95.2467 73.0827 92.4065 74.2592 90.3123 76.3533C88.2182 78.4475 87.0417 81.2878 87.0417 84.2493C87.0417 84.9897 86.7475 85.6998 86.224 86.2234C85.7005 86.7469 84.9904 87.041 84.25 87.041C83.5096 87.041 82.7995 86.7469 82.276 86.2234C81.7525 85.6998 81.4583 84.9897 81.4583 84.2493C81.4583 81.2878 80.2818 78.4475 78.1877 76.3533C76.0935 74.2592 73.2533 73.0827 70.2917 73.0827C69.5513 73.0827 68.8412 72.7886 68.3177 72.265C67.7941 71.7415 67.5 71.0314 67.5 70.291C67.5 69.5506 67.7941 68.8405 68.3177 68.317C68.8412 67.7935 69.5513 67.4993 70.2917 67.4993C73.2533 67.4993 76.0935 66.3229 78.1877 64.2287C80.2818 62.1346 81.4583 59.2943 81.4583 56.3327C81.4583 55.5923 81.7525 54.8822 82.276 54.3587C82.7995 53.8351 83.5096 53.541 84.25 53.541C84.9904 53.541 85.7005 53.8351 86.224 54.3587C86.7475 54.8822 87.0417 55.5923 87.0417 56.3327C87.0417 59.2943 88.2182 62.1346 90.3123 64.2287C92.4065 66.3229 95.2467 67.4993 98.2083 67.4993C98.9487 67.4993 99.6588 67.7935 100.182 68.317C100.706 68.8405 101 69.5506 101 70.291Z" fill="#212523"/>
</g>
<defs>
<clipPath id="clip0_164_47">
<rect width="100" height="100" fill="white"/>
</clipPath>
</defs>
</svg>
