<svg width="100" height="100" viewBox="0 0 100 100" fill="none" xmlns="http://www.w3.org/2000/svg">
<rect width="100" height="100" fill="#D1F24A"/>
<path d="M24 23.9871L40.7056 14.6443C40.4393 14.3824 40.1201 14.1728 39.73 13.9632L27.2277 6.94307C26.1282 6.33179 25.0641 6 24 6C22.936 6 21.8719 6.33179 20.7724 6.94307L8.26996 13.9632C7.87983 14.1728 7.56059 14.3824 7.29456 14.6443L24 23.9871ZM22.7941 44V26.0828L6.14187 16.7224C6.05319 17.1067 6 17.5258 6 18.0497V31.6535C6 34.1856 6.90443 35.1287 8.5537 36.0543L22.4394 43.8429C22.5636 43.9127 22.67 43.9651 22.7941 44ZM25.206 44C25.3301 43.9651 25.4365 43.9127 25.5607 43.8429L39.4464 36.0543C41.0956 35.1287 42 34.1856 42 31.6535V18.0497C42 17.5258 41.947 17.1067 41.8584 16.7224L25.206 26.0828V44Z" fill="#212523"/>
<path d="M62.3107 20.2005C62.58 19.404 63.4442 18.974 64.242 19.2395C65.0413 19.5057 65.4712 20.3692 65.2013 21.1673L62.1083 30.3136C61.839 31.1101 60.9748 31.5401 60.177 31.2746L51.0158 28.2261C50.2163 27.9601 49.7867 27.0966 50.0565 26.2983C50.3258 25.5018 51.19 25.0718 51.9878 25.3373L59.7043 27.9047L62.3107 20.2005Z" fill="#212523" stroke="#212523"/>
<path d="M44.6961 13.1088C47.5925 11.6675 50.1511 11.9383 52.1339 12.9833C54.0316 13.9835 55.3025 15.6333 55.9195 16.8731L61.0058 27.0945L60.4783 28.667L60.3184 29.1414L58.2719 28.4549L53.1856 18.2335C52.7862 17.4312 51.9203 16.3228 50.7098 15.6848C49.5841 15.0915 48.0616 14.8439 46.0561 15.8418C45.3014 16.2173 44.3852 15.9101 44.0096 15.1553C43.6342 14.4006 43.9415 13.4844 44.6961 13.1088Z" fill="#212523" stroke="#212523"/>
<path d="M60.6983 30.3341L60.7896 30.3181C60.7936 30.317 60.7973 30.3145 60.8014 30.3133C60.8269 30.3056 60.8524 30.2962 60.8774 30.2842C60.8942 30.2762 60.9105 30.2674 60.9264 30.2576C60.9292 30.2559 60.9319 30.2542 60.9347 30.2524C60.9581 30.2374 60.9802 30.2205 61.0012 30.2019L61.0112 30.2133L61.3341 30.5751L61.6623 30.9452L61.6666 30.9495C61.6189 30.992 61.5673 31.0294 61.5149 31.0654C61.5105 31.0684 61.5066 31.072 61.5022 31.075C61.4493 31.1106 61.3942 31.1425 61.3373 31.1712C61.335 31.1724 61.3331 31.1744 61.3308 31.1756C61.3224 31.1797 61.3129 31.1824 61.3046 31.1864C61.2813 31.1975 61.258 31.2083 61.2342 31.2182C61.2114 31.2276 61.1886 31.2364 61.1656 31.2447C61.1436 31.2526 61.1215 31.2599 61.0991 31.2668C61.0818 31.2722 61.0646 31.2782 61.0471 31.2829C61.0213 31.2899 60.9952 31.2955 60.9689 31.3011C60.9511 31.3049 60.9335 31.3092 60.9156 31.3123C60.8735 31.3198 60.8309 31.3261 60.7881 31.33L60.6983 30.3341Z" fill="#212523" stroke="#212523"/>
<path d="M92 27C96.4183 27 100 30.5817 100 35V100H36L35.5879 99.9893C31.3611 99.7748 28 96.2801 28 92V35C28 30.5817 31.5817 27 36 27H48.5039C48.1892 27.4182 48 27.9363 48 28.5C48 28.6712 48.017 28.8385 48.0498 29H36C32.6863 29 30 31.6863 30 35V92C30 95.3137 32.6863 98 36 98H98V35C98 31.6863 95.3137 29 92 29H67.9502C67.983 28.8385 68 28.6712 68 28.5C68 27.9363 67.8108 27.4182 67.4961 27H92Z" fill="#212523"/>
<path d="M43 54.2317C43 48.5809 47.5809 44 53.2317 44H62.1159C64.4955 44 66.4247 45.9291 66.4247 48.3088C66.4247 50.6885 64.4955 52.6177 62.1159 52.6177H53.2317C52.3403 52.6177 51.6177 53.3403 51.6177 54.2317V70.6526H68.0386C70.4183 70.6526 72.3474 72.5817 72.3474 74.9614V91.3823H88.7684C89.6599 91.3823 90.3823 90.6599 90.3823 89.7684V80.8842C90.3823 78.5045 92.3115 76.5754 94.6912 76.5754C97.0709 76.5754 99 78.5045 99 80.8842V89.7684C99 95.4193 94.4193 100 88.7684 100H53.2317C47.5809 100 43 95.4193 43 89.7684V54.2317ZM51.6177 89.7684C51.6177 90.6598 52.3403 91.3823 53.2317 91.3823H63.7298V79.2702H51.6177V89.7684ZM99 60.1544C99 62.5341 97.0709 64.4632 94.6912 64.4632C92.3115 64.4632 90.3823 62.5341 90.3823 60.1544V58.7112L78.4889 70.6047C76.8062 72.2874 74.078 72.2874 72.3953 70.6047C70.7126 68.922 70.7126 66.1938 72.3953 64.5111L84.2888 52.6177H82.8456C80.4659 52.6177 78.5368 50.6885 78.5368 48.3088C78.5368 45.9291 80.4659 44 82.8456 44H94.6912C97.0709 44 99 45.9291 99 48.3088V60.1544Z" fill="#212523"/>
<rect x="94" y="93" width="6" height="7" fill="#212523"/>
</svg>
