<svg width="100" height="100" viewBox="0 0 100 100" fill="none" xmlns="http://www.w3.org/2000/svg">
<rect width="100" height="100" fill="#D1F24A"/>
<path d="M69.6364 17.2447C69.6364 19.0593 68.1711 20.5304 66.3636 20.5304C64.5562 20.5304 63.0909 19.0593 63.0909 17.2447C63.0909 15.43 64.5562 13.959 66.3636 13.959C68.1711 13.959 69.6364 15.43 69.6364 17.2447Z" fill="#212523"/>
<path d="M20.8469 15.013C21.1864 13.6076 23.1773 13.6076 23.5167 15.013L24.4507 18.8801C24.5719 19.3819 24.9621 19.7737 25.4619 19.8954L29.3137 20.8331C30.7136 21.1739 30.7136 23.1727 29.3137 23.5135L25.4619 24.4512C25.3995 24.4664 25.3387 24.4858 25.28 24.5092C24.8688 24.6725 24.5568 25.0274 24.4507 25.4664L23.5167 29.3335C23.4955 29.4213 23.4678 29.5037 23.4345 29.5805C22.9349 30.7334 21.1651 30.6511 20.8469 29.3335L19.9129 25.4664C19.9053 25.435 19.8967 25.4041 19.8871 25.3737C19.7425 24.9167 19.3703 24.5653 18.9017 24.4512L15.0499 23.5135C14.9624 23.4922 14.8804 23.4644 14.8038 23.431C13.6555 22.9293 13.7375 21.1526 15.0499 20.8331L18.9017 19.8954C19.4015 19.7737 19.7917 19.3819 19.9129 18.8801L20.8469 15.013Z" fill="#212523"/>
<path d="M86 23.8161C86 25.6308 84.5347 27.1018 82.7273 27.1018C80.9198 27.1018 79.4545 25.6308 79.4545 23.8161C79.4545 22.0015 80.9198 20.5304 82.7273 20.5304C84.5347 20.5304 86 22.0015 86 23.8161Z" fill="#212523"/>
<path d="M30.3636 71.459C30.3636 73.2736 28.8984 74.7447 27.0909 74.7447C25.2834 74.7447 23.8182 73.2736 23.8182 71.459C23.8182 69.6443 25.2834 68.1733 27.0909 68.1733C28.8984 68.1733 30.3636 69.6443 30.3636 71.459Z" fill="#212523"/>
<path fill-rule="evenodd" clip-rule="evenodd" d="M66.3636 58.3161C66.3636 67.3894 59.0374 74.7447 50 74.7447C40.9626 74.7447 33.6364 67.3894 33.6364 58.3161C33.6364 49.2429 40.9626 41.8876 50 41.8876C59.0374 41.8876 66.3636 49.2429 66.3636 58.3161ZM60.8 58.3161C60.8 64.3045 55.9647 69.159 50 69.159C44.0353 69.159 39.2 64.3045 39.2 58.3161C39.2 52.3278 44.0353 47.4733 50 47.4733C55.9647 47.4733 60.8 52.3278 60.8 58.3161Z" fill="#212523"/>
<path fill-rule="evenodd" clip-rule="evenodd" d="M39.0002 29.2333C40.603 25.9133 43.8795 23.8161 47.4636 23.8161H52.5364C56.1205 23.8161 59.397 25.9133 60.9998 29.2333L62.3094 31.9458C62.9562 33.2855 64.2783 34.1317 65.7245 34.1317H74.9012C80.1271 34.1317 84.3636 38.5193 84.3636 43.9316V73.1591C84.3636 78.5714 80.1271 82.959 74.9012 82.959H25.0988C19.8728 82.959 15.6364 78.5714 15.6364 73.1591V43.9316C15.6364 38.5193 19.8728 34.1317 25.0988 34.1317H34.2755C35.7217 34.1317 37.0438 33.2855 37.6906 31.9458L39.0002 29.2333ZM47.4636 29.6616C46.0174 29.6616 44.6953 30.5079 44.0485 31.8475L42.739 34.56C41.1361 37.8801 37.8596 39.9773 34.2755 39.9773H25.0988C22.9901 39.9773 21.2806 41.7477 21.2806 43.9316V73.1591C21.2806 75.3431 22.9901 77.1135 25.0988 77.1135H74.9012C77.0099 77.1135 78.7194 75.3431 78.7194 73.1591V43.9316C78.7194 41.7477 77.0099 39.9773 74.9012 39.9773H65.7245C62.1404 39.9773 58.8639 37.8801 57.261 34.56L55.9515 31.8475C55.3047 30.5079 53.9826 29.6616 52.5364 29.6616H47.4636Z" fill="#212523"/>
</svg>
