<svg width="100" height="100" viewBox="0 0 100 100" fill="none" xmlns="http://www.w3.org/2000/svg">
<g clip-path="url(#clip0_164_32)">
<rect width="100" height="100" fill="#D1F24A"/>
<path fill-rule="evenodd" clip-rule="evenodd" d="M62.6269 68.8769C63.8961 67.6077 65.9539 67.6077 67.2231 68.8769L73.7231 75.3769C74.9923 76.6461 74.9923 78.7039 73.7231 79.9731C72.4539 81.2423 70.3961 81.2423 69.1269 79.9731L68.175 79.0212V90.675C68.175 92.4699 66.7199 93.925 64.925 93.925C63.1301 93.925 61.675 92.4699 61.675 90.675V79.0212L60.7231 79.9731C59.4539 81.2423 57.3961 81.2423 56.1269 79.9731C54.8577 78.7039 54.8577 76.6461 56.1269 75.3769L62.6269 68.8769Z" fill="#212523"/>
<path d="M54.8817 61.466C55.1337 61.3988 54.6272 61.4096 54.8817 61.466C56.5749 60.8252 58.8623 61.3193 59.6897 61.8376C61.2108 62.7905 63.2164 62.3299 64.1692 60.8088C65.1221 59.2877 64.6615 57.2821 63.1404 56.3292C62.2397 55.765 61.2503 55.1912 60.0498 54.925C56.7998 54.2041 54.4654 54.8497 53.2058 55.1858C51.7597 55.5717 50.5065 56.4707 49.2576 57.3667L48.955 57.5834L40.8117 63.3977C39.2545 64.5096 39.0614 64.5986 38.9292 64.6393C38.7061 64.7078 38.4709 64.7275 38.2395 64.697C38.1024 64.679 37.8972 64.6233 36.1767 63.786L34.4596 62.9503L34.1893 62.8183C33.0563 62.2643 31.9167 61.7071 30.6773 61.5186C29.5954 61.3541 28.4915 61.4098 27.4317 61.6824C26.2176 61.9947 25.1399 62.6639 24.0684 63.3292L23.8128 63.4877L16.0067 70.5215C14.4801 71.4654 14.0077 73.4683 14.9517 74.9949C15.8957 76.5216 17.8985 76.9939 19.4252 76.05L27.2313 69.0162C28.7426 68.0817 28.9248 68.0099 29.051 67.9775C29.263 67.923 29.4838 67.9118 29.7001 67.9447C29.8289 67.9643 30.0175 68.0174 31.6152 68.7949L33.3324 69.6306L33.6241 69.773C34.841 70.3683 36.064 70.9665 37.3903 71.1413C38.5472 71.2938 39.7233 71.1952 40.8387 70.8524C42.1174 70.4595 43.2239 69.6661 44.3248 68.8767L44.5887 68.6877L52.7321 62.8734C54.5083 61.6052 54.734 61.5054 54.8817 61.466Z" fill="#212523"/>
<path fill-rule="evenodd" clip-rule="evenodd" d="M10 54.925C10 38.9502 22.9502 26 38.925 26H45.425C61.3998 26 74.35 38.9502 74.35 54.925V56.55C74.35 58.1654 73.0404 59.475 71.425 59.475C69.8096 59.475 68.5 58.1654 68.5 56.55V54.925C68.5 42.181 58.169 31.85 45.425 31.85H38.925C26.181 31.85 15.85 42.181 15.85 54.925V61.425C15.85 74.169 26.181 84.5 38.925 84.5H48.3329C49.9483 84.5 51.2579 85.8096 51.2579 87.425C51.2579 89.0404 49.9483 90.35 48.3329 90.35H38.925C22.9502 90.35 10 77.3998 10 61.425V54.925Z" fill="#212523"/>
<path d="M34.05 51.675C36.7424 51.675 38.925 49.4924 38.925 46.8C38.925 44.1076 36.7424 41.925 34.05 41.925C31.3576 41.925 29.175 44.1076 29.175 46.8C29.175 49.4924 31.3576 51.675 34.05 51.675Z" fill="#212523"/>
<path d="M73.3306 13.9589C71.8818 12.7833 69.7943 14.3623 70.5313 16.0764L72.5591 20.7928C72.8222 21.4048 72.7177 22.1171 72.2883 22.6385L68.9787 26.6575C67.7759 28.1181 69.3303 30.173 71.0631 29.4131L75.831 27.3223C76.4497 27.051 77.1635 27.1442 77.6808 27.564L81.6673 30.7989C83.1162 31.9745 85.2037 30.3955 84.4667 28.6814L82.4389 23.965C82.1758 23.353 82.2803 22.6407 82.7097 22.1192L86.0193 18.1003C87.222 16.6397 85.6677 14.5848 83.9349 15.3446L79.1669 17.4355C78.5483 17.7068 77.8344 17.6135 77.3172 17.1938L73.3306 13.9589Z" fill="#212523"/>
<path fill-rule="evenodd" clip-rule="evenodd" d="M73.0938 16.555L75.9408 18.8652C77.0788 19.7886 78.6492 19.9938 80.0103 19.397L83.4153 17.9038L81.0518 20.7739C80.107 21.9212 79.8771 23.4882 80.456 24.8345L81.9042 28.2028L79.0572 25.8926C77.9192 24.9691 76.3488 24.7639 74.9877 25.3608L71.5826 26.854L73.9462 23.9839C74.8909 22.8366 75.1209 21.2696 74.542 19.9233L73.0938 16.555ZM70.5313 16.0764C69.7943 14.3623 71.8818 12.7833 73.3306 13.9589L77.3172 17.1938C77.8344 17.6135 78.5483 17.7068 79.1669 17.4355L83.9349 15.3446C85.6677 14.5848 87.222 16.6397 86.0193 18.1003L82.7097 22.1192C82.2803 22.6407 82.1758 23.353 82.4389 23.965L84.4667 28.6814C85.2037 30.3955 83.1162 31.9745 81.6673 30.7989L77.6808 27.564C77.1635 27.1442 76.4497 27.051 75.831 27.3223L71.0631 29.4131C69.3303 30.173 67.7759 28.1181 68.9787 26.6575L72.2883 22.6385C72.7177 22.1171 72.8222 21.4048 72.5591 20.7928L70.5313 16.0764Z" fill="#212523"/>
<path d="M55.5968 15.7117C56.4788 16.8777 58.154 17.0966 59.3385 16.2007C60.523 15.3047 60.7682 13.6332 59.8863 12.4672C59.0043 11.3012 57.3291 11.0823 56.1446 11.9782C54.9601 12.8742 54.7149 14.5457 55.5968 15.7117Z" fill="#212523"/>
<path d="M77.9538 45.2688C78.8358 46.4348 80.511 46.6537 81.6955 45.7578C82.88 44.8618 83.1252 43.1903 82.2433 42.0243C81.3613 40.8583 79.6861 40.6394 78.5016 41.5353C77.3171 42.4313 77.0719 44.1028 77.9538 45.2688Z" fill="#212523"/>
</g>
<defs>
<clipPath id="clip0_164_32">
<rect width="100" height="100" fill="white"/>
</clipPath>
</defs>
</svg>
