<svg width="100" height="100" viewBox="0 0 100 100" fill="none" xmlns="http://www.w3.org/2000/svg">
<g clip-path="url(#clip0_163_3)">
<rect width="100" height="100" fill="#D1F24A"/>
<path d="M24 23.9871L40.7056 14.6443C40.4393 14.3824 40.1201 14.1728 39.73 13.9632L27.2277 6.94307C26.1282 6.33179 25.0641 6 24 6C22.936 6 21.8719 6.33179 20.7724 6.94307L8.26996 13.9632C7.87983 14.1728 7.56059 14.3824 7.29456 14.6443L24 23.9871ZM22.7941 44V26.0828L6.14187 16.7224C6.05319 17.1067 6 17.5258 6 18.0497V31.6535C6 34.1856 6.90443 35.1287 8.5537 36.0543L22.4394 43.8429C22.5636 43.9127 22.67 43.9651 22.7941 44ZM25.206 44C25.3301 43.9651 25.4365 43.9127 25.5607 43.8429L39.4464 36.0543C41.0956 35.1287 42 34.1856 42 31.6535V18.0497C42 17.5258 41.947 17.1067 41.8584 16.7224L25.206 26.0828V44Z" fill="#212523"/>
<path fill-rule="evenodd" clip-rule="evenodd" d="M35 92.592H43.2656V37.282C43.2656 36.7991 43.6643 36.4004 44.1472 36.4004H72.1447C72.6277 36.4004 73.0263 36.7991 73.0263 37.282V58.019H97.8007C98.2836 58.019 98.6823 58.4177 98.6823 58.9006V92.5864H104V99.8806H35V92.592ZM50.3408 44.7222H56.0683C56.2424 44.7222 56.3884 44.8682 56.3884 45.0422V51.9827C56.3884 52.1567 56.2424 52.3027 56.0683 52.3027H50.3408C50.1667 52.3027 50.0207 52.1567 50.0207 51.9827V45.0422C50.0207 44.8682 50.1667 44.7222 50.3408 44.7222ZM60.0439 79.2446H65.7715C65.9455 79.2446 66.0915 79.3906 66.0915 79.5647V86.5051C66.0915 86.6792 65.9455 86.8252 65.7715 86.8252H60.0439C59.8699 86.8252 59.7239 86.6792 59.7239 86.5051V79.5647C59.7239 79.385 59.8699 79.2446 60.0439 79.2446ZM50.3408 79.2446H56.0683C56.2424 79.2446 56.3884 79.3906 56.3884 79.5647V86.5051C56.3884 86.6792 56.2424 86.8252 56.0683 86.8252H50.3408C50.1667 86.8252 50.0207 86.6792 50.0207 86.5051V79.5647C50.0207 79.385 50.1667 79.2446 50.3408 79.2446ZM60.0439 67.7334H65.7715C65.9455 67.7334 66.0915 67.8794 66.0915 68.0534V74.9939C66.0915 75.1679 65.9455 75.3139 65.7715 75.3139H60.0439C59.8699 75.3139 59.7239 75.1679 59.7239 74.9939V68.0591C59.7239 67.8794 59.8699 67.7334 60.0439 67.7334ZM50.3408 67.7334H56.0683C56.2424 67.7334 56.3884 67.8794 56.3884 68.0534V74.9939C56.3884 75.1679 56.2424 75.3139 56.0683 75.3139H50.3408C50.1667 75.3139 50.0207 75.1679 50.0207 74.9939V68.0591C50.0207 67.8794 50.1667 67.7334 50.3408 67.7334ZM60.0439 56.2278H65.7715C65.9455 56.2278 66.0915 56.3738 66.0915 56.5478V63.4883C66.0915 63.6623 65.9455 63.8083 65.7715 63.8083H60.0439C59.8699 63.8083 59.7239 63.6623 59.7239 63.4883V56.5478C59.7239 56.3738 59.8699 56.2278 60.0439 56.2278ZM50.3408 56.2278H56.0683C56.2424 56.2278 56.3884 56.3738 56.3884 56.5478V63.4883C56.3884 63.6623 56.2424 63.8083 56.0683 63.8083H50.3408C50.1667 63.8083 50.0207 63.6623 50.0207 63.4883V56.5478C50.0207 56.3738 50.1667 56.2278 50.3408 56.2278ZM60.0439 44.7222H65.7715C65.9455 44.7222 66.0915 44.8682 66.0915 45.0422V51.9827C66.0915 52.1567 65.9455 52.3027 65.7715 52.3027H60.0439C59.8699 52.3027 59.7239 52.1567 59.7239 51.9827V45.0422C59.7239 44.8682 59.8699 44.7222 60.0439 44.7222ZM48.0105 40.5107H68.1804C68.5285 40.5107 68.8149 40.8533 68.8149 41.2688V89.4868C68.8149 89.9023 68.5285 90.2448 68.1804 90.2448H48.0105C47.6623 90.2448 47.376 89.9023 47.376 89.4868V41.2688C47.376 40.8533 47.6623 40.5107 48.0105 40.5107ZM75.7722 66.4026H81.4997C81.6738 66.4026 81.8198 66.5486 81.8198 66.7226V73.6631C81.8198 73.8371 81.6738 73.9831 81.4997 73.9831H75.7722C75.5981 73.9831 75.4521 73.8371 75.4521 73.6631V66.7226C75.4521 66.5486 75.5981 66.4026 75.7722 66.4026ZM85.4753 79.2446H91.2028C91.3769 79.2446 91.5229 79.3906 91.5229 79.5647V86.5051C91.5229 86.6792 91.3769 86.8252 91.2028 86.8252H85.4753C85.3012 86.8252 85.1552 86.6792 85.1552 86.5051V79.5647C85.1552 79.385 85.3012 79.2446 85.4753 79.2446ZM75.7722 79.2446H81.4997C81.6738 79.2446 81.8198 79.3906 81.8198 79.5647V86.5051C81.8198 86.6792 81.6738 86.8252 81.4997 86.8252H75.7722C75.5981 86.8252 75.4521 86.6792 75.4521 86.5051V79.5647C75.4521 79.385 75.5981 79.2446 75.7722 79.2446ZM85.4753 66.4026H91.2028C91.3769 66.4026 91.5229 66.5486 91.5229 66.7226V73.6631C91.5229 73.8371 91.3769 73.9831 91.2028 73.9831H85.4753C85.3012 73.9831 85.1552 73.8371 85.1552 73.6631V66.7226C85.1552 66.5486 85.3012 66.4026 85.4753 66.4026ZM73.6665 62.1294H93.8364C94.1845 62.1294 94.4709 62.4719 94.4709 62.8874V89.4868C94.4709 89.9023 94.1845 90.2448 93.8364 90.2448H73.6665C73.3183 90.2448 73.032 89.9023 73.032 89.4868V62.8874C73.032 62.4719 73.3183 62.1294 73.6665 62.1294Z" fill="#212523"/>
<path d="M62.3107 20.2005C62.58 19.404 63.4442 18.974 64.242 19.2395C65.0413 19.5057 65.4712 20.3692 65.2013 21.1673L62.1083 30.3136C61.839 31.1101 60.9748 31.5401 60.177 31.2746L51.0158 28.2261C50.2163 27.9601 49.7867 27.0966 50.0565 26.2983C50.3258 25.5018 51.19 25.0718 51.9878 25.3373L59.7043 27.9047L62.3107 20.2005Z" fill="#212523" stroke="#212523"/>
<path d="M44.6961 13.1088C47.5925 11.6675 50.1511 11.9383 52.1339 12.9833C54.0316 13.9835 55.3025 15.6333 55.9195 16.8731L61.0058 27.0945L60.4783 28.667L60.3184 29.1414L58.2719 28.4549L53.1856 18.2335C52.7862 17.4312 51.9203 16.3228 50.7098 15.6848C49.5841 15.0915 48.0616 14.8439 46.0561 15.8418C45.3014 16.2173 44.3852 15.9101 44.0096 15.1553C43.6342 14.4006 43.9415 13.4844 44.6961 13.1088Z" fill="#212523" stroke="#212523"/>
<path d="M60.6983 30.3341L60.7896 30.3181C60.7936 30.317 60.7973 30.3145 60.8014 30.3133C60.8269 30.3056 60.8524 30.2962 60.8774 30.2842C60.8942 30.2762 60.9105 30.2674 60.9264 30.2576C60.9292 30.2559 60.9319 30.2542 60.9347 30.2524C60.9581 30.2374 60.9802 30.2205 61.0012 30.2019L61.0112 30.2133L61.3341 30.5751L61.6623 30.9452L61.6666 30.9495C61.6189 30.992 61.5673 31.0294 61.5149 31.0654C61.5105 31.0684 61.5066 31.072 61.5022 31.075C61.4493 31.1106 61.3942 31.1425 61.3373 31.1712C61.335 31.1724 61.3331 31.1744 61.3308 31.1756C61.3224 31.1797 61.3129 31.1824 61.3046 31.1864C61.2813 31.1975 61.258 31.2083 61.2342 31.2182C61.2114 31.2276 61.1886 31.2364 61.1656 31.2447C61.1436 31.2526 61.1215 31.2599 61.0991 31.2668C61.0818 31.2722 61.0646 31.2782 61.0471 31.2829C61.0213 31.2899 60.9952 31.2955 60.9689 31.3011C60.9511 31.3049 60.9335 31.3092 60.9156 31.3123C60.8735 31.3198 60.8309 31.3261 60.7881 31.33L60.6983 30.3341Z" fill="#212523" stroke="#212523"/>
<path d="M92 27C96.4183 27 100 30.5817 100 35V92C100 96.2801 96.6389 99.7748 92.4121 99.9893L92 100H36L35.5879 99.9893C31.3611 99.7748 28 96.2801 28 92V35C28 30.5817 31.5817 27 36 27H48.5039C48.1892 27.4182 48 27.9363 48 28.5C48 28.6712 48.017 28.8385 48.0498 29H36C32.6863 29 30 31.6863 30 35V92C30 95.3137 32.6863 98 36 98H92C95.3137 98 98 95.3137 98 92V35C98 31.6863 95.3137 29 92 29H67.9502C67.983 28.8385 68 28.6712 68 28.5C68 27.9363 67.8108 27.4182 67.4961 27H92Z" fill="#212523"/>
</g>
<defs>
<clipPath id="clip0_163_3">
<rect width="100" height="100" fill="white"/>
</clipPath>
</defs>
</svg>
