<svg width="100" height="100" viewBox="0 0 100 100" fill="none" xmlns="http://www.w3.org/2000/svg">
<rect width="100" height="100" fill="#D1F24A"/>
<path d="M32.857 21.6376C32.857 23.7498 31.1514 25.4622 29.0475 25.4622C26.9435 25.4622 25.238 23.7498 25.238 21.6376C25.238 19.5253 26.9435 17.8129 29.0475 17.8129C31.1514 17.8129 32.857 19.5253 32.857 21.6376Z" fill="#212523"/>
<path d="M48.5822 47.9795C48.9773 46.3436 51.2948 46.3436 51.6899 47.9795L52.7771 52.4809C52.9182 53.065 53.3724 53.521 53.9542 53.6627L58.4377 54.7542C60.0672 55.1509 60.0672 57.4775 58.4377 57.8742L53.9542 58.9657C53.8814 58.9834 53.8107 59.006 53.7423 59.0332C53.2637 59.2234 52.9005 59.6364 52.7771 60.1475L51.6899 64.6488C51.6652 64.7511 51.633 64.8469 51.5942 64.9364C51.0126 66.2784 48.9526 66.1825 48.5822 64.6488L47.495 60.1475C47.4861 60.111 47.4761 60.075 47.4649 60.0395C47.2966 59.5076 46.8633 59.0985 46.3179 58.9657L41.8343 57.8742C41.7325 57.8494 41.637 57.8171 41.5479 57.7782C40.2112 57.1942 40.3067 55.1261 41.8343 54.7542L46.3179 53.6627C46.8997 53.521 47.3539 53.065 47.495 52.4809L48.5822 47.9795Z" fill="#212523"/>
<path d="M79.9999 43.2401C79.9999 45.3524 78.2943 47.0647 76.1903 47.0647C74.0864 47.0647 72.3808 45.3524 72.3808 43.2401C72.3808 41.1278 74.0864 39.4155 76.1903 39.4155C78.2943 39.4155 79.9999 41.1278 79.9999 43.2401Z" fill="#212523"/>
<path d="M27.1429 71.4573C27.1429 73.5696 25.4373 75.2819 23.3333 75.2819C21.2294 75.2819 19.5238 73.5696 19.5238 71.4573C19.5238 69.345 21.2294 67.6327 23.3333 67.6327C25.4373 67.6327 27.1429 69.345 27.1429 71.4573Z" fill="#212523"/>
<path fill-rule="evenodd" clip-rule="evenodd" d="M69.0476 56.1587C69.0476 66.7202 60.5197 75.2819 50 75.2819C39.4803 75.2819 30.9524 66.7202 30.9524 56.1587C30.9524 45.5973 39.4803 37.0355 50 37.0355C60.5197 37.0355 69.0476 45.5973 69.0476 56.1587ZM62.5714 56.1587C62.5714 63.1293 56.943 68.7801 50 68.7801C43.057 68.7801 37.4286 63.1293 37.4286 56.1587C37.4286 49.1882 43.057 43.5374 50 43.5374C56.943 43.5374 62.5714 49.1882 62.5714 56.1587Z" fill="#212523"/>
<path fill-rule="evenodd" clip-rule="evenodd" d="M37.1959 22.3057C39.0617 18.4412 42.8756 16 47.0476 16H52.9524C57.1244 16 60.9383 18.4412 62.804 22.3058L64.3284 25.4632C65.0813 27.0226 66.6202 28.0076 68.3036 28.0076H78.9855C85.0686 28.0076 90 33.1148 90 39.4148V73.4363C90 79.7364 85.0686 84.8435 78.9855 84.8435H21.0145C14.9314 84.8435 10 79.7364 10 73.4363V39.4148C10 33.1148 14.9314 28.0076 21.0145 28.0076H31.6964C33.3798 28.0076 34.9187 27.0226 35.6716 25.4632L37.1959 22.3057ZM47.0476 22.8043C45.3642 22.8043 43.8252 23.7893 43.0724 25.3487L41.548 28.5061C39.6822 32.3707 35.8683 34.8119 31.6964 34.8119H21.0145C18.5599 34.8119 16.57 36.8727 16.57 39.4148V73.4363C16.57 75.9784 18.5599 78.0392 21.0145 78.0392H78.9855C81.4401 78.0392 83.4299 75.9784 83.4299 73.4363V39.4148C83.4299 36.8727 81.4401 34.8119 78.9855 34.8119H68.3036C64.1317 34.8119 60.3177 32.3707 58.452 28.5061L56.9276 25.3487C56.1748 23.7893 54.6358 22.8043 52.9524 22.8043H47.0476Z" fill="#212523"/>
</svg>
