<svg width="100" height="100" viewBox="0 0 100 100" fill="none" xmlns="http://www.w3.org/2000/svg">
<rect width="100" height="100" fill="#D1F24A"/>
<path d="M29.2001 26.6C29.919 26.6 30.5 26.0176 30.5 25.3V18.8H31.8C32.5189 18.8 33.0999 18.2176 33.0999 17.5C33.0999 16.7825 32.5189 16.2001 31.8 16.2001H30.5V12.3001C30.5 11.5824 29.919 11 29.2001 11C28.4812 11 27.9001 11.5824 27.9001 12.2999V25.2999C27.9 26.0176 28.4812 26.6 29.2001 26.6Z" fill="#212523"/>
<path d="M87.7 69.4983H83.8V68.1984C83.8 67.4809 83.219 66.8984 82.5001 66.8984C81.7812 66.8984 81.2001 67.4809 81.2001 68.1984V69.4983H74.7001C73.9812 69.4983 73.4001 70.0807 73.4001 70.7983C73.4001 71.5158 73.9812 72.0982 74.7001 72.0982H87.7C88.419 72.0982 89 71.5158 89 70.7983C89 70.0807 88.419 69.4983 87.7 69.4983Z" fill="#212523"/>
<path d="M25.3001 81.1992H24.0001C23.2812 81.1992 22.7002 81.7816 22.7002 82.4992C22.7002 83.2167 23.2812 83.7991 24.0001 83.7991H25.3001C26.019 83.7991 26.6 83.2167 26.6 82.4992C26.6 81.7816 26.019 81.1992 25.3001 81.1992Z" fill="#212523"/>
<path d="M31.7998 81.1992H30.4999C29.781 81.1992 29.2 81.7816 29.2 82.4992C29.2 83.2167 29.781 83.7991 30.4999 83.7991H31.7998C32.5188 83.7991 33.0998 83.2167 33.0998 82.4992C33.0998 81.7816 32.5188 81.1992 31.7998 81.1992Z" fill="#212523"/>
<path d="M38.3001 81.1992H37.0001C36.2812 81.1992 35.7002 81.7816 35.7002 82.4992C35.7002 83.2167 36.2812 83.7991 37.0001 83.7991H38.3001C39.019 83.7991 39.6 83.2167 39.6 82.4992C39.6 81.7816 39.019 81.1992 38.3001 81.1992Z" fill="#212523"/>
<path d="M44.8001 81.1992H43.5001C42.7812 81.1992 42.2002 81.7816 42.2002 82.4992C42.2002 83.2167 42.7812 83.7991 43.5001 83.7991H44.8001C45.519 83.7991 46.1 83.2167 46.1 82.4992C46.1 81.7816 45.519 81.1992 44.8001 81.1992Z" fill="#212523"/>
<path d="M51.2998 81.1992H49.9999C49.281 81.1992 48.7 81.7816 48.7 82.4992C48.7 83.2167 49.281 83.7991 49.9999 83.7991H51.2998C52.0188 83.7991 52.5998 83.2167 52.5998 82.4992C52.5998 81.7816 52.0188 81.1992 51.2998 81.1992Z" fill="#212523"/>
<path d="M57.8001 81.1992H56.5001C55.7812 81.1992 55.2002 81.7816 55.2002 82.4992C55.2002 83.2167 55.7812 83.7991 56.5001 83.7991H57.8001C58.519 83.7991 59.1 83.2167 59.1 82.4992C59.1 81.7816 58.519 81.1992 57.8001 81.1992Z" fill="#212523"/>
<path d="M64.3001 81.1992H63.0001C62.2812 81.1992 61.7002 81.7816 61.7002 82.4992C61.7002 83.2167 62.2812 83.7991 63.0001 83.7991H64.3001C65.019 83.7991 65.6 83.2167 65.6 82.4992C65.6 81.7816 65.019 81.1992 64.3001 81.1992Z" fill="#212523"/>
<path d="M70.7998 81.1992H69.4999C68.781 81.1992 68.2 81.7816 68.2 82.4992C68.2 83.2167 68.781 83.7991 69.4999 83.7991H70.7998C71.5188 83.7991 72.0998 83.2167 72.0998 82.4992C72.0998 81.7816 71.5188 81.1992 70.7998 81.1992Z" fill="#212523"/>
<path d="M77.3001 81.1992H76.0001C75.2812 81.1992 74.7002 81.7816 74.7002 82.4992C74.7002 83.2167 75.2812 83.7991 76.0001 83.7991H77.3001C78.019 83.7991 78.6 83.2167 78.6 82.4992C78.6 81.7816 78.019 81.1992 77.3001 81.1992Z" fill="#212523"/>
<path d="M87.7001 81.1992H82.5001C81.7812 81.1992 81.2002 81.7816 81.2002 82.4992V87.6991C81.2002 88.4167 81.7812 88.9991 82.5001 88.9991C83.2191 88.9991 83.8001 88.4167 83.8001 87.6991V83.7991H87.7001C88.419 83.7991 89 83.2167 89 82.4992C89 81.7816 88.419 81.1992 87.7001 81.1992Z" fill="#212523"/>
<path d="M76.0001 18.7991H77.3001C78.019 18.7991 78.6 18.2167 78.6 17.4992C78.6 16.7816 78.019 16.1992 77.3001 16.1992H76.0001C75.2812 16.1992 74.7002 16.7816 74.7002 17.4992C74.7 18.2167 75.2812 18.7991 76.0001 18.7991Z" fill="#212523"/>
<path d="M70.7998 16.1992H69.4999C68.781 16.1992 68.2 16.7816 68.2 17.4992C68.2 18.2167 68.781 18.7991 69.4999 18.7991H70.7998C71.5188 18.7991 72.0998 18.2167 72.0998 17.4992C72.1 16.7816 71.5188 16.1992 70.7998 16.1992Z" fill="#212523"/>
<path d="M62.9999 18.7991H64.2999C65.0188 18.7991 65.5998 18.2167 65.5998 17.4992C65.5998 16.7816 65.0188 16.1992 64.2999 16.1992H62.9999C62.281 16.1992 61.7 16.7816 61.7 17.4992C61.7 18.2167 62.281 18.7991 62.9999 18.7991Z" fill="#212523"/>
<path d="M56.5001 18.7991H57.8001C58.519 18.7991 59.1 18.2167 59.1 17.4992C59.1 16.7816 58.519 16.1992 57.8001 16.1992H56.5001C55.7812 16.1992 55.2002 16.7816 55.2002 17.4992C55.2 18.2167 55.7812 18.7991 56.5001 18.7991Z" fill="#212523"/>
<path d="M49.9999 18.7991H51.2998C52.0188 18.7991 52.5998 18.2167 52.5998 17.4992C52.5998 16.7816 52.0188 16.1992 51.2998 16.1992H49.9999C49.281 16.1992 48.7 16.7816 48.7 17.4992C48.7 18.2167 49.281 18.7991 49.9999 18.7991Z" fill="#212523"/>
<path d="M43.4999 18.7991H44.7998C45.5188 18.7991 46.0998 18.2167 46.0998 17.4992C46.0998 16.7816 45.5188 16.1992 44.7998 16.1992H43.4999C42.781 16.1992 42.2 16.7816 42.2 17.4992C42.2 18.2167 42.781 18.7991 43.4999 18.7991Z" fill="#212523"/>
<path d="M37.0001 18.7991H38.3001C39.019 18.7991 39.6 18.2167 39.6 17.4992C39.6 16.7816 39.019 16.1992 38.3001 16.1992H37.0001C36.2812 16.1992 35.7002 16.7816 35.7002 17.4992C35.7 18.2167 36.2812 18.7991 37.0001 18.7991Z" fill="#212523"/>
<path d="M23.9998 18.7991C24.7187 18.7991 25.2997 18.2167 25.2997 17.4992C25.2997 16.7816 24.7187 16.1992 23.9998 16.1992H22.6999C21.9809 16.1992 21.3999 16.7816 21.3999 17.4992C21.3999 18.2167 21.9809 18.7991 22.6999 18.7991H23.9998Z" fill="#212523"/>
<path d="M82.4999 18.7998H87.6999C88.4188 18.7998 88.9998 18.2174 88.9998 17.4999C88.9998 16.7824 88.4188 16.1999 87.6999 16.1999H83.7999V12.2999C83.7999 11.5824 83.2188 11 82.4999 11C81.781 11 81.2 11.5823 81.2 12.2998V17.4997C81.2 18.2174 81.781 18.7998 82.4999 18.7998Z" fill="#212523"/>
<path d="M17.5 11C16.7811 11 16.2001 11.5824 16.2001 12.2999V16.1999H12.3001C11.581 16.1999 11 16.7824 11 17.5C11 18.2176 11.581 18.8 12.2999 18.8H17.4999C18.2188 18.8 18.7998 18.2176 18.7998 17.5V12.2999C18.8 11.5824 18.219 11 17.5 11Z" fill="#212523"/>
<path d="M17.5001 22.6992C16.7812 22.6992 16.2002 23.2816 16.2002 23.9992V25.2991C16.2002 26.0167 16.7812 26.5991 17.5001 26.5991C18.2191 26.5991 18.8001 26.0167 18.8001 25.2991V23.9992C18.8001 23.2816 18.2191 22.6992 17.5001 22.6992Z" fill="#212523"/>
<path d="M17.5001 29.1992C16.7812 29.1992 16.2002 29.7816 16.2002 30.4992V31.7991C16.2002 32.5167 16.7812 33.0991 17.5001 33.0991C18.2191 33.0991 18.8001 32.5167 18.8001 31.7991V30.4992C18.8001 29.7816 18.2191 29.1992 17.5001 29.1992Z" fill="#212523"/>
<path d="M17.5001 35.6992C16.7812 35.6992 16.2002 36.2816 16.2002 36.9992V38.2991C16.2002 39.0167 16.7812 39.5991 17.5001 39.5991C18.2191 39.5991 18.8001 39.0168 18.8001 38.2993V36.9993C18.8001 36.2816 18.2191 35.6992 17.5001 35.6992Z" fill="#212523"/>
<path d="M17.5001 42.1992C16.7812 42.1992 16.2002 42.7816 16.2002 43.4992V44.7991C16.2002 45.5167 16.7812 46.0991 17.5001 46.0991C18.2191 46.0991 18.8001 45.5167 18.8001 44.7991V43.4992C18.8001 42.7816 18.2191 42.1992 17.5001 42.1992Z" fill="#212523"/>
<path d="M17.5001 48.6992C16.7812 48.6992 16.2002 49.2816 16.2002 49.9992V51.2991C16.2002 52.0167 16.7812 52.5991 17.5001 52.5991C18.2191 52.5991 18.8001 52.0167 18.8001 51.2991V49.9992C18.8001 49.2816 18.2191 48.6992 17.5001 48.6992Z" fill="#212523"/>
<path d="M17.5001 55.1992C16.7812 55.1992 16.2002 55.7816 16.2002 56.4992V57.7991C16.2002 58.5167 16.7812 59.0991 17.5001 59.0991C18.2191 59.0991 18.8001 58.5168 18.8001 57.7993V56.4993C18.8001 55.7816 18.2191 55.1992 17.5001 55.1992Z" fill="#212523"/>
<path d="M17.5001 61.6992C16.7812 61.6992 16.2002 62.2816 16.2002 62.9992V64.2991C16.2002 65.0167 16.7812 65.5991 17.5001 65.5991C18.2191 65.5991 18.8001 65.0167 18.8001 64.2991V62.9992C18.8001 62.2816 18.2191 61.6992 17.5001 61.6992Z" fill="#212523"/>
<path d="M17.5001 68.1992C16.7812 68.1992 16.2002 68.7816 16.2002 69.4992V70.7991C16.2002 71.5167 16.7812 72.0991 17.5001 72.0991C18.2191 72.0991 18.8001 71.5167 18.8001 70.7991V69.4992C18.8001 68.7816 18.2191 68.1992 17.5001 68.1992Z" fill="#212523"/>
<path d="M17.5001 74.6992C16.7812 74.6992 16.2002 75.2816 16.2002 75.9992V77.2991C16.2002 78.0167 16.7812 78.5991 17.5001 78.5991C18.2191 78.5991 18.8001 78.0168 18.8001 77.2993V75.9993C18.8001 75.2816 18.2191 74.6992 17.5001 74.6992Z" fill="#212523"/>
<path d="M82.4999 25.3004C83.2188 25.3004 83.7999 24.718 83.7999 24.0004V22.7003C83.7999 21.9828 83.2188 21.4004 82.4999 21.4004C81.781 21.4004 81.2 21.9828 81.2 22.7003V24.0003C81.2 24.718 81.781 25.3004 82.4999 25.3004Z" fill="#212523"/>
<path d="M82.4999 31.7983C83.2188 31.7983 83.7999 31.2159 83.7999 30.4983V29.1984C83.7999 28.4808 83.2188 27.8984 82.4999 27.8984C81.781 27.8984 81.2 28.4808 81.2 29.1984V30.4983C81.2 31.2159 81.781 31.7983 82.4999 31.7983Z" fill="#212523"/>
<path d="M82.4999 38.3002C83.2188 38.3002 83.7999 37.7178 83.7999 37.0003V35.7003C83.7999 34.9828 83.2188 34.4004 82.4999 34.4004C81.781 34.4004 81.2 34.9828 81.2 35.7003V37.0003C81.2 37.7178 81.781 38.3002 82.4999 38.3002Z" fill="#212523"/>
<path d="M82.4999 44.8004C83.2188 44.8004 83.7999 44.218 83.7999 43.5004V42.2003C83.7999 41.4828 83.2188 40.9004 82.4999 40.9004C81.781 40.9004 81.2 41.4828 81.2 42.2003V43.5003C81.2 44.218 81.781 44.8004 82.4999 44.8004Z" fill="#212523"/>
<path d="M82.4999 51.2983C83.2188 51.2983 83.7999 50.7159 83.7999 49.9983V48.6984C83.7999 47.9808 83.2188 47.3984 82.4999 47.3984C81.781 47.3984 81.2 47.9808 81.2 48.6984V49.9983C81.2 50.7159 81.781 51.2983 82.4999 51.2983Z" fill="#212523"/>
<path d="M82.4999 57.8002C83.2188 57.8002 83.7999 57.2178 83.7999 56.5003V55.2003C83.7999 54.4828 83.2188 53.9004 82.4999 53.9004C81.781 53.9004 81.2 54.4828 81.2 55.2003V56.5003C81.2 57.2178 81.781 57.8002 82.4999 57.8002Z" fill="#212523"/>
<path d="M82.4999 64.3004C83.2188 64.3004 83.7999 63.718 83.7999 63.0004V61.7003C83.7999 60.9828 83.2188 60.4004 82.4999 60.4004C81.781 60.4004 81.2 60.9828 81.2 61.7003V63.0003C81.2 63.718 81.781 64.3004 82.4999 64.3004Z" fill="#212523"/>
<path d="M82.4999 78.5991C83.2188 78.5991 83.7999 78.0167 83.7999 77.2991V75.9992C83.7999 75.2816 83.2188 74.6992 82.4999 74.6992C81.781 74.6992 81.2 75.2816 81.2 75.9992V77.2991C81.2 78.0167 81.781 78.5991 82.4999 78.5991Z" fill="#212523"/>
<path d="M17.5 81.1992H12.2999C11.581 81.1992 11 81.7816 11 82.4992C11 83.2167 11.581 83.7991 12.2999 83.7991H16.1999V87.6991C16.1999 88.4167 16.781 88.9991 17.4999 88.9991C18.2188 88.9991 18.7998 88.4167 18.7998 87.6991V82.4992C18.8 81.7816 18.219 81.1992 17.5 81.1992Z" fill="#212523"/>
<path d="M69.5 74.6993V30.4992C69.5 29.7816 68.919 29.1992 68.2 29.1992H26.6C25.8811 29.1992 25.3 29.7816 25.3 30.4992V74.6991C25.3 75.4166 25.8811 75.9991 26.6 75.9991H68.2C68.919 75.9992 69.5 75.4168 69.5 74.6993ZM64.1999 58.2958C64.1337 58.4558 64.0388 58.5987 63.9178 58.7196L60.0192 62.6183C59.7657 62.8718 59.4328 62.9991 59.1001 62.9991C58.7672 62.9991 58.4345 62.8718 58.181 62.6183C57.6728 62.1113 57.6728 61.2883 58.181 60.7801L59.862 59.0991H53.9V66.361L55.581 64.6801C56.0893 64.1717 56.9109 64.1717 57.4191 64.6801C57.9274 65.1884 57.9274 66.0113 57.4191 66.5183L53.5205 70.4169C53.4009 70.5378 53.2566 70.6327 53.0967 70.699C52.9381 70.7653 52.7691 70.7991 52.6 70.7991C52.4311 70.7991 52.262 70.7641 52.1034 70.699C51.9434 70.6327 51.7992 70.5378 51.6796 70.4169L47.781 66.5183C47.2727 66.0113 47.2727 65.1883 47.781 64.6801C48.2893 64.1717 49.1109 64.1717 49.6191 64.6801L51.3001 66.361V59.0993H33.6381L35.3191 60.7802C35.8275 61.2884 35.8275 62.1114 35.3191 62.6184C35.0656 62.8719 34.7327 62.9993 34.4 62.9993C34.0671 62.9993 33.7344 62.8719 33.4809 62.6184L29.5823 58.7198C29.4613 58.5988 29.3664 58.4559 29.3001 58.296C29.1688 57.9788 29.1688 57.62 29.3001 57.3028C29.3664 57.1429 29.4613 57 29.5823 56.879L33.4809 52.9804C33.9893 52.472 34.8109 52.472 35.3191 52.9804C35.8275 53.4886 35.8275 54.3116 35.3191 54.8186L33.6381 56.4995H51.2999V37.5374L49.6191 39.2183C49.1108 39.7265 48.2892 39.7265 47.781 39.2183C47.2727 38.7113 47.2727 37.8883 47.781 37.3801L51.6796 33.4814C51.7992 33.3605 51.9434 33.2656 52.1034 33.1993C52.4206 33.068 52.7793 33.068 53.0965 33.1993C53.2565 33.2656 53.4008 33.3605 53.5204 33.4814L57.419 37.3801C57.9272 37.8884 57.9272 38.7113 57.419 39.2183C57.1655 39.4718 56.8326 39.5991 56.4999 39.5991C56.167 39.5991 55.8343 39.4718 55.5808 39.2183L53.9 37.5374V56.4992H59.8618L58.1809 54.8183C57.6726 54.3113 57.6726 53.4883 58.1809 52.9801C58.6892 52.4717 59.5108 52.4717 60.019 52.9801L63.9177 56.8787C64.0386 56.9997 64.1335 57.1426 64.1998 57.3025C64.3311 57.6199 64.3311 57.9786 64.1999 58.2958Z" fill="#212523"/>
<path d="M38.4079 63.5716C38.3042 63.1439 37.6958 63.1439 37.5921 63.5716L37.3067 64.7486C37.2697 64.9013 37.1505 65.0205 36.9977 65.0575L35.8208 65.3429C35.3931 65.4467 35.3931 66.055 35.8208 66.1587L36.9977 66.4441C37.1505 66.4811 37.2697 66.6004 37.3067 66.7531L37.5921 67.93C37.6958 68.3578 38.3042 68.3578 38.4079 67.93L38.6933 66.7531C38.7303 66.6004 38.8495 66.4811 39.0023 66.4441L40.1792 66.1587C40.6069 66.055 40.6069 65.4467 40.1792 65.3429L39.0023 65.0575C38.8495 65.0205 38.7303 64.9013 38.6933 64.7486L38.4079 63.5716Z" fill="#D1F24A"/>
<path fill-rule="evenodd" clip-rule="evenodd" d="M38 64.0267L38.2038 64.8672C38.2853 65.2032 38.5476 65.4655 38.8836 65.547L39.7241 65.7508L38.8836 65.9546C38.5476 66.0361 38.2853 66.2984 38.2038 66.6344L38 67.4749L37.7962 66.6344C37.7147 66.2984 37.4524 66.0361 37.1164 65.9546L36.2759 65.7508L37.1164 65.547C37.4524 65.4655 37.7147 65.2032 37.7962 64.8672L38 64.0267ZM37.5921 63.5716C37.6958 63.1439 38.3042 63.1439 38.4079 63.5716L38.6933 64.7486C38.7303 64.9013 38.8495 65.0205 39.0023 65.0575L40.1792 65.3429C40.6069 65.4467 40.6069 66.055 40.1792 66.1587L39.0023 66.4441C38.8495 66.4811 38.7303 66.6004 38.6933 66.7531L38.4079 67.93C38.3042 68.3578 37.6958 68.3578 37.5921 67.93L37.3067 66.7531C37.2697 66.6004 37.1505 66.4811 36.9977 66.4441L35.8208 66.1587C35.3931 66.055 35.3931 65.4467 35.8208 65.3429L36.9977 65.0575C37.1505 65.0205 37.2697 64.9013 37.3067 64.7486L37.5921 63.5716Z" fill="#D1F24A"/>
<path d="M43 68.2508C43 68.9412 43.5596 69.5008 44.25 69.5008C44.9404 69.5008 45.5 68.9412 45.5 68.2508C45.5 67.5605 44.9404 67.0008 44.25 67.0008C43.5596 67.0008 43 67.5605 43 68.2508Z" fill="#D1F24A"/>
<path d="M35.5 45.7508C35.5 46.4412 36.0596 47.0008 36.75 47.0008C37.4404 47.0008 38 46.4412 38 45.7508C38 45.0605 37.4404 44.5008 36.75 44.5008C36.0596 44.5008 35.5 45.0605 35.5 45.7508Z" fill="#D1F24A"/>
<path d="M54.6164 43.5C54.6164 44.1904 55.1761 44.75 55.8664 44.75C56.5568 44.75 57.1164 44.1904 57.1164 43.5C57.1164 42.8096 56.5568 42.25 55.8664 42.25C55.1761 42.25 54.6164 42.8096 54.6164 43.5Z" fill="#D1F24A"/>
<path d="M59.0871 44.2132C58.9834 43.7855 58.375 43.7855 58.2713 44.2132L57.9859 45.3902C57.9489 45.5429 57.8297 45.6621 57.6769 45.6991L56.5 45.9845C56.0723 46.0883 56.0723 46.6966 56.5 46.8003L57.6769 47.0857C57.8297 47.1227 57.9489 47.242 57.9859 47.3947L58.2713 48.5716C58.375 48.9994 58.9834 48.9994 59.0871 48.5716L59.3725 47.3947C59.4095 47.242 59.5287 47.1227 59.6815 47.0857L60.8584 46.8003C61.2861 46.6966 61.2861 46.0883 60.8584 45.9845L59.6815 45.6991C59.5287 45.6621 59.4095 45.5429 59.3725 45.3902L59.0871 44.2132Z" fill="#D1F24A"/>
<path fill-rule="evenodd" clip-rule="evenodd" d="M58 49.0267L58.2038 49.8672C58.2853 50.2032 58.5476 50.4655 58.8836 50.547L59.7241 50.7508L58.8836 50.9546C58.5476 51.0361 58.2853 51.2984 58.2038 51.6344L58 52.4749L57.7962 51.6344C57.7147 51.2984 57.4524 51.0361 57.1164 50.9546L56.2759 50.7508L57.1164 50.547C57.4524 50.4655 57.7147 50.2032 57.7962 49.8672L58 49.0267ZM58.2713 44.2132C58.375 43.7855 58.9834 43.7855 59.0871 44.2132L59.3725 45.3902C59.4095 45.5429 59.5287 45.6621 59.6815 45.6991L60.8584 45.9845C61.2861 46.0883 61.2861 46.6966 60.8584 46.8003L59.6815 47.0857C59.5287 47.1227 59.4095 47.242 59.3725 47.3947L59.0871 48.5716C58.9834 48.9994 58.375 48.9994 58.2713 48.5716L57.9859 47.3947C57.9489 47.242 57.8297 47.1227 57.6769 47.0857L56.5 46.8003C56.0723 46.6966 56.0723 46.0883 56.5 45.9845L57.6769 45.6991C57.8297 45.6621 57.9489 45.5429 57.9859 45.3902L58.2713 44.2132Z" fill="#D1F24A"/>
</svg>
