<svg width="100" height="100" viewBox="0 0 100 100" fill="none" xmlns="http://www.w3.org/2000/svg">
<rect width="100" height="100" fill="#D1F24A"/>
<path fill-rule="evenodd" clip-rule="evenodd" d="M16 82.1916H24.2656V26.8816C24.2656 26.3987 24.6643 26 25.1472 26H53.1447C53.6277 26 54.0263 26.3987 54.0263 26.8816V47.6186H78.8007C79.2836 47.6186 79.6823 48.0173 79.6823 48.5002V82.186H84.9999V89.4802H16V82.1916ZM31.3408 34.3218H37.0683C37.2424 34.3218 37.3884 34.4678 37.3884 34.6418V41.5823C37.3884 41.7563 37.2424 41.9023 37.0683 41.9023H31.3408C31.1667 41.9023 31.0207 41.7563 31.0207 41.5823V34.6418C31.0207 34.4678 31.1667 34.3218 31.3408 34.3218ZM41.0439 68.8442H46.7715C46.9455 68.8442 47.0915 68.9902 47.0915 69.1643V76.1047C47.0915 76.2788 46.9455 76.4248 46.7715 76.4248H41.0439C40.8699 76.4248 40.7239 76.2788 40.7239 76.1047V69.1643C40.7239 68.9846 40.8699 68.8442 41.0439 68.8442ZM31.3408 68.8442H37.0683C37.2424 68.8442 37.3884 68.9902 37.3884 69.1643V76.1047C37.3884 76.2788 37.2424 76.4248 37.0683 76.4248H31.3408C31.1667 76.4248 31.0207 76.2788 31.0207 76.1047V69.1643C31.0207 68.9846 31.1667 68.8442 31.3408 68.8442ZM41.0439 57.333H46.7715C46.9455 57.333 47.0915 57.479 47.0915 57.653V64.5935C47.0915 64.7675 46.9455 64.9135 46.7715 64.9135H41.0439C40.8699 64.9135 40.7239 64.7675 40.7239 64.5935V57.6587C40.7239 57.479 40.8699 57.333 41.0439 57.333ZM31.3408 57.333H37.0683C37.2424 57.333 37.3884 57.479 37.3884 57.653V64.5935C37.3884 64.7675 37.2424 64.9135 37.0683 64.9135H31.3408C31.1667 64.9135 31.0207 64.7675 31.0207 64.5935V57.6587C31.0207 57.479 31.1667 57.333 31.3408 57.333ZM41.0439 45.8274H46.7715C46.9455 45.8274 47.0915 45.9734 47.0915 46.1474V53.0879C47.0915 53.2619 46.9455 53.4079 46.7715 53.4079H41.0439C40.8699 53.4079 40.7239 53.2619 40.7239 53.0879V46.1474C40.7239 45.9734 40.8699 45.8274 41.0439 45.8274ZM31.3408 45.8274H37.0683C37.2424 45.8274 37.3884 45.9734 37.3884 46.1474V53.0879C37.3884 53.2619 37.2424 53.4079 37.0683 53.4079H31.3408C31.1667 53.4079 31.0207 53.2619 31.0207 53.0879V46.1474C31.0207 45.9734 31.1667 45.8274 31.3408 45.8274ZM41.0439 34.3218H46.7715C46.9455 34.3218 47.0915 34.4678 47.0915 34.6418V41.5823C47.0915 41.7563 46.9455 41.9023 46.7715 41.9023H41.0439C40.8699 41.9023 40.7239 41.7563 40.7239 41.5823V34.6418C40.7239 34.4678 40.8699 34.3218 41.0439 34.3218ZM29.0105 30.1103H49.1804C49.5285 30.1103 49.8149 30.4529 49.8149 30.8684V79.0864C49.8149 79.5019 49.5285 79.8444 49.1804 79.8444H29.0105C28.6623 79.8444 28.376 79.5019 28.376 79.0864V30.8684C28.376 30.4529 28.6623 30.1103 29.0105 30.1103ZM56.7722 56.0022H62.4997C62.6738 56.0022 62.8198 56.1482 62.8198 56.3222V63.2627C62.8198 63.4367 62.6738 63.5827 62.4997 63.5827H56.7722C56.5981 63.5827 56.4521 63.4367 56.4521 63.2627V56.3222C56.4521 56.1482 56.5981 56.0022 56.7722 56.0022ZM66.4753 68.8442H72.2028C72.3769 68.8442 72.5229 68.9902 72.5229 69.1643V76.1047C72.5229 76.2788 72.3769 76.4248 72.2028 76.4248H66.4753C66.3012 76.4248 66.1552 76.2788 66.1552 76.1047V69.1643C66.1552 68.9846 66.3012 68.8442 66.4753 68.8442ZM56.7722 68.8442H62.4997C62.6738 68.8442 62.8198 68.9902 62.8198 69.1643V76.1047C62.8198 76.2788 62.6738 76.4248 62.4997 76.4248H56.7722C56.5981 76.4248 56.4521 76.2788 56.4521 76.1047V69.1643C56.4521 68.9846 56.5981 68.8442 56.7722 68.8442ZM66.4753 56.0022H72.2028C72.3769 56.0022 72.5229 56.1482 72.5229 56.3222V63.2627C72.5229 63.4367 72.3769 63.5827 72.2028 63.5827H66.4753C66.3012 63.5827 66.1552 63.4367 66.1552 63.2627V56.3222C66.1552 56.1482 66.3012 56.0022 66.4753 56.0022ZM54.6665 51.729H74.8364C75.1845 51.729 75.4709 52.0715 75.4709 52.487V79.0864C75.4709 79.5019 75.1845 79.8444 74.8364 79.8444H54.6665C54.3183 79.8444 54.032 79.5019 54.032 79.0864V52.487C54.032 52.0715 54.3183 51.729 54.6665 51.729Z" fill="#212523"/>
<path fill-rule="evenodd" clip-rule="evenodd" d="M73.3805 33.0629C72.8966 33.56 72.8966 34.3658 73.3805 34.8629C73.8644 35.3599 74.6488 35.3599 75.1327 34.8629L78.6371 31.263C79.121 30.766 79.121 29.9602 78.6371 29.4631L75.1327 25.8633C74.6488 25.3663 73.8644 25.3663 73.3805 25.8633C72.8966 26.3603 72.8966 27.1662 73.3805 27.6632L74.7698 29.0904L63.2302 29.0904L64.6195 27.6632C65.1034 27.1662 65.1034 26.3603 64.6195 25.8633C64.1356 25.3663 63.3512 25.3663 62.8673 25.8633L59.3629 29.4631C58.879 29.9602 58.879 30.766 59.3629 31.263L62.8673 34.8629C63.3512 35.3599 64.1356 35.3599 64.6195 34.8629C65.1034 34.3658 65.1034 33.56 64.6195 33.0629L63.2302 31.6358H74.7698L73.3805 33.0629Z" fill="#212523"/>
<path d="M75.3091 16.4083C75.4376 15.8639 76.1913 15.8639 76.3198 16.4083L76.6734 17.9062C76.7193 18.1006 76.867 18.2523 77.0563 18.2995L78.5145 18.6627C79.0444 18.7947 79.0444 19.5689 78.5145 19.7009L77.0563 20.0642C76.867 20.1113 76.7193 20.2631 76.6734 20.4574L76.3198 21.9553C76.1913 22.4997 75.4376 22.4997 75.3091 21.9553L74.9555 20.4574C74.9096 20.2631 74.7619 20.1113 74.5727 20.0642L73.1145 19.7009C72.5845 19.5689 72.5845 18.7947 73.1144 18.6627L74.5727 18.2995C74.7619 18.2523 74.9096 18.1006 74.9555 17.9062L75.3091 16.4083Z" fill="#212523"/>
<path fill-rule="evenodd" clip-rule="evenodd" d="M75.8145 16.9875L75.5619 18.0573C75.461 18.4849 75.136 18.8187 74.7197 18.9224L73.6783 19.1818L74.7197 19.4412C75.136 19.5449 75.461 19.8788 75.5619 20.3064L75.8145 21.3761L76.067 20.3064C76.1679 19.8788 76.4929 19.5449 76.9092 19.4412L77.9506 19.1818L76.9092 18.9224C76.4929 18.8187 76.1679 18.4849 76.067 18.0573L75.8145 16.9875ZM76.3198 16.4083C76.1913 15.8639 75.4376 15.8639 75.3091 16.4083L74.9555 17.9062C74.9096 18.1006 74.7619 18.2523 74.5727 18.2995L73.1144 18.6627C72.5845 18.7947 72.5845 19.5689 73.1145 19.7009L74.5727 20.0642C74.7619 20.1113 74.9096 20.2631 74.9555 20.4574L75.3091 21.9553C75.4376 22.4997 76.1913 22.4997 76.3198 21.9553L76.6734 20.4574C76.7193 20.2631 76.867 20.1113 77.0563 20.0642L78.5145 19.7009C79.0444 19.5689 79.0444 18.7947 78.5145 18.6627L77.0563 18.2995C76.867 18.2523 76.7193 18.1006 76.6734 17.9062L76.3198 16.4083Z" fill="#212523"/>
<path d="M78.9119 38.9091C78.9119 39.612 78.3572 40.1818 77.673 40.1818C76.9887 40.1818 76.434 39.612 76.434 38.9091C76.434 38.2062 76.9887 37.6364 77.673 37.6364C78.3572 37.6364 78.9119 38.2062 78.9119 38.9091Z" fill="#212523"/>
<path d="M75.195 42.7273C75.195 43.4302 74.6402 44 73.956 44C73.2717 44 72.717 43.4302 72.717 42.7273C72.717 42.0244 73.2717 41.4545 73.956 41.4545C74.6402 41.4545 75.195 42.0244 75.195 42.7273Z" fill="#212523"/>
</svg>
