<svg width="100" height="100" viewBox="0 0 100 100" fill="none" xmlns="http://www.w3.org/2000/svg">
<rect width="100" height="100" fill="#D1F24A"/>
<path fill-rule="evenodd" clip-rule="evenodd" d="M59.8036 23.6139C53.4758 22.1296 46.8903 22.1296 40.5625 23.6139C32.3343 25.5439 25.9097 31.9686 23.9796 40.1968C22.4953 46.5246 22.4953 53.1101 23.9796 59.4379C24.2753 60.6983 24.6764 61.9164 25.1733 63.0825L28.9931 59.2627C35.8099 52.4459 46.862 52.4459 53.6788 59.2627L57.2608 62.8447L57.3234 62.782C62.398 57.7075 70.3332 57.4147 75.7423 61.6595C75.9936 60.9356 76.2091 60.1944 76.3865 59.4379C77.8708 53.11 77.8708 46.5246 76.3865 40.1968C74.4565 31.9686 68.0318 25.544 59.8036 23.6139ZM79.8764 68.4905C81.1861 66.16 82.1832 63.6264 82.8121 60.9451C84.529 53.6259 84.529 46.0087 82.8121 38.6895C80.3096 28.0209 71.9795 19.6908 61.3109 17.1883C53.9917 15.4714 46.3745 15.4714 39.0553 17.1883C28.3867 19.6908 20.0566 28.0209 17.554 38.6895C15.8372 46.0087 15.8372 53.6259 17.554 60.9451C20.0566 71.6137 28.3867 79.9438 39.0553 82.4463C46.3745 84.1632 53.9917 84.1632 61.3109 82.4463C68.7775 80.6949 75.0987 76.089 79.0784 69.8248C79.4573 69.4401 79.7246 68.9806 79.8764 68.4905ZM72.5513 67.6717C69.7557 64.6234 64.9485 64.4907 61.9903 67.4489L61.9277 67.5116L67.1986 72.7825C69.2567 71.3885 71.0662 69.6596 72.5513 67.6717ZM60.835 75.7527L49.0119 63.9296C44.7726 59.6903 37.8993 59.6903 33.66 63.9296L28.7501 68.8395C31.7697 72.361 35.8732 74.9208 40.5625 76.0208C46.8904 77.5051 53.4758 77.5051 59.8036 76.0208C60.1507 75.9393 60.4946 75.8499 60.835 75.7527Z" fill="#212523"/>
<path d="M58.4381 32.9612C58.8564 31.236 61.3101 31.236 61.7284 32.9612L62.8795 37.7082C63.0288 38.3242 63.5098 38.8051 64.1257 38.9544L68.8727 40.1055C70.5979 40.5238 70.5979 42.9775 68.8727 43.3958L64.1257 44.5469C63.5098 44.6962 63.0288 45.1771 62.8795 45.7931L61.7284 50.5401C61.3101 52.2653 58.8564 52.2653 58.4381 50.5401L57.287 45.7931C57.1377 45.1771 56.6568 44.6962 56.0408 44.5469L51.2938 43.3958C51.186 43.3697 51.0849 43.3356 50.9906 43.2945C49.5754 42.6787 49.6764 40.4977 51.2938 40.1055L56.0408 38.9544C56.6568 38.8051 57.1377 38.3242 57.287 37.7082L58.4381 32.9612Z" fill="#212523"/>
<path d="M86.6666 83.0007C86.6666 85.0257 85.025 86.6673 82.9999 86.6673C80.9749 86.6673 79.3333 85.0257 79.3333 83.0007C79.3333 80.9756 80.9749 79.334 82.9999 79.334C85.025 79.334 86.6666 80.9756 86.6666 83.0007Z" fill="#212523"/>
<path d="M86.6666 17.0007C86.6666 19.0257 85.025 20.6673 82.9999 20.6673C80.9749 20.6673 79.3333 19.0257 79.3333 17.0007C79.3333 14.9756 80.9749 13.334 82.9999 13.334C85.025 13.334 86.6666 14.9756 86.6666 17.0007Z" fill="#212523"/>
<path d="M20.6666 83.0007C20.6666 85.0257 19.025 86.6673 16.9999 86.6673C14.9749 86.6673 13.3333 85.0257 13.3333 83.0007C13.3333 80.9756 14.9749 79.334 16.9999 79.334C19.025 79.334 20.6666 80.9756 20.6666 83.0007Z" fill="#212523"/>
<path d="M20.6666 17.0007C20.6666 19.0257 19.025 20.6673 16.9999 20.6673C14.9749 20.6673 13.3333 19.0257 13.3333 17.0007C13.3333 14.9756 14.9749 13.334 16.9999 13.334C19.025 13.334 20.6666 14.9756 20.6666 17.0007Z" fill="#212523"/>
</svg>
