<svg width="100" height="100" viewBox="0 0 100 100" fill="none" xmlns="http://www.w3.org/2000/svg">
<g clip-path="url(#clip0_164_502)">
<rect width="100" height="100" fill="#D1F24A"/>
<path d="M92 27C96.4183 27 100 30.5817 100 35V100H36L35.5879 99.9893C31.3611 99.7748 28 96.2801 28 92V35C28 30.5817 31.5817 27 36 27H48.5039C48.1892 27.4182 48 27.9363 48 28.5C48 28.6712 48.017 28.8385 48.0498 29H36C32.6863 29 30 31.6863 30 35V92C30 95.3137 32.6863 98 36 98H98V35C98 31.6863 95.3137 29 92 29L47.9502 29C47.983 28.8385 48 28.6712 48 28.5C48 27.9363 47.8108 27.4182 47.4961 27H92Z" fill="#212523"/>
<path fill-rule="evenodd" clip-rule="evenodd" d="M50.2175 37H90.7825C94.6815 37 96.099 37.406 97.5235 38.1691C98.948 38.9321 100.068 40.0522 100.831 41.4767C101.594 42.9013 102 44.3154 102 48.2181V74.5046L86.6315 60.3183C86.0738 59.8037 85.4112 59.4161 84.6893 59.1823C83.9674 58.9484 83.2034 58.8738 82.4499 58.9636C81.6965 59.0535 80.9714 59.3056 80.3247 59.7026C79.678 60.0996 79.1251 60.6321 78.704 61.2633L67.749 77.6968L59.6885 72.5165C58.6139 71.826 57.3244 71.5511 56.0616 71.7431C54.7988 71.9351 53.6494 72.5809 52.8285 73.5595L39.0175 90.0279C39.006 89.6139 39.0002 89.1996 39 88.7854V48.2181C39 44.3154 39.406 42.9013 40.169 41.4767C40.932 40.0522 42.052 38.9321 43.4765 38.1691C44.901 37.406 46.315 37 50.2175 37ZM83.387 66.8567L102 84.0321V88.7819C102 92.6811 101.594 94.0987 100.831 95.5232C100.085 96.9325 98.9327 98.0849 97.5235 98.8309C96.099 99.594 94.685 100 90.7825 100H50.2175C46.315 100 44.901 99.594 43.4765 98.8309C42.8609 98.5035 42.2903 98.0976 41.779 97.6234L57.2 79.2368L65.411 84.5151C66.5696 85.2596 67.9742 85.519 69.3222 85.2375C70.6703 84.956 71.8537 84.156 72.6175 83.0101L83.387 66.8567ZM56.458 47.5006C52.573 47.5006 49.5 50.4127 49.5 54.459C49.5 58.5087 52.5765 61.5014 56.458 61.5014C60.4235 61.5014 63.5 58.5087 63.5 54.459C63.5 50.4127 60.4235 47.5006 56.458 47.5006Z" fill="#212523"/>
<path d="M14.5744 24.9539C16.2485 23.2809 17.9225 21.6089 19.5966 19.9358C22.0313 17.5012 28.4977 13.5718 26.908 9.56748C26.7877 9.26578 26.6453 9.10755 26.5029 9.03793C22.7465 5.28257 18.989 1.52827 15.2326 -2.22603C12.3612 -5.09529 6.17861 -3.62163 2.46229 -3.62163C-0.615837 -3.62163 -2.08211 -1.54986 0.409502 0.940705C2.69964 3.22978 4.99083 5.51886 7.28096 7.80794C9.02256 9.54849 10.8907 10.097 9.36117 11.6266C7.19973 13.787 5.03619 15.9474 2.8758 18.1067C1.7608 19.2217 -0.37849 20.6468 -0.859513 22.2713C-2.26672 27.0225 7.30944 25.4117 9.2367 25.4117C10.4403 25.4106 13.5322 25.9972 14.5744 24.9539ZM12.4425 -1.56779C14.2252 -1.56779 15.0406 -0.244975 16.239 0.951254C16.9932 1.70549 17.7495 2.45973 18.5027 3.21396C15.7885 1.71076 13.0828 0.187525 10.3907 -1.35892C10.2789 -1.4296 10.1639 -1.49817 10.05 -1.56779C10.8464 -1.56779 11.645 -1.56779 12.4425 -1.56779ZM1.8051 -1.55724C2.99289 -1.69015 4.78407 -1.56779 5.22606 -1.56779C5.54569 -1.56779 5.86426 -1.56779 6.18494 -1.56779C7.60586 -0.74815 9.02573 0.0725423 10.4509 0.889016C15.6039 4.12643 20.6494 7.53157 25.6041 11.0622C25.639 11.0865 25.6759 11.1044 25.7117 11.1245C25.5176 11.5232 25.1516 12.0232 24.6664 12.5844C24.5946 12.4926 24.505 12.4051 24.39 12.3334C19.4226 9.21198 14.5322 5.94292 9.5078 2.94497C6.95711 1.42278 4.38533 -0.0740846 1.8051 -1.55724ZM3.15851 1.51139C3.09521 1.4481 3.03403 1.38586 2.96968 1.32362C6.39803 3.30363 9.80739 5.30894 13.1735 7.37545C16.5016 9.41874 19.7802 11.5506 23.0724 13.6456C23.2117 13.7342 23.3668 13.788 23.5271 13.8186C23.4701 13.8777 23.4079 13.9368 23.3499 13.9958C23.275 13.8809 23.1758 13.7722 23.0355 13.6868C16.4109 9.62866 9.7789 5.57899 3.15851 1.51139ZM11.9235 11.2226C11.8412 11.1772 11.7695 11.1519 11.6956 11.1224C11.7104 10.0939 10.9836 8.98307 10.0046 7.92714C13.8929 10.3038 17.7812 12.6783 21.6695 15.0592C21.8013 15.1393 21.9469 15.191 22.0999 15.2206C21.7623 15.5423 21.4216 15.8609 21.0777 16.1763C21.007 16.0908 20.9205 16.0128 20.8024 15.9526C17.8255 14.4009 14.8687 12.8228 11.9235 11.2226ZM10.4182 13.8281C12.4783 15.1857 14.5385 16.5455 16.5945 17.9094C17.0797 18.2333 17.0396 18.3071 16.508 18.0687C15.3982 17.5729 14.3012 17.0518 13.2189 16.5043C12.0901 15.8366 10.9635 15.1636 9.84114 14.4874C10.0458 14.2691 10.2378 14.0486 10.4182 13.8281ZM5.0288 21.785C4.28617 21.5245 3.54354 21.2597 2.80301 20.9949C2.93804 20.8483 3.07095 20.707 3.2007 20.5688C3.83468 20.919 4.46761 21.2692 5.10264 21.6194C5.61109 21.9011 5.5805 21.977 5.0288 21.785ZM0.919008 23.3568C0.810356 23.3568 0.951707 23.1268 1.23019 22.7766C1.50763 22.9222 1.81459 23.0963 2.08042 23.2629C2.13106 23.2946 2.18169 23.3262 2.23233 23.3568C1.79455 23.3568 1.35678 23.3568 0.919008 23.3568ZM12.4857 23.3568C9.96034 21.862 7.4297 20.3799 4.89167 18.9095C4.87901 18.9021 4.86318 18.9021 4.85053 18.8947C5.71763 18.1162 7.01513 17.1119 8.25461 16.0159C10.0352 17.0655 11.838 18.0687 13.683 18.9928C14.5343 19.496 15.3887 19.9928 16.2432 20.4897C16.2664 20.5034 16.297 20.5065 16.3202 20.5171C15.4932 21.4833 14.0406 23.3558 13.0459 23.3558C12.857 23.3568 12.6724 23.3568 12.4857 23.3568Z" fill="#212523"/>
<path d="M22.3024 -3.62109C19.2243 -3.62109 17.7538 -1.55037 20.2465 0.941244C22.5366 3.23032 24.8278 5.5194 27.119 7.80954C28.8585 9.54797 30.7298 10.0997 29.2002 11.6271C27.0377 13.7875 24.8753 15.9479 22.7138 18.1072C21.5946 19.2254 19.4637 20.6463 18.9774 22.2729C17.5544 27.0199 27.158 25.4122 29.0747 25.4122C30.2794 25.4122 33.3702 25.9988 34.4155 24.9544C36.0886 23.2814 37.7627 21.6094 39.4357 19.9364C41.8682 17.5038 48.3431 13.567 46.7513 9.56696C46.6321 9.26738 46.4896 9.1102 46.3472 9.03952C42.5898 5.28417 38.8323 1.52986 35.0748 -2.22655C32.2066 -5.09581 26.0198 -3.62109 22.3024 -3.62109ZM22.2011 0.71339C21.9807 0.492921 21.7613 0.272453 21.5408 0.0530386C22.0376 0.350513 22.5366 0.646934 23.0313 0.950738C27.2867 3.56261 31.4535 6.32111 35.6835 8.96357C36.1772 9.27265 36.1782 9.27476 35.6814 8.9699C31.1908 6.2114 26.696 3.46345 22.2011 0.71339ZM21.9701 23.3573C21.6463 23.197 21.3224 23.0335 20.9986 22.8732C21.1009 22.7402 21.2243 22.5883 21.3688 22.4185C21.9448 22.736 22.5229 23.0462 23.1041 23.3573C22.7244 23.3573 22.3478 23.3573 21.9701 23.3573ZM27.5631 23.3573C25.9576 22.5398 24.3552 21.7139 22.7676 20.8615C22.8499 20.7729 22.9311 20.6864 23.0113 20.601C24.5968 21.2233 26.1728 21.8647 27.7403 22.5187C28.2129 22.717 28.907 23.0673 29.4081 23.3563C28.7931 23.3573 28.1781 23.3573 27.5631 23.3573ZM36.4694 20.1009C36.4842 20.1094 36.5021 20.1115 36.5169 20.1189C36.5169 20.1189 36.5126 20.122 36.5116 20.1242C35.9957 20.6389 34.8691 22.1928 33.8501 22.9438C33.8153 22.928 33.7911 22.9101 33.7541 22.8964C32.9398 22.582 32.1265 22.2582 31.3163 21.9259C29.5547 21.0124 27.8036 20.0756 26.0588 19.1294C25.736 18.9364 25.4132 18.7465 25.0894 18.5556C25.0873 18.5545 25.0852 18.5545 25.0831 18.5524C26.0673 17.7095 27.4133 16.6589 28.6264 15.5354C31.2404 17.0566 33.8565 18.5767 36.4694 20.1009ZM40.0264 16.5713C40.1309 16.6241 40.249 16.6515 40.3672 16.6737C39.9252 17.0745 39.4958 17.4595 39.0876 17.8224C39.0327 17.7581 38.9863 17.6895 38.9104 17.6378C38.8133 17.5724 38.7163 17.506 38.6203 17.4395C38.1393 17.1104 37.6793 16.5175 37.5327 16.1336C37.4124 15.8192 37.2785 15.5618 37.1888 15.4774C37.0295 15.3287 36.8639 15.1873 36.6983 15.046C36.423 14.8129 36.6223 14.8371 37.1403 15.104C38.1013 15.5924 39.0654 16.0819 40.0264 16.5713ZM42.1214 15.0418C42.0191 15.1388 41.9189 15.238 41.8155 15.335C41.7406 15.2401 41.6372 15.1557 41.5075 15.0892C38.0654 13.3424 34.6329 11.5754 31.2098 9.79376C30.7731 8.89817 29.9629 7.9857 29.0705 7.13442C33.2794 9.70831 37.4884 12.2801 41.6857 14.8751C41.8197 14.9595 41.9685 15.0112 42.1214 15.0418ZM43.6267 13.5449C43.5349 13.6409 43.4506 13.7337 43.3546 13.8308C43.2797 13.7147 43.1805 13.6071 43.0413 13.5206C41.7005 12.6873 40.3598 11.8508 39.018 11.0195C38.5222 10.7136 38.5232 10.7115 39.0232 11.01C40.3967 11.8318 41.7807 12.6324 43.1805 13.4035C43.3166 13.4805 43.4685 13.5249 43.6267 13.5449ZM38.6973 4.54364C39.3418 4.87171 39.9895 5.19028 40.6372 5.51202C41.5834 6.45824 42.5296 7.40341 43.4748 8.34858C41.8598 7.11965 40.249 5.88439 38.6108 4.68394C38.1414 4.34111 38.1772 4.27992 38.6973 4.54364ZM32.2815 -1.56725C34.0527 -1.56725 34.8702 -0.258149 36.0538 0.931751C34.4809 0.111058 32.9134 -0.71913 31.3532 -1.56725C31.6623 -1.56725 31.9714 -1.56725 32.2815 -1.56725ZM25.063 -1.56725C25.5124 -1.56725 25.9639 -1.56725 26.4122 -1.56725C32.7341 2.61111 38.9125 7.00678 44.9179 11.6197C44.997 11.6809 45.0751 11.7284 45.1531 11.778C45.0698 11.8919 44.9643 12.0195 44.8673 12.144C44.8008 12.0776 44.7333 12.009 44.6373 11.9584C36.9589 7.93823 29.7815 2.96766 22.41 -1.60945C23.4913 -1.64531 24.7096 -1.56725 25.063 -1.56725Z" fill="#212523"/>
</g>
<defs>
<clipPath id="clip0_164_502">
<rect width="100" height="100" fill="white"/>
</clipPath>
</defs>
</svg>
