<svg width="100" height="100" viewBox="0 0 100 100" fill="none" xmlns="http://www.w3.org/2000/svg">
<g clip-path="url(#clip0_164_404)">
<rect width="100" height="100" fill="#D1F24A"/>
<path d="M92 27C96.4183 27 100 30.5817 100 35V100H36L35.5879 99.9893C31.3611 99.7748 28 96.2801 28 92V35C28 30.5817 31.5817 27 36 27H48.5039C48.1892 27.4182 48 27.9363 48 28.5C48 28.6712 48.017 28.8385 48.0498 29H36C32.6863 29 30 31.6863 30 35V92C30 95.3137 32.6863 98 36 98H98V35C98 31.6863 95.3137 29 92 29H67.9502C67.983 28.8385 68 28.6712 68 28.5C68 27.9363 67.8108 27.4182 67.4961 27H92Z" fill="#212523"/>
<path d="M102.36 71.1588L92.0114 61.9846V48.461C92.0114 47.4066 91.1589 46.5541 90.1066 46.5541H82.483C81.4307 46.5541 80.5781 47.4066 80.5781 48.461V51.8486L72.2646 44.4803C71.5418 43.8399 70.4607 43.8399 69.7358 44.4803L39.6408 71.1588C39.0478 71.684 38.8439 72.5221 39.124 73.2614C39.4061 74.0028 40.1145 74.4929 40.9053 74.4929H50.4338V98.4737C50.4338 99.528 51.2863 100.381 52.3386 100.381C53.393 100.381 54.2456 99.528 54.2456 98.4737V72.588C54.2456 71.5357 53.393 70.6831 52.3386 70.6831H45.928L71.0002 48.4507L81.2165 57.5076C81.7787 58.008 82.5756 58.1275 83.2614 57.8206C83.9471 57.5138 84.3858 56.8342 84.3858 56.0826V50.3659H88.1996V62.8433C88.1996 63.389 88.4303 63.908 88.8421 64.2684L96.0724 70.679H89.6638C88.6074 70.679 87.7569 71.5316 87.7569 72.5839V98.4716C87.7569 99.526 88.6074 100.379 89.6638 100.379C90.7161 100.379 91.5687 99.526 91.5687 98.4716V74.4908H101.095C101.886 74.4908 102.596 74.0028 102.876 73.2594C103.156 72.5221 102.951 71.684 102.36 71.1588Z" fill="#212523"/>
<path d="M79.7008 82.1028L81.2226 73.0274C81.2226 71.8638 80.2671 70.9062 79.0995 70.9062H62.9029C61.7332 70.9062 60.7756 71.8638 60.7756 73.0274L62.2995 82.1028C64.2518 82.3334 65.7777 83.9809 65.7777 85.997C65.7777 87.1337 65.2855 88.1551 64.5112 88.8718H77.4911C76.7168 88.1531 76.2247 87.1316 76.2247 85.997C76.2226 83.9809 77.7486 82.3314 79.7008 82.1028Z" fill="#212523"/>
<path d="M61.4409 93.5601C61.4409 94.7318 62.3964 95.6873 63.5661 95.6873V100.378H64.7132V95.6873H77.2874V100.378H78.4344V95.6873C79.6041 95.6873 80.5597 94.7318 80.5597 93.5601V89.9336H61.4409V93.5601Z" fill="#212523"/>
<path d="M80.1622 83.1191C78.5744 83.1191 77.2874 84.4062 77.2874 85.994C77.2874 87.5817 78.5744 88.8688 80.1622 88.8688C81.7499 88.8688 83.037 87.5817 83.037 85.994C83.037 84.4062 81.7499 83.1191 80.1622 83.1191ZM81.0127 87.5652L81.2248 86.3049C81.2248 85.3164 80.9859 84.5154 80.6667 84.2847C81.4163 84.5071 81.9764 85.1764 81.9764 85.996C81.9764 86.6818 81.5769 87.2563 81.0127 87.5652Z" fill="#212523"/>
<path d="M64.7132 85.994C64.7132 84.4062 63.4262 83.1191 61.8384 83.1191C60.2507 83.1191 58.9636 84.4062 58.9636 85.994C58.9636 87.5817 60.2507 88.8688 61.8384 88.8688C63.4262 88.8688 64.7132 87.5837 64.7132 85.994ZM60.9879 87.5652C60.4237 87.2584 60.0242 86.6818 60.0242 85.9919C60.0242 85.1743 60.5843 84.5051 61.3339 84.2806C61.0168 84.5133 60.7758 85.3123 60.7758 86.2987L60.9879 87.5652Z" fill="#212523"/>
<path d="M62.4055 10.0713C61.7726 7.71865 59.8534 5.78748 57.2501 5.50769L22.0261 5.83773C12.1317 7.10934 15.2675 16.4706 19.1747 21.6196C24.764 28.9855 27.0711 39.2859 27.1732 48.1329L29.0879 48.3219C29.1536 47.501 29.2755 46.6024 29.2944 45.8443C29.7481 45.7742 30.2012 45.7053 30.6542 45.6364L30.8652 48.0877L32.7815 47.9263C32.7073 47.0672 32.6335 46.2082 32.5595 45.3491C33.122 45.2653 33.684 45.1826 34.2457 45.1009L34.5169 47.4377L36.4273 47.2189C36.335 46.422 36.2424 45.6249 36.1498 44.828C36.5425 44.7724 36.9352 44.7166 37.3277 44.662C37.4246 45.465 37.5217 46.2681 37.6188 47.0711L39.5282 46.8433L39.2328 44.4009C39.6082 44.3503 40.2768 44.2615 40.6521 44.2121L41.0145 46.5949L42.845 46.3271C42.726 45.5461 42.6073 44.765 42.4886 43.9839C43.0925 43.9073 43.6703 43.876 44.2743 43.8024C44.3699 44.6117 44.4652 45.4213 44.5604 46.2308L46.3545 46.0015C46.2593 45.1907 46.1636 44.38 46.068 43.5691C46.6366 43.503 47.1253 43.4221 47.6943 43.3588C47.7592 44.1115 47.824 44.8643 47.8891 45.6169L49.8054 45.4553L49.6066 43.1513C50.0989 43.0995 50.5911 43.0479 51.0841 42.9982C51.105 43.7522 51.1258 44.5061 51.1464 45.2601L53.0691 45.2121C53.0473 44.4123 53.0253 43.6125 53.0033 42.8127C53.4426 42.7713 53.8821 42.7309 54.3216 42.6915C54.3517 43.4433 54.3819 44.1952 54.4122 44.947L56.3339 44.8745C56.3027 44.0913 56.2713 43.3081 56.2398 42.5249C56.6918 42.4875 57.1442 42.4513 57.597 42.4162L57.6412 44.6623L59.5642 44.6294L59.5182 42.2739C59.927 42.2451 60.3362 42.2174 60.746 42.1903L60.7915 44.3858L62.7145 44.3509L62.6675 42.0713C63.1074 42.0455 63.5473 42.0209 63.9874 41.9975C63.9721 42.9145 64.1059 43.395 64.066 44.3071L65.7086 44.0814C66.1325 34.8446 64.186 24.9764 59.7148 19.105C47.5334 19.7197 36.3354 21.3085 23.6564 21.3609C22.2505 21.3667 21.0514 20.4837 20.0775 19.3434C18.1701 16.9153 16.9431 13.2127 18.2703 10.615C19.0162 9.22081 20.5611 8.24046 22.7371 8.06094C24.0889 7.94943 25.2541 8.57121 25.9686 9.46303C27.2206 11.2774 27.5815 13.7653 26.7683 15.6598C26.1678 17.1774 23.2364 17.9471 23.4484 16.1267C23.8093 14.9807 24.5921 15.6065 24.9694 14.7814C25.404 13.4022 25.3486 11.8037 24.4714 10.6724C24.072 10.1737 23.65 9.92503 22.8995 9.98689C21.174 10.1292 20.3933 10.733 19.965 11.5336C19.1013 13.7607 20.1371 16.4165 21.5357 18.0871C22.2959 18.9769 23.1338 19.4308 23.6433 19.4286C36.2442 19.3765 47.4648 17.7748 59.8425 17.1633C62.3846 15.1981 63.0383 12.424 62.4055 10.0713Z" fill="#212523"/>
</g>
<defs>
<clipPath id="clip0_164_404">
<rect width="100" height="100" fill="white"/>
</clipPath>
</defs>
</svg>
