<svg width="100" height="100" viewBox="0 0 100 100" fill="none" xmlns="http://www.w3.org/2000/svg">
<rect width="100" height="100" fill="#D1F24A"/>
<path d="M75.1847 74.5751C74.0253 75.18 72.6434 75.1801 71.484 74.5752L69.3513 73.4624C68.192 72.8576 66.8102 72.8576 65.6508 73.4624L63.5179 74.5752C62.3586 75.1801 60.9767 75.1801 59.8173 74.5751L57.6851 73.4626C56.5256 72.8576 55.1437 72.8576 53.9843 73.4626L51.8525 74.575C50.6931 75.18 49.3112 75.1801 48.1517 74.5752L46.0189 73.4624C44.8596 72.8575 43.4778 72.8575 42.3185 73.4624L40.1856 74.5751C39.0263 75.18 37.6445 75.18 36.4852 74.5751L33.9034 73.2282C33.0252 72.77 31.9785 72.77 31.1002 73.2282C29.0829 74.2807 26.6685 72.8172 26.6685 70.5418V19C26.6685 16.7909 24.8777 15 22.6685 15H19C16.7909 15 15 16.7909 15 19V80.0007C15 82.2765 17.4147 83.7403 19.4325 82.6878C20.3108 82.2296 21.3576 82.2296 22.2359 82.6878L24.8182 84.0348C25.9775 84.6396 27.3592 84.6396 28.5185 84.0347L30.6516 82.9218C31.8109 82.317 33.1927 82.317 34.3521 82.9218L36.4852 84.0347C37.6445 84.6395 39.0263 84.6395 40.1856 84.0347L42.3184 82.9219C43.4778 82.317 44.8596 82.317 46.019 82.9219L48.1516 84.0346C49.311 84.6395 50.6929 84.6395 51.8523 84.0345L53.9841 82.9221C55.1435 82.3171 56.5255 82.317 57.6849 82.922L59.8173 84.0346C60.9767 84.6395 62.3586 84.6395 63.5179 84.0346L65.6506 82.9219C66.81 82.317 68.1918 82.317 69.3512 82.9219L71.4839 84.0346C72.6433 84.6395 74.0251 84.6395 75.1845 84.0346L77.2228 82.9711L77.7656 82.6878C78.6438 82.2296 79.6905 82.2296 80.5687 82.6878C82.5858 83.7403 85 82.2769 85 80.0018V77.9652C85 76.475 84.1716 75.1083 82.8504 74.4189L81.0176 73.4626C79.8581 72.8576 78.4762 72.8576 77.3168 73.4626L75.1847 74.5751Z" fill="#212523"/>
<path d="M35.2339 15C33.0247 15 31.2339 16.7909 31.2339 19V64.2614C31.2339 65.7517 32.0624 67.1184 33.3837 67.8078L36.4853 69.426C37.6446 70.0308 39.0264 70.0308 40.1858 69.4259L42.3185 68.3132C43.4779 67.7083 44.8597 67.7083 46.0191 68.3132L48.1517 69.4259C49.3111 70.0308 50.6931 70.0308 51.8524 69.4258L53.9843 68.3134C55.1437 67.7084 56.5256 67.7083 57.685 68.3133L59.8175 69.4259C60.9768 70.0308 62.3587 70.0308 63.5181 69.4259L65.6508 68.3132C66.8101 67.7083 68.192 67.7083 69.3513 68.3132L71.484 69.4259C72.6434 70.0308 74.0252 70.0308 75.1846 69.4259L77.7658 68.0791C78.6439 67.6209 79.6907 67.6209 80.5688 68.0791C82.5859 69.1316 85.0001 67.6682 85.0001 65.3931V19C85.0001 16.7909 83.2093 15 81.0001 15H35.2339ZM67.5001 45.4348C66.2395 45.4348 65.2175 44.4128 65.2175 43.1522C65.2175 41.8915 66.2395 40.8696 67.5001 40.8696C68.7608 40.8696 69.7827 41.8915 69.7827 43.1522C69.7827 44.4128 68.7608 45.4348 67.5001 45.4348ZM74.3479 52.2826C74.3479 53.5433 73.326 54.5652 72.0653 54.5652C70.8047 54.5652 69.7827 53.5433 69.7827 52.2826C69.7827 51.022 70.8047 50 72.0653 50C73.326 50 74.3479 51.022 74.3479 52.2826Z" fill="#212523"/>
<rect x="65" y="40" width="12" height="22" fill="#212523"/>
<path d="M59.5909 48C58.8629 48 58.2727 47.4098 58.2727 46.6818C58.2727 45.9538 58.8629 45.3636 59.5909 45.3636C60.3189 45.3636 60.9091 45.9538 60.9091 46.6818C60.9091 47.4098 60.3189 48 59.5909 48Z" fill="#D1F24A"/>
<path d="M75.4091 21.6364C74.6811 21.6364 74.0909 21.0462 74.0909 20.3182C74.0909 19.5902 74.6811 19 75.4091 19C76.1371 19 76.7273 19.5902 76.7273 20.3182C76.7273 21.0462 76.1371 21.6364 75.4091 21.6364Z" fill="#D1F24A"/>
<path d="M80.6818 26.9091C79.9538 26.9091 79.3636 26.3189 79.3636 25.5909C79.3636 24.8629 79.9538 24.2727 80.6818 24.2727C81.4098 24.2727 82 24.8629 82 25.5909C82 26.3189 81.4098 26.9091 80.6818 26.9091Z" fill="#D1F24A"/>
<path d="M65.7795 24.3077C66.217 22.5035 68.783 22.5035 69.2205 24.3077L70.4244 29.2723C70.5806 29.9165 71.0835 30.4194 71.7277 30.5756L76.6923 31.7795C78.4965 32.217 78.4965 34.783 76.6923 35.2205L71.7277 36.4244C71.0835 36.5806 70.5806 37.0835 70.4244 37.7277L69.2205 42.6923C68.783 44.4965 66.217 44.4965 65.7795 42.6923L64.5756 37.7277C64.4194 37.0835 63.9165 36.5806 63.2723 36.4244L58.3077 35.2205C56.5035 34.783 56.5035 32.217 58.3077 31.7795L63.2723 30.5756C63.9165 30.4194 64.4194 29.9165 64.5756 29.2723L65.7795 24.3077Z" fill="#D1F24A"/>
<path fill-rule="evenodd" clip-rule="evenodd" d="M81.0967 37.4484C81.7105 37.6775 82.0224 38.3609 81.7933 38.9747C80.3092 42.9509 77.2284 46.1448 73.3301 47.7762C72.7257 48.0292 72.0307 47.7442 71.7777 47.1398C71.5248 46.5354 71.8097 45.8404 72.4141 45.5874C75.7089 44.2086 78.316 41.5059 79.5704 38.145C79.7995 37.5312 80.4828 37.2193 81.0967 37.4484Z" fill="#D1F24A"/>
<path fill-rule="evenodd" clip-rule="evenodd" d="M63.5728 19.9025C63.8024 20.5161 63.4911 21.1997 62.8774 21.4293C59.498 22.6936 56.7841 25.3311 55.4156 28.6631C55.1667 29.2692 54.4735 29.5587 53.8674 29.3098C53.2614 29.0609 52.9718 28.3677 53.2208 27.7617C54.8393 23.821 58.046 20.7035 62.046 19.207C62.6597 18.9774 63.3433 19.2888 63.5728 19.9025Z" fill="#D1F24A"/>
<path d="M54.3182 42.7273C53.5902 42.7273 53 42.1371 53 41.4091C53 40.6811 53.5902 40.0909 54.3182 40.0909C55.0462 40.0909 55.6364 40.6811 55.6364 41.4091C55.6364 42.1371 55.0462 42.7273 54.3182 42.7273Z" fill="#D1F24A"/>
</svg>
