<svg width="100" height="100" viewBox="0 0 100 100" fill="none" xmlns="http://www.w3.org/2000/svg">
<g clip-path="url(#clip0_164_380)">
<rect width="100" height="100" fill="#D1F24A"/>
<path d="M92 27C96.4183 27 100 30.5817 100 35V100H36L35.5879 99.9893C31.3611 99.7748 28 96.2801 28 92V35C28 30.5817 31.5817 27 36 27H48.5039C48.1892 27.4182 48 27.9363 48 28.5C48 28.6712 48.017 28.8385 48.0498 29H36C32.6863 29 30 31.6863 30 35V92C30 95.3137 32.6863 98 36 98H98V35C98 31.6863 95.3137 29 92 29H67.9502C67.983 28.8385 68 28.6712 68 28.5C68 27.9363 67.8108 27.4182 67.4961 27H92Z" fill="#212523"/>
<path d="M102.36 71.1588L92.0114 61.9846V48.461C92.0114 47.4066 91.1589 46.5541 90.1066 46.5541H82.483C81.4307 46.5541 80.5781 47.4066 80.5781 48.461V51.8486L72.2646 44.4803C71.5418 43.8399 70.4607 43.8399 69.7358 44.4803L39.6408 71.1588C39.0478 71.684 38.8439 72.5221 39.124 73.2614C39.4061 74.0028 40.1145 74.4929 40.9053 74.4929H50.4338V98.4737C50.4338 99.528 51.2863 100.381 52.3386 100.381C53.393 100.381 54.2456 99.528 54.2456 98.4737V72.588C54.2456 71.5357 53.393 70.6831 52.3386 70.6831H45.928L71.0002 48.4507L81.2165 57.5076C81.7787 58.008 82.5756 58.1275 83.2614 57.8206C83.9471 57.5138 84.3858 56.8342 84.3858 56.0826V50.3659H88.1996V62.8433C88.1996 63.389 88.4303 63.908 88.8421 64.2684L96.0724 70.679H89.6638C88.6074 70.679 87.7569 71.5316 87.7569 72.5839V98.4716C87.7569 99.526 88.6074 100.379 89.6638 100.379C90.7161 100.379 91.5687 99.526 91.5687 98.4716V74.4908H101.095C101.886 74.4908 102.596 74.0028 102.876 73.2594C103.156 72.5221 102.951 71.684 102.36 71.1588Z" fill="#212523"/>
<path d="M79.7008 82.1028L81.2226 73.0274C81.2226 71.8638 80.2671 70.9062 79.0995 70.9062H62.9029C61.7332 70.9062 60.7756 71.8638 60.7756 73.0274L62.2995 82.1028C64.2518 82.3334 65.7777 83.9809 65.7777 85.997C65.7777 87.1337 65.2855 88.1551 64.5112 88.8718H77.4911C76.7168 88.1531 76.2247 87.1316 76.2247 85.997C76.2226 83.9809 77.7486 82.3314 79.7008 82.1028Z" fill="#212523"/>
<path d="M61.4409 93.5601C61.4409 94.7318 62.3964 95.6873 63.5661 95.6873V100.378H64.7132V95.6873H77.2874V100.378H78.4344V95.6873C79.6041 95.6873 80.5597 94.7318 80.5597 93.5601V89.9336H61.4409V93.5601Z" fill="#212523"/>
<path d="M80.1622 83.1191C78.5744 83.1191 77.2874 84.4062 77.2874 85.994C77.2874 87.5817 78.5744 88.8688 80.1622 88.8688C81.7499 88.8688 83.037 87.5817 83.037 85.994C83.037 84.4062 81.7499 83.1191 80.1622 83.1191ZM81.0127 87.5652L81.2248 86.3049C81.2248 85.3164 80.9859 84.5154 80.6667 84.2847C81.4163 84.5071 81.9764 85.1764 81.9764 85.996C81.9764 86.6818 81.5769 87.2563 81.0127 87.5652Z" fill="#212523"/>
<path d="M64.7132 85.994C64.7132 84.4062 63.4262 83.1191 61.8384 83.1191C60.2507 83.1191 58.9636 84.4062 58.9636 85.994C58.9636 87.5817 60.2507 88.8688 61.8384 88.8688C63.4262 88.8688 64.7132 87.5837 64.7132 85.994ZM60.9879 87.5652C60.4237 87.2584 60.0242 86.6818 60.0242 85.9919C60.0242 85.1743 60.5843 84.5051 61.3339 84.2806C61.0168 84.5133 60.7758 85.3123 60.7758 86.2987L60.9879 87.5652Z" fill="#212523"/>
<path d="M62.4053 10.0713C61.7725 7.71865 59.8533 5.78748 57.25 5.50769L22.0259 5.83773C12.1316 7.10934 15.2674 16.4706 19.1746 21.6196C24.7639 28.9855 27.071 39.2859 27.1731 48.1329L29.0878 48.3219C29.1535 47.501 29.2754 46.6024 29.2943 45.8443C29.748 45.7742 30.2011 45.7053 30.654 45.6364L30.865 48.0877L32.7814 47.9263C32.7072 47.0672 32.6334 46.2082 32.5594 45.3491C33.1219 45.2653 33.6839 45.1826 34.2456 45.1009L34.5168 47.4377L36.4271 47.2189C36.3349 46.422 36.2423 45.6249 36.1497 44.828C36.5424 44.7724 36.9351 44.7166 37.3276 44.662C37.4245 45.465 37.5216 46.2681 37.6187 47.0711L39.5281 46.8433L39.2327 44.4009C39.6081 44.3503 40.2767 44.2615 40.652 44.2121L41.0144 46.5949L42.8448 46.3271C42.7259 45.5461 42.6072 44.765 42.4885 43.9839C43.0924 43.9073 43.6702 43.876 44.2742 43.8024C44.3698 44.6117 44.465 45.4213 44.5603 46.2308L46.3544 46.0015C46.2591 45.1907 46.1635 44.38 46.0679 43.5691C46.6365 43.503 47.1251 43.4221 47.6942 43.3588C47.7591 44.1115 47.8239 44.8643 47.889 45.6169L49.8052 45.4553L49.6064 43.1513C50.0988 43.0995 50.591 43.0479 51.0839 42.9982C51.1049 43.7522 51.1256 44.5061 51.1463 45.2601L53.069 45.2121C53.0472 44.4123 53.0252 43.6125 53.0031 42.8127C53.4425 42.7713 53.882 42.7309 54.3215 42.6915C54.3516 43.4433 54.3817 44.1952 54.412 44.947L56.3338 44.8745C56.3026 44.0913 56.2711 43.3081 56.2397 42.5249C56.6917 42.4875 57.144 42.4513 57.5969 42.4162L57.6411 44.6623L59.564 44.6294L59.5181 42.2739C59.9268 42.2451 60.3361 42.2174 60.7459 42.1903L60.7913 44.3858L62.7144 44.3509L62.6673 42.0713C63.1072 42.0455 63.5472 42.0209 63.9872 41.9975C63.972 42.9145 64.1058 43.395 64.0658 44.3071L65.7085 44.0814C66.1324 34.8446 64.1859 24.9764 59.7147 19.105C47.5333 19.7197 36.3352 21.3085 23.6563 21.3609C22.2504 21.3667 21.0513 20.4837 20.0774 19.3434C18.17 16.9153 16.943 13.2127 18.2702 10.615C19.0161 9.22081 20.561 8.24046 22.737 8.06094C24.0888 7.94943 25.254 8.57121 25.9685 9.46303C27.2205 11.2774 27.5814 13.7653 26.7682 15.6598C26.1677 17.1774 23.2363 17.9471 23.4483 16.1267C23.8092 14.9807 24.5919 15.6065 24.9692 14.7814C25.4039 13.4022 25.3484 11.8037 24.4713 10.6724C24.0719 10.1737 23.6499 9.92503 22.8994 9.98689C21.1739 10.1292 20.3931 10.733 19.9649 11.5336C19.1011 13.7607 20.137 16.4165 21.5355 18.0871C22.2958 18.9769 23.1337 19.4308 23.6431 19.4286C36.244 19.3765 47.4647 17.7748 59.8424 17.1633C62.3845 15.1981 63.0381 12.424 62.4053 10.0713Z" fill="#212523"/>
</g>
<defs>
<clipPath id="clip0_164_380">
<rect width="100" height="100" fill="white"/>
</clipPath>
</defs>
</svg>
