<?xml version="1.0" encoding="UTF-8" standalone="no"?>
<svg
   xmlns:dc="http://purl.org/dc/elements/1.1/"
   xmlns:cc="http://creativecommons.org/ns#"
   xmlns:rdf="http://www.w3.org/1999/02/22-rdf-syntax-ns#"
   xmlns:svg="http://www.w3.org/2000/svg"
   xmlns="http://www.w3.org/2000/svg"
   height="280"
   width="565"
   id="svg8"
   version="1.1">
  <metadata
     id="metadata14">
    <rdf:RDF>
      <cc:Work
         rdf:about="">
        <dc:format>image/svg+xml</dc:format>
        <dc:type
           rdf:resource="http://purl.org/dc/dcmitype/StillImage" />
        <dc:title></dc:title>
      </cc:Work>
    </rdf:RDF>
  </metadata>
  <defs
     id="defs12" />
  <path
     style="stroke-width:0.06305226;fill:#000000;fill-opacity:1;stroke:none"
     d="m 456.68257,261.43278 -8.11836,3.3758 C 452.18141,275.33898 461.98616,280 470.90848,280 c 13.74325,0 21.13752,-9.72777 21.13752,-19.04983 0,-7.15301 -4.33819,-14.06925 -13.58487,-16.07386 l -12.13522,-2.73625 c -4.33971,-0.96386 -6.59186,-4.49819 -6.59186,-8.03545 0,-5.94921 5.06378,-9.24359 10.61025,-9.24359 5.46656,0 11.33124,3.13607 13.34356,10.12444 l 7.79552,-3.05148 c -2.65336,-10.45035 -11.9769,-15.4341 -21.05914,-15.4341 -10.12296,0 -20.01378,6.18892 -20.01378,17.84603 0,7.23285 4.90237,14.3845 13.8247,16.3966 l 10.6902,2.40738 c 5.38504,1.12693 7.79553,4.66421 7.79553,8.28131 0,6.4275 -5.86625,10.20767 -12.1368,10.20767 -5.62339,0.002 -11.65099,-3.13472 -13.90159,-10.20609 z M 339.4962,248.25074 c 0,17.52171 14.22748,31.74926 31.74772,31.74926 13.26362,0 24.59329,-8.11983 29.33734,-19.6125 l -8.67947,-3.61868 c -3.21598,8.67932 -11.25286,14.79158 -20.5779,14.79158 -12.21669,0 -22.1029,-10.45351 -22.1029,-23.31125 0,-12.86091 9.88621,-23.30807 22.1029,-23.30807 9.32351,0 17.36192,6.10909 20.5779,14.78546 l 8.67947,-3.61732 c -4.74405,-11.49246 -16.07372,-19.61092 -29.33734,-19.61092 -17.5203,0 -31.74772,14.23209 -31.74772,31.75244 z M 138.80657,216.50125 c -17.52033,0 -31.74623,14.22914 -31.74623,31.74949 0,17.52171 14.2259,31.74926 31.74623,31.74926 13.26053,0 24.59486,-8.11983 29.33583,-19.6125 l -8.67946,-3.61868 c -3.21289,8.67932 -11.25287,14.79158 -20.57643,14.79158 -12.21668,0 -22.10288,-10.45351 -22.10288,-23.31125 0,-12.86091 9.88771,-23.30807 22.10288,-23.30807 9.32356,0 17.36354,6.10909 20.57643,14.78546 l 8.67946,-3.61732 c -4.74248,-11.48951 -16.0753,-19.60775 -29.33583,-19.60775 z m 307.74844,1.60954 v 8.43665 H 428.7933 v 51.84461 h -9.64636 v -51.84461 h -17.76322 v -8.43665 z m -111.87973,0 v 8.43824 h -25.31584 v 17.5233 h 22.98682 v 8.43666 h -22.98682 v 17.44028 h 25.31584 v 8.44278 h -34.96072 v -60.28126 z m -42.99912,0 v 8.43665 h -17.76321 v 51.84461 h -9.64334 v -51.84461 h -17.7632 v -8.43665 z m -206.157696,0 c 9.484949,0 17.199016,7.71409 17.200536,17.19898 0,9.48194 -7.715587,17.19922 -17.199017,17.19922 h -1.206758 l 23.228205,25.88306 H 95.326251 L 72.499249,252.91313 v 25.47892 h -9.646364 v -60.28126 z m -51.759971,0 23.869252,60.28126 H 47.178914 L 41.152821,262.79626 H 16.39655 l -6.026093,15.59579 H 0 l 23.872341,-60.28126 h 9.886216 z m 204.217617,0 v 60.27968 h -9.64636 v -60.27968 z m -53.95369,25.96154 h 26.52104 v -25.96154 h 9.64484 v 60.27968 h -9.64484 v -25.88172 h -26.52104 v 25.88172 h -9.64486 v -60.27968 h 9.64486 z m -146.087155,10.36733 -9.162124,-23.63102 -9.162124,23.63102 h 18.324311 z m 47.180484,-10.36733 c 4.822433,-0.002 7.958453,-3.93847 7.958453,-8.76256 0,-4.8209 -3.134508,-8.76074 -7.958453,-8.76074 H 72.497797 v 17.5233 z"
     id="path2" />
  <path
     style="stroke-width:0.19516194;fill:#000000;fill-opacity:1;stroke:none"
     d="m 83.088248,0 c 32.425772,0 55.615512,28.55014 55.615512,54.58554 0,24.739379 -10.91151,36.464264 -25.10527,45.251214 14.19376,8.784196 25.10527,20.508856 25.10527,45.249826 0,26.0338 -23.18974,54.58554 -55.615512,54.58554 H 0 V 0 Z M 564.99639,1.31279 v 50.4319 H 492.0465 v 23.778425 h 66.38574 V 125.70141 H 492.0465 v 73.95694 H 439.59608 V 1.31279 h 125.40008 z m -289.46129,0 v 50.4319 h -72.94839 v 23.778425 h 66.3856 v 50.178295 h -66.3856 v 23.52504 h 72.94839 v 50.42892 H 150.13496 V 1.31301 H 275.5351 Z m 65.01761,74.208948 h 34.02783 V 1.31279 h 52.44858 v 198.34235 h -52.44858 v -73.95373 h -34.02783 v 73.95373 h -52.4518 V 1.31279 h 52.4518 z M 74.946877,153.7014 c 5.744778,0 11.541879,-4.75954 11.541879,-15.39289 0,-9.23127 -4.745563,-15.67861 -11.541879,-15.67861 H 49.826216 v 31.07127 h 25.120661 z m 0,-76.660777 c 6.796316,0 11.541879,-6.445968 11.541879,-15.677242 0,-10.633341 -5.797101,-15.391281 -11.541879,-15.391281 H 49.826216 v 31.068523 z"
     id="path4" />
</svg>
