<svg xmlns="http://www.w3.org/2000/svg" fill="#4e5d7e" viewBox="0 0 400 32">
  <path d="M21.1 17.41c0-9.3-2.7-13.6-9.7-13.6-2 0-3.2.1-3.8.4v21.9c0 3.4.3 3.9 4 3.9 7.4 0 9.5-5.4 9.5-12.6M0 30.51l1.9-.4c.9-.1 1.3-.4 1.3-2.5V6.11c0-2.1-.3-2.3-1.3-2.5L0 3.21v-.8h12.1c7.7 0 13.8 3.5 13.8 14.1 0 9.7-5.7 14.6-14 14.6H.1v-.6H0z" class="st0"/>
  <path d="M43.44 21.01c0-7.5-2-10.3-5.8-10.3-3.7 0-5.6 2.8-5.6 9.4 0 7.5 2 10.5 6 10.5 3.4.1 5.4-2.9 5.4-9.6m-15.9-.3c0-7.2 4.9-11.3 10.2-11.3 5.7 0 10.2 3.6 10.2 11 0 7.2-4.9 11.4-10.2 11.4-5.8.1-10.2-3.7-10.2-11.1" class="st0"/>
  <path d="m47.41 30.98 1.6-.4c.8-.1 1.1-.5 1.1-2.1v-14.1c0-1.6-.3-1.7-1.2-2.3l-1.5-.8v-.5l6.4-.9.3.1-.1 2.4h.1c2-1.3 5-2.7 7.6-2.7 4.1 0 5.4 1.7 5.4 5.5v12.9c0 1.6.3 2 1.1 2.1l1.6.4v.7h-9.4v-.7l1.6-.4c.8-.3 1.1-.4 1.1-2.1v-12.1c0-3-.9-3.9-3.4-3.9-2 0-4.4.7-5.6 1.1v14.9c0 1.7.3 2 1.1 2.1l1.6.4v.7h-9.4v-.3z" class="st0"/>
  <path d="M81.58 27.83v-6.7l-3.2.3c-2.7.3-4.5 1.5-4.5 4.6 0 2.4 1.5 3.9 3.7 3.9 2-.1 3.5-1 4-2.1m-11.8-1.5c0-3.4 3.2-4.8 5.8-5.5l6-1.3v-4.3c0-2.8-.4-4.4-3.8-4.4-1.7 0-2.3.4-2.4 1.6-.3 1.5-.4 2.7-2.1 2.7-1.6 0-2.3-.9-2.3-2 0-2.5 4.2-3.5 7.6-3.5 4.9 0 7 1.9 7 5.4v12.8c0 1.1.3 1.7 1.1 2.1.4.3 1.1.3 2 .4v.7c-.7.4-2.1.9-3.6.9-2.1 0-3.2-1.1-3.3-2.4h-.1c-.9 1.3-3.3 2.4-5.6 2.4-3.9-.1-6.3-1.9-6.3-5.6" class="st0"/>
  <path d="m89.84 30.58 1.6-.4c.8-.1 1.1-.5 1.1-2.1V4.38c0-1.6-.3-1.7-1.2-2.1l-1.7-.8v-.7l6.8-.7.3.3s-.1 2.1-.1 5v22.7c0 1.7.3 2 1.1 2.1l1.6.4v.7h-9.3v-.7z" class="st0"/>
  <path d="M114.35 28.1V12.7c-.9-.9-2.1-1.7-4-1.7-4.2 0-6.9 2.5-6.9 9.7 0 6.3 2.1 9 6.1 9 2.5-.1 3.8-1 4.8-1.6m-15.2-6.7c0-8 5.6-11.8 11.4-11.8 1.7 0 2.9.3 3.7.5V4.4c0-1.6-.3-1.7-1.2-2.1l-1.7-.8V.8l6.8-.7.3.3s-.1 1.7-.1 5v21.7c0 1.9.3 2.1 1.2 2.5l1.5.7v.5l-6.4 1.1-.3-.3.1-2.1h-.1a11.7 11.7 0 0 1-6.9 2.4c-4 0-8.3-2.6-8.3-10.5" class="st0"/>
  <path d="m128.85 30.31 2-.3c.9-.1 1.3-.4 1.3-2.5V6.11c0-2.1-.3-2.3-1.3-2.5l-2-.3v-.8h11v.8l-2 .4c-1.1.3-1.3.4-1.3 2.5v21.3c0 2.1.3 2.3 1.3 2.5l2 .4v.8h-11v-.9z" class="st0"/>
  <path d="m141.34 30.98 1.6-.4c.8-.1 1.1-.5 1.1-2.1v-14c0-1.6-.3-1.7-1.2-2.3l-1.5-.8v-.5l6.4-.9.3.1-.1 2.4h.1c2-1.3 5-2.7 7.6-2.7 4.1 0 5.4 1.7 5.4 5.5v12.9c0 1.6.3 1.9 1.1 2l1.6.4v.7h-9.5v-.7l1.6-.4c.8-.3 1.1-.3 1.1-2v-12.1c0-3-.9-3.9-3.4-3.9-2 0-4.4.7-5.6 1.1v14.9c0 1.7.3 1.9 1.1 2l1.6.4v.7h-9.2v-.3z" class="st0"/>
  <path d="m165.11 30.82-.1-6.2h.8c.7 1.6 1.3 2.7 2.1 4 .9 1.5 1.6 1.9 3.7 1.9 2.5 0 4.2-1.5 4.2-3.8s-1.5-3.4-4.9-4.7c-3.3-1.3-5.8-3-5.8-6.3 0-3.9 3.3-6.3 7.6-6.3 2.3 0 3.8.3 5.3.9l.1 5.3h-.8c-.7-1.5-1.3-2.4-2.1-3.5-.9-1.2-1.9-1.5-3.2-1.5-2.7 0-4 1.2-4 3.2 0 1.9 1.5 3.4 4.8 4.6 3.8 1.5 6.2 3.1 6.2 6.3 0 3.9-3.1 6.8-8.1 6.8-2 .3-4.3-.1-5.8-.7" class="st0"/>
  <path d="M192.32 27.83v-6.7l-3.2.3c-2.7.2-4.5 1.5-4.5 4.5 0 2.4 1.5 3.9 3.7 3.9 2 0 3.4-.9 4-2m-11.8-1.5c0-3.4 3.2-4.8 5.8-5.5l6-1.3v-4.3c0-2.8-.4-4.4-3.8-4.4-1.7 0-2.3.4-2.4 1.6-.3 1.5-.4 2.7-2.1 2.7-1.6 0-2.3-.9-2.3-2 0-2.5 4.2-3.5 7.6-3.5 4.9 0 7 1.9 7 5.4v12.8c0 1.1.3 1.7 1.1 2.1.4.3 1.1.3 2 .4v.7c-.8.4-2.2 1-3.7 1-2.1 0-3.2-1.1-3.3-2.4h-.1c-.9 1.3-3.3 2.4-5.6 2.4-3.9-.2-6.2-2-6.2-5.7" class="st0"/>
  <path d="m200.59 30.58 1.6-.4c.8-.1 1.1-.5 1.1-2.1V4.38c0-1.6-.3-1.7-1.2-2.1l-1.7-.8v-.7l6.8-.7.3.3s-.1 2.1-.1 5v22.7c0 1.7.3 2 1.1 2.1l1.6.4v.7h-9.3v-.7z" class="st0"/>
  <path d="m211.5 30.58 1.6-.4c.8-.1 1.1-.5 1.1-2.1V4.38c0-1.6-.3-1.7-1.2-2.1l-1.7-.8v-.7l6.8-.7.3.3s-.1 2.1-.1 5v22.7c0 1.7.3 2 1.1 2.1l1.6.4v.7h-9.3v-.7z" class="st0"/>
  <path d="M235.48 19.57h8.1l-4.1-11.7h-.3l-3.7 11.7zm-7.7 10.9 1.2-.3c1.2-.3 1.5-.7 2.7-4.3l8.2-23.5h2.3l8.6 24c1.1 3 1.6 3.5 2.7 3.9l1.1.3v.7h-10.6v-.7l1.2-.2c1-.3 1.4-.7 1.4-1.5 0-.7-.3-1.7-.7-2.8l-1.7-5h-9l-1.7 5c-.4 1.1-.5 2-.5 2.5 0 .9.4 1.5 1.5 1.6l1.3.3v.8h-8v-.8z" class="st0"/>
  <path d="m255.51 30.82-.1-6.2h.8c.7 1.6 1.3 2.7 2.1 4 .9 1.5 1.6 1.9 3.7 1.9 2.5 0 4.2-1.5 4.2-3.8s-1.5-3.4-4.9-4.7c-3.3-1.3-5.8-3.1-5.8-6.3 0-3.9 3.3-6.3 7.6-6.3 2.3 0 3.8.3 5.3.9l.1 5.2h-.8c-.7-1.5-1.3-2.4-2.1-3.5-.9-1.2-1.9-1.5-3.2-1.5-2.7 0-4 1.2-4 3.2 0 1.9 1.5 3.4 4.8 4.6 3.8 1.5 6.2 3.1 6.2 6.3 0 3.9-3.1 6.8-8.1 6.8-1.9.4-4.2 0-5.8-.6" class="st0"/>
  <path d="m271.09 30.82-.1-6.2h.8c.7 1.6 1.3 2.7 2.1 4 .9 1.5 1.6 1.9 3.7 1.9 2.5 0 4.2-1.5 4.2-3.8s-1.5-3.4-4.9-4.7c-3.3-1.3-5.8-3.1-5.8-6.3 0-3.9 3.3-6.3 7.6-6.3 2.3 0 3.8.3 5.3.9l.1 5.2h-.8c-.7-1.5-1.3-2.4-2.1-3.5-.9-1.2-1.9-1.5-3.2-1.5-2.7 0-4 1.2-4 3.2 0 1.9 1.5 3.4 4.8 4.6 3.8 1.6 6.2 3.2 6.2 6.4 0 3.9-3.1 6.8-8.1 6.8-2 .3-4.2-.1-5.8-.7" class="st0"/>
  <path d="M302.14 21.01c0-7.5-2-10.3-5.8-10.3-3.7 0-5.6 2.8-5.6 9.4 0 7.5 2 10.5 6 10.5 3.4.1 5.4-2.9 5.4-9.6m-15.9-.3c0-7.2 4.9-11.3 10.2-11.3 5.7 0 10.2 3.6 10.2 11 0 7.2-4.9 11.4-10.2 11.4-5.8.1-10.2-3.7-10.2-11.1" class="st0"/>
  <path d="M307.84 20.94c0-9 6.5-11.5 11.5-11.5 3.8 0 5.7 1.3 5.7 3.5 0 1.3-.9 2.3-2.4 2.3-1.6 0-2.1-.9-2.3-2.3-.3-1.9-.7-2.1-2.1-2.1-3.3 0-6.2 2.3-6.2 8.7s2.1 9.8 6.6 9.8c2.7 0 5.2-.9 6.5-1.7v1.2c-1.2 1.1-4.1 3.1-8 3.1-6-.1-9.3-4.7-9.3-11" class="st0"/>
  <path d="M328.46 3.75c0-1.3 1.1-2.4 2.5-2.4 1.3 0 2.5 1.1 2.5 2.4s-1.1 2.4-2.5 2.4c-1.4.2-2.5-1-2.5-2.4m-2.1 26.9 1.6-.4c.8-.3 1.1-.5 1.1-2.1v-14c0-1.6-.3-1.7-1.2-2.3l-1.5-.8v-.5l6.6-.9.3.1s-.1 1.7-.1 3.9v14.3c0 1.7.3 2 1.1 2.1l1.6.4v.7h-9.4v-.5z" class="st0"/>
  <path d="M348.27 27.83v-6.7l-3.2.3c-2.7.3-4.5 1.5-4.5 4.6 0 2.4 1.5 3.9 3.7 3.9 2-.1 3.4-1 4-2.1m-11.8-1.5c0-3.4 3.2-4.8 5.8-5.5l6-1.3v-4.3c0-2.8-.4-4.4-3.8-4.4-1.7 0-2.3.4-2.4 1.6-.3 1.5-.4 2.7-2.1 2.7-1.6 0-2.3-.9-2.3-2 0-2.5 4.2-3.5 7.6-3.5 4.9 0 7 1.9 7 5.4v12.8c0 1.1.3 1.7 1.1 2.1.4.3 1.1.3 2 .4v.7c-.8.4-2.2 1-3.7 1-2.1 0-3.2-1.1-3.3-2.4h-.1c-.9 1.3-3.3 2.4-5.6 2.4-3.8-.2-6.2-2-6.2-5.7" class="st0"/>
  <path d="M357.17 27.44v-15.6h-2.8v-.7c2.8-.9 4.8-2.8 5.8-6h.9v5h5.8l-.4 1.7h-5.3v15.2c0 1.7.9 2.5 2.7 2.5 1.2 0 2.4-.3 3.2-.5v.8c-.8.5-2.7 1.9-5.3 1.9-2.5.1-4.6-1.1-4.6-4.3" class="st0"/>
  <path d="m370.32 18.54 9.4-.5c0-5-.8-7.4-3.8-7.4-3.1.1-5.3 2.6-5.6 7.9m-4.2 2c0-6.7 4.6-11 10-11 5 0 8.2 2.8 8.2 10.3h-14c0 6.8 2.9 9.5 7 9.5 3.1 0 5-.9 6.5-1.7v1.3c-1 .9-3.9 3-7.8 3-6.6-.1-9.9-4.7-9.9-11.4" class="st0"/>
  <path d="m385.98 30.82-.1-6.2h.7c.7 1.6 1.3 2.7 2.1 4 .9 1.5 1.6 1.9 3.7 1.9 2.5 0 4.2-1.5 4.2-3.8s-1.5-3.4-4.9-4.7c-3.3-1.3-5.8-3.1-5.8-6.3 0-3.9 3.3-6.3 7.6-6.3 2.3 0 3.8.3 5.3.9l.1 5.2h-.8c-.7-1.5-1.3-2.4-2-3.5-.9-1.2-1.9-1.5-3.2-1.5-2.7 0-4 1.2-4 3.2 0 1.9 1.5 3.4 4.8 4.6 3.8 1.5 6.2 3.1 6.2 6.3 0 3.9-3.1 6.8-8.1 6.8-2 .4-4.2 0-5.8-.6" class="st0"/>
</svg>
