<svg width="300" height="15" viewBox="0 0 300 15" xmlns="http://www.w3.org/2000/svg"><title>EWA_logo</title><desc>Created with Sketch.</desc><path d="M0 14.637h9.57v-2.3H2.474v-3.87H8.86V6.17H2.476V2.66h6.74V.36H0v14.275zm11.612 0H16.8c3.34 0 7.367-2.258 7.367-7.137 0-4.838-3.42-7.137-7.074-7.137h-5.48v14.274zm2.475-2.3V2.663h2.26c3.026 0 5.226 1.37 5.226 4.838s-2.534 4.84-5.64 4.84h-1.846zm14.598 2.3h2.28L34.187 3.77h.04l3.22 10.867h2.36L43.853.363H41.34l-2.732 10.282h-.04L35.505.363h-2.437l-3.124 10.282h-.04L27.292.363h-2.71l4.105 14.274zm14.284 0h2.77l1.256-3.266h6.032l1.296 3.268h2.83L51.162.363H49.02l-6.05 14.274zm4.87-5.444l2.18-5.806 2.144 5.806H47.84zm10.473 5.444h2.476V8.59h1.806l3.223 6.047h2.985l-3.694-6.31c2.064-.303 3.224-1.815 3.224-3.87 0-3.207-2.515-4.094-5.188-4.094h-4.833v14.274zM60.79 6.41V2.54h2.14c1.278 0 2.81.202 2.81 1.896 0 1.854-1.63 1.975-3.025 1.975H60.79zm9.51 8.227h5.186c3.34 0 7.368-2.258 7.368-7.137 0-4.838-3.42-7.137-7.073-7.137H70.3v14.274zm2.475-2.3V2.663h2.26c3.025 0 5.226 1.37 5.226 4.838s-2.533 4.84-5.637 4.84h-1.847zm20.02 2.3h2.28L98.297 3.77h.04l3.222 10.867h2.355l4.05-14.274h-2.516l-2.733 10.282h-.04L99.613.363h-2.436l-3.124 10.282h-.04L91.4.363h-2.71l4.105 14.274zm16.268 0h2.476V.363h-2.478v14.274zm5.13 0h8.39v-2.3h-5.916V.364h-2.475v14.274zm9.803 0h8.39v-2.3h-5.914V.364h-2.476v14.274zm9.745 0h2.478V.363h-2.476v14.274zm3.578 0h2.77l1.258-3.266h6.032l1.297 3.268h2.83L145.51.363h-2.14l-6.053 14.274zm4.873-5.444l2.18-5.806 2.143 5.806h-4.322zm10.53 5.444h2.36V2.783h.04l4.223 11.854h1.73l4.224-11.854h.04v11.854h2.357V.363h-3.733l-3.752 10-3.713-10h-3.773v14.274zm26.37-13.165C178.008.424 176.553 0 175.1 0c-2.574 0-5.128 1.37-5.128 4.315 0 5.1 6.6 3.306 6.6 6.43 0 1.312-1.296 1.957-2.435 1.957-1.1 0-2.142-.545-2.75-1.493l-1.867 1.854c1.14 1.39 2.83 1.935 4.558 1.935 2.73 0 5.09-1.493 5.09-4.558 0-5.08-6.603-3.447-6.603-6.31 0-1.31 1.14-1.835 2.28-1.835.962 0 1.905.364 2.436 1.13l1.81-1.956zm6.13 13.165h2.77l1.258-3.266h6.032l1.297 3.268h2.83L193.41.363h-2.14l-6.052 14.274zm4.872-5.444l2.182-5.806 2.14 5.806h-4.322zm10.473 5.444h2.475V8.59h1.808l3.222 6.047h2.987l-3.694-6.31c2.064-.303 3.223-1.815 3.223-3.87 0-3.207-2.515-4.094-5.187-4.094h-4.834v14.274zm2.475-8.226V2.54h2.142c1.277 0 2.81.202 2.81 1.896 0 1.854-1.63 1.975-3.026 1.975h-1.926zm20.984-4.15C222.647.624 221.036 0 219.15 0c-4.284 0-7.35 2.984-7.35 7.56 0 4.456 3.066 7.44 7.35 7.44 2.043 0 3.93-.767 5.186-2.54l-2.043-1.492c-.923 1.21-2.004 1.734-3.124 1.734-2.87 0-4.777-2.26-4.777-5.303 0-2.844 1.907-5.103 4.775-5.103.962 0 1.905.303 2.927 1.412l1.925-1.453zm1.59 12.38h2.477V8.35h6.504v6.29h2.475V.36h-2.476V6.05h-6.504V.362h-2.477v14.274zm14.11 0h2.474V.36h-2.475v14.274zm7.976 0h2.475V2.66h4.264V.36h-11.004v2.3h4.264v11.975zm8.036 0h9.568v-2.3h-7.093V8.47h6.386v-2.3h-6.386V2.662h6.738v-2.3h-9.214v14.275zm23.086-12.38C277.444.624 275.832 0 273.947 0c-4.283 0-7.348 2.984-7.348 7.56 0 4.456 3.063 7.44 7.346 7.44 2.043 0 3.93-.767 5.187-2.54l-2.044-1.492c-.924 1.21-2.005 1.734-3.124 1.734-2.87 0-4.775-2.26-4.775-5.303 0-2.844 1.907-5.103 4.776-5.103.963 0 1.906.303 2.927 1.412l1.926-1.453zm4.44 12.38h2.475V2.66H290V.36h-11.004v2.3h4.264v11.975zM299.92 1.47C298.84.424 297.388 0 295.934 0c-2.574 0-5.128 1.37-5.128 4.315 0 5.1 6.6 3.306 6.6 6.43 0 1.312-1.295 1.957-2.435 1.957-1.1 0-2.14-.545-2.75-1.493l-1.866 1.854c1.14 1.39 2.83 1.935 4.558 1.935 2.732 0 5.09-1.493 5.09-4.558 0-5.08-6.602-3.447-6.602-6.31 0-1.31 1.14-1.835 2.28-1.835.962 0 1.905.364 2.435 1.13l1.808-1.956z" fill="#000"/></svg>