<?xml version="1.0" encoding="UTF-8" standalone="no"?>
<svg
   xmlns:svg="http://www.w3.org/2000/svg"
   xmlns="http://www.w3.org/2000/svg"
   version="1.1"
   width="455.97922"
   height="37.184292"
   id="svg8643">
  <defs
     id="defs8645" />
  <g
     transform="translate(-122.01039,-513.77004)"
     id="layer1">
    <path
       d="m 551.5588,550.35133 0,0 0,-35.8778 4.52238,0 18.19016,31.45586 0.10037,0 0,-31.45586 3.61789,0 0,35.8778 -4.72335,0 -17.98916,-30.9534 -0.10038,0 0,30.9534 -3.61795,0 z m 0,0 m -25.78773,0 0,0 0,-35.8778 17.58711,0 0,3.01495 -14.06969,0 0,12.76325 13.36625,0 0,3.21593 -13.36625,0 0,13.76823 14.67264,0 0,3.11544 -18.19005,0 z m 0,0 m -19.49665,0 0,0 0,-32.86285 -10.65277,0 0,-3.01495 24.72251,0 0,3.01495 -10.55227,0 0,32.86285 -3.51746,0 z m 0,0 m -38.30982,0 0,0 0,-35.8778 3.51743,0 0,16.07967 16.07967,-16.07967 4.72341,0 -17.38612,16.88366 18.8936,18.99414 -4.9244,0 -17.38617,-17.98912 0,17.98912 -3.51741,0 z m 0,0 m -26.77264,0 0,0 0,-35.8778 17.5871,0 0,3.01495 -14.06968,0 0,12.76325 13.36625,0 0,3.21593 -13.36625,0 0,13.76823 14.67269,0 0,3.11544 -18.1901,0 z m 0,0 m -19.51671,0 0,0 0,-32.86285 -10.65282,0 0,-3.01495 24.72251,0 0,3.01495 -10.55228,0 0,32.86285 -3.51741,0 z m 0,0 m -20.1599,0 0,0 0,-35.8778 3.61791,0 0,35.8778 -3.61791,0 z m 0,0 m -35.57627,0 0,0 0,-35.8778 3.6179,0 0,15.7782 18.08966,0 0,-15.7782 3.51741,0 0,35.8778 -3.51741,0 0,-16.88367 -18.08966,0 0,16.88367 -3.6179,0 z m 0,0 m -7.43688,-35.2748 0,0 -0.30154,3.41692 c -2.21102,-1.30645 -5.52739,-1.60797 -8.03982,-1.60797 -9.3464,0 -14.57226,6.63291 -14.57226,15.47673 0,9.0448 5.12537,15.47668 14.57226,15.47668 2.41189,0 6.02979,-0.30153 8.03982,-1.50748 l 0.30154,3.01495 c -2.00995,1.20595 -6.02985,1.60797 -8.34132,1.60797 -11.25577,0 -18.08965,-7.53738 -18.08965,-18.59212 0,-10.85381 7.03486,-18.59217 18.08965,-18.59217 2.21096,0 6.43187,0.40186 8.34132,1.30649 z m 0,0 m -50.36959,2.41195 0,0 0,12.76325 3.71845,0 c 4.2209,0 8.94432,-1.50748 8.94432,-6.53237 0,-5.92941 -4.12042,-6.23088 -8.94432,-6.23088 l -3.71845,0 z m -3.61789,32.86285 0,0 0,-35.8778 9.34627,0 c 6.33139,0 10.55229,2.61298 10.55229,9.24583 0,4.62293 -3.6179,7.73832 -7.93935,8.34132 l 0,0 c 2.81398,0.40187 3.51746,1.9095 4.62292,4.42193 l 6.0299,13.86872 -3.91942,0 -5.12543,-12.16025 c -2.00994,-4.62292 -3.61791,-4.72342 -7.03481,-4.72342 l -2.91448,0 0,16.88367 -3.61789,0 z m 0,0 m -38.67165,0 0,0 14.77319,-35.8778 3.91942,0 14.37121,35.8778 -3.71839,0 -3.91941,-9.6478 -18.08968,0 -3.81893,9.6478 -3.51741,0 z m 24.22001,-12.76325 0,0 -7.73831,-19.79813 -7.83887,19.79813 15.57718,0 z m 0,0 m -63.93681,12.76325 0,0 0,-35.8778 8.94431,0 13.66772,26.833 0.10038,0 0,-26.833 6.83388,0 0,35.8778 -8.74332,0 -13.66773,-26.83294 -0.10037,0 0,26.83294 -7.03488,0 z m 0,0 m -37.72694,0 0,0 0,-35.8778 8.94431,0 13.66773,26.833 0.10037,0 0,-26.833 6.83389,0 0,35.8778 -8.74332,0 -13.66773,-26.83294 -0.10037,0 0,26.83294 -7.03488,0 z m 0,0 m -28.66201,0 0,0 0,-35.8778 21.10457,0 0,5.62788 -13.9692,0 0,8.74334 12.86374,0 0,5.72838 -12.86374,0 0,10.04982 14.17018,0 0,5.72838 -21.30555,0 z m 0,0 m -37.72693,0 0,0 0,-35.8778 7.23585,0 0,14.37122 14.37117,0 0,-14.37122 7.23586,0 0,35.8778 -7.23586,0 0,-15.7782 -14.37117,0 0,15.7782 -7.23585,0 z m 0,0"
       id="path2392"
       style="fill:#000000;fill-opacity:1;fill-rule:nonzero;stroke:none" />
  </g>
</svg>
