<svg xmlns="http://www.w3.org/2000/svg" viewBox="47.6 23.9 84.9 32.3">
<path fill="#1b242d" d="M71 38.3H53.2V25.6h-4.6v29h4.6V42H71v12.7h4.6V25.6H71v12.7zm8.8 16.3h4.6v-29h-4.6v29zm27.4-29h-5.4L86.7 40.5l14.1 14.2h5.8L92.4 40.4l14.8-14.8zm21.2 14.8c-1.7-1.1-4.1-1.7-8.4-2.5s-7-1.4-8.2-2.3c-.9-.6-1.4-1.6-1.3-2.7 0-3.1 2.6-4.8 7.8-4.8 4.5 0 7.9 1.1 8 5.7h4.2c0-5.7-4.6-8.9-12.2-8.9-6.5 0-11.9 2.6-11.9 8.5-.1 2 .8 3.9 2.4 5.1 1.7 1.3 4.6 2.1 8.5 2.8 4 .7 6.4 1.1 8.1 2.1 1.2.8 1.8 2.1 1.7 3.5 0 3.4-3.3 5-8.6 5-4.6 0-9-1.4-9.2-6.6h-4c-.2 5.8 4.5 9.9 13.2 9.9 8.4 0 12.9-3.8 13-8.5 0-3.3-1-5.1-3.1-6.3z"/>
</svg>