<?xml version="1.0" encoding="utf-8"?>
<!-- Generator: Adobe Illustrator 16.0.0, SVG Export Plug-In . SVG Version: 6.00 Build 0)  -->
<!DOCTYPE svg PUBLIC "-//W3C//DTD SVG 1.1//EN" "http://www.w3.org/Graphics/SVG/1.1/DTD/svg11.dtd">
<svg version="1.1" id="Layer_1" xmlns="http://www.w3.org/2000/svg" xmlns:xlink="http://www.w3.org/1999/xlink" x="0px" y="0px"
	 width="240px" height="160.26px" viewBox="0 0 240 160.26" enable-background="new 0 0 240 160.26" xml:space="preserve">
<g>
	<path fill="#EE3123" d="M17.086,151.543c8.515,0,14.675-3.005,14.675-9.716c0-5.76-5.108-8.715-9.316-9.717
		c4.058-0.752,6.912-3.457,6.912-6.961c0-6.062-6.411-9.717-15.175-9.717H0.809c-0.401,0-0.651,0.25-0.702,0.602l-0.1,1.302
		c-0.05,0.399,0.15,0.701,0.601,0.752c2.604,0.399,4.007,1.353,4.007,4.058v22.688c0,2.705-1.402,3.656-4.007,4.057
		c-0.451,0.051-0.651,0.353-0.601,0.752l0.1,1.303c0.05,0.351,0.301,0.601,0.702,0.601h16.277V151.543z M11.627,133.312h3.055
		c5.158,0,9.917,3.006,9.917,8.516c0,4.156-3.656,6.762-7.562,6.762h-2.555c-1.752,0-2.854-1.303-2.854-2.806L11.627,133.312
		L11.627,133.312z M11.126,130.508v-10.065c0-1.452,0.852-2.404,2.855-2.404c5.159,0,9.015,2.604,9.015,6.812
		c0,3.605-2.705,5.658-6.812,5.658L11.126,130.508L11.126,130.508z M47.387,145.483c-1.302,1.151-2.805,2.203-4.658,2.203
		c-1.502,0-2.454-0.951-2.454-2.403c0-1.353,0.952-2.454,2.354-3.306c1.352-0.803,3.055-1.604,4.808-2.203L47.387,145.483
		L47.387,145.483z M39.423,133.563c2.204-1.103,3.907-1.554,5.81-1.554c1.352,0,2.053,0.753,2.053,2.054l-0.05,3.455
		c-1.603,0.451-3.806,1.153-5.609,1.854c-3.856,1.452-7.062,3.757-7.062,7.263c0,3.104,2.204,5.409,5.459,5.409
		c3.206,0,5.659-1.553,7.763-3.558c0.651,2.104,2.203,3.406,4.558,3.406c2.454,0,4.708-1.151,5.96-2.354
		c0.35-0.351,0.4-0.7,0.35-1.051l-0.201-1.402c-0.05-0.399-0.5-0.5-0.851-0.301c-0.801,0.401-1.653,0.7-2.705,0.7
		c-1.052,0-1.653-0.7-1.653-1.651l0.15-12.571c0-3.354-1.803-4.908-5.209-4.908c-3.807,0-6.861,0.901-10.016,2.807
		c-0.301,0.199-0.452,0.55-0.301,0.9l0.551,1.201C38.622,133.664,39.022,133.765,39.423,133.563L39.423,133.563z M67.77,137.12
		c0.852-3.707,2.003-6.963,3.355-10.167c0.15-0.351-0.1-0.652-0.451-0.652c-0.301,0-0.551,0.101-0.952,0.4
		c-2.654,2.055-5.91,3.856-9.115,5.009c-0.35,0.15-0.501,0.4-0.501,0.752v1.053c0,0.399,0.201,0.601,0.651,0.699
		c1.703,0.301,2.905,1.452,2.905,3.307l0.05,7.562c0,2.704-0.751,3.656-3.355,4.057c-0.451,0.051-0.651,0.351-0.601,0.752l0.1,1.051
		c0.051,0.352,0.301,0.602,0.702,0.602H73.33c0.4,0,0.651-0.25,0.701-0.602l0.101-1.051c0.05-0.401-0.15-0.701-0.601-0.752
		c-2.604-0.399-3.957-1.15-3.957-4.057v-6.761c1.102-2.605,2.504-3.657,3.756-3.657c1.102,0,1.854,0.751,2.204,1.753
		c0.1,0.302,0.5,0.451,0.801,0.251l2.254-1.703c0.852-0.65,1.402-1.603,1.402-2.854c0-2.053-1.402-3.256-3.405-3.256
		C73.88,128.854,70.074,132.962,67.77,137.12L67.77,137.12z M90.858,139.323l0.25-25.192c0-0.351-0.201-0.601-0.601-0.651h-0.852
		c-0.4,0-0.651,0.102-0.951,0.401c-2.054,1.853-3.556,2.904-6.812,4.257c-0.351,0.149-0.501,0.4-0.501,0.801v1.002
		c0,0.401,0.201,0.603,0.651,0.701c1.704,0.301,2.906,1.452,2.906,3.307l0.049,21.136c0,2.704-0.751,3.656-3.355,4.056
		c-0.451,0.051-0.651,0.352-0.602,0.752l0.101,1.053c0.05,0.351,0.301,0.601,0.701,0.601h11.519c0.401,0,0.651-0.25,0.702-0.601
		l0.1-1.053c0.05-0.4-0.15-0.649-0.601-0.752c-2.203-0.398-2.654-1.352-2.654-4.056v-2.354l1.753-1.651l4.758,4.858
		c1.302,1.352,0.601,2.653-0.701,3.254c-0.4,0.201-0.551,0.401-0.501,0.803l0.101,0.951c0.05,0.351,0.3,0.601,0.701,0.601h12.12
		c0.401,0,0.701-0.25,0.751-0.601l0.2-1.002c0.05-0.351-0.05-0.602-0.45-0.803c-2.505-1.201-4.909-3.354-7.163-5.607l-6.06-6.012
		l1.152-1.102c3.206-3.005,5.559-4.207,8.815-5.309c0.4-0.15,0.551-0.451,0.5-0.803l-0.1-1c-0.05-0.352-0.3-0.603-0.701-0.603
		H95.416c-0.401,0-0.651,0.251-0.701,0.603l-0.101,1c-0.05,0.401,0.101,0.651,0.501,0.803c1.302,0.5,1.803,1.953,0.401,3.354
		L90.858,139.323L90.858,139.323z M112.194,118.138c-0.351,0.149-0.501,0.4-0.501,0.801v1.002c0,0.401,0.201,0.603,0.651,0.701
		c1.703,0.301,2.955,1.452,2.955,3.307l0.05,21.136c0,2.704-1.051,3.656-3.656,4.056c-0.45,0.051-0.651,0.352-0.601,0.752
		l0.101,1.053c0.05,0.351,0.3,0.601,0.701,0.601h12.822c0.4,0,0.65-0.25,0.7-0.601l0.102-1.053c0.049-0.4-0.15-0.701-0.603-0.752
		c-2.604-0.398-3.556-1.352-3.556-4.056l0.051-30.952c0-0.351-0.201-0.601-0.602-0.65h-0.852c-0.4,0-0.651,0.101-0.952,0.4
		C116.952,115.733,115.45,116.785,112.194,118.138L112.194,118.138z M133.479,139.123c-1.15-4.157,0.401-8.164,4.258-8.164
		c2.604,0,3.906,2.154,3.455,4.657L133.479,139.123L133.479,139.123z M139.238,152.295c5.359-0.051,8.664-3.706,10.018-6.962
		c0.15-0.3,0.1-0.701-0.201-0.951l-0.699-0.501c-0.4-0.25-0.803-0.101-1.053,0.2c-1.451,1.753-3.707,2.904-5.96,2.955
		c-3.907,0.101-6.461-2.104-7.514-5.409l12.923-4.907c0.301-0.102,0.5-0.352,0.5-0.753v-0.7c0-0.301-0.05-0.602-0.1-0.802
		c-0.803-3.205-3.155-6.511-8.063-6.511c-6.61,0-11.269,5.357-11.269,12.271C127.82,146.687,132.427,152.345,139.238,152.295
		L139.238,152.295z M156.816,160.158c0.401,0.2,0.803,0.1,1.004-0.251l12.471-24.44c1.102-2.153,2.104-3.456,4.309-4.356
		c0.399-0.15,0.549-0.451,0.5-0.803l-0.101-1c-0.05-0.352-0.301-0.603-0.701-0.603h-8.164c-0.399,0-0.651,0.251-0.7,0.603l-0.102,1
		c-0.05,0.401,0.102,0.651,0.501,0.803c1.302,0.5,2.204,1.901,1.353,3.656l-3.154,7.012l-3.557-6.912
		c-0.951-1.703-0.102-3.256,1.201-3.756c0.401-0.15,0.553-0.4,0.501-0.803l-0.1-1c-0.05-0.352-0.302-0.603-0.701-0.603h-11.169
		c-0.4,0-0.65,0.251-0.701,0.603l-0.102,1c-0.051,0.352,0.102,0.603,0.502,0.803c1.902,1.052,2.805,2.152,4.105,4.356l6.713,12.12
		l-5.861,10.668c-0.199,0.4-0.1,0.803,0.252,1.002L156.816,160.158L156.816,160.158z"/>
	<path fill="#EE3123" d="M11.376,77.082V64.811c0-2.705,0.951-3.656,3.555-4.056c0.451-0.05,0.651-0.351,0.601-0.751l-0.101-1.302
		c-0.05-0.351-0.3-0.601-0.701-0.601H0.809c-0.401,0-0.651,0.25-0.702,0.601l-0.1,1.302c-0.05,0.401,0.15,0.701,0.601,0.751
		c2.604,0.4,4.007,1.352,4.007,4.056L4.665,87.5c0,2.704-1.452,3.655-4.057,4.058c-0.451,0.049-0.651,0.351-0.601,0.75l0.1,1.303
		c0.05,0.351,0.301,0.601,0.702,0.601h13.622c0.401,0,0.651-0.25,0.701-0.601l0.101-1.303c0.049-0.399-0.151-0.701-0.601-0.75
		c-2.604-0.401-3.506-1.354-3.506-4.058v-5.91l3.456-3.406l8.814,9.213c1.753,2.056,0.3,3.656-1.402,4.158
		c-0.451,0.149-0.601,0.352-0.551,0.75l0.1,1.303c0.05,0.352,0.301,0.602,0.702,0.602h14.523c0.401,0,0.701-0.25,0.751-0.65
		l0.15-1.102c0.05-0.4-0.1-0.65-0.45-0.852c-2.103-1.104-3.907-2.504-5.91-4.559l-12.47-13.022l8.564-8.364
		c2.253-2.154,4.808-4.007,7.612-4.908c0.401-0.151,0.501-0.451,0.451-0.802l-0.1-1.252c-0.05-0.351-0.3-0.601-0.701-0.601h-12.62
		c-0.401,0-0.651,0.25-0.701,0.601l-0.101,1.302c-0.05,0.401,0.15,0.701,0.551,0.801c2.304,0.601,2.754,2.705,1.151,4.357
		L11.376,77.082L11.376,77.082z M39.871,60.805c-0.351,0.15-0.5,0.4-0.5,0.801v1.001c0,0.401,0.2,0.601,0.651,0.702
		c1.703,0.3,2.954,1.452,2.954,3.306l0.051,21.134c0,2.705-1.053,3.657-3.656,4.059c-0.451,0.051-0.651,0.351-0.601,0.752l0.1,1.051
		c0.051,0.351,0.301,0.601,0.702,0.601h12.821c0.4,0,0.651-0.25,0.701-0.601l0.1-1.051c0.05-0.401-0.15-0.701-0.602-0.752
		c-2.604-0.4-3.555-1.354-3.555-4.059l0.05-30.951c0-0.351-0.2-0.601-0.601-0.651h-0.851c-0.4,0-0.651,0.1-0.952,0.4
		C44.629,58.4,43.126,59.453,39.871,60.805L39.871,60.805z M56.197,75.279c-0.351,0.15-0.501,0.4-0.501,0.801v0.751
		c0,0.401,0.201,0.602,0.651,0.702c1.703,0.3,3.055,1.402,3.055,3.254l0.05,6.961c0,2.705-1.202,3.657-3.806,4.058
		c-0.451,0.051-0.651,0.352-0.601,0.752l0.1,1.051c0.05,0.352,0.3,0.602,0.701,0.602h12.82c0.401,0,0.651-0.25,0.701-0.602
		l0.101-1.051c0.05-0.4-0.15-0.701-0.601-0.752c-2.604-0.399-3.556-1.353-3.556-4.058l0.05-17.028c0-0.25-0.201-0.4-0.452-0.4
		c-0.3,0-0.5,0.15-0.801,0.4C61.656,72.625,59.453,74.077,56.197,75.279L56.197,75.279z M60.855,57.9
		c-0.852,0.75-2.154,2.053-2.855,2.855c-0.651,0.701-0.601,1.603,0.051,2.254c0.701,0.851,2.053,2.153,2.804,2.854
		c0.701,0.651,1.602,0.651,2.253,0c0.852-0.701,2.154-1.954,2.905-2.854c0.651-0.651,0.601-1.553-0.05-2.204
		c-0.752-0.801-2.003-2.053-2.855-2.855C62.457,57.299,61.556,57.249,60.855,57.9L60.855,57.9z M72.123,79.786
		c0,3.605,1.703,6.312,4.407,7.812c-2.354,0.603-4.557,2.104-4.557,4.309c0,1.953,1.302,3.255,3.004,4.156
		c-1.902,0.65-3.956,1.902-3.956,4.106c0,3.205,4.007,5.759,11.769,5.759c6.961,0,12.871-3.055,12.871-7.763
		c0-3.706-2.805-5.659-6.761-5.959c-3.005-0.251-6.46,0-9.015-0.401c-1.603-0.25-2.304-0.752-2.304-1.603
		c0-0.751,0.701-1.253,1.603-1.603c0.952,0.25,2.003,0.35,3.105,0.35c5.509,0,10.116-3.655,10.116-9.365
		c0-0.902-0.15-1.753-0.4-2.554c0.4-0.902,0.952-1.752,1.703-1.752c0.651,0,1.002,0.5,0.852,1.051c1.502,0,2.805-1.051,2.805-2.555
		c0-1.452-1.052-2.403-2.555-2.403c-1.803,0-3.055,1.703-3.856,3.405c-1.853-2.654-5.158-4.257-8.814-4.257
		C76.63,70.521,72.123,74.377,72.123,79.786L72.123,79.786z M87.047,81.789c0,3.104-2.003,4.509-4.408,4.509
		c-3.756,0-6.209-3.958-6.209-7.213c0-3.104,2.053-4.607,4.407-4.607C84.593,74.478,87.047,78.334,87.047,81.789L87.047,81.789z
		 M75.929,99.67c0-1.202,0.551-2.004,1.402-2.655l1.051,0.301c3.005,0.651,6.16,0.602,9.566,0.703
		c1.553,0.049,2.454,0.851,2.454,1.953c0,2.053-3.505,3.254-7.612,3.254C78.183,103.226,75.929,101.873,75.929,99.67L75.929,99.67z
		 M103.774,81.789c-1.152-4.156,0.401-8.163,4.257-8.163c2.604,0,3.906,2.153,3.455,4.658L103.774,81.789L103.774,81.789z
		 M109.533,94.962c5.359-0.05,8.664-3.706,10.016-6.962c0.15-0.301,0.101-0.701-0.2-0.951l-0.701-0.501
		c-0.401-0.25-0.802-0.101-1.052,0.2c-1.452,1.753-3.706,2.903-5.959,2.955c-3.906,0.101-6.46-2.104-7.513-5.409l12.921-4.908
		c0.301-0.1,0.5-0.351,0.5-0.751v-0.701c0-0.301-0.05-0.601-0.1-0.802c-0.801-3.205-3.155-6.511-8.062-6.511
		c-6.611,0-11.269,5.359-11.269,12.271C98.115,89.353,102.722,95.013,109.533,94.962L109.533,94.962z M128.963,79.786
		c0.852-3.706,2.004-6.962,3.355-10.167c0.15-0.351-0.101-0.651-0.45-0.651c-0.302,0-0.552,0.1-0.951,0.4
		c-2.653,2.053-5.91,3.856-9.115,5.008c-0.35,0.15-0.501,0.401-0.501,0.751v1.052c0,0.401,0.201,0.601,0.651,0.702
		c1.702,0.301,2.905,1.452,2.905,3.306l0.05,7.562c0,2.705-0.753,3.657-3.355,4.059c-0.45,0.051-0.651,0.351-0.602,0.752l0.1,1.051
		c0.052,0.351,0.3,0.601,0.702,0.601h12.771c0.399,0,0.65-0.25,0.701-0.601l0.1-1.051c0.051-0.401-0.149-0.701-0.602-0.752
		c-2.604-0.4-3.955-1.152-3.955-4.059v-6.761c1.102-2.604,2.504-3.656,3.756-3.656c1.103,0,1.853,0.75,2.203,1.752
		c0.101,0.301,0.5,0.451,0.801,0.25l2.255-1.703c0.851-0.651,1.401-1.603,1.401-2.855c0-2.053-1.401-3.255-3.406-3.255
		C135.074,71.522,131.268,75.629,128.963,79.786L128.963,79.786z M172.184,94.21h12.02c0.4,0,0.65-0.25,0.701-0.602l0.101-1.051
		c0.05-0.4-0.149-0.701-0.603-0.752c-2.604-0.399-3.254-1.353-3.254-4.058v-9.565c0-3.757-2.305-6.812-6.211-6.812
		c-3.655,0-6.359,2.103-8.713,4.557c-0.651-2.754-2.656-4.557-5.761-4.557c-3.706,0-6.36,2.304-8.714,4.808l1.102-5.108
		c0.051-0.3-0.1-0.551-0.449-0.551s-0.701,0.101-1.104,0.351c-2.755,1.553-5.008,2.555-8.214,3.506
		c-0.351,0.101-0.5,0.401-0.5,0.751v1.052c0,0.401,0.2,0.601,0.651,0.702c1.701,0.301,2.904,1.452,2.904,3.306l0.049,7.562
		c0,2.705-0.75,3.657-3.354,4.058c-0.452,0.051-0.65,0.352-0.602,0.752l0.1,1.051c0.05,0.352,0.301,0.602,0.701,0.602h11.818
		c0.4,0,0.651-0.25,0.703-0.602l0.098-1.051c0.052-0.4-0.148-0.65-0.6-0.752c-2.354-0.399-3.005-1.353-3.005-4.058v-8.313
		c1.853-2.554,4.007-3.906,5.81-3.906c1.603,0,2.654,1.202,2.654,2.955v9.817c0,2.203-0.652,3.105-2.254,3.507
		c-0.451,0.101-0.65,0.351-0.602,0.752l0.1,1.051c0.051,0.351,0.301,0.601,0.702,0.601h10.116c0.4,0,0.65-0.25,0.701-0.601
		l0.1-1.051c0.051-0.401-0.148-0.651-0.602-0.752c-1.854-0.4-2.453-1.304-2.453-3.507v-8.865c1.854-2.504,4.207-3.906,6.01-3.906
		c1.604,0,2.654,1.102,2.654,2.854v9.365c0,2.705-0.651,3.657-3.006,4.059c-0.45,0.101-0.649,0.351-0.601,0.752l0.101,1.051
		C171.532,93.96,171.783,94.21,172.184,94.21L172.184,94.21z M199.176,88.149c-1.302,1.151-2.805,2.205-4.656,2.205
		c-1.502,0-2.455-0.953-2.455-2.404c0-1.354,0.953-2.454,2.354-3.307c1.353-0.802,3.056-1.603,4.808-2.203L199.176,88.149
		L199.176,88.149z M191.213,76.23c2.204-1.102,3.907-1.552,5.811-1.552c1.353,0,2.054,0.751,2.054,2.053l-0.05,3.456
		c-1.604,0.451-3.807,1.151-5.609,1.853c-3.855,1.452-7.062,3.757-7.062,7.262c0,3.105,2.205,5.41,5.459,5.41
		c3.205,0,5.66-1.553,7.764-3.557c0.65,2.104,2.203,3.406,4.559,3.406c2.453,0,4.706-1.151,5.959-2.354
		c0.35-0.351,0.399-0.702,0.35-1.054l-0.199-1.4c-0.051-0.402-0.501-0.502-0.852-0.301c-0.802,0.4-1.653,0.701-2.705,0.701
		c-1.053,0-1.652-0.701-1.652-1.653l0.15-12.571c0-3.355-1.804-4.908-5.209-4.908c-3.806,0-6.86,0.902-10.017,2.805
		c-0.3,0.201-0.45,0.551-0.3,0.901l0.55,1.202C190.413,76.331,190.812,76.431,191.213,76.23L191.213,76.23z M221.361,79.386
		c1.854-2.555,4.156-3.855,5.961-3.855c1.603,0,2.654,1.102,2.654,2.854v9.365c0,2.705-0.451,3.657-3.056,4.059
		c-0.45,0.051-0.651,0.351-0.603,0.752l0.102,1.051c0.051,0.351,0.301,0.601,0.701,0.601h12.068c0.4,0,0.65-0.25,0.701-0.601
		l0.101-1.051c0.051-0.401-0.15-0.701-0.601-0.752c-2.604-0.4-3.256-1.354-3.256-4.059v-9.565c0-3.757-2.304-6.812-6.21-6.812
		c-3.706,0-6.511,2.304-8.864,4.808l1.103-5.108c0.051-0.3-0.101-0.551-0.451-0.551s-0.701,0.101-1.103,0.351
		c-2.754,1.553-5.008,2.555-8.213,3.506c-0.352,0.101-0.5,0.401-0.5,0.751v1.052c0,0.401,0.199,0.601,0.65,0.702
		c1.702,0.301,2.904,1.452,2.904,3.306l0.05,7.562c0,2.705-0.751,3.657-3.354,4.059c-0.451,0.051-0.651,0.351-0.602,0.752l0.1,1.051
		c0.051,0.351,0.301,0.601,0.701,0.601h11.819c0.399,0,0.651-0.25,0.701-0.601l0.101-1.051c0.051-0.401-0.15-0.701-0.602-0.752
		c-2.604-0.4-3.006-1.354-3.006-4.059v-8.365H221.361z"/>
	<path fill="#EE3123" d="M11.677,8.665c0-2.705,1.603-3.656,4.207-4.057c0.451-0.051,0.651-0.351,0.601-0.751l-0.1-1.302
		c-0.05-0.351-0.301-0.601-0.702-0.601H1.06c-0.401,0-0.651,0.25-0.701,0.601L0.258,3.856c-0.05,0.401,0.15,0.701,0.601,0.751
		C3.463,5.009,5.016,5.96,5.016,8.665l0.05,22.688c0,2.705-1.603,3.657-4.208,4.057c-0.451,0.05-0.651,0.351-0.601,0.751
		l0.101,1.302c0.05,0.351,0.3,0.602,0.701,0.602h14.624c0.401,0,0.651-0.251,0.702-0.602l0.1-1.302c0.05-0.4-0.15-0.701-0.601-0.751
		c-2.604-0.4-4.157-1.352-4.157-4.057L11.677,8.665L11.677,8.665z M28.906,25.844l0.25-25.192c0-0.351-0.2-0.601-0.602-0.651h-0.851
		c-0.401,0-0.651,0.1-0.952,0.401c-2.053,1.853-3.556,2.905-6.812,4.257c-0.351,0.15-0.5,0.401-0.5,0.801v1.002
		c0,0.4,0.201,0.601,0.651,0.701c1.703,0.3,2.905,1.453,2.905,3.305l0.05,21.135c0,2.705-0.751,3.656-3.355,4.057
		c-0.451,0.05-0.651,0.351-0.601,0.751l0.1,1.052c0.05,0.351,0.301,0.602,0.701,0.602h11.52c0.4,0,0.651-0.251,0.701-0.602
		l0.101-1.052c0.05-0.4-0.15-0.651-0.601-0.751c-2.204-0.401-2.654-1.352-2.654-4.057v-2.354l1.753-1.653l4.758,4.858
		c1.302,1.352,0.601,2.654-0.701,3.255c-0.401,0.2-0.551,0.401-0.5,0.801l0.1,0.952c0.05,0.351,0.301,0.602,0.702,0.602h12.12
		c0.401,0,0.702-0.251,0.751-0.602l0.2-1.001c0.05-0.351-0.05-0.601-0.451-0.802c-2.503-1.202-4.908-3.355-7.162-5.609l-6.06-6.011
		l1.152-1.102c3.206-3.005,5.56-4.207,8.814-5.309c0.401-0.15,0.551-0.45,0.501-0.801l-0.1-1.002
		c-0.05-0.351-0.301-0.601-0.701-0.601h-10.67c-0.401,0-0.651,0.25-0.701,0.601l-0.1,1.002c-0.05,0.401,0.1,0.651,0.5,0.801
		c1.303,0.5,1.803,1.954,0.401,3.356L28.906,25.844L28.906,25.844z M54.499,25.643c-1.152-4.156,0.4-8.163,4.257-8.163
		c2.605,0,3.907,2.153,3.456,4.658L54.499,25.643L54.499,25.643z M60.258,38.815c5.359-0.05,8.665-3.706,10.017-6.961
		c0.15-0.301,0.1-0.701-0.201-0.952l-0.701-0.5c-0.401-0.25-0.801-0.101-1.052,0.2c-1.453,1.753-3.706,2.905-5.96,2.955
		c-3.906,0.1-6.461-2.104-7.512-5.409L67.77,23.24c0.3-0.1,0.501-0.351,0.501-0.751v-0.702c0-0.3-0.05-0.601-0.101-0.801
		c-0.801-3.206-3.154-6.511-8.063-6.511c-6.611,0-11.269,5.359-11.269,12.271C48.839,33.206,53.447,38.865,60.258,38.815
		L60.258,38.815z"/>
</g>
<path fill="#EC5A4F" d="M353.768,272.555c22.99,0,39.621-8.114,39.621-26.233c0-15.551-13.792-23.528-25.152-26.232
	c10.955-2.03,18.662-9.333,18.662-18.797c0-16.363-17.309-26.235-40.975-26.235H309.82c-1.082,0-1.758,0.677-1.895,1.623
	l-0.271,3.516c-0.136,1.082,0.407,1.894,1.622,2.029c7.033,1.082,10.818,3.65,10.818,10.954v61.256
	c0,7.303-3.785,9.872-10.818,10.952c-1.215,0.139-1.758,0.949-1.622,2.031l0.271,3.516c0.137,0.946,0.812,1.621,1.895,1.621H353.768
	L353.768,272.555z M339.028,223.332h8.249c13.928,0,26.775,8.113,26.775,22.989c0,11.225-9.872,18.258-20.42,18.258h-6.896
	c-4.732,0-7.708-3.518-7.708-7.575V223.332L339.028,223.332z M337.676,215.76v-27.18c0-3.922,2.3-6.491,7.709-6.491
	c13.928,0,24.34,7.032,24.34,18.392c0,9.736-7.302,15.279-18.391,15.279H337.676L337.676,215.76z M435.58,256.193
	c-3.516,3.11-7.574,5.951-12.578,5.951c-4.056,0-6.625-2.57-6.625-6.491c0-3.652,2.569-6.627,6.355-8.925
	c3.65-2.165,8.248-4.327,12.982-5.95L435.58,256.193L435.58,256.193z M414.077,224.009c5.95-2.974,10.548-4.192,15.687-4.192
	c3.651,0,5.545,2.03,5.545,5.546l-0.136,9.329c-4.327,1.218-10.276,3.112-15.146,5.004c-10.413,3.922-19.066,10.143-19.066,19.608
	c0,8.384,5.949,14.604,14.738,14.604c8.656,0,15.281-4.192,20.962-9.602c1.758,5.681,5.948,9.196,12.306,9.196
	c6.626,0,12.711-3.111,16.092-6.358c0.947-0.945,1.082-1.892,0.947-2.838l-0.543-3.786c-0.134-1.081-1.351-1.351-2.299-0.812
	c-2.162,1.082-4.462,1.894-7.302,1.894c-2.839,0-4.462-1.894-4.462-4.462l0.406-33.943c0-9.059-4.869-13.253-14.064-13.253
	c-10.278,0-18.526,2.436-27.045,7.575c-0.812,0.539-1.218,1.486-0.812,2.435l1.487,3.243
	C411.914,224.28,412.996,224.551,414.077,224.009L414.077,224.009z M490.614,233.611c2.3-10.007,5.409-18.798,9.06-27.451
	c0.406-0.946-0.27-1.759-1.217-1.759c-0.811,0-1.486,0.27-2.568,1.081c-7.167,5.547-15.957,10.414-24.611,13.523
	c-0.945,0.406-1.353,1.083-1.353,2.029v2.839c0,1.081,0.542,1.622,1.759,1.893c4.598,0.812,7.843,3.921,7.843,8.925l0.136,20.42
	c0,7.303-2.028,9.872-9.061,10.952c-1.217,0.136-1.759,0.946-1.623,2.029l0.27,2.841c0.137,0.946,0.812,1.621,1.895,1.621h34.482
	c1.081,0,1.758-0.675,1.893-1.621l0.271-2.841c0.135-1.083-0.406-1.894-1.623-2.029c-7.031-1.08-10.683-3.107-10.683-10.952v-18.254
	c2.974-7.033,6.761-9.874,10.142-9.874c2.977,0,5.004,2.029,5.951,4.734c0.27,0.812,1.351,1.216,2.162,0.676l6.086-4.598
	c2.3-1.759,3.785-4.326,3.785-7.707c0-5.544-3.785-8.791-9.194-8.791C507.113,211.298,496.835,222.386,490.614,233.611
	L490.614,233.611z M552.953,239.561l0.677-68.02c0-0.946-0.542-1.621-1.624-1.758h-2.299c-1.081,0-1.758,0.271-2.568,1.083
	c-5.545,5.002-9.602,7.841-18.391,11.493c-0.947,0.404-1.354,1.082-1.354,2.163v2.705c0,1.082,0.542,1.623,1.758,1.894
	c4.6,0.811,7.844,3.921,7.844,8.925l0.135,57.065c0,7.303-2.028,9.872-9.06,10.952c-1.217,0.136-1.759,0.946-1.624,2.029
	l0.272,2.841c0.135,0.946,0.812,1.621,1.893,1.621h31.103c1.082,0,1.758-0.675,1.893-1.621l0.271-2.841
	c0.135-1.083-0.405-1.757-1.623-2.029c-5.948-1.08-7.167-3.649-7.167-10.952v-6.355l4.732-4.462l12.848,13.118
	c3.517,3.649,1.623,7.167-1.894,8.787c-1.081,0.542-1.487,1.084-1.353,2.165l0.271,2.569c0.135,0.946,0.811,1.621,1.893,1.621
	h32.725c1.082,0,1.893-0.675,2.029-1.621l0.54-2.704c0.136-0.946-0.136-1.624-1.216-2.166c-6.764-3.244-13.253-9.06-19.339-15.145
	l-16.362-16.228l3.109-2.974c8.655-8.113,15.011-11.359,23.801-14.335c1.082-0.405,1.488-1.217,1.352-2.163l-0.27-2.704
	c-0.135-0.947-0.812-1.623-1.893-1.623h-28.804c-1.082,0-1.758,0.676-1.894,1.623l-0.271,2.704
	c-0.136,1.082,0.271,1.758,1.353,2.163c3.516,1.353,4.867,5.275,1.082,9.061L552.953,239.561L552.953,239.561z M610.559,182.359
	c-0.946,0.404-1.354,1.082-1.354,2.163v2.705c0,1.082,0.543,1.623,1.758,1.894c4.599,0.811,7.979,3.921,7.979,8.925l0.135,57.065
	c0,7.303-2.839,9.872-9.872,10.952c-1.216,0.136-1.758,0.946-1.623,2.029l0.272,2.841c0.135,0.946,0.812,1.621,1.894,1.621h34.618
	c1.081,0,1.758-0.675,1.893-1.621l0.27-2.841c0.135-1.083-0.404-1.894-1.623-2.029c-7.031-1.08-9.601-3.649-9.601-10.952
	l0.137-83.57c0-0.946-0.543-1.621-1.623-1.758h-2.301c-1.08,0-1.758,0.271-2.568,1.083
	C623.404,175.868,619.35,178.707,610.559,182.359L610.559,182.359z M668.027,239.021c-3.108-11.225,1.085-22.043,11.495-22.043
	c7.032,0,10.549,5.815,9.332,12.575L668.027,239.021L668.027,239.021z M683.58,274.584c14.47-0.136,23.394-10.005,27.045-18.796
	c0.406-0.812,0.27-1.895-0.542-2.569l-1.893-1.354c-1.081-0.675-2.163-0.27-2.84,0.542c-3.92,4.733-10.007,7.843-16.092,7.979
	c-10.548,0.27-17.443-5.681-20.285-14.606l34.892-13.25c0.811-0.273,1.351-0.948,1.351-2.031v-1.893c0-0.811-0.135-1.623-0.27-2.163
	c-2.165-8.654-8.52-17.58-21.771-17.58c-17.851,0-30.427,14.469-30.427,33.131C652.748,259.439,665.188,274.72,683.58,274.584
	L683.58,274.584z M731.042,295.815c1.083,0.54,2.164,0.27,2.706-0.677l33.672-65.99c2.974-5.816,5.678-9.332,11.63-11.766
	c1.081-0.405,1.485-1.217,1.351-2.163l-0.27-2.704c-0.135-0.947-0.812-1.623-1.893-1.623h-22.043c-1.081,0-1.758,0.676-1.893,1.623
	l-0.271,2.704c-0.136,1.082,0.271,1.758,1.353,2.163c3.516,1.353,5.95,5.138,3.65,9.872l-8.519,18.932l-9.6-18.661
	c-2.571-4.599-0.273-8.79,3.242-10.143c1.084-0.405,1.489-1.081,1.354-2.163l-0.271-2.704c-0.134-0.947-0.812-1.623-1.894-1.623
	h-30.155c-1.081,0-1.758,0.676-1.893,1.623l-0.272,2.704c-0.136,0.946,0.272,1.623,1.354,2.163
	c5.139,2.84,7.571,5.814,11.087,11.766l18.122,32.724l-15.822,28.804c-0.542,1.082-0.27,2.164,0.678,2.705L731.042,295.815
	L731.042,295.815z"/>
<path fill="#EC5A4F" d="M338.352,71.509V38.378c0-7.302,2.568-9.871,9.6-10.952c1.217-0.136,1.758-0.946,1.623-2.028l-0.271-3.517
	c-0.135-0.946-0.811-1.622-1.893-1.622h-37.59c-1.082,0-1.758,0.676-1.895,1.622l-0.271,3.517c-0.136,1.082,0.407,1.893,1.622,2.028
	c7.033,1.081,10.818,3.65,10.818,10.952l0.136,61.26c0,7.301-3.921,9.87-10.954,10.953c-1.215,0.135-1.758,0.946-1.622,2.026
	l0.271,3.516c0.137,0.948,0.812,1.623,1.895,1.623h36.777c1.084,0,1.759-0.675,1.895-1.623l0.271-3.516
	c0.134-1.08-0.406-1.892-1.623-2.026c-7.032-1.083-9.465-3.652-9.465-10.953V83.68l9.33-9.195l23.798,24.88
	c4.734,5.546,0.811,9.871-3.785,11.226c-1.219,0.403-1.623,0.946-1.488,2.026l0.27,3.516c0.137,0.948,0.812,1.623,1.895,1.623
	h39.214c1.081,0,1.893-0.675,2.028-1.758l0.404-2.974c0.135-1.084-0.27-1.759-1.216-2.299c-5.679-2.976-10.548-6.761-15.956-12.307
	l-33.67-35.159l23.123-22.582c6.084-5.815,12.98-10.818,20.552-13.252c1.083-0.407,1.353-1.218,1.218-2.165l-0.271-3.38
	c-0.136-0.946-0.811-1.622-1.894-1.622h-34.074c-1.082,0-1.758,0.676-1.893,1.622l-0.271,3.517
	c-0.135,1.082,0.406,1.893,1.488,2.163c6.221,1.623,7.437,7.303,3.109,11.765L338.352,71.509L338.352,71.509z M415.287,27.56
	c-0.946,0.406-1.351,1.082-1.351,2.164v2.704c0,1.083,0.54,1.623,1.758,1.895c4.597,0.809,7.978,3.92,7.978,8.925l0.136,57.064
	c0,7.304-2.841,9.872-9.871,10.954c-1.217,0.137-1.759,0.947-1.623,2.029l0.269,2.838c0.138,0.948,0.812,1.623,1.895,1.623h34.616
	c1.081,0,1.759-0.675,1.894-1.623l0.27-2.838c0.135-1.082-0.404-1.893-1.623-2.029c-7.03-1.082-9.6-3.65-9.6-10.954l0.135-83.569
	c0-0.946-0.54-1.623-1.623-1.758h-2.298c-1.081,0-1.759,0.27-2.569,1.081C428.134,21.069,424.078,23.91,415.287,27.56L415.287,27.56
	z M459.367,66.642c-0.945,0.405-1.352,1.082-1.352,2.163v2.028c0,1.083,0.541,1.624,1.759,1.895c4.599,0.81,8.247,3.786,8.247,8.788
	l0.137,18.797c0,7.304-3.246,9.872-10.277,10.954c-1.217,0.137-1.757,0.947-1.623,2.029l0.271,2.838
	c0.136,0.948,0.812,1.623,1.894,1.623h34.615c1.084,0,1.758-0.675,1.893-1.623l0.271-2.838c0.135-1.082-0.406-1.893-1.623-2.029
	c-7.031-1.082-9.6-3.65-9.6-10.954l0.135-45.977c0-0.676-0.541-1.081-1.219-1.081c-0.81,0-1.351,0.405-2.162,1.081
	C474.107,59.475,468.158,63.395,459.367,66.642L459.367,66.642z M471.944,19.718c-2.3,2.027-5.815,5.543-7.709,7.708
	c-1.758,1.892-1.622,4.327,0.138,6.085c1.892,2.297,5.542,5.814,7.571,7.708c1.892,1.758,4.325,1.758,6.083,0
	c2.3-1.894,5.814-5.275,7.844-7.708c1.758-1.759,1.622-4.193-0.135-5.951c-2.029-2.163-5.409-5.543-7.709-7.708
	C476.27,18.095,473.836,17.959,471.944,19.718L471.944,19.718z M502.367,78.811c0,9.736,4.597,17.04,11.898,21.097
	c-6.354,1.623-12.305,5.679-12.305,11.63c0,5.273,3.518,8.79,8.113,11.223c-5.137,1.76-10.682,5.139-10.682,11.089
	c0,8.654,10.818,15.551,31.775,15.551c18.795,0,34.752-8.248,34.752-20.96c0-10.006-7.571-15.279-18.254-16.091
	c-8.114-0.677-17.443,0-24.34-1.083c-4.326-0.675-6.221-2.029-6.221-4.327c0-2.027,1.895-3.381,4.328-4.327
	c2.57,0.677,5.408,0.946,8.384,0.946c14.874,0,27.313-9.871,27.313-25.288c0-2.435-0.405-4.732-1.082-6.896
	c1.082-2.435,2.57-4.732,4.598-4.732c1.758,0,2.705,1.352,2.299,2.839c4.057,0,7.572-2.839,7.572-6.897c0-3.92-2.84-6.49-6.896-6.49
	c-4.867,0-8.248,4.597-10.412,9.195c-5.002-7.167-13.927-11.495-23.799-11.495C514.537,53.794,502.367,64.207,502.367,78.811
	L502.367,78.811z M542.663,84.22c0,8.385-5.409,12.172-11.899,12.172c-10.142,0-16.767-10.686-16.767-19.474
	c0-8.383,5.544-12.441,11.898-12.441C536.037,64.477,542.663,74.89,542.663,84.22L542.663,84.22z M512.644,132.496
	c0-3.245,1.487-5.409,3.786-7.168l2.839,0.812c8.114,1.759,16.632,1.623,25.827,1.896c4.193,0.135,6.626,2.297,6.626,5.272
	c0,5.545-9.465,8.79-20.554,8.79C518.729,142.098,512.644,138.445,512.644,132.496L512.644,132.496z M587.824,84.22
	c-3.109-11.223,1.084-22.041,11.496-22.041c7.029,0,10.545,5.814,9.328,12.576L587.824,84.22L587.824,84.22z M603.375,119.785
	c14.47-0.135,23.393-10.006,27.044-18.797c0.406-0.812,0.271-1.893-0.54-2.569l-1.893-1.352c-1.082-0.676-2.165-0.271-2.84,0.54
	c-3.922,4.734-10.007,7.843-16.092,7.979c-10.547,0.271-17.442-5.679-20.283-14.604l34.887-13.252
	c0.812-0.271,1.352-0.946,1.352-2.029v-1.892c0-0.812-0.135-1.623-0.27-2.165c-2.164-8.653-8.519-17.579-21.77-17.579
	c-17.85,0-30.425,14.47-30.425,33.131C572.546,104.639,584.985,119.92,603.375,119.785L603.375,119.785z M655.837,78.811
	c2.3-10.006,5.41-18.796,9.061-27.449c0.407-0.946-0.27-1.758-1.216-1.758c-0.812,0-1.488,0.269-2.569,1.082
	c-7.167,5.544-15.956,10.413-24.609,13.522c-0.946,0.405-1.354,1.082-1.354,2.028v2.839c0,1.083,0.542,1.623,1.758,1.895
	c4.599,0.812,7.844,3.92,7.844,8.925l0.136,20.417c0,7.304-2.029,9.872-9.061,10.954c-1.217,0.137-1.758,0.947-1.623,2.029
	l0.27,2.838c0.137,0.948,0.812,1.623,1.894,1.623h34.481c1.082,0,1.76-0.675,1.894-1.623l0.27-2.838
	c0.136-1.082-0.403-1.893-1.623-2.029c-7.029-1.082-10.682-3.11-10.682-10.954V82.057c2.976-7.032,6.761-9.871,10.142-9.871
	c2.976,0,5.002,2.027,5.948,4.732c0.271,0.812,1.354,1.217,2.164,0.676l6.086-4.598c2.297-1.758,3.785-4.327,3.785-7.708
	c0-5.544-3.785-8.79-9.194-8.79C672.335,56.499,662.059,67.587,655.837,78.811L655.837,78.811z M772.529,117.756h32.454
	c1.081,0,1.758-0.675,1.893-1.623l0.271-2.838c0.135-1.082-0.405-1.893-1.622-2.029c-7.032-1.082-8.79-3.65-8.79-10.954V74.485
	c0-10.144-6.22-18.391-16.768-18.391c-9.87,0-17.171,5.678-23.527,12.305c-1.758-7.438-7.167-12.305-15.551-12.305
	c-10.006,0-17.172,6.22-23.526,12.98l2.974-13.792c0.135-0.812-0.27-1.488-1.216-1.488s-1.894,0.271-2.977,0.947
	c-7.438,4.192-13.521,6.896-22.177,9.466c-0.946,0.271-1.35,1.082-1.35,2.028v2.839c0,1.083,0.54,1.623,1.758,1.895
	c4.597,0.812,7.841,3.92,7.841,8.925l0.136,20.417c0,7.304-2.028,9.872-9.059,10.954c-1.219,0.137-1.759,0.947-1.623,2.029
	l0.27,2.838c0.135,0.948,0.812,1.623,1.893,1.623h31.913c1.081,0,1.758-0.675,1.894-1.623l0.269-2.838
	c0.135-1.082-0.404-1.758-1.623-2.029c-6.354-1.082-8.11-3.65-8.11-10.954V77.864c5.002-6.895,10.816-10.546,15.684-10.546
	c4.327,0,7.166,3.245,7.166,7.977V101.8c0,5.95-1.758,8.384-6.083,9.466c-1.219,0.271-1.758,0.947-1.623,2.029l0.27,2.838
	c0.135,0.948,0.812,1.623,1.894,1.623h27.315c1.081,0,1.758-0.675,1.893-1.623l0.27-2.838c0.135-1.082-0.404-1.758-1.623-2.029
	c-5.003-1.082-6.626-3.516-6.626-9.466V77.864c5.004-6.76,11.359-10.546,16.228-10.546c4.326,0,7.166,2.975,7.166,7.707v25.287
	c0,7.304-1.758,9.872-8.112,10.954c-1.219,0.271-1.758,0.947-1.623,2.029l0.27,2.838
	C770.771,117.081,771.449,117.756,772.529,117.756L772.529,117.756z M845.411,101.396c-3.514,3.108-7.571,5.949-12.573,5.949
	c-4.057,0-6.626-2.569-6.626-6.491c0-3.65,2.569-6.625,6.355-8.926c3.651-2.163,8.247-4.327,12.981-5.95L845.411,101.396
	L845.411,101.396z M823.912,69.21c5.951-2.976,10.549-4.191,15.686-4.191c3.651,0,5.544,2.027,5.544,5.543l-0.135,9.332
	c-4.327,1.216-10.277,3.109-15.144,5.001c-10.413,3.923-19.066,10.144-19.066,19.608c0,8.385,5.951,14.606,14.738,14.606
	c8.654,0,15.279-4.192,20.96-9.603c1.757,5.679,5.949,9.196,12.306,9.196c6.625,0,12.71-3.109,16.089-6.355
	c0.946-0.946,1.082-1.895,0.946-2.841l-0.539-3.785c-0.136-1.084-1.354-1.354-2.3-0.812c-2.163,1.081-4.463,1.893-7.302,1.893
	c-2.841,0-4.463-1.893-4.463-4.462l0.406-33.943c0-9.06-4.867-13.252-14.062-13.252c-10.275,0-18.524,2.435-27.044,7.573
	c-0.812,0.541-1.217,1.487-0.812,2.434l1.486,3.246C821.75,69.481,822.831,69.751,823.912,69.21L823.912,69.21z M905.313,77.729
	c5.003-6.897,11.222-10.412,16.091-10.412c4.327,0,7.166,2.975,7.166,7.707v25.287c0,7.304-1.216,9.872-8.248,10.954
	c-1.218,0.137-1.758,0.947-1.622,2.029l0.27,2.838c0.135,0.948,0.812,1.623,1.895,1.623h32.587c1.08,0,1.757-0.675,1.892-1.623
	l0.271-2.838c0.137-1.082-0.406-1.893-1.621-2.029c-7.033-1.082-8.791-3.65-8.791-10.954V74.485c0-10.144-6.22-18.391-16.766-18.391
	c-10.007,0-17.579,6.22-23.936,12.98l2.976-13.792c0.137-0.812-0.271-1.488-1.218-1.488c-0.945,0-1.892,0.271-2.975,0.947
	c-7.436,4.192-13.521,6.896-22.175,9.466c-0.947,0.271-1.352,1.082-1.352,2.028v2.839c0,1.083,0.54,1.623,1.758,1.895
	c4.596,0.812,7.841,3.92,7.841,8.925l0.137,20.417c0,7.304-2.029,9.872-9.061,10.954c-1.217,0.137-1.758,0.947-1.622,2.029
	l0.271,2.838c0.135,0.948,0.811,1.623,1.893,1.623h31.911c1.081,0,1.758-0.675,1.893-1.623l0.272-2.838
	c0.134-1.082-0.407-1.893-1.623-2.029c-7.032-1.082-8.113-3.65-8.113-10.954V77.729L905.313,77.729z"/>
<path fill="#EC5A4F" d="M339.164-113.217c0-7.302,4.327-9.872,11.359-10.953c1.217-0.137,1.758-0.947,1.621-2.03l-0.27-3.516
	c-0.135-0.947-0.811-1.622-1.893-1.622h-39.486c-1.082,0-1.758,0.675-1.893,1.622l-0.271,3.516c-0.135,1.083,0.406,1.893,1.623,2.03
	c7.031,1.082,11.224,3.651,11.224,10.953l0.136,61.257c0,7.303-4.328,9.873-11.359,10.954c-1.217,0.135-1.758,0.946-1.623,2.028
	l0.271,3.516c0.135,0.946,0.811,1.624,1.893,1.624h39.486c1.082,0,1.758-0.677,1.893-1.624l0.27-3.516
	c0.137-1.082-0.404-1.893-1.621-2.028c-7.032-1.081-11.225-3.651-11.225-10.954L339.164-113.217L339.164-113.217z M385.683-66.834
	l0.675-68.019c0-0.946-0.541-1.624-1.623-1.758h-2.298c-1.082,0-1.759,0.27-2.57,1.082c-5.544,5.002-9.601,7.843-18.392,11.494
	c-0.946,0.405-1.351,1.082-1.351,2.163v2.705c0,1.081,0.542,1.623,1.758,1.893c4.598,0.812,7.843,3.922,7.843,8.925l0.135,57.065
	c0,7.303-2.027,9.872-9.06,10.954c-1.218,0.136-1.758,0.948-1.623,2.03l0.271,2.839c0.135,0.946,0.812,1.624,1.893,1.624h31.104
	c1.08,0,1.758-0.677,1.893-1.624l0.271-2.839c0.135-1.082-0.406-1.758-1.623-2.03c-5.95-1.082-7.168-3.651-7.168-10.954v-6.354
	l4.732-4.463l12.847,13.118c3.517,3.651,1.622,7.167-1.893,8.79c-1.082,0.541-1.487,1.082-1.353,2.164l0.271,2.569
	c0.135,0.946,0.812,1.624,1.894,1.624h32.725c1.082,0,1.895-0.677,2.029-1.624l0.541-2.704c0.135-0.947-0.135-1.624-1.219-2.165
	c-6.76-3.245-13.252-9.06-19.336-15.144l-16.363-16.228l3.11-2.975c8.655-8.114,15.011-11.36,23.8-14.334
	c1.083-0.405,1.486-1.216,1.353-2.163l-0.27-2.705c-0.136-0.948-0.812-1.624-1.894-1.624h-28.805c-1.082,0-1.758,0.676-1.893,1.624
	l-0.271,2.705c-0.134,1.082,0.271,1.758,1.352,2.163c3.517,1.352,4.869,5.274,1.083,9.061L385.683-66.834L385.683-66.834z
	 M454.783-67.376c-3.11-11.223,1.08-22.041,11.494-22.041c7.032,0,10.548,5.814,9.33,12.577L454.783-67.376L454.783-67.376z
	 M470.333-31.811c14.47-0.135,23.396-10.007,27.046-18.796c0.406-0.812,0.27-1.893-0.541-2.569l-1.893-1.352
	c-1.082-0.677-2.163-0.271-2.84,0.54c-3.922,4.734-10.006,7.843-16.092,7.978c-10.549,0.271-17.445-5.679-20.285-14.604
	l34.889-13.252c0.812-0.27,1.354-0.947,1.354-2.028v-1.894c0-0.811-0.136-1.623-0.271-2.164c-2.163-8.655-8.518-17.58-21.771-17.58
	c-17.85,0-30.426,14.47-30.426,33.131C439.502-46.957,451.943-31.676,470.333-31.811L470.333-31.811z"/>
</svg>
