<?xml version="1.0" encoding="UTF-8"?>
<svg id="KPF_logo" aria-hidden="true" focusable="false" version="1.1" viewBox="35.8 43.1 156.6 58" xmlns="http://www.w3.org/2000/svg">
 <g id="main" fill="#2f4455" stroke-width="1.3333">
  <path id="lt_P" d="m127.22 68.746c-1.4666 1.8666-4.3999 2.6666-8.7998 2.6666h-3.9999v-25.999h3.9999c4.3999 0 7.3332 0.79998 8.7998 2.2666 1.6 1.6 2.3999 5.0665 2.3999 10.266 0 5.3332-0.79998 8.9331-2.2666 10.8m5.7332-24.266c-3.1999-0.93331-7.1998-1.3333-12-1.3333h-26.666v2.2666h6.5332v53.332h-9.3331l-23.999-34.399 17.2-18.933h6.1332v-2.2666h-17.2v2.2666h7.3332l-24.533 26.666 18.933 26.666h-6.2665v2.2666h51.599v-2.2666h-6.6665v-25.066h5.5999c15.866 0 23.866-5.1999 23.866-15.733 0-3.4666-1.0666-6.3998-3.3332-8.9331-1.8666-2.1333-4.5332-3.5999-7.5998-4.3999"/>
  <path id="K_horiz" d="m55.989 45.47h6.6665v-2.2666h-26.799v2.2666h6.5332v53.332h-6.5332v2.2666h26.799v-2.2666h-6.6665z"/>
  <path id="F" d="m191.1 43.22h-44.532v2.2666h6.5332v53.332h-6.5332v2.2666h26.799v-2.2666h-6.6665v-25.866h4.3999c3.7332 0 6.2665 0.93331 7.5998 2.6666 1.2 1.6 1.7333 4.5332 1.7333 8.7998h1.8666v-24.399h-1.8666c0 3.9999-0.53332 6.7998-1.7333 8.1331-1.3333 1.6-3.8666 2.5333-7.5998 2.5333h-4.2666v-25.199h5.4665c6.2665 0 10.666 1.4666 13.466 4.3999 1.7333 1.8666 3.3332 5.1999 4.6666 10.266h1.8666z"/>
 </g>
</svg>
