<?xml version="1.0" encoding="UTF-8"?>
<svg width="1572px" height="209px" version="1.0" viewBox="0 0 15720 2090" xmlns="http://www.w3.org/2000/svg">
<g>
<path d="m2025 2075c-249-54-443-227-526-467-75-218-53-477 56-675 52-94 188-227 280-275 127-66 201-83 360-83 119 0 152 4 215 23 192 60 334 182 427 366 52 104 74 200 80 359l6 137h-543-542l7 28c23 93 101 184 202 234 53 26 80 32 148 36 127 7 182-14 271-103 39-38 77-80 85-92l14-21 152 72c84 40 155 75 159 78 10 11-79 140-135 196-95 95-206 156-338 186-87 19-291 20-378 1zm505-921c0-32-55-126-96-164-53-49-104-75-178-90-165-34-340 71-406 245l-10 25h345c306 0 345-2 345-16z"/>
<path d="m8436 2075c-147-37-300-157-364-285-18-35-32-71-32-81 0-12 42-39 142-91 79-40 148-74 155-76s23 19 37 46c51 100 124 158 212 168 130 16 222-63 184-156-18-42-56-62-220-115-163-53-259-99-324-156-115-101-161-259-121-412 21-81 50-132 107-194 94-99 197-142 358-150 187-9 322 40 446 162 61 60 124 153 124 184 0 7-291 171-304 171-2 0-18-24-34-53-32-57-88-112-131-128-14-6-47-11-73-10-111 0-173 83-117 155 28 36 57 49 228 108 80 27 173 64 205 81 88 47 160 118 198 194 44 89 51 216 19 322-41 133-157 249-302 301-83 29-301 38-393 15z"/>
<path d="m9905 2072c-201-60-368-230-419-428-20-78-21-232-1-307 32-125 109-237 224-328 36-29 67-54 69-55s-20-31-48-66c-162-201-181-449-49-647 244-366 804-298 951 116 25 72 35 208 19 284-26 124-111 245-234 334l-55 40 131 133 132 132 202-202c128-128 206-199 212-193 5 6 34 93 65 195l56 184-137 138-138 138 260 260 260 260h-255-255l-132-132-132-132-85 82c-166 159-261 202-456 208-99 3-138 0-185-14zm261-358c21-9 76-53 122-97l83-81-162-162-162-163-46 32c-124 85-171 152-171 247s57 181 145 221c50 23 140 24 191 3zm-21-991c124-83 161-134 152-209-9-79-91-153-171-154-41 0-108 34-133 69-50 67-49 140 4 210 39 50 94 111 102 111 3 0 24-12 46-27z"/>
<path d="m0 1029v-1030l418 3c391 4 422 5 497 26 245 67 403 215 460 432 24 88 24 272 1 359-59 220-222 371-466 431-68 17-128 23-302 27l-218 6v388 389h-195-195v-1031zm825-134c70-26 148-105 163-167 29-114 8-203-62-274-78-77-113-87-343-92l-193-4v282 282l193-4c154-4 202-8 242-23z"/>
<path d="m3150 1330v-730h190 190v83 82l25-32c36-45 135-108 207-132 61-19 131-27 211-23l37 2v193 192h-107c-98 0-113 3-158 27-102 53-183 176-204 308-6 36-11 221-11 413v347h-190-190v-730z"/>
<path d="m4290 1030v-1030h190 190v548 547l241-247 241-248h239c131 0 239 3 239 7 0 5-141 150-314 323l-314 315 333 400c184 220 334 403 334 408 1 4-106 6-236 5l-237-3-238-295c-131-162-243-297-248-298-6-2-17 2-25 8-13 10-15 60-15 301v289h-190-190v-1030z"/>
<path d="m5830 1330v-730h195 195v730 730h-195-195v-730z"/>
<path d="m6500 1330v-730h190 190v66 66l36-31c96-85 191-121 335-128 250-13 437 85 532 279 65 133 67 159 67 712v496h-190-190v-439c0-404-2-444-19-500-38-124-112-181-241-189-126-7-208 32-269 126-58 90-61 123-61 584v418h-190-190v-730z"/>
<path d="m11816 1978c-169-559-586-1957-586-1966s55-12 204-12h204l39 143c22 78 105 377 184 664s146 517 150 510c3-7 89-306 189-664l184-653h161 161l184 660c102 363 187 660 190 660s86-293 185-650c99-358 183-655 186-661s83-8 206-7l200 3-307 1025-307 1025-164 3-164 2-185-665c-102-366-187-665-191-665-3 0-88 298-190 663l-184 662-162 3-162 2-25-82z"/>
<path d="m14020 1330v-730h190 190v730 730h-190-190v-730z"/>
<path d="m14680 1030v-1030h190 190v1030 1030h-190-190v-1030z"/>
<path d="m15340 1030v-1030h190 190v1030 1030h-190-190v-1030z"/>
<path d="m5945 449c-84-24-145-116-145-218 0-131 82-218 215-228 199-15 318 225 187 377-20 24-54 51-76 61-44 20-129 24-181 8z"/>
<path d="m14115 441c-51-23-111-89-124-138-26-92-7-168 57-232 93-92 224-96 318-9 82 76 98 197 38 294-57 92-189 131-289 85z"/>
</g>
</svg>
