<?xml version="1.0" encoding="UTF-8" standalone="no"?>
<svg xmlns="http://www.w3.org/2000/svg" xml:space="preserve" width="107.24975" height="13.895">
  <path d="M28.75350025 12.66337475h2.99v-3.335h2.72375c3.02125 0 4.8975-1.565 4.8975-4.08125v-.03375c0-2.455-1.81375-3.98-4.73125-3.98h-5.88v11.43zm5.64625-5.625h-2.65625v-3.33125h2.64c1.265 0 1.99125.60375 1.99125 1.6575v.0325c0 .99625-.775 1.64125-1.975 1.64125m-33.39975 5.625h2.99v-3.335h2.72375c3.02125 0 4.8975-1.565 4.8975-4.08125v-.03375c0-2.455-1.8125-3.98-4.73125-3.98h-5.88v11.43zm5.6475-5.625h-2.6575v-3.33125h2.64c1.26625 0 1.99125.60375 1.99125 1.6575v.0325c0 .99625-.775 1.64125-1.97375 1.64125m13.391125-6.038375c-3.46625 0-6.18125 2.6125-6.18125 5.9475v.03375c0 3.31625 2.7 5.91375 6.14875 5.91375 3.46625 0 6.1825-2.61125 6.1825-5.9475v-.0325c0-3.3175-2.7025-5.915-6.15-5.915m0 9.2225c-1.7425 0-3.1075-1.43875-3.1075-3.275v-.0325c0-1.8475 1.32125-3.24125 3.075-3.24125 1.75125 0 3.12375 1.43875 3.12375 3.27375v.03375c0 1.8475-1.33 3.24125-3.09125 3.24125m21.89575-8.98925v6.43125c0 3.41125 1.82625 5.215 5.2825 5.215 3.4975 0 5.3475-1.8325 5.3475-5.29875v-6.3475h-3.04125v6.44875c0 1.6275-.80625 2.5225-2.27375 2.5225-1.44375 0-2.27375-.94875-2.27375-2.60625v-6.365h-3.04125zm13.674125 11.430125h8.64375v-2.59125h-5.65375v-8.83875h-2.99v11.43zm16.046875-11.663375c-3.4675 0-6.1825 2.6125-6.1825 5.9475v.03375c0 3.31625 2.70125 5.91375 6.14875 5.91375 3.4675 0 6.1825-2.61125 6.1825-5.9475v-.0325c0-3.3175-2.70125-5.915-6.14875-5.915m0 9.2225c-1.74375 0-3.10875-1.43875-3.10875-3.275v-.0325c0-1.8475 1.3225-3.24125 3.075-3.24125s3.125 1.43875 3.125 3.27375v.03375c0 1.8475-1.32875 3.24125-3.09125 3.24125m8.47-8.98925v6.43125c0 3.41125 1.82625 5.215 5.28125 5.215 3.4975 0 5.3475-1.8325 5.3475-5.29875v-6.3475h-3.04v6.44875c0 1.6275-.80875 2.5225-2.275 2.5225-1.445 0-2.27375-.94875-2.27375-2.60625v-6.365h-3.04zm12.93975 8.253875c.47125 3.005 3.905 3.33 5.36875 3.33 1.635 0 5.44125-.36375 5.44125-3.735 0-2.01875-1.82625-2.755-3.61125-3.2075-.3925-.0975-.78375-.185-1.1575-.265-1.475-.32-2.63625-.5725-2.63625-1.37125 0-.8175.895-1.1075 1.73125-1.1075.4825 0 1.36625.0775 1.855.59125.20125.2125.31125.47375.325.77625l3.02125-.4775c-.4125-2.19-2.90375-2.97-4.9325-2.97-2.53125 0-5.08375 1.04625-5.08375 3.38125 0 1.99625 1.75375 2.72125 3.6475 3.2075.31875.08.63875.15375.94625.22375 1.5225.34625 2.8125.64 2.8125 1.57375 0 .95875-1.11625 1.3-2.1625 1.3-1.6 0-2.405-.56-2.525-1.76375l-3.04.51375zm10.98962125-7.159375v-.00625c0-.59625.485-1.09625 1.1-1.09625s1.095.49375 1.095 1.09125v.005c0 .5975-.485 1.0975-1.1 1.0975s-1.095-.495-1.095-1.09125m2.0675-.00625v-.005c0-.53625-.415-.97125-.9675-.97125-.55375 0-.97125.44-.97125.97625v.00625c0 .53625.41375.97.96625.97.555 0 .9725-.44.9725-.97625m-1.42125-.615h.5175c.15875 0 .28.04625.36125.1275.06375.06375.09625.1525.09625.255v.005c0 .18875-.1025.30625-.25125.36125l.285.4175h-.3l-.24875-.375h-.2025v.375h-.2575v-1.16625zm.515.57c.13 0 .2-.07.2-.16625v-.00625c0-.11125-.07875-.17-.20625-.17h-.25125v.3425h.2575z"/>
</svg>