<?xml version="1.0" encoding="utf-8"?>
<!-- Generator: Adobe Illustrator 16.0.0, SVG Export Plug-In . SVG Version: 6.00 Build 0)  -->
<!DOCTYPE svg PUBLIC "-//W3C//DTD SVG 1.1//EN" "http://www.w3.org/Graphics/SVG/1.1/DTD/svg11.dtd">
<svg version="1.1" id="Layer_1" xmlns="http://www.w3.org/2000/svg" xmlns:xlink="http://www.w3.org/1999/xlink" x="0px" y="0px"
	 width="556px" height="1015.775px" viewBox="0 0 556 1015.775" enable-background="new 0 0 556 1015.775" xml:space="preserve">
<g id="Refuel_x5F_vertical_x5F_logo_1_">
	<path d="M178.618,256.95H135.24v83.018H85.103V108.887h105.378c51.83,0,82.66,29.47,82.66,73.869
		c0,32.187-15.914,56.574-44.036,67.426l51.164,89.787h-58.962L178.618,256.95z M135.24,209.499h55.913
		c20.323,0,31.515-10.153,31.515-26.743c0-16.254-11.192-26.444-31.515-26.444H135.24V209.499z"/>
	<polygon points="314.902,108.893 314.902,339.973 478.896,339.973 478.896,292.521 365.029,292.521 365.029,247.791 
		466.354,247.791 466.354,200.38 365.029,200.38 365.029,156.308 475.844,156.308 475.844,108.893 	"/>
	<polygon points="85.103,398.276 85.103,629.361 135.24,629.361 135.24,541.962 234.531,541.962 234.531,494.509 135.24,494.509 
		135.24,445.729 244.021,445.729 244.021,398.276 	"/>
	<path d="M286.107,542.293V398.276h50.139v142.646c0,31.864,20.324,45.402,46.422,45.402c25.73,0,46.072-13.538,46.072-45.402
		V398.276h50.139v144.017c0,57.605-38.957,91.483-96.211,91.483C325.404,633.776,286.107,599.898,286.107,542.293"/>
	<polygon points="85.103,677.807 85.103,908.888 249.107,908.888 249.107,861.472 135.24,861.472 135.24,816.743 236.563,816.743 
		236.563,769.29 135.24,769.29 135.24,725.26 246.054,725.26 246.054,677.807 	"/>
	<polygon points="286.107,677.807 286.107,908.888 445.33,908.888 445.33,861.472 336.227,861.472 336.227,677.807 	"/>
</g>
</svg>
