<?xml version="1.0" encoding="UTF-8" standalone="no"?>
<!-- Created with Inkscape (http://www.inkscape.org/) -->

<svg
   xmlns:dc="http://purl.org/dc/elements/1.1/"
   xmlns:cc="http://creativecommons.org/ns#"
   xmlns:rdf="http://www.w3.org/1999/02/22-rdf-syntax-ns#"
   xmlns:svg="http://www.w3.org/2000/svg"
   xmlns="http://www.w3.org/2000/svg"
   xmlns:sodipodi="http://sodipodi.sourceforge.net/DTD/sodipodi-0.dtd"
   xmlns:inkscape="http://www.inkscape.org/namespaces/inkscape"
   width="120.99985"
   height="36.878681"
   viewBox="0 0 32.014543 9.7574842"
   version="1.1"
   id="svg8728"
   inkscape:version="0.92.0 r15299"
   sodipodi:docname="rs n h.svg">
  <defs
     id="defs8722">
    <clipPath
       id="clipPath8461"
       clipPathUnits="userSpaceOnUse">
      <path
         inkscape:connector-curvature="0"
         id="path8459"
         d="M 0,0 H 450 V 720 H 0 Z" />
    </clipPath>
  </defs>
  <sodipodi:namedview
     id="base"
     pagecolor="#ffffff"
     bordercolor="#666666"
     borderopacity="1.0"
     inkscape:pageopacity="0.0"
     inkscape:pageshadow="2"
     inkscape:zoom="7.4750085"
     inkscape:cx="59.99993"
     inkscape:cy="17.939365"
     inkscape:document-units="mm"
     inkscape:current-layer="layer1"
     showgrid="false"
     fit-margin-top="0"
     fit-margin-left="0"
     fit-margin-right="0"
     fit-margin-bottom="0"
     units="px"
     inkscape:window-width="1280"
     inkscape:window-height="744"
     inkscape:window-x="-4"
     inkscape:window-y="-4"
     inkscape:window-maximized="1" />
  <metadata
     id="metadata8725">
    <rdf:RDF>
      <cc:Work
         rdf:about="">
        <dc:format>image/svg+xml</dc:format>
        <dc:type
           rdf:resource="http://purl.org/dc/dcmitype/StillImage" />
        <dc:title></dc:title>
      </cc:Work>
    </rdf:RDF>
  </metadata>
  <g
     inkscape:label="Layer 1"
     inkscape:groupmode="layer"
     id="layer1"
     transform="translate(-77.107161,-196.73898)">
    <g
       id="g8803">
      <path
         d="m 80.694558,201.17297 h 1.448153 c 0.810683,0 1.386416,-0.49671 1.386416,-1.26824 0,-0.60148 -0.379588,-0.90205 -1.00718,-0.90205 h -1.438275 l -1.268236,7.19138 h -2.575983 l 1.621366,-9.15282 h 3.896431 c 2.144536,0 3.399719,1.1116 3.399719,2.77177 0,1.65559 -1.141942,2.61408 -2.576336,2.98521 l 1.387475,3.39584 H 82.535 l -1.900061,-4.64715"
         style="fill:#1d5fad;fill-opacity:1;fill-rule:nonzero;stroke:none;stroke-width:0.35277778"
         id="path8465"
         inkscape:connector-curvature="0" />
      <path
         d="m 86.855187,203.33063 c 0.719314,0.48366 1.595261,0.83679 2.432403,0.83679 0.679802,0 1.098197,-0.30057 1.098197,-0.70626 0,-0.50977 -0.667103,-0.64029 -1.516592,-0.92816 -1.124655,-0.36618 -2.379839,-0.889 -2.379839,-2.61514 0,-1.69969 1.372659,-3.04659 3.739445,-3.04659 1.268236,0 2.497666,0.41839 3.399719,0.95462 l -1.150761,1.85667 c -0.784578,-0.43145 -1.529997,-0.6276 -2.262364,-0.6276 -0.640291,0 -1.019527,0.30057 -1.019527,0.69286 0,0.48401 0.627591,0.62759 1.438274,0.889 1.11125,0.36654 2.445103,0.81068 2.445103,2.62855 0,1.73884 -1.268236,3.0988 -3.909483,3.0988 -1.412169,0 -2.86385,-0.60149 -3.687586,-1.25519 z"
         style="fill:#1d5fad;fill-opacity:1;fill-rule:nonzero;stroke:none;stroke-width:0.35277778"
         id="path8469"
         inkscape:connector-curvature="0" />
      <path
         d="m 96.129961,204.08137 c -0.491772,0 -0.815622,-0.23001 -0.815622,-0.64841 0,-0.3556 0.271639,-0.61736 0.585258,-0.78457 0.3556,0.39722 0.74295,0.79516 1.140178,1.1818 -0.292806,0.16757 -0.596195,0.25118 -0.909814,0.25118 m 10.296879,-7.04003 -0.35102,1.98155 -2.95204,1.55857 0.6223,-3.54012 h -2.56258 l -0.89217,5.0359 -1.534939,0.81033 c -0.534105,-0.55104 -1.406524,-1.48661 -1.73743,-1.87078 -0.230011,-0.28258 -0.418394,-0.53375 -0.418394,-0.79516 0,-0.18838 0.125588,-0.36618 0.376766,-0.36618 0.334434,0 0.658636,0.30338 0.899231,0.55421 l 1.391355,-1.05657 c -0.470605,-0.56444 -1.234369,-1.13983 -2.395361,-1.13983 -1.150761,0 -2.290939,0.71156 -2.290939,1.94557 0,0.46003 0.146756,0.89959 0.386998,1.31798 -0.993423,0.40817 -1.683809,1.23437 -1.683809,2.24896 0,1.19239 1.014589,2.08139 2.552347,2.08139 0.733073,0 1.717675,-0.28187 2.484967,-0.69392 l 1.579033,-0.83361 -0.339019,1.91453 h 2.575624 l 0.59937,-3.41242 2.94852,-1.55681 -0.88018,4.96923 h 2.57563 l 1.60831,-9.15282 z"
         style="fill:#1d5fad;fill-opacity:1;fill-rule:nonzero;stroke:none;stroke-width:0.35277778"
         id="path8473"
         inkscape:connector-curvature="0" />
      <path
         d="m 80.694558,201.17297 h 1.448153 c 0.810683,0 1.386416,-0.49671 1.386416,-1.26824 0,-0.60148 -0.379588,-0.90205 -1.00718,-0.90205 h -1.438275 l -1.268236,7.19138 h -2.575983 l 1.621366,-9.15282 h 3.896431 c 2.144536,0 3.399719,1.1116 3.399719,2.77177 0,1.65559 -1.141942,2.61408 -2.576336,2.98521 l 1.387475,3.39584 H 82.535 l -1.900061,-4.64715"
         style="fill:#1d5fad;fill-opacity:1;fill-rule:nonzero;stroke:none;stroke-width:0.35277778"
         id="path8477"
         inkscape:connector-curvature="0" />
      <path
         d="m 86.855187,203.33063 c 0.719314,0.48366 1.595261,0.83679 2.432403,0.83679 0.679802,0 1.098197,-0.30057 1.098197,-0.70626 0,-0.50977 -0.667103,-0.64029 -1.516592,-0.92816 -1.124655,-0.36618 -2.379839,-0.889 -2.379839,-2.61514 0,-1.69969 1.372659,-3.04659 3.739445,-3.04659 1.268236,0 2.497666,0.41839 3.399719,0.95462 l -1.150761,1.85667 c -0.784578,-0.43145 -1.529997,-0.6276 -2.262364,-0.6276 -0.640291,0 -1.019527,0.30057 -1.019527,0.69286 0,0.48401 0.627591,0.62759 1.438274,0.889 1.11125,0.36654 2.445103,0.81068 2.445103,2.62855 0,1.73884 -1.268236,3.0988 -3.909483,3.0988 -1.412169,0 -2.86385,-0.60149 -3.687586,-1.25519 z"
         style="fill:#1d5fad;fill-opacity:1;fill-rule:nonzero;stroke:none;stroke-width:0.35277778"
         id="path8481"
         inkscape:connector-curvature="0" />
      <path
         d="m 96.129961,204.08137 c -0.491772,0 -0.815622,-0.23001 -0.815622,-0.64841 0,-0.3556 0.271639,-0.61736 0.585258,-0.78457 0.3556,0.39722 0.74295,0.79516 1.140178,1.1818 -0.292806,0.16757 -0.596195,0.25118 -0.909814,0.25118 m 10.296879,-7.04003 -0.35102,1.98155 -2.95204,1.55857 0.6223,-3.54012 h -2.56258 l -0.89217,5.0359 -1.534939,0.81033 c -0.534105,-0.55104 -1.406524,-1.48661 -1.73743,-1.87078 -0.230011,-0.28258 -0.418394,-0.53375 -0.418394,-0.79516 0,-0.18838 0.125588,-0.36618 0.376766,-0.36618 0.334434,0 0.658636,0.30338 0.899231,0.55421 l 1.391355,-1.05657 c -0.470605,-0.56444 -1.234369,-1.13983 -2.395361,-1.13983 -1.150761,0 -2.290939,0.71156 -2.290939,1.94557 0,0.46003 0.146756,0.89959 0.386998,1.31798 -0.993423,0.40817 -1.683809,1.23437 -1.683809,2.24896 0,1.19239 1.014589,2.08139 2.552347,2.08139 0.733073,0 1.717675,-0.28187 2.484967,-0.69392 l 1.579033,-0.83361 -0.339019,1.91453 h 2.575624 l 0.59937,-3.41242 2.94852,-1.55681 -0.88018,4.96923 h 2.57563 l 1.60831,-9.15282 z"
         style="fill:#1d5fad;fill-opacity:1;fill-rule:nonzero;stroke:none;stroke-width:0.35277778"
         id="path8485"
         inkscape:connector-curvature="0" />
    </g>
  </g>
</svg>
