<svg xmlns="http://www.w3.org/2000/svg" viewBox="0 0 144 21.9"><path class="cls-1" fill="#222222" d="M13,18.3a7.84,7.84,0,0,1-5.5,1.9A8.44,8.44,0,0,1,2,18.4a6.51,6.51,0,0,1-2-4.6H2.5a4.25,4.25,0,0,0,1.4,3A5.49,5.49,0,0,0,7.6,18a5.18,5.18,0,0,0,3.6-1.1,2.72,2.72,0,0,0,1-2.2c0-1.5-.9-2.7-3.2-3.1l-3-.5C3,10.6.7,9.1,0.7,6A5.57,5.57,0,0,1,2.4,2.2,7.21,7.21,0,0,1,7.4.3a7.31,7.31,0,0,1,5,1.8,5.39,5.39,0,0,1,1.8,4.1H11.7a4.65,4.65,0,0,0-.9-2.4A4.43,4.43,0,0,0,7.4,2.5,4.52,4.52,0,0,0,4,3.8a3.23,3.23,0,0,0-.8,2.1c0,1.7,1.4,2.5,2.9,2.7C7.2,8.8,8.2,9,9.3,9.1c3.2,0.5,5.3,2.4,5.3,5.4A4.81,4.81,0,0,1,13,18.3Z"/><path fill="#222222" class="cls-1" d="M26.5,19.8V11.1c0-2.1-.8-3.3-3-3.3a3.49,3.49,0,0,0-3,2.1,8.28,8.28,0,0,0-.5,3.5v6.4H17.7V6.1h2l0.2,2.1A4.55,4.55,0,0,1,24,5.8c3.1,0,4.7,1.9,4.7,5v9H26.5Z"/><path fill="#222222" class="cls-1" d="M42.2,18.6a5.65,5.65,0,0,1-4.1,1.6,5.87,5.87,0,0,1-2.3-.4l-1,2.1-1.5-.7,1-2.3-0.5-.4a7.46,7.46,0,0,1-2-5.6,7.46,7.46,0,0,1,2-5.6,5.65,5.65,0,0,1,4.1-1.6,4.64,4.64,0,0,1,2.1.4L41,4l1.5,0.7L41.5,7a1,1,0,0,1,.7.4,7.46,7.46,0,0,1,2,5.6C44.1,15.1,43.7,17.1,42.2,18.6ZM38,7.7a3.38,3.38,0,0,0-2.5,1A6.15,6.15,0,0,0,34.2,13a6.34,6.34,0,0,0,1,3.9l4-8.9A2.13,2.13,0,0,0,38,7.7Zm2.6,1.2-4.1,9a3.19,3.19,0,0,0,1.4.3,3.38,3.38,0,0,0,2.5-1,6.15,6.15,0,0,0,1.3-4.3A5.43,5.43,0,0,0,40.6,8.9Z"/><path fill="#222222" class="cls-1" d="M56,19.8V11.1c0-2.1-.8-3.3-3-3.3a3.49,3.49,0,0,0-3,2.1,8.28,8.28,0,0,0-.5,3.5v6.4H47.2V0.2h2.3V7.9a4.73,4.73,0,0,1,4-2.2c3.1,0,4.8,1.9,4.8,5v9H56v0.1Z"/><path fill="#222222" class="cls-1" d="M73.2,13.8H63.5a5.13,5.13,0,0,0,1.3,3.4,3.55,3.55,0,0,0,2.5,1,3.18,3.18,0,0,0,2.5-.9,3.08,3.08,0,0,0,.8-1.5h2.2a5.13,5.13,0,0,1-2.1,3.4,6,6,0,0,1-3.5,1,5.91,5.91,0,0,1-4.6-2.1,8.29,8.29,0,0,1-1.6-5,8,8,0,0,1,1.1-4.4,5.85,5.85,0,0,1,5.2-2.9,5.49,5.49,0,0,1,4.2,1.8,6.74,6.74,0,0,1,1.7,4.8v1.4ZM70,9a3.16,3.16,0,0,0-2.7-1.2c-2.5,0-3.7,2-3.8,4h7.3A5.12,5.12,0,0,0,70,9Z"/><path fill="#222222" class="cls-1" d="M80.7,20c-3,0-3.8-1.9-3.8-3.7V8.1H74.7v-2h2.2V2.6l2.3-.5v4h3.2v2H79.2V16A1.62,1.62,0,0,0,81,17.9a13.3,13.3,0,0,0,1.7-.1v2A5,5,0,0,1,80.7,20Z"/><path fill="#222222" class="cls-1" d="M90.3,20c-3,0-3.8-1.9-3.8-3.7V8.1H84.3v-2h2.2V2.6l2.3-.5v4H92v2H88.8V16a1.62,1.62,0,0,0,1.8,1.9,13.3,13.3,0,0,0,1.7-.1v2A4.75,4.75,0,0,1,90.3,20Z"/><path fill="#222222" class="cls-1" d="M105.2,20a2,2,0,0,1-2-2.1h-0.1a5,5,0,0,1-4.4,2.3c-3.1,0-4.7-2.1-4.7-4.2,0-1.8,1.1-4.1,4.9-4.3l4.2-.2v-1a2.83,2.83,0,0,0-.7-2.1,3.3,3.3,0,0,0-2.3-.7,3.89,3.89,0,0,0-2.5.8,2.41,2.41,0,0,0-.7,1.7H94.7a4.25,4.25,0,0,1,1.2-2.9,5.68,5.68,0,0,1,4.2-1.5c2.7,0,4.2,1.1,4.8,2.6a4.64,4.64,0,0,1,.4,2.1v6.6a0.73,0.73,0,0,0,.8.9,3.54,3.54,0,0,0,.6-0.1v1.7A1.91,1.91,0,0,1,105.2,20Zm-2.1-6.8-3.7.2c-1.4.1-3,.7-3,2.5a2.4,2.4,0,0,0,2.7,2.4,3.93,3.93,0,0,0,2.8-1.1,4.47,4.47,0,0,0,1.2-3.1V13.2Z"/><path fill="#222222" d="M144,20.2H126.4V18.4h15.3L138,2.9,113.8,17.5,121.2,0l4.2,4.5,1.5-4.4L132,4.4l7.2-4.3ZM121.8,3.3L117.6,13l8.5-5.1Zm6-.1-1.6,4.7,4.1-2.5Z"/></svg>