<svg xmlns="http://www.w3.org/2000/svg" width="653" height="153" viewBox="0 0 162 38"><path fill="#b41d23" fill-rule="evenodd" d="M162.001 22.277v13.009c-4.611 1.547-9.575 2.708-15.077 2.708-11.005 0-19.663-7.012-19.663-17.41 0-9.141 7.17-17.072 20.307-17.072 4.659 0 9.916 1.111 13.385 2.854l-1.332 3.896s-5.116-4.67-11.952-4.67c-7.241 0-13.635 4.885-13.635 14.896 0 10.154 6.892 15.33 14.178 15.33.695 0 4.487 0 7.412-1.836V22.277h6.377zM108.484 6.946v30.408h-6.523V6.946H89.612l1.236-3.047h29.985l-1.235 3.047h-11.114zm-41.335 3.337L56.341 37.354h-4.214L68.506.035l16.796 37.319h-6.799L67.149 10.283zm-35.575 27.07l-8.357-24.858-8.618 24.858h-3.701L-.009 3.898h6.607l7.743 25.741L22.83 3.898h3.363l8.546 25.78 8.626-25.78h4.027L34.987 37.353h-3.413z"></path></svg>