<?xml version="1.0" encoding="UTF-8" standalone="no"?>
<!-- Created with Inkscape (http://www.inkscape.org/) -->

<svg
   xmlns:dc="http://purl.org/dc/elements/1.1/"
   xmlns:cc="http://creativecommons.org/ns#"
   xmlns:rdf="http://www.w3.org/1999/02/22-rdf-syntax-ns#"
   xmlns:svg="http://www.w3.org/2000/svg"
   xmlns="http://www.w3.org/2000/svg"
   xmlns:sodipodi="http://sodipodi.sourceforge.net/DTD/sodipodi-0.dtd"
   xmlns:inkscape="http://www.inkscape.org/namespaces/inkscape"
   id="svg2"
   version="1.1"
   inkscape:version="0.48.5 r10040"
   width="150.07237"
   height="71.644623"
   xml:space="preserve"
   sodipodi:docname="DRProposal3007605AgendaID2358.pdf"><metadata
     id="metadata8"><rdf:RDF><cc:Work
         rdf:about=""><dc:format>image/svg+xml</dc:format><dc:type
           rdf:resource="http://purl.org/dc/dcmitype/StillImage" /><dc:title></dc:title></cc:Work></rdf:RDF></metadata><defs
     id="defs6"><clipPath
       clipPathUnits="userSpaceOnUse"
       id="clipPath16"><path
         d="m 193.001,507.602 1005.117,0 0,-374.605 -1005.117,0 0,374.605 z"
         id="path18"
         inkscape:connector-curvature="0" /></clipPath><clipPath
       clipPathUnits="userSpaceOnUse"
       id="clipPath34"><path
         d="m 0,0 1224,0 0,792 L 0,792 0,0 z"
         id="path36"
         inkscape:connector-curvature="0" /></clipPath><clipPath
       clipPathUnits="userSpaceOnUse"
       id="clipPath46"><path
         d="m 121.026,507.799 213.085,0 0,-374.947 -213.085,0 0,374.947 z"
         id="path48"
         inkscape:connector-curvature="0" /></clipPath><clipPath
       clipPathUnits="userSpaceOnUse"
       id="clipPath60"><path
         d="m 0,0 1224,0 0,792 L 0,792 0,0 z"
         id="path62"
         inkscape:connector-curvature="0" /></clipPath><clipPath
       clipPathUnits="userSpaceOnUse"
       id="clipPath88"><path
         d="m 0,0 1224,0 0,792 L 0,792 0,0 z"
         id="path90"
         inkscape:connector-curvature="0" /></clipPath><clipPath
       clipPathUnits="userSpaceOnUse"
       id="clipPath104"><path
         d="m 0,0 1224,0 0,792 L 0,792 0,0 z"
         id="path106"
         inkscape:connector-curvature="0" /></clipPath><clipPath
       clipPathUnits="userSpaceOnUse"
       id="clipPath124"><path
         d="m 0,0 1224,0 0,792 L 0,792 0,0 z"
         id="path126"
         inkscape:connector-curvature="0" /></clipPath><clipPath
       clipPathUnits="userSpaceOnUse"
       id="clipPath140"><path
         d="m 0,0 1224,0 0,792 L 0,792 0,0 z"
         id="path142"
         inkscape:connector-curvature="0" /></clipPath><clipPath
       clipPathUnits="userSpaceOnUse"
       id="clipPath164"><path
         d="m 367.364,351.452 149.785,0 0,37.548 -149.785,0 0,-37.548 z"
         id="path166"
         inkscape:connector-curvature="0" /></clipPath><clipPath
       clipPathUnits="userSpaceOnUse"
       id="clipPath248"><path
         d="m 0,0 1224,0 0,792 L 0,792 0,0 z"
         id="path250"
         inkscape:connector-curvature="0" /></clipPath></defs><sodipodi:namedview
     pagecolor="#ffffff"
     bordercolor="#666666"
     borderopacity="1"
     objecttolerance="10"
     gridtolerance="10"
     guidetolerance="10"
     inkscape:pageopacity="0"
     inkscape:pageshadow="2"
     inkscape:window-width="640"
     inkscape:window-height="480"
     id="namedview4"
     showgrid="false"
     fit-margin-top="5"
     fit-margin-left="5"
     fit-margin-right="5"
     fit-margin-bottom="5"
     inkscape:zoom="2.6970053"
     inkscape:cx="88.546662"
     inkscape:cy="33.571122"
     inkscape:window-x="0"
     inkscape:window-y="0"
     inkscape:window-maximized="0"
     inkscape:current-layer="g64" /><g
     id="g10"
     inkscape:groupmode="layer"
     inkscape:label="DRProposal3007605AgendaID2358"
     transform="matrix(1.25,0,0,-1.25,-1328.6783,255.1585)"><g
       id="g56"><g
         id="g58"
         clip-path="url(#clipPath60)"><g
           id="g64"
           transform="translate(1224,133)" /><g
           id="g72"
           transform="translate(1104.7076,175.9758)"><path
             d="M 0,0 C 3.086,3.209 6.707,6.646 10.825,10.022 10.414,10.089 10.001,10.155 9.583,10.218 6.956,7.802 3.577,4.392 0,0 m 15.16,15.104 0.482,0.137 c 0,0 -1.346,-1.011 -2.185,-1.684 0.507,-0.089 1.021,-0.179 1.537,-0.271 4.001,2.979 8.39,5.831 13.141,8.334 l -34.564,0 0,-5.159 c 4.319,-0.51 11.4,-1.436 19.644,-2.861 0.359,0.276 1.584,1.226 1.945,1.504 m -3.365,-2.921 c -0.155,-0.133 -0.316,-0.272 -0.48,-0.412 -0.109,-0.098 -0.223,-0.195 -0.335,-0.295 0.425,-0.092 0.853,-0.19 1.288,-0.286 0.12,0.094 0.241,0.189 0.361,0.283 0.181,0.144 0.361,0.285 0.544,0.428 0.109,0.084 0.217,0.166 0.325,0.249 -0.478,0.088 -0.959,0.171 -1.443,0.255 -0.084,-0.073 -0.172,-0.147 -0.26,-0.222 m -1.121,-0.642 c 0.116,0.098 0.232,0.195 0.351,0.293 0.161,0.134 0.327,0.271 0.489,0.404 0.09,0.072 0.175,0.142 0.262,0.215 -0.483,0.083 -0.971,0.165 -1.46,0.245 -4.004,0.655 -8.184,1.206 -12.509,1.611 -0.915,0.085 -1.837,0.166 -2.761,0.235 -0.492,0.038 -0.981,0.073 -1.475,0.108 -0.308,0.022 -0.615,0.042 -0.924,0.061 -0.861,0.056 -1.728,0.103 -2.599,0.145 l 0,-0.415 c 0.811,-0.039 1.999,-0.11 3.523,-0.242 3.827,-0.34 9.762,-1.07 17.103,-2.66 M 30.385,21.62 c 0.042,0.022 0.088,0.048 0.139,0.075 0.159,0.085 0.305,0.16 0.454,0.238 0.804,0.414 2.169,1.083 4.189,1.964 l -0.669,0.254 C 33.864,23.87 33.217,23.572 32.604,23.283 l -10e-4,0 c -0.019,-0.01 -0.038,-0.019 -0.056,-0.028 -1.346,-0.636 -2.522,-1.224 -3.045,-1.488 -0.024,-0.012 -0.051,-0.024 -0.075,-0.037 l 0.001,0 C 29.422,21.727 29.419,21.725 29.414,21.723 29.411,21.721 29.411,21.721 29.405,21.719 29.373,21.704 29.302,21.672 29.202,21.62 28.848,21.449 28.101,21.071 27.033,20.457 24.747,19.145 20.99,16.76 16.474,13.019 16.267,12.845 16.059,12.674 15.85,12.495 c -0.19,-0.161 -0.384,-0.323 -0.577,-0.49 -0.058,-0.049 -0.117,-0.1 -0.176,-0.15 -0.114,-0.097 -0.226,-0.195 -0.339,-0.293 -0.175,-0.153 -0.35,-0.308 -0.529,-0.463 -0.107,-0.097 -0.217,-0.196 -0.325,-0.29 C 13.503,10.453 13.101,10.087 12.693,9.711 7.651,5.066 2.003,-1.112 -3.462,-9.137 -3.595,-9.333 -3.728,-9.526 -3.857,-9.721 l 46.783,0 0,14.2 c -6.64,2.285 -15.908,5.053 -26.831,7.181 0.075,0.064 0.149,0.128 0.225,0.19 0.181,0.157 0.367,0.313 0.549,0.465 0.207,0.175 0.414,0.347 0.62,0.516 8.132,-1.514 17.062,-3.489 25.437,-5.998 l 0,14.787 -12.541,0 z M 35.604,3.987 c -5.163,1.758 -12.561,3.882 -21.907,5.55 0.391,0.357 0.774,0.701 1.158,1.041 C 21.083,9.054 28.119,6.932 35.604,3.987 M 9.191,10.278 c -4.78,0.723 -9.994,1.31 -15.62,1.67 l 0,-18.108 c 2.946,3.748 8.407,10.175 15.62,16.438 m 33.735,-4.479 0,0.611 C 39.858,7.259 35.815,8.263 30.744,9.305 35.285,8.152 39.381,6.943 42.926,5.799"
             style="fill:#f37421;fill-opacity:1;fill-rule:nonzero;stroke:none"
             id="path74"
             inkscape:connector-curvature="0" /></g></g></g><g
       id="g76"
       transform="translate(1066.9426,156.9062)"><path
         d="M 0,0 0.885,0 2.351,-4.089 3.963,0 4.508,0 6.102,-4.096 7.594,0 8.461,0 6.21,-6.033 l -0.195,0 -1.788,4.612 -1.808,-4.612 -0.201,0 L 0,0 z"
         style="fill:#000000;fill-opacity:1;fill-rule:nonzero;stroke:none"
         id="path78"
         inkscape:connector-curvature="0" /></g><g
       id="g80"
       transform="translate(1078.5258,156.9062)"><path
         d="m 0,0 3.606,0 0,-0.763 -2.756,0 0,-1.815 2.676,0 0,-0.772 -2.676,0 0,-1.87 2.843,0 0,-0.77 L 0,-5.99 0,0 z"
         style="fill:#000000;fill-opacity:1;fill-rule:nonzero;stroke:none"
         id="path82"
         inkscape:connector-curvature="0" /></g><g
       id="g84"><g
         id="g86"
         clip-path="url(#clipPath88)"><g
           id="g92"
           transform="translate(1086.1033,156.9062)"><path
             d="m 0,0 1.755,0 c 1.211,0 1.866,-0.579 1.866,-1.561 0,-0.625 -0.289,-1.027 -0.885,-1.246 0.877,-0.21 1.369,-0.781 1.369,-1.553 0,-0.972 -0.754,-1.63 -2.025,-1.63 L 0,-5.99 0,0 z m 1.431,-2.571 c 0.866,0 1.288,0.31 1.288,0.957 0,0.604 -0.343,0.844 -1.053,0.844 l -0.814,0 0,-1.801 0.579,0 z m -0.579,-2.638 1.138,0 c 0.807,0 1.204,0.264 1.204,0.911 0,0.667 -0.438,0.948 -1.343,0.948 l -0.999,0 0,-1.859 z"
             style="fill:#000000;fill-opacity:1;fill-rule:nonzero;stroke:none"
             id="path94"
             inkscape:connector-curvature="0" /></g></g></g><g
       id="g96"
       transform="translate(1093.8119,156.9062)"><path
         d="m 0,0 3.605,0 0,-0.763 -2.754,0 0,-1.815 2.673,0 0,-0.772 -2.673,0 0,-1.87 2.842,0 0,-0.77 L 0,-5.99 0,0 z"
         style="fill:#000000;fill-opacity:1;fill-rule:nonzero;stroke:none"
         id="path98"
         inkscape:connector-curvature="0" /></g><g
       id="g100"><g
         id="g102"
         clip-path="url(#clipPath104)"><g
           id="g108"
           transform="translate(1101.3794,156.9062)"><path
             d="m 0,0 1.755,0 c 1.228,0 1.893,-0.606 1.893,-1.643 0,-0.778 -0.339,-1.244 -1.121,-1.487 0.263,-0.142 0.429,-0.379 0.621,-0.666 l 1.457,-2.194 -1.035,0 -1.027,1.571 c -0.466,0.708 -0.752,1.102 -1.428,1.102 l -0.254,0 0,-2.673 L 0,-5.99 0,0 z m 1.57,-2.597 c 0.797,0 1.194,0.308 1.194,0.939 0,0.677 -0.386,0.93 -1.194,0.93 l -0.709,0 0,-1.869 0.709,0 z"
             style="fill:#000000;fill-opacity:1;fill-rule:nonzero;stroke:none"
             id="path110"
             inkscape:connector-curvature="0" /></g></g></g><g
       id="g112"
       transform="translate(1114.22,156.1247)"><path
         d="m 0,0 -2.201,0 0,0.781 5.252,0 0,-0.781 -2.203,0 0,-5.208 L 0,-5.208 0,0 z"
         style="fill:#000000;fill-opacity:1;fill-rule:nonzero;stroke:none"
         id="path114"
         inkscape:connector-curvature="0" /></g><g
       id="g116"
       transform="translate(1120.6025,156.9062)"><path
         d="m 0,0 0.85,0 0,-2.578 3.458,0 0,2.578 0.85,0 0,-5.99 -0.85,0 0,2.605 -3.458,0 0,-2.605 L 0,-5.99 0,0 z"
         style="fill:#000000;fill-opacity:1;fill-rule:nonzero;stroke:none"
         id="path118"
         inkscape:connector-curvature="0" /></g><g
       id="g120"><g
         id="g122"
         clip-path="url(#clipPath124)"><g
           id="g128"
           transform="translate(1130.2847,156.0985)"><path
             d="M 0,0 C 0.613,0.589 1.403,0.903 2.256,0.903 3.115,0.903 3.922,0.589 4.518,0 5.141,-0.604 5.454,-1.349 5.454,-2.22 5.454,-3.025 5.13,-3.807 4.526,-4.384 3.903,-4.981 3.121,-5.287 2.256,-5.287 c -0.853,0 -1.658,0.323 -2.256,0.903 -0.614,0.595 -0.937,1.367 -0.937,2.218 0,0.806 0.342,1.587 0.937,2.166 m 0.64,-3.807 c 0.423,-0.428 1.009,-0.663 1.616,-0.663 0.62,0 1.183,0.227 1.622,0.663 0.428,0.432 0.666,1.002 0.666,1.616 0,0.613 -0.238,1.166 -0.677,1.612 -0.428,0.439 -0.999,0.676 -1.611,0.676 -0.607,0 -1.178,-0.247 -1.616,-0.676 -0.429,-0.42 -0.668,-0.999 -0.668,-1.612 0,-0.614 0.239,-1.184 0.668,-1.616"
             style="fill:#000000;fill-opacity:1;fill-rule:nonzero;stroke:none"
             id="path130"
             inkscape:connector-curvature="0" /></g></g></g><g
       id="g132"
       transform="translate(1139.3257,156.9062)"><path
         d="M 0,0 0.746,0 2.905,-2.518 5.064,0 l 0.743,0 0,-5.99 -0.833,0 0,4.676 -2.069,-2.413 -2.072,2.413 0,-4.676 L 0,-5.99 0,0 z"
         style="fill:#000000;fill-opacity:1;fill-rule:nonzero;stroke:none"
         id="path134"
         inkscape:connector-curvature="0" /></g><g
       id="g136"><g
         id="g138"
         clip-path="url(#clipPath140)"><g
           id="g144"
           transform="translate(1149.395,156.9062)"><path
             d="m 0,0 1.868,0 c 1.261,0 1.988,-0.649 1.988,-1.71 0,-1.061 -0.727,-1.701 -1.988,-1.701 l -1.019,0 0,-2.579 L 0,-5.99 0,0 z m 1.78,-2.648 c 0.807,0 1.184,0.262 1.184,0.938 0,0.674 -0.377,0.94 -1.184,0.94 l -0.931,0 0,-1.878 0.931,0 z"
             style="fill:#000000;fill-opacity:1;fill-rule:nonzero;stroke:none"
             id="path146"
             inkscape:connector-curvature="0" /></g><g
           id="g148"
           transform="translate(1156.6462,152.5111)"><path
             d="m 0,0 c 0.518,-0.587 0.983,-0.875 1.57,-0.875 0.597,0 0.957,0.298 0.957,0.772 0,0.5 -0.353,0.735 -0.999,1.148 -1.01,0.648 -1.537,1.009 -1.537,1.867 0,0.913 0.709,1.597 1.771,1.597 0.465,0 0.914,-0.142 1.362,-0.412 l 0,-0.975 C 2.631,3.516 2.203,3.726 1.728,3.726 1.177,3.726 0.816,3.422 0.816,3.016 0.816,2.546 1.271,2.291 2,1.835 2.876,1.29 3.393,0.886 3.393,-0.123 3.393,-1.015 2.683,-1.7 1.623,-1.7 0.991,-1.7 0.492,-1.534 0,-1.13 L 0,0 z"
             style="fill:#000000;fill-opacity:1;fill-rule:nonzero;stroke:none"
             id="path150"
             inkscape:connector-curvature="0" /></g><g
           id="g152"
           transform="translate(1164.4174,156.0985)"><path
             d="M 0,0 C 0.613,0.589 1.403,0.903 2.252,0.903 3.114,0.903 3.918,0.589 4.515,0 5.139,-0.604 5.454,-1.349 5.454,-2.22 5.454,-3.025 5.13,-3.807 4.523,-4.384 3.901,-4.981 3.121,-5.287 2.252,-5.287 c -0.849,0 -1.659,0.323 -2.252,0.903 -0.615,0.595 -0.94,1.367 -0.94,2.218 0,0.806 0.343,1.587 0.94,2.166 m 0.64,-3.807 c 0.421,-0.428 1.008,-0.663 1.612,-0.663 0.622,0 1.187,0.227 1.622,0.663 0.431,0.432 0.669,1.002 0.669,1.616 0,0.613 -0.238,1.166 -0.677,1.612 -0.427,0.439 -0.998,0.676 -1.614,0.676 -0.604,0 -1.176,-0.247 -1.612,-0.676 -0.431,-0.42 -0.668,-0.999 -0.668,-1.612 0,-0.614 0.237,-1.184 0.668,-1.616"
             style="fill:#000000;fill-opacity:1;fill-rule:nonzero;stroke:none"
             id="path154"
             inkscape:connector-curvature="0" /></g></g></g><g
       id="g156"
       transform="translate(1173.4585,156.9062)"><path
         d="m 0,0 0.744,0 3.949,-4.647 0,4.647 0.849,0 0,-5.99 -0.764,0 -3.927,4.655 0,-4.655 L 0,-5.99 0,0 z"
         style="fill:#000000;fill-opacity:1;fill-rule:nonzero;stroke:none"
         id="path158"
         inkscape:connector-curvature="0" /></g></g></svg>